# WaveFront *.obj file (generated by Autodesk ATF)

mtllib painting_gun.mtl

g Solido1

v -0.024659 -0.004115 0.000000
v -0.024598 -0.004464 0.155461
v -0.024899 -0.002241 0.000000
v -0.025000 0.000000 0.000000
v -0.025000 0.000000 0.155461
v -0.024589 0.000000 0.158298
v -0.024899 0.002241 0.000000
v -0.024659 0.004115 0.000000
v -0.024598 0.004464 0.155461
v -0.023645 -0.008117 0.000000
v -0.024099 -0.006651 0.000000
v -0.024170 -0.004518 0.158298
v -0.024170 0.004518 0.158298
v -0.024099 0.006651 0.000000
v -0.023645 0.008117 0.000000
v -0.022524 -0.010847 0.000000
v -0.023406 -0.008784 0.155461
v -0.022928 -0.008883 0.158298
v -0.022991 -0.004298 0.160903
v -0.023389 0.000000 0.160903
v -0.022991 0.004298 0.160903
v -0.023406 0.008784 0.155461
v -0.022928 0.008883 0.158298
v -0.022524 0.010847 0.000000
v -0.021987 -0.011899 0.000000
v -0.021810 -0.008449 0.160903
v -0.021500 0.000000 0.163060
v -0.021810 0.008449 0.160903
v -0.021987 0.011899 0.000000
v -0.021461 -0.012822 0.155461
v -0.020906 -0.012944 0.158298
v -0.021087 -0.004194 0.163060
v -0.021087 0.004194 0.163060
v -0.021461 0.012822 0.155461
v -0.020906 0.012944 0.158298
v -0.020225 -0.014695 0.000000
v -0.019886 -0.012313 0.160903
v -0.019863 -0.008228 0.163060
v -0.019611 0.000000 0.165217
v -0.019863 0.008228 0.163060
v -0.019886 0.012313 0.160903
v -0.020225 0.014695 0.000000
v -0.018827 -0.016448 0.155461
v -0.018739 -0.005780 0.165217
v -0.019392 -0.002923 0.165217
v -0.019392 0.002923 0.165217
v -0.018739 0.005780 0.165217
v -0.018827 0.016448 0.155461
v -0.018171 -0.016565 0.158298
v -0.017877 -0.011945 0.163060
v -0.017669 -0.008509 0.165217
v -0.017593 -0.005427 0.167821
v -0.017579 -0.003869 0.170659
v -0.018205 -0.002744 0.167821
v -0.017894 -0.001946 0.198000
v -0.018411 0.000000 0.167821
v -0.018000 0.000000 0.170659
v -0.017732 0.000000 0.199000
v -0.017894 0.001946 0.198000
v -0.018205 0.002744 0.167821
v -0.017579 0.003869 0.170659
v -0.017593 0.005427 0.167821
v -0.017669 0.008509 0.165217
v -0.017877 0.011945 0.163060
v -0.018171 0.016565 0.158298
v -0.016932 -0.018393 0.000000
v -0.017285 -0.015757 0.160903
v -0.016588 -0.007988 0.167821
v -0.017058 -0.005747 0.198000
v -0.017317 -0.003812 0.199000
v -0.016603 -0.003654 0.199732
v -0.017000 0.000000 0.199732
v -0.017317 0.003812 0.199000
v -0.016603 0.003654 0.199732
v -0.017058 0.005747 0.198000
v -0.016588 0.007988 0.167821
v -0.017285 0.015757 0.160903
v -0.016932 0.018393 0.000000
v -0.015587 -0.019546 0.155461
v -0.016203 -0.011047 0.165217
v -0.016336 -0.007558 0.170659
v -0.016093 -0.007445 0.199000
v -0.015599 -0.003560 0.200000
v -0.016000 0.000000 0.200000
v -0.015599 0.003560 0.200000
v -0.016093 0.007445 0.199000
v -0.016336 0.007558 0.170659
v -0.016203 0.011047 0.165217
v -0.015587 0.019546 0.155461
v -0.014818 -0.019622 0.158298
v -0.015203 -0.015203 0.163060
v -0.015212 -0.010371 0.167821
v -0.015423 -0.009280 0.198000
v -0.015429 -0.007138 0.199732
v -0.015429 0.007138 0.199732
v -0.015423 0.009280 0.198000
v -0.015212 0.010371 0.167821
v -0.015203 0.015203 0.163060
v -0.014818 0.019622 0.158298
v -0.013772 -0.020864 0.000000
v -0.014095 -0.018665 0.160903
v -0.014376 -0.013339 0.165217
v -0.014330 -0.010893 0.170659
v -0.014116 -0.010731 0.199000
v -0.013534 -0.010288 0.199732
v -0.014416 -0.006942 0.200000
v -0.014416 0.006942 0.200000
v -0.013534 0.010288 0.199732
v -0.014330 0.010893 0.170659
v -0.014116 0.010731 0.199000
v -0.014376 0.013339 0.165217
v -0.014095 0.018665 0.160903
v -0.013772 0.020864 0.000000
v -0.013496 -0.012523 0.167821
v -0.013068 -0.012379 0.198000
v -0.012509 -0.009976 0.200000
v -0.012509 0.009976 0.200000
v -0.013068 0.012379 0.198000
v -0.013496 0.012523 0.167821
v -0.011847 -0.022015 0.155461
v -0.011945 -0.017877 0.163060
v -0.012227 -0.015332 0.165217
v -0.011653 -0.013719 0.170659
v -0.011653 0.013719 0.170659
v -0.012227 0.015332 0.165217
v -0.011945 0.017877 0.163060
v -0.011847 0.022015 0.155461
v -0.010960 -0.022011 0.158298
v -0.011479 -0.014394 0.167821
v -0.011479 -0.013515 0.199000
v -0.011006 -0.012957 0.199732
v -0.011006 0.012957 0.199732
v -0.011479 0.014394 0.167821
v -0.011479 0.013515 0.199000
v -0.010960 0.022011 0.158298
v -0.010042 -0.022894 0.000000
v -0.010426 -0.020937 0.160903
v -0.009805 -0.016983 0.165217
v -0.010101 -0.014898 0.198000
v -0.009976 -0.012509 0.200000
v -0.009976 0.012509 0.200000
v -0.010101 0.014898 0.198000
v -0.009805 0.016983 0.165217
v -0.010426 0.020937 0.160903
v -0.009826 0.022988 0.000000
v -0.009206 -0.015944 0.167821
v -0.009206 0.015944 0.167821
v -0.007725 -0.023776 0.155461
v -0.008228 -0.019863 0.163060
v -0.008431 -0.015903 0.170659
v -0.008306 -0.015666 0.199000
v -0.007963 -0.015020 0.199732
v -0.007963 0.015020 0.199732
v -0.008431 0.015903 0.170659
v -0.008306 0.015666 0.199000
v -0.008228 0.019863 0.163060
v -0.007725 0.023776 0.155461
v -0.006729 -0.023650 0.158298
v -0.007165 -0.018255 0.165217
v -0.006726 -0.017138 0.167821
v -0.006662 -0.016722 0.198000
v -0.006942 -0.014416 0.200000
v -0.006942 0.014416 0.200000
v -0.006726 0.017138 0.167821
v -0.006662 0.016722 0.198000
v -0.007165 0.018255 0.165217
v -0.006729 0.023650 0.158298
v -0.005563 -0.024373 0.000000
v -0.006401 -0.022496 0.160903
v -0.006401 0.022496 0.160903
v -0.005563 0.024373 0.000000
v -0.004816 -0.017344 0.170659
v -0.004744 -0.017086 0.199000
v -0.004548 -0.016380 0.199732
v -0.004548 0.016380 0.199732
v -0.004816 0.017344 0.170659
v -0.004744 0.017086 0.199000
v -0.004194 -0.021087 0.163060
v -0.004364 -0.019119 0.165217
v -0.004097 -0.017950 0.167821
v -0.003560 -0.015599 0.200000
v -0.003560 0.015599 0.200000
v -0.004097 0.017950 0.167821
v -0.004364 0.019119 0.165217
v -0.004194 0.021087 0.163060
v -0.003356 -0.024774 0.155461
v -0.002912 -0.017763 0.198000
v -0.002912 0.017763 0.198000
v -0.003356 0.024774 0.155461
v -0.002064 -0.024915 0.000000
v -0.002269 -0.024484 0.158298
v -0.002158 -0.023290 0.160903
v -0.002158 0.023290 0.160903
v -0.002269 0.024484 0.158298
v -0.002064 0.024915 0.000000
v -0.001122 -0.024975 0.000000
v -0.001466 -0.019556 0.165217
v -0.001376 -0.018360 0.167821
v -0.000975 -0.017974 0.170659
v -0.000960 -0.017706 0.199000
v -0.000920 -0.016975 0.199732
v -0.000920 0.016975 0.199732
v -0.001376 0.018360 0.167821
v -0.000975 0.017974 0.170659
v -0.000960 0.017706 0.199000
v -0.001466 0.019556 0.165217
v -0.001122 0.024975 0.000000
v 0.000000 -0.021500 0.163060
v 0.000000 -0.016000 0.200000
v 0.000000 0.016000 0.200000
v 0.000000 0.021500 0.163060
v 0.001122 -0.024975 0.155461
v 0.001466 -0.019556 0.165217
v 0.001376 -0.018360 0.167821
v 0.000975 -0.017974 0.198000
v 0.001376 0.018360 0.167821
v 0.000975 0.017974 0.198000
v 0.001466 0.019556 0.165217
v 0.001122 0.024975 0.155461
v 0.002064 -0.024915 0.000000
v 0.002269 -0.024484 0.158298
v 0.002158 -0.023290 0.160903
v 0.002158 0.023290 0.160903
v 0.002269 0.024484 0.158298
v 0.002064 0.024915 0.000000
v 0.003356 -0.024774 0.000000
v 0.002912 -0.017763 0.170659
v 0.002869 -0.017498 0.199000
v 0.002750 -0.016776 0.199732
v 0.002869 0.017498 0.199000
v 0.002750 0.016776 0.199732
v 0.002912 0.017763 0.170659
v 0.003356 0.024774 0.000000
v 0.004194 -0.021087 0.163060
v 0.004364 -0.019119 0.165217
v 0.004097 -0.017950 0.167821
v 0.003560 -0.015599 0.200000
v 0.003560 0.015599 0.200000
v 0.004097 0.017950 0.167821
v 0.004364 0.019119 0.165217
v 0.004194 0.021087 0.163060
v 0.004816 -0.017344 0.198000
v 0.004816 0.017344 0.198000
v 0.006137 -0.024235 0.000000
v 0.005563 -0.024373 0.155461
v 0.006401 -0.022496 0.160903
v 0.006292 -0.015793 0.199732
v 0.006292 0.015793 0.199732
v 0.006401 0.022496 0.160903
v 0.006137 0.024235 0.000000
v 0.005563 0.024373 0.155461
v 0.006729 -0.023650 0.158298
v 0.007165 -0.018255 0.165217
v 0.006726 -0.017138 0.167821
v 0.006662 -0.016722 0.170659
v 0.006563 -0.016473 0.199000
v 0.006942 -0.014416 0.200000
v 0.006942 0.014416 0.200000
v 0.006563 0.016473 0.199000
v 0.006726 0.017138 0.167821
v 0.006662 0.016722 0.170659
v 0.007165 0.018255 0.165217
v 0.006729 0.023650 0.158298
v 0.007725 -0.023776 0.000000
v 0.008228 -0.019863 0.163060
v 0.008431 -0.015903 0.198000
v 0.008431 0.015903 0.198000
v 0.008228 0.019863 0.163060
v 0.007725 0.023776 0.000000
v 0.009206 -0.015944 0.167821
v 0.009206 0.015944 0.167821
v 0.010042 -0.022894 0.000000
v 0.009826 -0.022988 0.155461
v 0.010426 -0.020937 0.160903
v 0.009805 -0.016983 0.165217
v 0.010101 -0.014898 0.170659
v 0.009951 -0.014677 0.199000
v 0.009540 -0.014071 0.199732
v 0.009976 -0.012509 0.200000
v 0.009976 0.012509 0.200000
v 0.009540 0.014071 0.199732
v 0.010101 0.014898 0.170659
v 0.009951 0.014677 0.199000
v 0.009805 0.016983 0.165217
v 0.010426 0.020937 0.160903
v 0.010042 0.022894 0.000000
v 0.009826 0.022988 0.155461
v 0.010960 -0.022011 0.158298
v 0.011479 -0.014394 0.167821
v 0.011479 0.014394 0.167821
v 0.010960 0.022011 0.158298
v 0.011847 -0.022015 0.000000
v 0.011945 -0.017877 0.163060
v 0.012227 -0.015332 0.165217
v 0.011653 -0.013719 0.198000
v 0.012342 -0.011691 0.199732
v 0.012342 0.011691 0.199732
v 0.011653 0.013719 0.198000
v 0.012227 0.015332 0.165217
v 0.011945 0.017877 0.163060
v 0.011847 0.022015 0.000000
v 0.013496 -0.012523 0.167821
v 0.013068 -0.012379 0.170659
v 0.012873 -0.012194 0.199000
v 0.012509 -0.009976 0.200000
v 0.012509 0.009976 0.200000
v 0.013068 0.012379 0.170659
v 0.012873 0.012194 0.199000
v 0.013496 0.012523 0.167821
v 0.013674 -0.020929 0.000000
v 0.013772 -0.020864 0.155461
v 0.014095 -0.018665 0.160903
v 0.014376 -0.013339 0.165217
v 0.014330 -0.010893 0.198000
v 0.014416 -0.006942 0.200000
v 0.014416 0.006942 0.200000
v 0.014330 0.010893 0.198000
v 0.014376 0.013339 0.165217
v 0.014095 0.018665 0.160903
v 0.013674 0.020929 0.000000
v 0.013772 0.020864 0.155461
v 0.014818 -0.019622 0.158298
v 0.015203 -0.015203 0.163060
v 0.015212 -0.010371 0.167821
v 0.015423 -0.009280 0.170659
v 0.015194 -0.009142 0.199000
v 0.014567 -0.008764 0.199732
v 0.015423 0.009280 0.170659
v 0.015194 0.009142 0.199000
v 0.014567 0.008764 0.199732
v 0.015212 0.010371 0.167821
v 0.015203 0.015203 0.163060
v 0.014818 0.019622 0.158298
v 0.015587 -0.019546 0.000000
v 0.016203 -0.011047 0.165217
v 0.016336 -0.007558 0.198000
v 0.016110 -0.005428 0.199732
v 0.015599 -0.003560 0.200000
v 0.016000 0.000000 0.200000
v 0.015599 0.003560 0.200000
v 0.016110 0.005428 0.199732
v 0.016336 0.007558 0.198000
v 0.016203 0.011047 0.165217
v 0.015587 0.019546 0.000000
v 0.016932 -0.018393 0.000000
v 0.017277 -0.018070 0.155461
v 0.017285 -0.015757 0.160903
v 0.016588 -0.007988 0.167821
v 0.017058 -0.005747 0.170659
v 0.016804 -0.005662 0.199000
v 0.016900 -0.001838 0.199732
v 0.016900 0.001838 0.199732
v 0.017058 0.005747 0.170659
v 0.016804 0.005662 0.199000
v 0.016588 0.007988 0.167821
v 0.017285 0.015757 0.160903
v 0.016932 0.018393 0.000000
v 0.017277 0.018070 0.155461
v 0.018171 -0.016565 0.158298
v 0.017877 -0.011945 0.163060
v 0.017669 -0.008509 0.165217
v 0.017593 -0.005427 0.167821
v 0.017579 -0.003869 0.198000
v 0.018205 -0.002744 0.167821
v 0.017894 -0.001946 0.170659
v 0.017628 -0.001917 0.199000
v 0.018411 0.000000 0.167821
v 0.018000 0.000000 0.198000
v 0.017894 0.001946 0.170659
v 0.017628 0.001917 0.199000
v 0.018205 0.002744 0.167821
v 0.017579 0.003869 0.198000
v 0.017593 0.005427 0.167821
v 0.017669 0.008509 0.165217
v 0.017877 0.011945 0.163060
v 0.018171 0.016565 0.158298
v 0.018827 -0.016448 0.000000
v 0.018739 -0.005780 0.165217
v 0.019392 -0.002923 0.165217
v 0.019392 0.002923 0.165217
v 0.018739 0.005780 0.165217
v 0.018827 0.016448 0.000000
v 0.019729 -0.015355 0.000000
v 0.020225 -0.014695 0.155461
v 0.019886 -0.012313 0.160903
v 0.019863 -0.008228 0.163060
v 0.019611 0.000000 0.165217
v 0.019863 0.008228 0.163060
v 0.019886 0.012313 0.160903
v 0.019729 0.015355 0.000000
v 0.020225 0.014695 0.155461
v 0.021461 -0.012822 0.000000
v 0.020906 -0.012944 0.158298
v 0.021087 -0.004194 0.163060
v 0.021087 0.004194 0.163060
v 0.021461 0.012822 0.000000
v 0.020906 0.012944 0.158298
v 0.021987 -0.011899 0.000000
v 0.021810 -0.008449 0.160903
v 0.021500 0.000000 0.163060
v 0.021810 0.008449 0.160903
v 0.021987 0.011899 0.000000
v 0.022524 -0.010847 0.155461
v 0.023406 -0.008784 0.000000
v 0.022928 -0.008883 0.158298
v 0.022991 -0.004298 0.160903
v 0.023389 0.000000 0.160903
v 0.022991 0.004298 0.160903
v 0.023406 0.008784 0.000000
v 0.022928 0.008883 0.158298
v 0.022524 0.010847 0.155461
v 0.023645 -0.008117 0.000000
v 0.024099 -0.006651 0.155461
v 0.024170 -0.004518 0.158298
v 0.024170 0.004518 0.158298
v 0.024099 0.006651 0.155461
v 0.023645 0.008117 0.000000
v 0.024598 -0.004464 0.000000
v 0.024899 -0.002241 0.155461
v 0.025000 0.000000 0.000000
v 0.024589 0.000000 0.158298
v 0.024899 0.002241 0.155461
v 0.024598 0.004464 0.000000
vt -0.000863 0.007566 0.000000
vt -0.000863 0.007093 0.000000
vt -0.000863 0.006620 0.000000
vt -0.000863 0.006147 0.000000
vt -0.000863 0.005674 0.000000
vt -0.000863 0.005202 0.000000
vt -0.000863 0.004729 0.000000
vt -0.000863 0.004256 0.000000
vt -0.000863 0.003783 0.000000
vt -0.000863 0.003310 0.000000
vt -0.000863 0.002837 0.000000
vt -0.000863 0.002364 0.000000
vt -0.000863 0.001891 0.000000
vt -0.000863 0.001419 0.000000
vt -0.000863 0.000946 0.000000
vt -0.000863 0.000473 0.000000
vt -0.000863 0.000000 0.000000
vt -0.000863 -0.000473 0.000000
vt -0.000863 -0.000946 0.000000
vt -0.000863 -0.001419 0.000000
vt -0.000863 -0.001891 0.000000
vt -0.000863 -0.002364 0.000000
vt -0.000863 -0.002837 0.000000
vt -0.000863 -0.003310 0.000000
vt -0.000863 -0.003783 0.000000
vt -0.000863 -0.004256 0.000000
vt -0.000863 -0.004729 0.000000
vt -0.000863 -0.005202 0.000000
vt -0.000863 -0.005674 0.000000
vt -0.000863 -0.006147 0.000000
vt -0.000863 -0.006620 0.000000
vt -0.000863 -0.007093 0.000000
vt 0.000000 -0.007566 0.000000
vt 0.000000 -0.007134 0.000000
vt 0.000000 -0.006701 0.000000
vt 0.000000 -0.006269 0.000000
vt 0.000000 -0.005837 0.000000
vt 0.000000 -0.005404 0.000000
vt 0.000000 -0.004972 0.000000
vt 0.000000 -0.004540 0.000000
vt 0.000000 -0.004107 0.000000
vt 0.000000 -0.003675 0.000000
vt 0.000000 -0.003243 0.000000
vt 0.000000 -0.002810 0.000000
vt 0.000000 -0.002378 0.000000
vt 0.000000 -0.001946 0.000000
vt 0.000000 -0.001513 0.000000
vt 0.000000 -0.001081 0.000000
vt 0.000000 -0.000649 0.000000
vt 0.000000 -0.000216 0.000000
vt 0.000000 0.000216 0.000000
vt 0.000000 0.000649 0.000000
vt 0.000000 0.001081 0.000000
vt 0.000000 0.001513 0.000000
vt 0.000000 0.001946 0.000000
vt 0.000000 0.002378 0.000000
vt 0.000000 0.002810 0.000000
vt 0.000000 0.003243 0.000000
vt 0.000000 0.003675 0.000000
vt 0.000000 0.004107 0.000000
vt 0.000000 0.004540 0.000000
vt 0.000000 0.004972 0.000000
vt 0.000000 0.005404 0.000000
vt 0.000000 0.005837 0.000000
vt 0.000000 0.006269 0.000000
vt 0.000000 0.006701 0.000000
vt 0.000000 0.007134 0.000000
vt -0.000575 -0.007566 0.000000
vt -0.000288 -0.007566 0.000000
vt -0.000575 0.007121 0.000000
vt -0.000288 0.007121 0.000000
vt -0.000575 0.006676 0.000000
vt -0.000288 0.006676 0.000000
vt -0.000575 0.006231 0.000000
vt -0.000288 0.006231 0.000000
vt -0.000575 0.005786 0.000000
vt -0.000288 0.005786 0.000000
vt -0.000575 0.005341 0.000000
vt -0.000288 0.005341 0.000000
vt -0.000575 0.004896 0.000000
vt -0.000288 0.004896 0.000000
vt -0.000575 0.004451 0.000000
vt -0.000288 0.004451 0.000000
vt -0.000575 0.004005 0.000000
vt -0.000288 0.004005 0.000000
vt -0.000575 0.003560 0.000000
vt -0.000288 0.003560 0.000000
vt -0.000575 0.003115 0.000000
vt -0.000288 0.003115 0.000000
vt -0.000575 0.002670 0.000000
vt -0.000288 0.002670 0.000000
vt -0.000575 0.002225 0.000000
vt -0.000288 0.002225 0.000000
vt -0.000575 0.001780 0.000000
vt -0.000288 0.001780 0.000000
vt -0.000575 0.001335 0.000000
vt -0.000288 0.001335 0.000000
vt -0.000575 0.000890 0.000000
vt -0.000288 0.000890 0.000000
vt -0.000575 0.000445 0.000000
vt -0.000288 0.000445 0.000000
vt -0.000575 -0.000445 0.000000
vt -0.000288 -0.000445 0.000000
vt -0.000288 0.000000 0.000000
vt -0.000575 0.000000 0.000000
vt -0.000575 -0.000890 0.000000
vt -0.000288 -0.000890 0.000000
vt -0.000575 -0.001335 0.000000
vt -0.000288 -0.001335 0.000000
vt -0.000575 -0.001780 0.000000
vt -0.000288 -0.001780 0.000000
vt -0.000575 -0.002225 0.000000
vt -0.000288 -0.002225 0.000000
vt -0.000575 -0.002670 0.000000
vt -0.000288 -0.002670 0.000000
vt -0.000575 -0.003115 0.000000
vt -0.000288 -0.003115 0.000000
vt -0.000575 -0.003560 0.000000
vt -0.000288 -0.003560 0.000000
vt -0.000575 -0.004005 0.000000
vt -0.000288 -0.004005 0.000000
vt -0.000575 -0.004451 0.000000
vt -0.000288 -0.004451 0.000000
vt -0.000575 -0.004896 0.000000
vt -0.000288 -0.004896 0.000000
vt -0.000575 -0.005341 0.000000
vt -0.000288 -0.005341 0.000000
vt -0.000575 -0.005786 0.000000
vt -0.000288 -0.005786 0.000000
vt -0.000575 -0.006231 0.000000
vt -0.000288 -0.006231 0.000000
vt -0.000575 -0.006676 0.000000
vt -0.000288 -0.006676 0.000000
vt -0.000575 -0.007121 0.000000
vt -0.000288 -0.007121 0.000000
vt -0.000575 0.007566 0.000000
vt -0.000863 -0.007566 0.000000
vt -0.000863 -0.007566 0.000000
vt 0.000000 -0.007998 0.000000
vt -0.000575 0.007566 0.000000
vt -0.000288 0.007566 0.000000
vt -0.000288 -0.008011 0.000000
vt -0.000566 -0.005655 0.000000
vt -0.000566 -0.005265 0.000000
vt -0.000566 -0.004875 0.000000
vt -0.000566 -0.004485 0.000000
vt -0.000566 -0.004095 0.000000
vt -0.000566 -0.003705 0.000000
vt -0.000566 -0.003315 0.000000
vt -0.000566 -0.002925 0.000000
vt -0.000566 -0.002535 0.000000
vt -0.000566 -0.002145 0.000000
vt -0.000566 -0.001755 0.000000
vt -0.000566 -0.001365 0.000000
vt -0.000566 -0.000975 0.000000
vt -0.000566 -0.000585 0.000000
vt -0.000566 -0.000195 0.000000
vt -0.000566 0.000195 0.000000
vt -0.000566 0.000585 0.000000
vt -0.000566 0.000975 0.000000
vt -0.000566 0.001365 0.000000
vt -0.000566 0.001755 0.000000
vt -0.000566 0.002145 0.000000
vt -0.000566 0.002535 0.000000
vt -0.000566 0.002925 0.000000
vt -0.000566 0.003315 0.000000
vt -0.000566 0.003705 0.000000
vt -0.000566 0.004095 0.000000
vt -0.000566 0.004485 0.000000
vt -0.000566 0.004875 0.000000
vt -0.000566 0.005265 0.000000
vt -0.003300 0.000000 0.000000
vt -0.003300 -0.000390 0.000000
vt -0.003300 -0.000780 0.000000
vt -0.003300 -0.001170 0.000000
vt -0.003300 -0.001560 0.000000
vt -0.003300 -0.001950 0.000000
vt -0.003300 -0.002340 0.000000
vt -0.003300 -0.002730 0.000000
vt -0.003300 -0.003120 0.000000
vt -0.003300 -0.003510 0.000000
vt -0.003300 -0.003900 0.000000
vt -0.003300 -0.004290 0.000000
vt -0.003300 -0.004680 0.000000
vt -0.003300 -0.005070 0.000000
vt -0.003300 0.005850 0.000000
vt -0.003300 0.005460 0.000000
vt -0.003300 0.005070 0.000000
vt -0.003300 0.004680 0.000000
vt -0.003300 0.004290 0.000000
vt -0.003300 0.003900 0.000000
vt -0.003300 0.003510 0.000000
vt -0.003300 0.003120 0.000000
vt -0.003300 0.002730 0.000000
vt -0.003300 0.002340 0.000000
vt -0.003300 0.001950 0.000000
vt -0.003300 0.001560 0.000000
vt -0.003300 0.001170 0.000000
vt -0.003300 0.000780 0.000000
vt -0.003300 0.000390 0.000000
vt -0.003300 -0.005460 0.000000
vt -0.000566 0.005655 0.000000
vt -0.000566 0.005655 0.000000
vt -0.003300 -0.005460 0.000000
vt -0.002500 0.000000 0.000000
vt -0.002466 -0.000411 0.000000
vt -0.002365 -0.000812 0.000000
vt -0.002199 -0.001190 0.000000
vt -0.001973 -0.001536 0.000000
vt -0.001693 -0.001839 0.000000
vt -0.001367 -0.002093 0.000000
vt -0.001004 -0.002289 0.000000
vt -0.000614 -0.002424 0.000000
vt -0.000206 -0.002491 0.000000
vt 0.000206 -0.002491 0.000000
vt 0.000614 -0.002424 0.000000
vt 0.001004 -0.002289 0.000000
vt 0.001367 -0.002093 0.000000
vt 0.001693 -0.001839 0.000000
vt 0.001973 -0.001536 0.000000
vt 0.002199 -0.001190 0.000000
vt 0.002365 -0.000812 0.000000
vt 0.002466 -0.000411 0.000000
vt 0.002500 0.000000 0.000000
vt 0.002466 0.000411 0.000000
vt 0.002365 0.000812 0.000000
vt 0.002199 0.001190 0.000000
vt 0.001973 0.001536 0.000000
vt 0.001693 0.001839 0.000000
vt 0.001367 0.002093 0.000000
vt 0.001004 0.002289 0.000000
vt 0.000614 0.002424 0.000000
vt 0.000206 0.002491 0.000000
vt -0.000206 0.002491 0.000000
vt -0.000614 0.002424 0.000000
vt -0.001004 0.002289 0.000000
vt -0.001367 0.002093 0.000000
vt -0.001693 0.001839 0.000000
vt -0.001973 0.001536 0.000000
vt -0.002199 0.001190 0.000000
vt -0.002365 0.000812 0.000000
vt -0.002466 0.000411 0.000000
vt 0.003142 0.000000 0.000000
vt 0.003142 0.000410 0.000000
vt 0.003142 0.000820 0.000000
vt 0.003142 0.001230 0.000000
vt 0.003142 0.001639 0.000000
vt 0.003142 0.002049 0.000000
vt 0.003142 0.002459 0.000000
vt 0.003142 0.002869 0.000000
vt 0.003142 0.003279 0.000000
vt 0.003142 0.003689 0.000000
vt 0.003142 0.004099 0.000000
vt 0.003142 0.004508 0.000000
vt 0.003142 0.004918 0.000000
vt 0.003142 0.005328 0.000000
vt 0.003142 -0.006148 0.000000
vt 0.003142 -0.005738 0.000000
vt 0.003142 -0.005328 0.000000
vt 0.003142 -0.004918 0.000000
vt 0.003142 -0.004508 0.000000
vt 0.003142 -0.004099 0.000000
vt 0.003142 -0.003689 0.000000
vt 0.003142 -0.003279 0.000000
vt 0.003142 -0.002869 0.000000
vt 0.003142 -0.002459 0.000000
vt 0.003142 -0.002049 0.000000
vt 0.003142 -0.001639 0.000000
vt 0.003142 -0.001230 0.000000
vt 0.003142 -0.000820 0.000000
vt 0.003142 -0.000410 0.000000
vt 0.002278 0.000000 0.000000
vt 0.002278 -0.000371 0.000000
vt 0.002278 -0.000743 0.000000
vt 0.002278 -0.001114 0.000000
vt 0.002278 -0.001486 0.000000
vt 0.002278 -0.001857 0.000000
vt 0.002278 -0.002229 0.000000
vt 0.002278 -0.002600 0.000000
vt 0.002278 -0.002971 0.000000
vt 0.002278 -0.003343 0.000000
vt 0.002278 -0.003714 0.000000
vt 0.002278 -0.004086 0.000000
vt 0.002278 -0.004457 0.000000
vt 0.002278 -0.004829 0.000000
vt 0.002278 -0.005200 0.000000
vt 0.002278 -0.005572 0.000000
vt 0.002278 0.005943 0.000000
vt 0.002278 0.005572 0.000000
vt 0.002278 0.005200 0.000000
vt 0.002278 0.004829 0.000000
vt 0.002278 0.004457 0.000000
vt 0.002278 0.004086 0.000000
vt 0.002278 0.003714 0.000000
vt 0.002278 0.003343 0.000000
vt 0.002278 0.002971 0.000000
vt 0.002278 0.002600 0.000000
vt 0.002278 0.002229 0.000000
vt 0.002278 0.001857 0.000000
vt 0.002278 0.001486 0.000000
vt 0.002278 0.001114 0.000000
vt 0.002278 0.000743 0.000000
vt 0.002278 0.000371 0.000000
vt 0.002854 0.005943 0.000000
vt 0.002566 0.005943 0.000000
vt 0.002854 -0.005660 0.000000
vt 0.002566 -0.004528 0.000000
vt 0.002854 -0.004811 0.000000
vt 0.002566 -0.003396 0.000000
vt 0.002854 -0.003679 0.000000
vt 0.002566 -0.002264 0.000000
vt 0.002854 -0.002830 0.000000
vt 0.002854 -0.001981 0.000000
vt 0.002566 -0.001132 0.000000
vt 0.002854 -0.001132 0.000000
vt 0.002566 0.001415 0.000000
vt 0.002854 0.000849 0.000000
vt 0.002854 0.001698 0.000000
vt 0.002566 0.002547 0.000000
vt 0.002854 0.002547 0.000000
vt 0.002566 0.003679 0.000000
vt 0.002854 0.003396 0.000000
vt 0.002566 0.004811 0.000000
vt 0.002854 0.004528 0.000000
vt 0.002854 0.005377 0.000000
vt 0.002854 0.000283 0.000000
vt 0.002566 0.000283 0.000000
vt 0.002566 0.000000 0.000000
vt 0.002854 0.000000 0.000000
vt 0.002854 0.000566 0.000000
vt 0.002566 0.000566 0.000000
vt 0.002566 0.000849 0.000000
vt 0.002854 0.001415 0.000000
vt 0.002566 0.001132 0.000000
vt 0.002854 0.001132 0.000000
vt 0.002566 0.001698 0.000000
vt 0.002854 0.002264 0.000000
vt 0.002566 0.002264 0.000000
vt 0.002566 0.001981 0.000000
vt 0.002854 0.001981 0.000000
vt 0.002854 0.003113 0.000000
vt 0.002566 0.003113 0.000000
vt 0.002566 0.002830 0.000000
vt 0.002854 0.002830 0.000000
vt 0.002566 0.003396 0.000000
vt 0.002854 0.003962 0.000000
vt 0.002566 0.003962 0.000000
vt 0.002854 0.003679 0.000000
vt 0.002854 0.004245 0.000000
vt 0.002566 0.004245 0.000000
vt 0.002566 0.004528 0.000000
vt 0.002854 0.005094 0.000000
vt 0.002566 0.005094 0.000000
vt 0.002854 0.004811 0.000000
vt 0.002566 0.005377 0.000000
vt 0.002566 0.005660 0.000000
vt 0.002854 0.005660 0.000000
vt 0.002566 -0.005660 0.000000
vt 0.002854 -0.005094 0.000000
vt 0.002566 -0.005094 0.000000
vt 0.002566 -0.005377 0.000000
vt 0.002854 -0.005377 0.000000
vt 0.002566 -0.004811 0.000000
vt 0.002854 -0.004245 0.000000
vt 0.002566 -0.004245 0.000000
vt 0.002854 -0.004528 0.000000
vt 0.002854 -0.003962 0.000000
vt 0.002566 -0.003962 0.000000
vt 0.002566 -0.003679 0.000000
vt 0.002854 -0.003113 0.000000
vt 0.002566 -0.003113 0.000000
vt 0.002854 -0.003396 0.000000
vt 0.002566 -0.002830 0.000000
vt 0.002854 -0.002264 0.000000
vt 0.002566 -0.002547 0.000000
vt 0.002854 -0.002547 0.000000
vt 0.002566 -0.001981 0.000000
vt 0.002854 -0.001415 0.000000
vt 0.002566 -0.001415 0.000000
vt 0.002566 -0.001698 0.000000
vt 0.002854 -0.001698 0.000000
vt 0.002854 -0.000566 0.000000
vt 0.002566 -0.000566 0.000000
vt 0.002566 -0.000849 0.000000
vt 0.002854 -0.000849 0.000000
vt 0.002854 -0.000283 0.000000
vt 0.002566 -0.000283 0.000000
vt 0.003142 0.005738 0.000000
vt 0.003142 0.005738 0.000000
vt 0.003142 0.005738 0.000000
vt 0.002566 0.006226 0.000000
vt 0.002566 0.006226 0.000000
vt 0.002278 -0.005943 0.000000
vt 0.002854 -0.005943 0.000000
vt 0.002854 -0.005943 0.000000
vt 0.002854 -0.005943 0.000000
vt 0.001600 0.000000 0.000000
vt 0.001560 0.000356 0.000000
vt 0.001442 0.000694 0.000000
vt 0.001251 0.000998 0.000000
vt 0.000998 0.001251 0.000000
vt 0.000694 0.001442 0.000000
vt 0.000356 0.001560 0.000000
vt 0.000000 0.001600 0.000000
vt -0.000356 0.001560 0.000000
vt -0.000694 0.001442 0.000000
vt -0.000998 0.001251 0.000000
vt -0.001251 0.000998 0.000000
vt -0.001442 0.000694 0.000000
vt -0.001560 0.000356 0.000000
vt -0.001600 0.000000 0.000000
vt -0.001560 -0.000356 0.000000
vt -0.001442 -0.000694 0.000000
vt -0.001251 -0.000998 0.000000
vt -0.000998 -0.001251 0.000000
vt -0.000694 -0.001442 0.000000
vt -0.000356 -0.001560 0.000000
vt 0.000000 -0.001600 0.000000
vt 0.000356 -0.001560 0.000000
vt 0.000694 -0.001442 0.000000
vt 0.000998 -0.001251 0.000000
vt 0.001251 -0.000998 0.000000
vt 0.001442 -0.000694 0.000000
vt 0.001560 -0.000356 0.000000
vt -0.000000 0.000000 0.000000
vt -0.000000 0.000449 0.000000
vt -0.000000 0.000898 0.000000
vt -0.000000 0.001346 0.000000
vt -0.000000 0.001795 0.000000
vt -0.000000 0.002244 0.000000
vt -0.000000 0.002693 0.000000
vt -0.000000 0.003142 0.000000
vt -0.000000 0.003590 0.000000
vt -0.000000 0.004039 0.000000
vt -0.000000 0.004488 0.000000
vt -0.000000 0.004937 0.000000
vt -0.000000 0.005386 0.000000
vt -0.000000 0.005834 0.000000
vt -0.000000 0.006283 0.000000
vt -0.000000 0.006732 0.000000
vt -0.000000 0.007181 0.000000
vt -0.000000 -0.008078 0.000000
vt -0.000000 -0.007630 0.000000
vt -0.000000 -0.007181 0.000000
vt -0.000000 -0.006732 0.000000
vt -0.000000 -0.006283 0.000000
vt -0.000000 -0.005834 0.000000
vt -0.000000 -0.005386 0.000000
vt -0.000000 -0.004937 0.000000
vt -0.000000 -0.004488 0.000000
vt -0.000000 -0.004039 0.000000
vt -0.000000 -0.003590 0.000000
vt -0.000000 -0.003142 0.000000
vt -0.000000 -0.002693 0.000000
vt -0.000000 -0.002244 0.000000
vt -0.000000 -0.001795 0.000000
vt -0.000000 -0.001346 0.000000
vt -0.000000 -0.000898 0.000000
vt -0.000000 -0.000449 0.000000
vt -0.015546 0.007854 0.000000
vt -0.015546 0.007405 0.000000
vt -0.015546 0.006956 0.000000
vt -0.015546 0.006508 0.000000
vt -0.015546 0.006059 0.000000
vt -0.015546 0.005610 0.000000
vt -0.015546 0.005161 0.000000
vt -0.015546 0.004712 0.000000
vt -0.015546 0.004264 0.000000
vt -0.015546 0.003815 0.000000
vt -0.015546 0.003366 0.000000
vt -0.015546 0.002917 0.000000
vt -0.015546 0.002468 0.000000
vt -0.015546 0.002020 0.000000
vt -0.015546 0.001571 0.000000
vt -0.015546 0.001122 0.000000
vt -0.015546 0.000673 0.000000
vt -0.015546 0.000224 0.000000
vt -0.015546 -0.000224 0.000000
vt -0.015546 -0.000673 0.000000
vt -0.015546 -0.001122 0.000000
vt -0.015546 -0.001571 0.000000
vt -0.015546 -0.002020 0.000000
vt -0.015546 -0.002468 0.000000
vt -0.015546 -0.002917 0.000000
vt -0.015546 -0.003366 0.000000
vt -0.015546 -0.003815 0.000000
vt -0.015546 -0.004264 0.000000
vt -0.015546 -0.004712 0.000000
vt -0.015546 -0.005161 0.000000
vt -0.015546 -0.005610 0.000000
vt -0.015546 -0.006059 0.000000
vt -0.015546 -0.006508 0.000000
vt -0.015546 -0.006956 0.000000
vt -0.015546 -0.007405 0.000000
vt -0.015546 -0.007854 0.000000
vt -0.015546 -0.007854 0.000000
vt -0.000000 0.007630 0.000000
vt -0.000000 0.007630 0.000000
vt -0.000000 0.000000 0.000000
vt -0.000000 0.000377 0.000000
vt -0.000000 0.000755 0.000000
vt -0.000000 0.001132 0.000000
vt -0.000000 0.001509 0.000000
vt -0.000000 0.001886 0.000000
vt -0.000000 0.002264 0.000000
vt -0.000000 0.002641 0.000000
vt -0.000000 0.003018 0.000000
vt -0.000000 0.003396 0.000000
vt -0.000000 0.003773 0.000000
vt -0.000000 0.004150 0.000000
vt -0.000000 0.004528 0.000000
vt -0.000000 0.004905 0.000000
vt -0.000000 -0.005659 0.000000
vt -0.000000 -0.005282 0.000000
vt -0.000000 -0.004905 0.000000
vt -0.000000 -0.004528 0.000000
vt -0.000000 -0.004150 0.000000
vt -0.000000 -0.003773 0.000000
vt -0.000000 -0.003396 0.000000
vt -0.000000 -0.003018 0.000000
vt -0.000000 -0.002641 0.000000
vt -0.000000 -0.002264 0.000000
vt -0.000000 -0.001886 0.000000
vt -0.000000 -0.001509 0.000000
vt -0.000000 -0.001132 0.000000
vt -0.000000 -0.000755 0.000000
vt -0.000000 -0.000377 0.000000
vt -0.000314 0.000000 0.000000
vt -0.000314 -0.000391 0.000000
vt -0.000314 -0.000782 0.000000
vt -0.000314 -0.001172 0.000000
vt -0.000314 -0.001563 0.000000
vt -0.000314 -0.001954 0.000000
vt -0.000314 -0.002345 0.000000
vt -0.000314 -0.002735 0.000000
vt -0.000314 -0.003126 0.000000
vt -0.000314 -0.003517 0.000000
vt -0.000314 -0.003908 0.000000
vt -0.000314 -0.004299 0.000000
vt -0.000314 -0.004689 0.000000
vt -0.000314 -0.005080 0.000000
vt -0.000314 0.005471 0.000000
vt -0.000314 0.005080 0.000000
vt -0.000314 0.004689 0.000000
vt -0.000314 0.004299 0.000000
vt -0.000314 0.003908 0.000000
vt -0.000314 0.003517 0.000000
vt -0.000314 0.003126 0.000000
vt -0.000314 0.002735 0.000000
vt -0.000314 0.002345 0.000000
vt -0.000314 0.001954 0.000000
vt -0.000314 0.001563 0.000000
vt -0.000314 0.001172 0.000000
vt -0.000314 0.000782 0.000000
vt -0.000314 0.000391 0.000000
vt -0.000105 0.005471 0.000000
vt -0.000209 0.005471 0.000000
vt -0.000105 0.000189 0.000000
vt -0.000209 0.000189 0.000000
vt -0.000209 -0.000189 0.000000
vt -0.000105 -0.000189 0.000000
vt -0.000105 0.000566 0.000000
vt -0.000209 0.000566 0.000000
vt -0.000105 0.000943 0.000000
vt -0.000209 0.000943 0.000000
vt -0.000105 0.001321 0.000000
vt -0.000209 0.001321 0.000000
vt -0.000105 0.001698 0.000000
vt -0.000209 0.001698 0.000000
vt -0.000105 0.002075 0.000000
vt -0.000209 0.002075 0.000000
vt -0.000105 0.002452 0.000000
vt -0.000209 0.002452 0.000000
vt -0.000105 0.002830 0.000000
vt -0.000209 0.002830 0.000000
vt -0.000105 0.003207 0.000000
vt -0.000209 0.003207 0.000000
vt -0.000105 0.003584 0.000000
vt -0.000209 0.003584 0.000000
vt -0.000105 0.003962 0.000000
vt -0.000209 0.003962 0.000000
vt -0.000105 0.004339 0.000000
vt -0.000209 0.004339 0.000000
vt -0.000105 0.004716 0.000000
vt -0.000209 0.004716 0.000000
vt -0.000105 0.005094 0.000000
vt -0.000209 0.005094 0.000000
vt -0.000105 -0.005094 0.000000
vt -0.000209 -0.005094 0.000000
vt -0.000105 -0.004716 0.000000
vt -0.000209 -0.004716 0.000000
vt -0.000105 -0.004339 0.000000
vt -0.000209 -0.004339 0.000000
vt -0.000105 -0.003962 0.000000
vt -0.000209 -0.003962 0.000000
vt -0.000105 -0.003584 0.000000
vt -0.000209 -0.003584 0.000000
vt -0.000105 -0.003207 0.000000
vt -0.000209 -0.003207 0.000000
vt -0.000105 -0.002830 0.000000
vt -0.000209 -0.002830 0.000000
vt -0.000105 -0.002452 0.000000
vt -0.000209 -0.002452 0.000000
vt -0.000105 -0.002075 0.000000
vt -0.000209 -0.002075 0.000000
vt -0.000105 -0.001698 0.000000
vt -0.000209 -0.001698 0.000000
vt -0.000105 -0.001321 0.000000
vt -0.000209 -0.001321 0.000000
vt -0.000105 -0.000943 0.000000
vt -0.000209 -0.000943 0.000000
vt -0.000105 -0.000566 0.000000
vt -0.000209 -0.000566 0.000000
vt -0.000105 -0.005471 0.000000
vt -0.000105 -0.005471 0.000000
vt -0.000000 0.005282 0.000000
vt -0.000000 0.005282 0.000000
vt -0.000209 0.005848 0.000000
vt -0.000209 0.005848 0.000000
vt -0.000105 -0.005471 0.000000
vt -0.000314 -0.005471 0.000000
vn -0.065000 0.000000 0.075993
vn -0.063751 0.012681 0.075993
vn -0.060052 0.024874 0.075993
vn -0.054046 0.036112 0.075993
vn -0.045962 0.045962 0.075993
vn -0.036112 0.054046 0.075993
vn -0.024874 0.060052 0.075993
vn -0.012681 0.063751 0.075993
vn 0.000000 0.065000 0.075993
vn 0.012681 0.063751 0.075993
vn 0.024874 0.060052 0.075993
vn 0.036112 0.054046 0.075993
vn 0.045962 0.045962 0.075993
vn 0.054046 0.036112 0.075993
vn 0.060052 0.024874 0.075993
vn 0.063751 0.012681 0.075993
vn 0.065000 0.000000 0.075993
vn 0.063751 -0.012681 0.075993
vn 0.060052 -0.024874 0.075993
vn 0.054046 -0.036112 0.075993
vn 0.045962 -0.045962 0.075993
vn 0.036112 -0.054046 0.075993
vn 0.024874 -0.060052 0.075993
vn 0.012681 -0.063751 0.075993
vn 0.000000 -0.065000 0.075993
vn -0.012681 -0.063751 0.075993
vn -0.024874 -0.060052 0.075993
vn -0.036112 -0.054046 0.075993
vn -0.045962 -0.045962 0.075993
vn -0.054046 -0.036112 0.075993
vn -0.060052 -0.024874 0.075993
vn -0.063751 -0.012681 0.075993
vn -0.100000 0.000000 0.000000
vn -0.098393 -0.017856 0.000000
vn -0.093623 -0.035137 0.000000
vn -0.085845 -0.051290 0.000000
vn -0.075307 -0.065794 0.000000
vn -0.062349 -0.078183 0.000000
vn -0.047387 -0.088060 0.000000
vn -0.030902 -0.095106 0.000000
vn -0.013423 -0.099095 0.000000
vn 0.004486 -0.099899 0.000000
vn 0.022252 -0.097493 0.000000
vn 0.039303 -0.091953 0.000000
vn 0.055090 -0.083457 0.000000
vn 0.069106 -0.072279 0.000000
vn 0.080902 -0.058779 0.000000
vn 0.090097 -0.043388 0.000000
vn 0.096396 -0.026604 0.000000
vn 0.099597 -0.008964 0.000000
vn 0.099597 0.008964 0.000000
vn 0.096396 0.026604 0.000000
vn 0.090097 0.043388 0.000000
vn 0.080902 0.058779 0.000000
vn 0.069106 0.072279 0.000000
vn 0.055090 0.083457 0.000000
vn 0.039303 0.091953 0.000000
vn 0.022252 0.097493 0.000000
vn 0.004486 0.099899 0.000000
vn -0.013423 0.099095 0.000000
vn -0.030902 0.095106 0.000000
vn -0.047387 0.088060 0.000000
vn -0.062349 0.078183 0.000000
vn -0.075307 0.065794 0.000000
vn -0.085845 0.051290 0.000000
vn -0.093623 0.035137 0.000000
vn -0.098393 0.017856 0.000000
vn -0.083893 0.000000 0.054423
vn -0.095889 0.000000 0.028378
vn -0.082465 0.015415 0.054423
vn -0.094256 0.017620 0.028378
vn -0.078228 0.030306 0.054423
vn -0.089414 0.034639 0.028378
vn -0.071328 0.044164 0.054423
vn -0.081526 0.050479 0.028378
vn -0.061998 0.056519 0.054423
vn -0.070863 0.064600 0.028378
vn -0.050557 0.066948 0.054423
vn -0.057786 0.076521 0.028378
vn -0.037395 0.075098 0.054423
vn -0.042741 0.085836 0.028378
vn -0.022959 0.080691 0.054423
vn -0.026241 0.092228 0.028378
vn -0.007741 0.083536 0.054423
vn -0.008848 0.095480 0.028378
vn 0.007741 0.083536 0.054423
vn 0.008848 0.095480 0.028378
vn 0.022959 0.080691 0.054423
vn 0.026241 0.092228 0.028378
vn 0.037395 0.075098 0.054423
vn 0.042741 0.085836 0.028378
vn 0.050557 0.066948 0.054423
vn 0.057786 0.076521 0.028378
vn 0.061998 0.056519 0.054423
vn 0.070863 0.064600 0.028378
vn 0.071328 0.044164 0.054423
vn 0.081526 0.050479 0.028378
vn 0.078228 0.030306 0.054423
vn 0.089414 0.034639 0.028378
vn 0.082465 0.015415 0.054423
vn 0.094256 0.017620 0.028378
vn 0.082465 -0.015415 0.054423
vn 0.094256 -0.017620 0.028378
vn 0.095889 0.000000 0.028378
vn 0.083893 0.000000 0.054423
vn 0.078228 -0.030306 0.054423
vn 0.089414 -0.034639 0.028378
vn 0.071328 -0.044164 0.054423
vn 0.081526 -0.050479 0.028378
vn 0.061998 -0.056519 0.054423
vn 0.070863 -0.064600 0.028378
vn 0.050557 -0.066948 0.054423
vn 0.057786 -0.076521 0.028378
vn 0.037395 -0.075098 0.054423
vn 0.042741 -0.085836 0.028378
vn 0.022959 -0.080691 0.054423
vn 0.026241 -0.092228 0.028378
vn 0.007741 -0.083536 0.054423
vn 0.008848 -0.095480 0.028378
vn -0.007741 -0.083536 0.054423
vn -0.008848 -0.095480 0.028378
vn -0.022959 -0.080691 0.054423
vn -0.026241 -0.092228 0.028378
vn -0.037395 -0.075098 0.054423
vn -0.042741 -0.085836 0.028378
vn -0.050557 -0.066948 0.054423
vn -0.057786 -0.076521 0.028378
vn -0.061998 -0.056519 0.054423
vn -0.070863 -0.064600 0.028378
vn -0.071328 -0.044164 0.054423
vn -0.081526 -0.050479 0.028378
vn -0.078228 -0.030306 0.054423
vn -0.089414 -0.034639 0.028378
vn -0.082465 -0.015415 0.054423
vn -0.094256 -0.017620 0.028378
vn -0.083893 0.000000 0.054423
vn -0.065000 0.000000 0.075993
vn -0.065000 0.000000 0.075993
vn -0.098393 0.017856 0.000000
vn -0.083893 0.000000 0.054423
vn -0.095889 0.000000 0.028378
vn -0.094256 0.017620 0.028378
vn -0.100000 0.000000 0.000000
vn -0.097662 -0.021497 0.000000
vn -0.090758 -0.041989 0.000000
vn -0.079609 -0.060517 0.000000
vn -0.064739 -0.076216 0.000000
vn -0.046841 -0.088351 0.000000
vn -0.026753 -0.096355 0.000000
vn -0.005414 -0.099853 0.000000
vn 0.016178 -0.098683 0.000000
vn 0.037014 -0.092898 0.000000
vn 0.056119 -0.082769 0.000000
vn 0.072600 -0.068770 0.000000
vn 0.085686 -0.051555 0.000000
vn 0.094765 -0.031930 0.000000
vn 0.099414 -0.010812 0.000000
vn 0.099414 0.010812 0.000000
vn 0.094765 0.031930 0.000000
vn 0.085686 0.051555 0.000000
vn 0.072600 0.068770 0.000000
vn 0.056119 0.082769 0.000000
vn 0.037014 0.092898 0.000000
vn 0.016178 0.098683 0.000000
vn -0.005414 0.099853 0.000000
vn -0.026753 0.096355 0.000000
vn -0.046841 0.088351 0.000000
vn -0.064739 0.076216 0.000000
vn -0.079609 0.060517 0.000000
vn -0.090758 0.041989 0.000000
vn -0.097662 0.021497 0.000000
vn 0.100000 0.000000 0.000000
vn 0.097662 -0.021497 0.000000
vn 0.090758 -0.041989 0.000000
vn 0.079609 -0.060517 0.000000
vn 0.064739 -0.076216 0.000000
vn 0.046841 -0.088351 0.000000
vn 0.026753 -0.096355 0.000000
vn 0.005414 -0.099853 0.000000
vn -0.016178 -0.098683 0.000000
vn -0.037014 -0.092898 0.000000
vn -0.056119 -0.082769 0.000000
vn -0.072600 -0.068770 0.000000
vn -0.085686 -0.051555 0.000000
vn -0.094765 -0.031930 0.000000
vn -0.099414 -0.010812 0.000000
vn -0.099414 0.010812 0.000000
vn -0.094765 0.031930 0.000000
vn -0.085686 0.051555 0.000000
vn -0.072600 0.068770 0.000000
vn -0.056119 0.082769 0.000000
vn -0.037014 0.092898 0.000000
vn -0.016178 0.098683 0.000000
vn 0.005414 0.099853 0.000000
vn 0.026753 0.096355 0.000000
vn 0.046841 0.088351 0.000000
vn 0.064739 0.076216 0.000000
vn 0.079609 0.060517 0.000000
vn 0.090758 0.041989 0.000000
vn 0.097662 0.021497 0.000000
vn -0.099414 -0.010812 0.000000
vn -0.100000 0.000000 0.000000
vn -0.100000 0.000000 0.000000
vn -0.099414 -0.010812 0.000000
vn 0.000000 0.000000 -0.100000
vn 0.000000 0.000000 -0.100000
vn 0.000000 0.000000 -0.100000
vn 0.000000 0.000000 -0.100000
vn 0.000000 0.000000 -0.100000
vn 0.000000 0.000000 -0.100000
vn 0.000000 0.000000 -0.100000
vn 0.000000 0.000000 -0.100000
vn 0.000000 0.000000 -0.100000
vn 0.000000 0.000000 -0.100000
vn 0.000000 0.000000 -0.100000
vn 0.000000 0.000000 -0.100000
vn 0.000000 0.000000 -0.100000
vn 0.000000 0.000000 -0.100000
vn 0.000000 0.000000 -0.100000
vn 0.000000 0.000000 -0.100000
vn 0.000000 0.000000 -0.100000
vn 0.000000 0.000000 -0.100000
vn 0.000000 0.000000 -0.100000
vn 0.000000 0.000000 -0.100000
vn 0.000000 0.000000 -0.100000
vn 0.000000 0.000000 -0.100000
vn 0.000000 0.000000 -0.100000
vn 0.000000 0.000000 -0.100000
vn 0.000000 0.000000 -0.100000
vn 0.000000 0.000000 -0.100000
vn 0.000000 0.000000 -0.100000
vn 0.000000 0.000000 -0.100000
vn 0.000000 0.000000 -0.100000
vn 0.000000 0.000000 -0.100000
vn 0.000000 0.000000 -0.100000
vn 0.000000 0.000000 -0.100000
vn 0.000000 0.000000 -0.100000
vn 0.000000 0.000000 -0.100000
vn 0.000000 0.000000 -0.100000
vn 0.000000 0.000000 -0.100000
vn 0.000000 0.000000 -0.100000
vn 0.000000 0.000000 -0.100000
vn -0.100000 0.000000 0.000000
vn -0.097662 0.021497 0.000000
vn -0.090758 0.041989 0.000000
vn -0.079609 0.060517 0.000000
vn -0.064739 0.076216 0.000000
vn -0.046841 0.088351 0.000000
vn -0.026753 0.096355 0.000000
vn -0.005414 0.099853 0.000000
vn 0.016178 0.098683 0.000000
vn 0.037014 0.092898 0.000000
vn 0.056119 0.082769 0.000000
vn 0.072600 0.068770 0.000000
vn 0.085686 0.051555 0.000000
vn 0.094765 0.031930 0.000000
vn 0.099414 0.010812 0.000000
vn 0.099414 -0.010812 0.000000
vn 0.094765 -0.031930 0.000000
vn 0.085686 -0.051555 0.000000
vn 0.072600 -0.068770 0.000000
vn 0.056119 -0.082769 0.000000
vn 0.037014 -0.092898 0.000000
vn 0.016178 -0.098683 0.000000
vn -0.005414 -0.099853 0.000000
vn -0.026753 -0.096355 0.000000
vn -0.046841 -0.088351 0.000000
vn -0.064739 -0.076216 0.000000
vn -0.079609 -0.060517 0.000000
vn -0.090758 -0.041989 0.000000
vn -0.097662 -0.021497 0.000000
vn -0.065000 0.000000 0.075993
vn -0.063751 -0.012681 0.075993
vn -0.060052 -0.024874 0.075993
vn -0.054046 -0.036112 0.075993
vn -0.045962 -0.045962 0.075993
vn -0.036112 -0.054046 0.075993
vn -0.024874 -0.060052 0.075993
vn -0.012681 -0.063751 0.075993
vn 0.000000 -0.065000 0.075993
vn 0.012681 -0.063751 0.075993
vn 0.024874 -0.060052 0.075993
vn 0.036112 -0.054046 0.075993
vn 0.045962 -0.045962 0.075993
vn 0.054046 -0.036112 0.075993
vn 0.060052 -0.024874 0.075993
vn 0.063751 -0.012681 0.075993
vn 0.065000 0.000000 0.075993
vn 0.063751 0.012681 0.075993
vn 0.060052 0.024874 0.075993
vn 0.054046 0.036112 0.075993
vn 0.045962 0.045962 0.075993
vn 0.036112 0.054046 0.075993
vn 0.024874 0.060052 0.075993
vn 0.012681 0.063751 0.075993
vn 0.000000 0.065000 0.075993
vn -0.012681 0.063751 0.075993
vn -0.024874 0.060052 0.075993
vn -0.036112 0.054046 0.075993
vn -0.045962 0.045962 0.075993
vn -0.054046 0.036112 0.075993
vn -0.060052 0.024874 0.075993
vn -0.063751 0.012681 0.075993
vn 0.095889 0.000000 0.028378
vn 0.083893 0.000000 0.054423
vn 0.094818 -0.014291 0.028378
vn 0.061498 -0.057062 0.054423
vn 0.079227 -0.054016 0.028378
vn 0.018668 -0.081790 0.054423
vn 0.035032 -0.089260 0.028378
vn -0.030650 -0.078094 0.054423
vn -0.007166 -0.095621 0.028378
vn -0.047944 -0.083042 0.028378
vn -0.069316 -0.047259 0.054423
vn -0.079227 -0.054016 0.028378
vn -0.061498 0.057062 0.054423
vn -0.086393 0.041605 0.028378
vn -0.059786 0.074969 0.028378
vn -0.018668 0.081790 0.054423
vn -0.021337 0.093485 0.028378
vn 0.030650 0.078094 0.054423
vn 0.021337 0.093485 0.028378
vn 0.069316 0.047259 0.054423
vn 0.070291 0.065221 0.028378
vn 0.091629 0.028264 0.028378
vn -0.094818 0.014291 0.028378
vn -0.082956 0.012504 0.054423
vn -0.083893 0.000000 0.054423
vn -0.095889 0.000000 0.028378
vn -0.091629 0.028264 0.028378
vn -0.080166 0.024728 0.054423
vn -0.075585 0.036400 0.054423
vn -0.070291 0.065221 0.028378
vn -0.069316 0.047259 0.054423
vn -0.079227 0.054016 0.028378
vn -0.052307 0.065591 0.054423
vn -0.035032 0.089260 0.028378
vn -0.030650 0.078094 0.054423
vn -0.041947 0.072654 0.054423
vn -0.047944 0.083042 0.028378
vn 0.007166 0.095621 0.028378
vn 0.006269 0.083659 0.054423
vn -0.006269 0.083659 0.054423
vn -0.007166 0.095621 0.028378
vn 0.018668 0.081790 0.054423
vn 0.047944 0.083042 0.028378
vn 0.041947 0.072654 0.054423
vn 0.035032 0.089260 0.028378
vn 0.059786 0.074969 0.028378
vn 0.052307 0.065591 0.054423
vn 0.061498 0.057062 0.054423
vn 0.086393 0.041605 0.028378
vn 0.075585 0.036400 0.054423
vn 0.079227 0.054016 0.028378
vn 0.080166 0.024728 0.054423
vn 0.082956 0.012504 0.054423
vn 0.094818 0.014291 0.028378
vn 0.082956 -0.012504 0.054423
vn 0.086393 -0.041605 0.028378
vn 0.075585 -0.036400 0.054423
vn 0.080166 -0.024728 0.054423
vn 0.091629 -0.028264 0.028378
vn 0.069316 -0.047259 0.054423
vn 0.059786 -0.074969 0.028378
vn 0.052307 -0.065591 0.054423
vn 0.070291 -0.065221 0.028378
vn 0.047944 -0.083042 0.028378
vn 0.041947 -0.072654 0.054423
vn 0.030650 -0.078094 0.054423
vn 0.007166 -0.095621 0.028378
vn 0.006269 -0.083659 0.054423
vn 0.021337 -0.093485 0.028378
vn -0.006269 -0.083659 0.054423
vn -0.035032 -0.089260 0.028378
vn -0.018668 -0.081790 0.054423
vn -0.021337 -0.093485 0.028378
vn -0.041947 -0.072654 0.054423
vn -0.070291 -0.065221 0.028378
vn -0.061498 -0.057062 0.054423
vn -0.052307 -0.065591 0.054423
vn -0.059786 -0.074969 0.028378
vn -0.091629 -0.028264 0.028378
vn -0.080166 -0.024728 0.054423
vn -0.075585 -0.036400 0.054423
vn -0.086393 -0.041605 0.028378
vn -0.094818 -0.014291 0.028378
vn -0.082956 -0.012504 0.054423
vn 0.099414 0.010812 0.000000
vn 0.099414 0.010812 0.000000
vn 0.099414 0.010812 0.000000
vn 0.082956 -0.012504 0.054423
vn 0.082956 -0.012504 0.054423
vn 0.065000 0.000000 0.075993
vn 0.095889 0.000000 0.028378
vn 0.095889 0.000000 0.028378
vn 0.095889 0.000000 0.028378
vn 0.000000 0.000000 0.100000
vn 0.000000 0.000000 0.100000
vn 0.000000 0.000000 0.100000
vn 0.000000 0.000000 0.100000
vn 0.000000 0.000000 0.100000
vn 0.000000 0.000000 0.100000
vn 0.000000 0.000000 0.100000
vn 0.000000 0.000000 0.100000
vn 0.000000 0.000000 0.100000
vn 0.000000 0.000000 0.100000
vn 0.000000 0.000000 0.100000
vn 0.000000 0.000000 0.100000
vn 0.000000 0.000000 0.100000
vn 0.000000 0.000000 0.100000
vn 0.000000 0.000000 0.100000
vn 0.000000 0.000000 0.100000
vn 0.000000 0.000000 0.100000
vn 0.000000 0.000000 0.100000
vn 0.000000 0.000000 0.100000
vn 0.000000 0.000000 0.100000
vn 0.000000 0.000000 0.100000
vn 0.000000 0.000000 0.100000
vn 0.000000 0.000000 0.100000
vn 0.000000 0.000000 0.100000
vn 0.000000 0.000000 0.100000
vn 0.000000 0.000000 0.100000
vn 0.000000 0.000000 0.100000
vn 0.000000 0.000000 0.100000
vn 0.100000 0.000000 0.000000
vn 0.098393 0.017856 0.000000
vn 0.093623 0.035137 0.000000
vn 0.085845 0.051290 0.000000
vn 0.075307 0.065794 0.000000
vn 0.062349 0.078183 0.000000
vn 0.047387 0.088060 0.000000
vn 0.030902 0.095106 0.000000
vn 0.013423 0.099095 0.000000
vn -0.004486 0.099899 0.000000
vn -0.022252 0.097493 0.000000
vn -0.039303 0.091953 0.000000
vn -0.055090 0.083457 0.000000
vn -0.069106 0.072279 0.000000
vn -0.080902 0.058779 0.000000
vn -0.090097 0.043388 0.000000
vn -0.096396 0.026604 0.000000
vn -0.099597 0.008964 0.000000
vn -0.099597 -0.008964 0.000000
vn -0.096396 -0.026604 0.000000
vn -0.090097 -0.043388 0.000000
vn -0.080902 -0.058779 0.000000
vn -0.069106 -0.072279 0.000000
vn -0.055090 -0.083457 0.000000
vn -0.039303 -0.091953 0.000000
vn -0.022252 -0.097493 0.000000
vn -0.004486 -0.099899 0.000000
vn 0.013423 -0.099095 0.000000
vn 0.030902 -0.095106 0.000000
vn 0.047387 -0.088060 0.000000
vn 0.062349 -0.078183 0.000000
vn 0.075307 -0.065794 0.000000
vn 0.085845 -0.051290 0.000000
vn 0.093623 -0.035137 0.000000
vn 0.098393 -0.017856 0.000000
vn -0.100000 0.000000 0.000000
vn -0.098393 0.017856 0.000000
vn -0.093623 0.035137 0.000000
vn -0.085845 0.051290 0.000000
vn -0.075307 0.065794 0.000000
vn -0.062349 0.078183 0.000000
vn -0.047387 0.088060 0.000000
vn -0.030902 0.095106 0.000000
vn -0.013423 0.099095 0.000000
vn 0.004486 0.099899 0.000000
vn 0.022252 0.097493 0.000000
vn 0.039303 0.091953 0.000000
vn 0.055090 0.083457 0.000000
vn 0.069106 0.072279 0.000000
vn 0.080902 0.058779 0.000000
vn 0.090097 0.043388 0.000000
vn 0.096396 0.026604 0.000000
vn 0.099597 0.008964 0.000000
vn 0.099597 -0.008964 0.000000
vn 0.096396 -0.026604 0.000000
vn 0.090097 -0.043388 0.000000
vn 0.080902 -0.058779 0.000000
vn 0.069106 -0.072279 0.000000
vn 0.055090 -0.083457 0.000000
vn 0.039303 -0.091953 0.000000
vn 0.022252 -0.097493 0.000000
vn 0.004486 -0.099899 0.000000
vn -0.013423 -0.099095 0.000000
vn -0.030902 -0.095106 0.000000
vn -0.047387 -0.088060 0.000000
vn -0.062349 -0.078183 0.000000
vn -0.075307 -0.065794 0.000000
vn -0.085845 -0.051290 0.000000
vn -0.093623 -0.035137 0.000000
vn -0.098393 -0.017856 0.000000
vn -0.100000 0.000000 0.000000
vn -0.100000 0.000000 0.000000
vn -0.099597 0.008964 0.000000
vn -0.099597 0.008964 0.000000
vn 0.100000 0.000000 0.000000
vn 0.097662 0.021497 0.000000
vn 0.090758 0.041989 0.000000
vn 0.079609 0.060517 0.000000
vn 0.064739 0.076216 0.000000
vn 0.046841 0.088351 0.000000
vn 0.026753 0.096355 0.000000
vn 0.005414 0.099853 0.000000
vn -0.016178 0.098683 0.000000
vn -0.037014 0.092898 0.000000
vn -0.056119 0.082769 0.000000
vn -0.072600 0.068770 0.000000
vn -0.085686 0.051555 0.000000
vn -0.094765 0.031930 0.000000
vn -0.099414 0.010812 0.000000
vn -0.099414 -0.010812 0.000000
vn -0.094765 -0.031930 0.000000
vn -0.085686 -0.051555 0.000000
vn -0.072600 -0.068770 0.000000
vn -0.056119 -0.082769 0.000000
vn -0.037014 -0.092898 0.000000
vn -0.016178 -0.098683 0.000000
vn 0.005414 -0.099853 0.000000
vn 0.026753 -0.096355 0.000000
vn 0.046841 -0.088351 0.000000
vn 0.064739 -0.076216 0.000000
vn 0.079609 -0.060517 0.000000
vn 0.090758 -0.041989 0.000000
vn 0.097662 -0.021497 0.000000
vn 0.000000 0.000000 0.100000
vn 0.000000 0.000000 0.100000
vn 0.000000 0.000000 0.100000
vn 0.000000 0.000000 0.100000
vn 0.000000 0.000000 0.100000
vn 0.000000 0.000000 0.100000
vn 0.000000 0.000000 0.100000
vn 0.000000 0.000000 0.100000
vn 0.000000 0.000000 0.100000
vn 0.000000 0.000000 0.100000
vn 0.000000 0.000000 0.100000
vn 0.000000 0.000000 0.100000
vn 0.000000 0.000000 0.100000
vn 0.000000 0.000000 0.100000
vn 0.000000 0.000000 0.100000
vn 0.000000 0.000000 0.100000
vn 0.000000 0.000000 0.100000
vn 0.000000 0.000000 0.100000
vn 0.000000 0.000000 0.100000
vn 0.000000 0.000000 0.100000
vn 0.000000 0.000000 0.100000
vn 0.000000 0.000000 0.100000
vn 0.000000 0.000000 0.100000
vn 0.000000 0.000000 0.100000
vn 0.000000 0.000000 0.100000
vn 0.000000 0.000000 0.100000
vn 0.000000 0.000000 0.100000
vn 0.000000 0.000000 0.100000
vn -0.086603 0.000000 0.050000
vn -0.050000 0.000000 0.086603
vn 0.086095 0.009363 0.050000
vn 0.049707 0.005406 0.086603
vn 0.049707 -0.005406 0.086603
vn 0.086095 -0.009363 0.050000
vn 0.082069 0.027652 0.050000
vn 0.047383 0.015965 0.086603
vn 0.074206 0.044648 0.050000
vn 0.042843 0.025778 0.086603
vn 0.062873 0.059557 0.050000
vn 0.036300 0.034385 0.086603
vn 0.048600 0.071680 0.050000
vn 0.028059 0.041384 0.086603
vn 0.032055 0.080452 0.050000
vn 0.018507 0.046449 0.086603
vn 0.014011 0.085462 0.050000
vn 0.008089 0.049341 0.086603
vn -0.004689 0.086476 0.050000
vn -0.002707 0.049927 0.086603
vn -0.023169 0.083446 0.050000
vn -0.013376 0.048177 0.086603
vn -0.040565 0.076514 0.050000
vn -0.023420 0.044176 0.086603
vn -0.056065 0.066005 0.050000
vn -0.032369 0.038108 0.086603
vn -0.068944 0.052410 0.050000
vn -0.039805 0.030259 0.086603
vn -0.078598 0.036363 0.050000
vn -0.045379 0.020994 0.086603
vn -0.084578 0.018617 0.050000
vn -0.048831 0.010749 0.086603
vn -0.084578 -0.018617 0.050000
vn -0.048831 -0.010749 0.086603
vn -0.078598 -0.036363 0.050000
vn -0.045379 -0.020994 0.086603
vn -0.068944 -0.052410 0.050000
vn -0.039805 -0.030259 0.086603
vn -0.056065 -0.066005 0.050000
vn -0.032369 -0.038108 0.086603
vn -0.040565 -0.076514 0.050000
vn -0.023420 -0.044176 0.086603
vn -0.023169 -0.083446 0.050000
vn -0.013376 -0.048177 0.086603
vn -0.004689 -0.086476 0.050000
vn -0.002707 -0.049927 0.086603
vn 0.014011 -0.085462 0.050000
vn 0.008089 -0.049341 0.086603
vn 0.032055 -0.080452 0.050000
vn 0.018507 -0.046449 0.086603
vn 0.048600 -0.071680 0.050000
vn 0.028059 -0.041384 0.086603
vn 0.062873 -0.059557 0.050000
vn 0.036300 -0.034385 0.086603
vn 0.074206 -0.044648 0.050000
vn 0.042843 -0.025778 0.086603
vn 0.082069 -0.027652 0.050000
vn 0.047383 -0.015965 0.086603
vn -0.086603 0.000000 0.050000
vn -0.086603 0.000000 0.050000
vn -0.099414 0.010812 0.000000
vn -0.099414 0.010812 0.000000
vn -0.048831 -0.010749 0.086603
vn -0.048831 -0.010749 0.086603
vn -0.086603 0.000000 0.050000
vn 0.000000 0.000000 0.100000
usemtl 191,191,191
f 33/2/2 21/70/70 27/1/1
f 27/1/1 21/70/70 20/136/136
f 27/137/137 20/68/68 19/134/134
f 19/134/134 20/68/68 6/69/69
f 19/134/134 6/69/69 12/135/135
f 12/135/135 6/69/69 2/34/34
f 12/135/135 2/34/34 17/35/35
f 21/70/70 33/2/2 28/72/72
f 28/72/72 33/2/2 40/3/3
f 28/72/72 40/3/3 41/74/74
f 41/74/74 40/3/3 64/4/4
f 41/74/74 64/4/4 77/76/76
f 77/76/76 64/4/4 98/5/5
f 77/76/76 98/5/5 112/78/78
f 112/78/78 98/5/5 126/6/6
f 112/78/78 126/6/6 144/80/80
f 144/80/80 126/6/6 156/7/7
f 144/80/80 156/7/7 170/82/82
f 170/82/82 156/7/7 185/8/8
f 170/82/82 185/8/8 193/84/84
f 193/84/84 185/8/8 211/9/9
f 193/84/84 211/9/9 223/86/86
f 223/86/86 211/9/9 241/10/10
f 223/86/86 241/10/10 249/88/88
f 249/88/88 241/10/10 268/11/11
f 249/88/88 268/11/11 285/90/90
f 285/90/90 268/11/11 300/12/12
f 285/90/90 300/12/12 319/92/92
f 319/92/92 300/12/12 332/13/13
f 319/92/92 332/13/13 356/94/94
f 356/94/94 332/13/13 375/14/14
f 356/94/94 375/14/14 389/96/96
f 389/96/96 375/14/14 388/15/15
f 389/96/96 388/15/15 401/98/98
f 401/98/98 388/15/15 395/16/16
f 401/98/98 395/16/16 408/100/100
f 408/100/100 395/16/16 400/17/17
f 408/100/100 400/17/17 407/105/105
f 407/105/105 400/17/17 406/102/102
f 407/105/105 406/102/102 414/103/103
f 414/103/103 406/102/102 405/107/107
f 414/103/103 405/107/107 413/49/49
f 413/49/49 405/107/107 403/48/48
f 403/48/48 405/107/107 393/109/109
f 403/48/48 393/109/109 384/47/47
f 384/47/47 393/109/109 359/111/111
f 384/47/47 359/111/111 346/46/46
f 346/46/46 359/111/111 322/113/113
f 346/46/46 322/113/113 311/45/45
f 311/45/45 322/113/113 288/115/115
f 311/45/45 288/115/115 273/44/44
f 273/44/44 288/115/115 252/117/117
f 273/44/44 252/117/117 245/43/43
f 245/43/43 252/117/117 221/119/119
f 245/43/43 221/119/119 212/42/42
f 212/42/42 221/119/119 191/121/121
f 212/42/42 191/121/121 186/41/41
f 186/41/41 191/121/121 158/123/123
f 186/41/41 158/123/123 148/40/40
f 148/40/40 158/123/123 128/125/125
f 148/40/40 128/125/125 120/39/39
f 120/39/39 128/125/125 90/127/127
f 120/39/39 90/127/127 79/38/38
f 79/38/38 90/127/127 49/129/129
f 79/38/38 49/129/129 43/37/37
f 43/37/37 49/129/129 31/131/131
f 43/37/37 31/131/131 30/36/36
f 30/36/36 31/131/131 18/133/133
f 30/36/36 18/133/133 17/35/35
f 17/35/35 18/133/133 12/135/135
f 400/17/17 394/18/18 406/102/102
f 406/102/102 394/18/18 399/106/106
f 406/102/102 399/106/106 405/107/107
f 405/107/107 399/106/106 393/109/109
f 394/18/18 386/19/19 399/106/106
f 399/106/106 386/19/19 385/108/108
f 399/106/106 385/108/108 393/109/109
f 393/109/109 385/108/108 359/111/111
f 386/19/19 360/20/20 385/108/108
f 385/108/108 360/20/20 347/110/110
f 385/108/108 347/110/110 359/111/111
f 359/111/111 347/110/110 322/113/113
f 360/20/20 323/21/21 347/110/110
f 347/110/110 323/21/21 312/112/112
f 347/110/110 312/112/112 322/113/113
f 322/113/113 312/112/112 288/115/115
f 323/21/21 293/22/22 312/112/112
f 312/112/112 293/22/22 274/114/114
f 312/112/112 274/114/114 288/115/115
f 288/115/115 274/114/114 252/117/117
f 293/22/22 265/23/23 274/114/114
f 274/114/114 265/23/23 246/116/116
f 274/114/114 246/116/116 252/117/117
f 252/117/117 246/116/116 221/119/119
f 265/23/23 234/24/24 246/116/116
f 246/116/116 234/24/24 222/118/118
f 246/116/116 222/118/118 221/119/119
f 221/119/119 222/118/118 191/121/121
f 234/24/24 208/25/25 222/118/118
f 222/118/118 208/25/25 192/120/120
f 222/118/118 192/120/120 191/121/121
f 191/121/121 192/120/120 158/123/123
f 208/25/25 178/26/26 192/120/120
f 192/120/120 178/26/26 169/122/122
f 192/120/120 169/122/122 158/123/123
f 158/123/123 169/122/122 128/125/125
f 178/26/26 149/27/27 169/122/122
f 169/122/122 149/27/27 137/124/124
f 169/122/122 137/124/124 128/125/125
f 128/125/125 137/124/124 90/127/127
f 149/27/27 121/28/28 137/124/124
f 137/124/124 121/28/28 101/126/126
f 137/124/124 101/126/126 90/127/127
f 90/127/127 101/126/126 49/129/129
f 121/28/28 91/29/29 101/126/126
f 101/126/126 91/29/29 67/128/128
f 101/126/126 67/128/128 49/129/129
f 49/129/129 67/128/128 31/131/131
f 91/29/29 50/30/30 67/128/128
f 67/128/128 50/30/30 37/130/130
f 67/128/128 37/130/130 31/131/131
f 31/131/131 37/130/130 18/133/133
f 50/30/30 38/31/31 37/130/130
f 37/130/130 38/31/31 26/132/132
f 37/130/130 26/132/132 18/133/133
f 18/133/133 26/132/132 12/135/135
f 38/31/31 32/32/32 26/132/132
f 26/132/132 32/32/32 19/134/134
f 26/132/132 19/134/134 12/135/135
f 32/32/32 27/138/138 19/134/134
f 9/139/139 5/33/33 6/69/69
f 6/69/69 5/33/33 2/34/34
f 413/49/49 419/50/50 414/103/103
f 414/103/103 419/50/50 421/104/104
f 414/103/103 421/104/104 407/105/105
f 407/105/105 421/104/104 408/100/100
f 419/50/50 422/51/51 421/104/104
f 421/104/104 422/51/51 415/101/101
f 421/104/104 415/101/101 408/100/100
f 408/100/100 415/101/101 401/98/98
f 422/51/51 416/52/52 415/101/101
f 415/101/101 416/52/52 410/99/99
f 415/101/101 410/99/99 401/98/98
f 401/98/98 410/99/99 389/96/96
f 416/52/52 411/53/53 410/99/99
f 410/99/99 411/53/53 397/97/97
f 410/99/99 397/97/97 389/96/96
f 389/96/96 397/97/97 356/94/94
f 411/53/53 391/54/54 397/97/97
f 397/97/97 391/54/54 376/95/95
f 397/97/97 376/95/95 356/94/94
f 356/94/94 376/95/95 319/92/92
f 391/54/54 358/55/55 376/95/95
f 376/95/95 358/55/55 333/93/93
f 376/95/95 333/93/93 319/92/92
f 319/92/92 333/93/93 285/90/90
f 358/55/55 321/56/56 333/93/93
f 333/93/93 321/56/56 291/91/91
f 333/93/93 291/91/91 285/90/90
f 285/90/90 291/91/91 249/88/88
f 321/56/56 287/57/57 291/91/91
f 291/91/91 287/57/57 263/89/89
f 291/91/91 263/89/89 249/88/88
f 249/88/88 263/89/89 223/86/86
f 287/57/57 251/58/58 263/89/89
f 263/89/89 251/58/58 224/87/87
f 263/89/89 224/87/87 223/86/86
f 223/86/86 224/87/87 193/84/84
f 251/58/58 219/59/59 224/87/87
f 224/87/87 219/59/59 194/85/85
f 224/87/87 194/85/85 193/84/84
f 193/84/84 194/85/85 170/82/82
f 219/59/59 189/60/60 194/85/85
f 194/85/85 189/60/60 167/83/83
f 194/85/85 167/83/83 170/82/82
f 170/82/82 167/83/83 144/80/80
f 189/60/60 157/61/61 167/83/83
f 167/83/83 157/61/61 135/81/81
f 167/83/83 135/81/81 144/80/80
f 144/80/80 135/81/81 112/78/78
f 157/61/61 127/62/62 135/81/81
f 135/81/81 127/62/62 99/79/79
f 135/81/81 99/79/79 112/78/78
f 112/78/78 99/79/79 77/76/76
f 127/62/62 89/63/63 99/79/79
f 99/79/79 89/63/63 65/77/77
f 99/79/79 65/77/77 77/76/76
f 77/76/76 65/77/77 41/74/74
f 89/63/63 48/64/64 65/77/77
f 65/77/77 48/64/64 35/75/75
f 65/77/77 35/75/75 41/74/74
f 41/74/74 35/75/75 28/72/72
f 48/64/64 34/65/65 35/75/75
f 35/75/75 34/65/65 23/73/73
f 35/75/75 23/73/73 28/72/72
f 28/72/72 23/73/73 21/70/70
f 34/65/65 22/66/66 23/73/73
f 23/73/73 22/66/66 13/71/71
f 23/73/73 13/71/71 21/70/70
f 21/70/70 13/71/71 20/140/140
f 22/66/66 9/67/67 13/71/71
f 13/71/71 9/67/67 6/141/141
f 13/142/142 6/69/69 20/68/68
f 53/144/144 55/201/201 57/143/143
f 57/202/202 55/186/186 59/187/187
f 57/203/203 59/187/187 61/171/171
f 61/171/171 59/187/187 75/188/188
f 61/171/171 75/188/188 87/170/170
f 87/170/170 75/188/188 96/189/189
f 87/170/170 96/189/189 109/169/169
f 109/169/169 96/189/189 118/190/190
f 109/169/169 118/190/190 124/168/168
f 124/168/168 118/190/190 142/191/191
f 124/168/168 142/191/191 154/167/167
f 154/167/167 142/191/191 165/192/192
f 154/167/167 165/192/192 176/166/166
f 176/166/166 165/192/192 188/193/193
f 176/166/166 188/193/193 204/165/165
f 204/165/165 188/193/193 217/194/194
f 204/165/165 217/194/194 232/164/164
f 232/164/164 217/194/194 243/195/195
f 232/164/164 243/195/195 261/163/163
f 261/163/163 243/195/195 267/196/196
f 261/163/163 267/196/196 282/162/162
f 282/162/162 267/196/196 298/197/197
f 282/162/162 298/197/197 307/161/161
f 307/161/161 298/197/197 317/198/198
f 307/161/161 317/198/198 328/160/160
f 328/160/160 317/198/198 342/199/199
f 328/160/160 342/199/199 353/159/159
f 353/159/159 342/199/199 372/200/200
f 353/159/159 372/200/200 369/158/158
f 369/158/158 372/200/200 368/172/172
f 369/158/158 368/172/172 365/157/157
f 365/157/157 368/172/172 363/173/173
f 365/157/157 363/173/173 349/156/156
f 349/156/156 363/173/173 336/174/174
f 349/156/156 336/174/174 325/155/155
f 325/155/155 336/174/174 314/175/175
f 325/155/155 314/175/175 303/154/154
f 303/154/154 314/175/175 295/176/176
f 303/154/154 295/176/176 276/153/153
f 276/153/153 295/176/176 266/177/177
f 276/153/153 266/177/177 255/152/152
f 255/152/152 266/177/177 242/178/178
f 255/152/152 242/178/178 227/151/151
f 227/151/151 242/178/178 215/179/179
f 227/151/151 215/179/179 199/150/150
f 199/150/150 215/179/179 187/180/180
f 199/150/150 187/180/180 172/149/149
f 172/149/149 187/180/180 161/181/181
f 172/149/149 161/181/181 150/148/148
f 150/148/148 161/181/181 139/182/182
f 150/148/148 139/182/182 123/147/147
f 123/147/147 139/182/182 115/183/183
f 123/147/147 115/183/183 103/146/146
f 103/146/146 115/183/183 93/184/184
f 103/146/146 93/184/184 81/145/145
f 81/145/145 93/184/184 69/185/185
f 81/145/145 69/185/185 53/144/144
f 53/144/144 69/185/185 55/204/204
f 418/206/206 1/223/223 420/205/205
f 420/205/205 1/223/223 4/224/224
f 420/205/205 4/224/224 423/242/242
f 423/242/242 4/224/224 8/225/225
f 423/242/242 8/225/225 417/241/241
f 417/241/241 8/225/225 15/226/226
f 417/241/241 15/226/226 402/240/240
f 402/240/240 15/226/226 29/227/227
f 402/240/240 29/227/227 390/239/239
f 390/239/239 29/227/227 42/228/228
f 390/239/239 42/228/228 357/238/238
f 357/238/238 42/228/228 78/229/229
f 357/238/238 78/229/229 320/237/237
f 320/237/237 78/229/229 113/230/230
f 320/237/237 113/230/230 286/236/236
f 286/236/236 113/230/230 145/231/231
f 286/236/236 145/231/231 250/235/235
f 250/235/235 145/231/231 171/232/232
f 250/235/235 171/232/232 225/234/234
f 225/234/234 171/232/232 195/233/233
f 1/223/223 418/206/206 10/222/222
f 10/222/222 418/206/206 412/207/207
f 10/222/222 412/207/207 25/221/221
f 25/221/221 412/207/207 398/208/208
f 25/221/221 398/208/208 36/220/220
f 36/220/220 398/208/208 383/209/209
f 36/220/220 383/209/209 66/219/219
f 66/219/219 383/209/209 345/210/210
f 66/219/219 345/210/210 100/218/218
f 100/218/218 345/210/210 310/211/211
f 100/218/218 310/211/211 136/217/217
f 136/217/217 310/211/211 272/212/212
f 136/217/217 272/212/212 168/216/216
f 168/216/216 272/212/212 244/213/213
f 168/216/216 244/213/213 190/215/215
f 190/215/215 244/213/213 220/214/214
f 61/244/244 60/326/326 57/243/243
f 57/243/243 60/326/326 56/329/329
f 57/243/243 56/329/329 54/386/386
f 54/386/386 56/329/329 39/328/328
f 54/386/386 39/328/328 45/387/387
f 45/387/387 39/328/328 27/272/272
f 45/387/387 27/272/272 32/273/273
f 60/326/326 61/244/244 62/330/330
f 62/330/330 61/244/244 87/245/245
f 62/330/330 87/245/245 76/317/317
f 76/317/317 87/245/245 109/246/246
f 76/317/317 109/246/246 97/335/335
f 97/335/335 109/246/246 119/333/333
f 97/335/335 119/333/333 111/316/316
f 111/316/316 119/333/333 125/336/336
f 111/316/316 125/336/336 98/300/300
f 98/300/300 125/336/336 126/299/299
f 126/299/299 125/336/336 143/339/339
f 126/299/299 143/339/339 156/298/298
f 156/298/298 143/339/339 166/338/338
f 156/298/298 166/338/338 184/319/319
f 184/319/319 166/338/338 164/337/337
f 184/319/319 164/337/337 183/320/320
f 183/320/320 164/337/337 176/249/249
f 183/320/320 176/249/249 204/250/250
f 109/246/246 124/247/247 119/333/333
f 119/333/333 124/247/247 133/318/318
f 119/333/333 133/318/318 125/336/336
f 125/336/336 133/318/318 143/339/339
f 124/247/247 154/248/248 133/318/318
f 133/318/318 154/248/248 147/340/340
f 133/318/318 147/340/340 143/339/339
f 143/339/339 147/340/340 166/338/338
f 147/340/340 154/248/248 164/337/337
f 164/337/337 154/248/248 176/249/249
f 232/251/251 216/341/341 204/250/250
f 204/250/250 216/341/341 203/344/344
f 204/250/250 203/344/344 183/320/320
f 183/320/320 203/344/344 206/343/343
f 183/320/320 206/343/343 184/319/319
f 184/319/319 206/343/343 185/297/297
f 184/319/319 185/297/297 156/298/298
f 216/341/341 232/251/251 239/322/322
f 239/322/322 232/251/251 261/252/252
f 239/322/322 261/252/252 260/348/348
f 260/348/348 261/252/252 271/346/346
f 260/348/348 271/346/346 284/347/347
f 284/347/347 271/346/346 299/350/350
f 284/347/347 299/350/350 300/293/293
f 300/293/293 299/350/350 332/292/292
f 332/292/292 299/350/350 318/351/351
f 332/292/292 318/351/351 343/323/323
f 343/323/323 318/351/351 309/324/324
f 343/323/323 309/324/324 331/354/354
f 331/354/354 309/324/324 328/255/255
f 331/354/354 328/255/255 355/352/352
f 355/352/352 328/255/255 353/256/256
f 355/352/352 353/256/256 373/325/325
f 373/325/325 353/256/256 369/388/388
f 373/325/325 369/389/389 371/357/357
f 371/357/357 369/390/390 367/304/304
f 371/357/357 367/304/304 387/305/305
f 387/305/305 367/304/304 379/391/391
f 387/305/305 379/392/392 400/288/288
f 400/393/393 379/358/358 394/287/287
f 394/287/287 379/358/358 378/361/361
f 394/287/287 378/361/361 386/286/286
f 386/286/286 378/361/361 361/360/360
f 386/286/286 361/360/360 360/285/285
f 360/285/285 361/360/360 335/363/363
f 360/285/285 335/363/363 313/307/307
f 313/307/307 335/363/363 324/308/308
f 313/307/307 324/308/308 302/366/366
f 302/366/366 324/308/308 303/261/261
f 302/366/366 303/261/261 289/364/364
f 289/364/364 303/261/261 276/262/262
f 289/364/364 276/262/262 270/367/367
f 270/367/367 276/262/262 255/263/263
f 270/367/367 255/263/263 254/310/310
f 254/310/310 255/263/263 227/264/264
f 254/310/310 227/264/264 236/372/372
f 236/372/372 227/264/264 214/370/370
f 236/372/372 214/370/370 213/371/371
f 213/371/371 214/370/370 197/373/373
f 213/371/371 197/373/373 208/280/280
f 208/280/280 197/373/373 178/279/279
f 178/279/279 197/373/373 179/375/375
f 178/279/279 179/375/375 159/311/311
f 159/311/311 179/375/375 180/376/376
f 159/311/311 180/376/376 160/374/374
f 160/374/374 180/376/376 172/266/266
f 160/374/374 172/266/266 150/267/267
f 261/252/252 282/253/253 271/346/346
f 271/346/346 282/253/253 290/349/349
f 271/346/346 290/349/349 299/350/350
f 299/350/350 290/349/349 318/351/351
f 282/253/253 307/254/254 290/349/349
f 290/349/349 307/254/254 309/324/324
f 290/349/349 309/324/324 318/351/351
f 307/254/254 328/255/255 309/324/324
f 369/257/257 365/258/258 367/394/394
f 367/395/395 365/258/258 364/306/306
f 367/396/396 364/306/306 379/358/358
f 379/358/358 364/306/306 378/361/361
f 365/258/258 349/259/259 364/306/306
f 364/306/306 349/259/259 362/362/362
f 364/306/306 362/362/362 378/361/361
f 378/361/361 362/362/362 361/360/360
f 362/362/362 349/259/259 348/359/359
f 348/359/359 349/259/259 325/260/260
f 348/359/359 325/260/260 324/308/308
f 324/308/308 325/260/260 303/261/261
f 227/264/264 199/265/265 214/370/370
f 214/370/370 199/265/265 198/312/312
f 214/370/370 198/312/312 197/373/373
f 197/373/373 198/312/312 179/375/375
f 199/265/265 172/266/266 198/312/312
f 198/312/312 172/266/266 180/376/376
f 198/312/312 180/376/376 179/375/375
f 160/374/374 150/267/267 146/313/313
f 146/313/313 150/267/267 123/268/268
f 146/313/313 123/268/268 129/381/381
f 129/381/381 123/268/268 114/378/378
f 129/381/381 114/378/378 102/379/379
f 102/379/379 114/378/378 80/314/314
f 102/379/379 80/314/314 91/276/276
f 91/276/276 80/314/314 50/275/275
f 50/275/275 80/314/314 51/384/384
f 50/275/275 51/384/384 38/274/274
f 38/274/274 51/384/384 44/383/383
f 38/274/274 44/383/383 32/273/273
f 32/273/273 44/383/383 45/387/387
f 123/268/268 103/269/269 114/378/378
f 114/378/378 103/269/269 92/315/315
f 114/378/378 92/315/315 80/314/314
f 80/314/314 92/315/315 51/384/384
f 103/269/269 81/270/270 92/315/315
f 92/315/315 81/270/270 68/385/385
f 92/315/315 68/385/385 51/384/384
f 51/384/384 68/385/385 44/383/383
f 68/385/385 81/270/270 52/382/382
f 52/382/382 81/270/270 53/271/271
f 52/382/382 53/271/271 54/386/386
f 54/386/386 53/271/271 57/243/243
f 102/379/379 91/276/276 122/380/380
f 122/380/380 91/276/276 121/277/277
f 122/380/380 121/277/277 138/377/377
f 138/377/377 121/277/277 149/278/278
f 138/377/377 149/278/278 159/311/311
f 159/311/311 149/278/278 178/279/279
f 208/280/280 234/281/281 213/371/371
f 213/371/371 234/281/281 235/309/309
f 213/371/371 235/309/309 236/372/372
f 236/372/372 235/309/309 254/310/310
f 234/281/281 265/282/282 235/309/309
f 235/309/309 265/282/282 253/369/369
f 235/309/309 253/369/369 254/310/310
f 254/310/310 253/369/369 270/367/367
f 253/369/369 265/282/282 275/368/368
f 275/368/368 265/282/282 293/283/283
f 275/368/368 293/283/283 294/365/365
f 294/365/365 293/283/283 323/284/284
f 294/365/365 323/284/284 313/307/307
f 313/307/307 323/284/284 360/285/285
f 387/305/305 400/288/288 380/356/356
f 380/356/356 400/288/288 395/289/289
f 380/356/356 395/289/289 381/355/355
f 381/355/355 395/289/289 388/290/290
f 381/355/355 388/290/290 374/353/353
f 374/353/353 388/290/290 375/291/291
f 374/353/353 375/291/291 343/323/323
f 343/323/323 375/291/291 332/292/292
f 300/293/293 268/294/294 284/347/347
f 284/347/347 268/294/294 262/321/321
f 284/347/347 262/321/321 260/348/348
f 260/348/348 262/321/321 239/322/322
f 268/294/294 241/295/295 262/321/321
f 262/321/321 241/295/295 240/345/345
f 262/321/321 240/345/345 239/322/322
f 239/322/322 240/345/345 216/341/341
f 240/345/345 241/295/295 218/342/342
f 218/342/342 241/295/295 211/296/296
f 218/342/342 211/296/296 206/343/343
f 206/343/343 211/296/296 185/297/297
f 98/300/300 64/301/301 111/316/316
f 111/316/316 64/301/301 88/334/334
f 111/316/316 88/334/334 97/335/335
f 97/335/335 88/334/334 76/317/317
f 88/334/334 64/301/301 63/332/332
f 63/332/332 64/301/301 40/302/302
f 63/332/332 40/302/302 47/331/331
f 47/331/331 40/302/302 33/303/303
f 47/331/331 33/303/303 46/327/327
f 46/327/327 33/303/303 27/272/272
f 46/327/327 27/272/272 39/328/328
f 371/357/357 387/305/305 380/356/356
f 39/328/328 56/329/329 46/327/327
f 46/327/327 56/329/329 60/326/326
f 46/327/327 60/326/326 47/331/331
f 47/331/331 60/326/326 62/330/330
f 47/331/331 62/330/330 63/332/332
f 63/332/332 62/330/330 76/317/317
f 63/332/332 76/317/317 88/334/334
f 164/337/337 166/338/338 147/340/340
f 206/343/343 203/344/344 218/342/342
f 218/342/342 203/344/344 216/341/341
f 218/342/342 216/341/341 240/345/345
f 343/323/323 331/354/354 374/353/353
f 374/353/353 331/354/354 355/352/352
f 374/353/353 355/352/352 381/355/355
f 381/355/355 355/352/352 373/325/325
f 381/355/355 373/325/325 380/356/356
f 380/356/356 373/325/325 371/357/357
f 335/363/363 361/360/360 348/359/359
f 348/359/359 361/360/360 362/362/362
f 324/308/308 335/363/363 348/359/359
f 313/307/307 302/366/366 294/365/365
f 294/365/365 302/366/366 289/364/364
f 294/365/365 289/364/364 275/368/368
f 275/368/368 289/364/364 270/367/367
f 275/368/368 270/367/367 253/369/369
f 138/377/377 159/311/311 160/374/374
f 122/380/380 138/377/377 146/313/313
f 146/313/313 138/377/377 160/374/374
f 146/313/313 129/381/381 122/380/380
f 122/380/380 129/381/381 102/379/379
f 45/387/387 44/383/383 52/382/382
f 52/382/382 44/383/383 68/385/385
f 54/386/386 45/387/387 52/382/382
f 340/398/398 85/410/410 339/397/397
f 339/397/397 85/410/410 84/411/411
f 339/397/397 84/411/411 338/424/424
f 338/424/424 84/411/411 83/412/412
f 338/424/424 83/412/412 315/423/423
f 315/423/423 83/412/412 106/413/413
f 315/423/423 106/413/413 305/422/422
f 305/422/422 106/413/413 116/414/414
f 305/422/422 116/414/414 279/421/421
f 279/421/421 116/414/414 140/415/415
f 279/421/421 140/415/415 257/420/420
f 257/420/420 140/415/415 162/416/416
f 257/420/420 162/416/416 237/419/419
f 237/419/419 162/416/416 181/417/417
f 237/419/419 181/417/417 209/418/418
f 85/410/410 340/398/398 107/409/409
f 107/409/409 340/398/398 316/399/399
f 107/409/409 316/399/399 117/408/408
f 117/408/408 316/399/399 306/400/400
f 117/408/408 306/400/400 141/407/407
f 141/407/407 306/400/400 280/401/401
f 141/407/407 280/401/401 163/406/406
f 163/406/406 280/401/401 258/402/402
f 163/406/406 258/402/402 182/405/405
f 182/405/405 258/402/402 238/403/403
f 182/405/405 238/403/403 210/404/404
f 423/426/426 422/477/477 420/425/425
f 420/425/425 422/477/477 419/478/478
f 420/425/425 419/478/478 418/459/459
f 418/459/459 419/478/478 413/479/479
f 418/459/459 413/479/479 404/458/458
f 404/458/458 413/479/479 403/480/480
f 404/458/458 403/480/480 392/457/457
f 392/457/457 403/480/480 384/481/481
f 392/457/457 384/481/481 377/456/456
f 377/456/456 384/481/481 346/482/482
f 377/456/456 346/482/482 334/455/455
f 334/455/455 346/482/482 311/483/483
f 334/455/455 311/483/483 292/454/454
f 292/454/454 311/483/483 273/484/484
f 292/454/454 273/484/484 264/453/453
f 264/453/453 273/484/484 245/485/485
f 264/453/453 245/485/485 226/452/452
f 226/452/452 245/485/485 212/486/486
f 226/452/452 212/486/486 196/451/451
f 196/451/451 212/486/486 186/487/487
f 196/451/451 186/487/487 168/450/450
f 168/450/450 186/487/487 148/488/488
f 168/450/450 148/488/488 136/449/449
f 136/449/449 148/488/488 120/489/489
f 136/449/449 120/489/489 100/448/448
f 100/448/448 120/489/489 79/490/490
f 100/448/448 79/490/490 66/447/447
f 66/447/447 79/490/490 43/491/491
f 66/447/447 43/491/491 36/446/446
f 36/446/446 43/491/491 30/492/492
f 36/446/446 30/492/492 16/445/445
f 16/445/445 30/492/492 17/493/493
f 16/445/445 17/493/493 11/444/444
f 11/444/444 17/493/493 2/494/494
f 11/444/444 2/494/494 3/443/443
f 3/443/443 2/494/494 5/495/495
f 3/443/443 5/496/496 7/442/442
f 7/497/497 5/460/460 9/461/461
f 7/498/498 9/461/461 14/441/441
f 14/441/441 9/461/461 22/462/462
f 14/441/441 22/462/462 24/440/440
f 24/440/440 22/462/462 34/463/463
f 24/440/440 34/463/463 42/439/439
f 42/439/439 34/463/463 48/464/464
f 42/439/439 48/464/464 78/438/438
f 78/438/438 48/464/464 89/465/465
f 78/438/438 89/465/465 113/437/437
f 113/437/437 89/465/465 127/466/466
f 113/437/437 127/466/466 145/436/436
f 145/436/436 127/466/466 157/467/467
f 145/436/436 157/467/467 171/435/435
f 171/435/435 157/467/467 189/468/468
f 171/435/435 189/468/468 207/434/434
f 207/434/434 189/468/468 219/469/469
f 207/434/434 219/469/469 233/433/433
f 233/433/433 219/469/469 251/470/470
f 233/433/433 251/470/470 269/432/432
f 269/432/432 251/470/470 287/471/471
f 269/432/432 287/471/471 301/431/431
f 301/431/431 287/471/471 321/472/472
f 301/431/431 321/472/472 344/430/430
f 344/430/430 321/472/472 358/473/473
f 344/430/430 358/473/473 382/429/429
f 382/429/429 358/473/473 391/474/474
f 382/429/429 391/474/474 396/428/428
f 396/428/428 391/474/474 411/475/475
f 396/428/428 411/475/475 409/427/427
f 409/427/427 411/475/475 416/476/476
f 409/427/427 416/476/476 423/426/426
f 423/426/426 416/476/476 422/477/477
f 372/500/500 370/558/558 368/499/499
f 368/499/499 370/558/558 366/561/561
f 368/499/499 366/561/561 363/527/527
f 363/527/527 366/561/561 350/612/612
f 363/527/527 350/612/612 336/526/526
f 336/526/526 350/612/612 326/610/610
f 336/526/526 326/610/610 314/525/525
f 314/525/525 326/610/610 304/608/608
f 314/525/525 304/608/608 295/524/524
f 295/524/524 304/608/608 277/606/606
f 295/524/524 277/606/606 266/523/523
f 266/523/523 277/606/606 256/604/604
f 266/523/523 256/604/604 242/522/522
f 242/522/522 256/604/604 228/602/602
f 242/522/522 228/602/602 215/521/521
f 215/521/521 228/602/602 200/600/600
f 215/521/521 200/600/600 187/520/520
f 187/520/520 200/600/600 173/598/598
f 187/520/520 173/598/598 161/519/519
f 161/519/519 173/598/598 151/596/596
f 161/519/519 151/596/596 139/518/518
f 139/518/518 151/596/596 130/594/594
f 139/518/518 130/594/594 115/517/517
f 115/517/517 130/594/594 104/592/592
f 115/517/517 104/592/592 93/516/516
f 93/516/516 104/592/592 82/590/590
f 93/516/516 82/590/590 69/515/515
f 69/515/515 82/590/590 70/588/588
f 69/515/515 70/588/588 55/514/514
f 55/514/514 70/588/588 58/614/614
f 55/514/514 58/615/615 59/513/513
f 59/616/616 58/556/556 73/586/586
f 59/617/617 73/586/586 75/512/512
f 75/512/512 73/586/586 86/584/584
f 75/512/512 86/584/584 96/511/511
f 96/511/511 86/584/584 110/582/582
f 96/511/511 110/582/582 118/510/510
f 118/510/510 110/582/582 134/580/580
f 118/510/510 134/580/580 142/509/509
f 142/509/509 134/580/580 155/578/578
f 142/509/509 155/578/578 165/508/508
f 165/508/508 155/578/578 177/576/576
f 165/508/508 177/576/576 188/507/507
f 188/507/507 177/576/576 205/574/574
f 188/507/507 205/574/574 217/506/506
f 217/506/506 205/574/574 230/572/572
f 217/506/506 230/572/572 243/505/505
f 243/505/505 230/572/572 259/570/570
f 243/505/505 259/570/570 267/504/504
f 267/504/504 259/570/570 283/568/568
f 267/504/504 283/568/568 298/503/503
f 298/503/503 283/568/568 308/566/566
f 298/503/503 308/566/566 317/502/502
f 317/502/502 308/566/566 329/564/564
f 317/502/502 329/564/564 342/501/501
f 342/501/501 329/564/564 354/562/562
f 342/501/501 354/562/562 372/500/500
f 372/500/500 354/562/562 370/558/558
f 338/529/529 351/560/560 339/528/528
f 339/528/528 351/560/560 352/559/559
f 339/528/528 352/559/559 340/555/555
f 340/555/555 352/559/559 341/563/563
f 340/555/555 341/563/563 316/554/554
f 316/554/554 341/563/563 330/565/565
f 316/554/554 330/565/565 306/553/553
f 306/553/553 330/565/565 297/567/567
f 306/553/553 297/567/567 280/552/552
f 280/552/552 297/567/567 281/569/569
f 280/552/552 281/569/569 258/551/551
f 258/551/551 281/569/569 248/571/571
f 258/551/551 248/571/571 238/550/550
f 238/550/550 248/571/571 231/573/573
f 238/550/550 231/573/573 210/549/549
f 210/549/549 231/573/573 202/575/575
f 210/549/549 202/575/575 182/548/548
f 182/548/548 202/575/575 175/577/577
f 182/548/548 175/577/577 163/547/547
f 163/547/547 175/577/577 153/579/579
f 163/547/547 153/579/579 141/546/546
f 141/546/546 153/579/579 132/581/581
f 141/546/546 132/581/581 117/545/545
f 117/545/545 132/581/581 108/583/583
f 117/545/545 108/583/583 107/544/544
f 107/544/544 108/583/583 95/585/585
f 107/544/544 95/585/585 85/543/543
f 85/543/543 95/585/585 74/587/587
f 85/543/543 74/587/587 84/542/542
f 84/542/542 74/587/587 72/557/557
f 84/542/542 72/557/557 71/618/618
f 71/619/619 72/557/557 58/556/556
f 71/589/589 58/620/620 70/588/588
f 351/560/560 338/529/529 337/613/613
f 337/613/613 338/529/529 315/530/530
f 337/613/613 315/530/530 327/611/611
f 327/611/611 315/530/530 305/531/531
f 327/611/611 305/531/531 296/609/609
f 296/609/609 305/531/531 279/532/532
f 296/609/609 279/532/532 278/607/607
f 278/607/607 279/532/532 257/533/533
f 278/607/607 257/533/533 247/605/605
f 247/605/605 257/533/533 237/534/534
f 247/605/605 237/534/534 229/603/603
f 229/603/603 237/534/534 209/535/535
f 229/603/603 209/535/535 201/601/601
f 201/601/601 209/535/535 181/536/536
f 201/601/601 181/536/536 174/599/599
f 174/599/599 181/536/536 162/537/537
f 174/599/599 162/537/537 152/597/597
f 152/597/597 162/537/537 140/538/538
f 152/597/597 140/538/538 131/595/595
f 131/595/595 140/538/538 116/539/539
f 131/595/595 116/539/539 105/593/593
f 105/593/593 116/539/539 106/540/540
f 105/593/593 106/540/540 94/591/591
f 94/591/591 106/540/540 83/541/541
f 94/591/591 83/541/541 71/589/589
f 71/589/589 83/541/541 84/621/621
f 58/556/556 72/557/557 73/586/586
f 73/586/586 72/557/557 74/587/587
f 73/586/586 74/587/587 86/584/584
f 86/584/584 74/587/587 95/585/585
f 86/584/584 95/585/585 110/582/582
f 110/582/582 95/585/585 108/583/583
f 110/582/582 108/583/583 134/580/580
f 134/580/580 108/583/583 132/581/581
f 134/580/580 132/581/581 155/578/578
f 155/578/578 132/581/581 153/579/579
f 155/578/578 153/579/579 177/576/576
f 177/576/576 153/579/579 175/577/577
f 177/576/576 175/577/577 205/574/574
f 205/574/574 175/577/577 202/575/575
f 205/574/574 202/575/575 230/572/572
f 230/572/572 202/575/575 231/573/573
f 230/572/572 231/573/573 259/570/570
f 259/570/570 231/573/573 248/571/571
f 259/570/570 248/571/571 283/568/568
f 283/568/568 248/571/571 281/569/569
f 283/568/568 281/569/569 308/566/566
f 308/566/566 281/569/569 297/567/567
f 308/566/566 297/567/567 329/564/564
f 329/564/564 297/567/567 330/565/565
f 329/564/564 330/565/565 354/562/562
f 354/562/562 330/565/565 341/563/563
f 354/562/562 341/563/563 370/558/558
f 370/558/558 341/563/563 352/559/559
f 370/558/558 352/559/559 366/561/561
f 366/561/561 352/559/559 351/560/560
f 366/561/561 351/560/560 350/612/612
f 350/612/612 351/560/560 337/613/613
f 350/612/612 337/613/613 326/610/610
f 326/610/610 337/613/613 327/611/611
f 326/610/610 327/611/611 304/608/608
f 304/608/608 327/611/611 296/609/609
f 304/608/608 296/609/609 277/606/606
f 277/606/606 296/609/609 278/607/607
f 277/606/606 278/607/607 256/604/604
f 256/604/604 278/607/607 247/605/605
f 256/604/604 247/605/605 228/602/602
f 228/602/602 247/605/605 229/603/603
f 228/602/602 229/603/603 200/600/600
f 200/600/600 229/603/603 201/601/601
f 200/600/600 201/601/601 173/598/598
f 173/598/598 201/601/601 174/599/599
f 173/598/598 174/599/599 151/596/596
f 151/596/596 174/599/599 152/597/597
f 151/596/596 152/597/597 130/594/594
f 130/594/594 152/597/597 131/595/595
f 130/594/594 131/595/595 104/592/592
f 104/592/592 131/595/595 105/593/593
f 104/592/592 105/593/593 82/590/590
f 82/590/590 105/593/593 94/591/591
f 82/590/590 94/591/591 70/588/588
f 70/588/588 94/591/591 71/589/589
# 423 vertices
# 621 texture params
# 621 normals
# 795 facets

# 1 groups
