# WaveFront *.obj file (generated by Autodesk ATF)

mtllib cube.mtl

g Solido1

v -0.150000 -0.150000 0.000000
v -0.150000 -0.150000 0.300000
v -0.150000 0.150000 0.000000
v -0.150000 0.150000 0.300000
v 0.150000 -0.150000 0.000000
v 0.150000 -0.150000 0.300000
v 0.150000 0.150000 0.000000
v 0.150000 0.150000 0.300000
vt 0.000000 0.000000 0.000000
vt 0.030000 0.000000 0.000000
vt 0.030000 0.030000 0.000000
vt 0.000000 0.030000 0.000000
vt 0.000000 0.000000 0.000000
vt 0.030000 0.000000 0.000000
vt 0.030000 0.030000 0.000000
vt 0.000000 0.030000 0.000000
vt 0.000000 0.000000 0.000000
vt 0.030000 0.000000 0.000000
vt 0.030000 0.030000 0.000000
vt 0.000000 0.030000 0.000000
vt 0.000000 0.000000 0.000000
vt 0.030000 0.000000 0.000000
vt 0.030000 0.030000 0.000000
vt 0.000000 0.030000 0.000000
vt -0.015000 0.015000 0.000000
vt -0.015000 -0.015000 0.000000
vt 0.015000 -0.015000 0.000000
vt 0.015000 0.015000 0.000000
vt 0.015000 -0.015000 0.000000
vt 0.015000 0.015000 0.000000
vt -0.015000 0.015000 0.000000
vt -0.015000 -0.015000 0.000000
vn 0.000000 0.100000 0.000000
vn 0.000000 0.100000 0.000000
vn 0.000000 0.100000 0.000000
vn 0.000000 0.100000 0.000000
vn 0.100000 0.000000 0.000000
vn 0.100000 0.000000 0.000000
vn 0.100000 0.000000 0.000000
vn 0.100000 0.000000 0.000000
vn 0.000000 -0.100000 0.000000
vn 0.000000 -0.100000 0.000000
vn 0.000000 -0.100000 0.000000
vn 0.000000 -0.100000 0.000000
vn -0.100000 0.000000 0.000000
vn -0.100000 0.000000 0.000000
vn -0.100000 0.000000 0.000000
vn -0.100000 0.000000 0.000000
vn 0.000000 0.000000 0.100000
vn 0.000000 0.000000 0.100000
vn 0.000000 0.000000 0.100000
vn 0.000000 0.000000 0.100000
vn 0.000000 0.000000 -0.100000
vn 0.000000 0.000000 -0.100000
vn 0.000000 0.000000 -0.100000
vn 0.000000 0.000000 -0.100000
usemtl 191,191,191
f 7/1/1 3/2/2 8/4/4
f 8/4/4 3/2/2 4/3/3
f 5/5/5 7/6/6 6/8/8
f 6/8/8 7/6/6 8/7/7
f 1/9/9 5/10/10 2/12/12
f 2/12/12 5/10/10 6/11/11
f 3/13/13 1/14/14 4/16/16
f 4/16/16 1/14/14 2/15/15
f 2/18/18 6/19/19 4/17/17
f 4/17/17 6/19/19 8/20/20
f 3/22/22 7/23/23 1/21/21
f 1/21/21 7/23/23 5/24/24
# 8 vertices
# 24 texture params
# 24 normals
# 12 facets

# 1 groups
