# WaveFront *.obj file (generated by Autodesk ATF)

mtllib screwdriver_marco_meters.mtl

g Solido1

v -0.045000 -0.039500 0.000000
v -0.045000 -0.039500 0.050000
v -0.045000 -0.034500 0.005000
v -0.045000 -0.034500 0.050000
v -0.045000 0.010500 0.000000
v -0.045000 0.010500 0.005000
v -0.027972 -0.069500 0.026744
v -0.027747 -0.069500 0.031759
v -0.027298 -0.069500 0.021769
v -0.026630 -0.069500 0.036652
v -0.027098 -0.001500 0.000000
v -0.027098 -0.001500 0.005000
v -0.027500 0.000000 0.000000
v -0.027500 0.000000 0.005000
v -0.027098 0.001500 0.000000
v -0.027098 0.001500 0.005000
v -0.025747 -0.069500 0.016995
v -0.026000 -0.002598 0.000000
v -0.026000 -0.002598 0.005000
v -0.026000 0.002598 0.000000
v -0.026000 0.002598 0.005000
v -0.024526 -0.086500 0.024678
v -0.024725 -0.086500 0.029110
v -0.024657 -0.069500 0.041268
v -0.024500 -0.003000 0.000000
v -0.024500 -0.003000 0.005000
v -0.024500 0.003000 0.000000
v -0.024500 0.003000 0.005000
v -0.023539 -0.086500 0.020352
v -0.024129 -0.086500 0.033507
v -0.022758 -0.086500 0.037727
v -0.023368 -0.069500 0.012575
v -0.023000 -0.002598 0.000000
v -0.023000 -0.002598 0.005000
v -0.023000 0.002598 0.000000
v -0.023000 0.002598 0.005000
v -0.021795 -0.086500 0.016272
v -0.021891 -0.069500 0.045458
v -0.021902 -0.001500 0.000000
v -0.021902 -0.001500 0.005000
v -0.021500 0.000000 0.000000
v -0.021500 0.000000 0.005000
v -0.021902 0.001500 0.000000
v -0.021902 0.001500 0.005000
v -0.020814 -0.103500 0.022611
v -0.021472 -0.103500 0.026911
v -0.021252 -0.103500 0.031256
v -0.020656 -0.086500 0.041635
v -0.020162 -0.103500 0.035467
v -0.020238 -0.069500 0.008650
v -0.019563 -0.069500 0.023842
v -0.020000 -0.069500 0.028000
v -0.019563 -0.069500 0.032158
v -0.019563 -0.039500 0.023842
v -0.020000 -0.039500 0.028000
v -0.019563 -0.039500 0.032158
v -0.018750 -0.146500 0.024926
v -0.018972 -0.146500 0.029029
v -0.018889 -0.106500 0.025946
v -0.018889 -0.106500 0.030054
v -0.019303 -0.103500 0.018532
v -0.019350 -0.086500 0.012569
v -0.017651 -0.146500 0.020967
v -0.018307 -0.146500 0.033083
v -0.018005 -0.106500 0.021933
v -0.018005 -0.106500 0.034067
v -0.018246 -0.103500 0.039373
v -0.017889 -0.086500 0.045104
v -0.018271 -0.069500 0.019865
v -0.018271 -0.069500 0.036135
v -0.018422 -0.069500 0.049086
v -0.018271 -0.039500 0.019865
v -0.018271 -0.039500 0.036135
v -0.017500 -0.034500 0.028000
v -0.017500 0.020500 0.028000
v -0.016787 -0.146500 0.036900
v -0.017002 -0.103500 0.014840
v -0.017061 -0.034500 0.024106
v -0.017061 -0.034500 0.031894
v -0.017061 0.020500 0.024106
v -0.017061 0.020500 0.031894
v -0.015726 -0.146500 0.017337
v -0.016280 -0.106500 0.018204
v -0.016280 -0.106500 0.037796
v -0.015583 -0.103500 0.042813
v -0.016284 -0.086500 0.009361
v -0.016458 -0.069500 0.005348
v -0.016180 -0.069500 0.016244
v -0.016180 -0.069500 0.039756
v -0.016180 -0.039500 0.016244
v -0.016180 -0.039500 0.039756
v -0.015767 -0.034500 0.020407
v -0.015767 -0.034500 0.035593
v -0.015767 0.020500 0.020407
v -0.015767 0.020500 0.035593
v -0.014548 -0.086500 0.048023
v -0.014481 -0.146500 0.040300
v -0.013794 -0.106500 0.014934
v -0.013794 -0.106500 0.041066
v -0.014005 -0.103500 0.011687
v -0.014361 -0.069500 0.052037
v -0.013682 -0.034500 0.017089
v -0.013682 -0.034500 0.038911
v -0.013682 0.020500 0.017089
v -0.013682 0.020500 0.038911
v -0.013066 -0.146500 0.014206
v -0.012694 -0.086500 0.006753
v -0.013383 -0.069500 0.013137
v -0.013383 -0.069500 0.042863
v -0.013383 -0.039500 0.013137
v -0.013383 -0.039500 0.042863
v -0.011972 -0.156500 0.027181
v -0.011749 -0.156500 0.030441
v -0.012282 -0.103500 0.045646
v -0.012149 -0.069500 0.002773
v -0.011307 -0.156500 0.023981
v -0.010655 -0.156500 0.033521
v -0.011498 -0.146500 0.043126
v -0.010663 -0.106500 0.012274
v -0.010663 -0.106500 0.043726
v -0.010739 -0.086500 0.050299
v -0.010911 -0.034500 0.014318
v -0.010911 -0.034500 0.041682
v -0.010911 0.020500 0.014318
v -0.010911 0.020500 0.041682
v -0.009804 -0.156500 0.021080
v -0.009796 -0.146500 0.011720
v -0.010434 -0.103500 0.009202
v -0.010000 -0.069500 0.010679
v -0.010000 -0.069500 0.045321
v -0.009838 -0.069500 0.054215
v -0.010000 -0.039500 0.010679
v -0.010000 -0.039500 0.045321
v -0.008770 -0.156500 0.036191
v -0.008697 -0.086500 0.004828
v -0.007573 -0.156500 0.018691
v -0.007978 -0.146500 0.045244
v -0.008479 -0.103500 0.047758
v -0.007593 -0.034500 0.012233
v -0.007593 -0.034500 0.043767
v -0.007593 0.020500 0.012233
v -0.007593 0.020500 0.043767
v -0.007033 -0.106500 0.010349
v -0.006596 -0.106500 0.024430
v -0.007398 -0.106500 0.026766
v -0.007398 -0.106500 0.029234
v -0.006596 -0.106500 0.031570
v -0.007033 -0.106500 0.045651
v -0.006596 -0.103500 0.024430
v -0.007398 -0.103500 0.026766
v -0.007398 -0.103500 0.029234
v -0.006596 -0.103500 0.031570
v -0.006584 -0.086500 0.051858
v -0.007449 -0.069500 0.001009
v -0.006235 -0.156500 0.038253
v -0.006067 -0.146500 0.009995
v -0.006436 -0.103500 0.007486
v -0.006180 -0.069500 0.008979
v -0.006180 -0.069500 0.047021
v -0.006180 -0.039500 0.008979
v -0.006180 -0.039500 0.047021
v -0.004891 -0.181500 0.026960
v -0.004891 -0.181500 0.029040
v -0.004781 -0.156500 0.016993
v -0.004891 -0.156500 0.026960
v -0.004891 -0.156500 0.029040
v -0.005080 -0.106500 0.022482
v -0.005080 -0.106500 0.033518
v -0.005080 -0.103500 0.022482
v -0.005080 -0.103500 0.033518
v -0.005000 -0.069500 0.055550
v -0.004045 -0.181500 0.025061
v -0.004045 -0.181500 0.030939
v -0.004045 -0.156500 0.025061
v -0.004045 -0.156500 0.030939
v -0.004084 -0.146500 0.046556
v -0.004328 -0.103500 0.049060
v -0.004419 -0.086500 0.003648
v -0.003894 -0.034500 0.010939
v -0.003894 -0.034500 0.045061
v -0.003894 0.020500 0.010939
v -0.003894 0.020500 0.045061
v -0.002500 -0.181500 0.023670
v -0.002500 -0.181500 0.032330
v -0.002500 -0.156500 0.023670
v -0.002500 -0.156500 0.032330
v -0.003238 -0.156500 0.039555
v -0.003074 -0.106500 0.009250
v -0.003013 -0.106500 0.021132
v -0.003013 -0.106500 0.034868
v -0.003074 -0.106500 0.046750
v -0.003013 -0.103500 0.021132
v -0.003013 -0.103500 0.034868
v -0.002510 -0.069500 0.000113
v -0.001634 -0.156500 0.016112
v -0.002054 -0.146500 0.009111
v -0.002175 -0.103500 0.006610
v -0.002219 -0.086500 0.052650
v -0.002091 -0.069500 0.008110
v -0.002091 -0.069500 0.047890
v -0.002091 -0.039500 0.008110
v -0.002091 -0.039500 0.047890
v -0.000523 -0.181500 0.023027
v -0.000523 -0.181500 0.032973
v -0.000523 -0.156500 0.023027
v -0.000523 -0.156500 0.032973
v -0.000619 -0.106500 0.020526
v -0.000619 -0.106500 0.035474
v -0.000619 -0.103500 0.020526
v -0.000619 -0.103500 0.035474
v 0.000000 -0.156500 0.040000
v 0.000000 -0.146500 0.047000
v 0.000000 -0.103500 0.049500
v 0.000000 -0.086500 0.003250
v 0.000000 -0.069500 0.056000
v 0.000000 -0.034500 0.010500
v 0.000000 -0.034500 0.045500
v 0.000000 0.020500 0.010500
v 0.000000 0.020500 0.045500
v 0.001029 -0.106500 0.009028
v 0.001029 -0.106500 0.046972
v 0.001545 -0.181500 0.023245
v 0.001545 -0.181500 0.032755
v 0.001634 -0.156500 0.016112
v 0.001545 -0.156500 0.023245
v 0.001545 -0.156500 0.032755
v 0.002054 -0.146500 0.009111
v 0.001841 -0.106500 0.020729
v 0.001841 -0.106500 0.035271
v 0.002175 -0.103500 0.006610
v 0.001841 -0.103500 0.020729
v 0.001841 -0.103500 0.035271
v 0.002219 -0.086500 0.052650
v 0.002091 -0.069500 0.008110
v 0.002091 -0.069500 0.047890
v 0.002091 -0.039500 0.008110
v 0.002091 -0.039500 0.047890
v 0.003346 -0.181500 0.024284
v 0.003346 -0.181500 0.031716
v 0.003346 -0.156500 0.024284
v 0.003346 -0.156500 0.031716
v 0.003238 -0.156500 0.039555
v 0.002510 -0.069500 0.000113
v 0.004084 -0.146500 0.046556
v 0.004102 -0.106500 0.021721
v 0.004102 -0.106500 0.034279
v 0.004102 -0.103500 0.021721
v 0.004102 -0.103500 0.034279
v 0.004328 -0.103500 0.049060
v 0.004419 -0.086500 0.003648
v 0.003894 -0.034500 0.010939
v 0.003894 -0.034500 0.045061
v 0.003894 0.020500 0.010939
v 0.003894 0.020500 0.045061
v 0.004568 -0.181500 0.025966
v 0.005000 -0.181500 0.028000
v 0.004568 -0.181500 0.030034
v 0.004781 -0.156500 0.016993
v 0.004568 -0.156500 0.025966
v 0.005000 -0.156500 0.028000
v 0.004568 -0.156500 0.030034
v 0.005083 -0.106500 0.009693
v 0.005083 -0.106500 0.046307
v 0.005000 -0.069500 0.055550
v 0.006235 -0.156500 0.038253
v 0.006067 -0.146500 0.009995
v 0.005919 -0.106500 0.023393
v 0.005919 -0.106500 0.032607
v 0.006436 -0.103500 0.007486
v 0.005919 -0.103500 0.023393
v 0.005919 -0.103500 0.032607
v 0.006180 -0.069500 0.008979
v 0.006180 -0.069500 0.047021
v 0.006180 -0.039500 0.008979
v 0.006180 -0.039500 0.047021
v 0.007094 -0.106500 0.025565
v 0.007094 -0.106500 0.030435
v 0.007094 -0.103500 0.025565
v 0.007094 -0.103500 0.030435
v 0.006584 -0.086500 0.051858
v 0.007449 -0.069500 0.001009
v 0.007573 -0.156500 0.018691
v 0.007978 -0.146500 0.045244
v 0.007500 -0.106500 0.028000
v 0.007500 -0.103500 0.028000
v 0.008479 -0.103500 0.047758
v 0.007593 -0.034500 0.012233
v 0.007593 -0.034500 0.043767
v 0.007593 0.020500 0.012233
v 0.007593 0.020500 0.043767
v 0.008770 -0.156500 0.036191
v 0.008900 -0.106500 0.011213
v 0.008900 -0.106500 0.044787
v 0.008697 -0.086500 0.004828
v 0.009804 -0.156500 0.021080
v 0.009796 -0.146500 0.011720
v 0.010434 -0.103500 0.009202
v 0.010000 -0.069500 0.010679
v 0.010000 -0.069500 0.045321
v 0.009838 -0.069500 0.054215
v 0.010000 -0.039500 0.010679
v 0.010000 -0.039500 0.045321
v 0.011307 -0.156500 0.023981
v 0.010655 -0.156500 0.033521
v 0.011498 -0.146500 0.043126
v 0.010739 -0.086500 0.050299
v 0.010911 -0.034500 0.014318
v 0.010911 -0.034500 0.041682
v 0.010911 0.020500 0.014318
v 0.010911 0.020500 0.041682
v 0.011972 -0.156500 0.027181
v 0.011749 -0.156500 0.030441
v 0.012300 -0.106500 0.013519
v 0.012300 -0.106500 0.042481
v 0.012282 -0.103500 0.045646
v 0.012149 -0.069500 0.002773
v 0.013066 -0.146500 0.014206
v 0.012694 -0.086500 0.006753
v 0.013383 -0.069500 0.013137
v 0.013383 -0.069500 0.042863
v 0.013383 -0.039500 0.013137
v 0.013383 -0.039500 0.042863
v 0.014481 -0.146500 0.040300
v 0.014005 -0.103500 0.011687
v 0.014361 -0.069500 0.052037
v 0.013682 -0.034500 0.017089
v 0.013682 -0.034500 0.038911
v 0.013682 0.020500 0.017089
v 0.013682 0.020500 0.038911
v 0.015126 -0.106500 0.016502
v 0.015126 -0.106500 0.039498
v 0.014548 -0.086500 0.048023
v 0.015726 -0.146500 0.017337
v 0.015583 -0.103500 0.042813
v 0.016284 -0.086500 0.009361
v 0.016458 -0.069500 0.005348
v 0.016180 -0.069500 0.016244
v 0.016180 -0.069500 0.039756
v 0.016180 -0.039500 0.016244
v 0.016180 -0.039500 0.039756
v 0.015767 -0.034500 0.020407
v 0.015767 -0.034500 0.035593
v 0.015767 0.020500 0.020407
v 0.015767 0.020500 0.035593
v 0.016787 -0.146500 0.036900
v 0.017244 -0.106500 0.020022
v 0.017244 -0.106500 0.035978
v 0.017002 -0.103500 0.014840
v 0.017061 -0.034500 0.024106
v 0.017061 -0.034500 0.031894
v 0.017061 0.020500 0.024106
v 0.017061 0.020500 0.031894
v 0.017651 -0.146500 0.020967
v 0.018307 -0.146500 0.033083
v 0.018246 -0.103500 0.039373
v 0.017889 -0.086500 0.045104
v 0.018271 -0.069500 0.019865
v 0.018271 -0.069500 0.036135
v 0.018422 -0.069500 0.049086
v 0.018271 -0.039500 0.019865
v 0.018271 -0.039500 0.036135
v 0.017500 -0.034500 0.028000
v 0.017500 0.020500 0.028000
v 0.018750 -0.146500 0.024926
v 0.018972 -0.146500 0.029029
v 0.018556 -0.106500 0.023916
v 0.019000 -0.106500 0.028000
v 0.018556 -0.106500 0.032084
v 0.019303 -0.103500 0.018532
v 0.019350 -0.086500 0.012569
v 0.020162 -0.103500 0.035467
v 0.020238 -0.069500 0.008650
v 0.019563 -0.069500 0.023842
v 0.020000 -0.069500 0.028000
v 0.019563 -0.069500 0.032158
v 0.019563 -0.039500 0.023842
v 0.020000 -0.039500 0.028000
v 0.019563 -0.039500 0.032158
v 0.020814 -0.103500 0.022611
v 0.021472 -0.103500 0.026911
v 0.021252 -0.103500 0.031256
v 0.020656 -0.086500 0.041635
v 0.021795 -0.086500 0.016272
v 0.021891 -0.069500 0.045458
v 0.021902 -0.001500 0.000000
v 0.021902 -0.001500 0.005000
v 0.021500 0.000000 0.000000
v 0.021500 0.000000 0.005000
v 0.021902 0.001500 0.000000
v 0.021902 0.001500 0.005000
v 0.022758 -0.086500 0.037727
v 0.023368 -0.069500 0.012575
v 0.023000 -0.002598 0.000000
v 0.023000 -0.002598 0.005000
v 0.023000 0.002598 0.000000
v 0.023000 0.002598 0.005000
v 0.023539 -0.086500 0.020352
v 0.024129 -0.086500 0.033507
v 0.024526 -0.086500 0.024678
v 0.024725 -0.086500 0.029110
v 0.024657 -0.069500 0.041268
v 0.024500 -0.003000 0.000000
v 0.024500 -0.003000 0.005000
v 0.024500 0.003000 0.000000
v 0.024500 0.003000 0.005000
v 0.025747 -0.069500 0.016995
v 0.026000 -0.002598 0.000000
v 0.026000 -0.002598 0.005000
v 0.026000 0.002598 0.000000
v 0.026000 0.002598 0.005000
v 0.027298 -0.069500 0.021769
v 0.026630 -0.069500 0.036652
v 0.027098 -0.001500 0.000000
v 0.027098 -0.001500 0.005000
v 0.027500 0.000000 0.000000
v 0.027500 0.000000 0.005000
v 0.027098 0.001500 0.000000
v 0.027098 0.001500 0.005000
v 0.027972 -0.069500 0.026744
v 0.027747 -0.069500 0.031759
v 0.045000 -0.039500 0.000000
v 0.045000 -0.039500 0.050000
v 0.045000 -0.034500 0.005000
v 0.045000 -0.034500 0.050000
v 0.045000 0.010500 0.000000
v 0.045000 0.010500 0.005000
vt -0.002500 0.000000 0.000000
vt -0.002500 -0.000209 0.000000
vt -0.002500 -0.000419 0.000000
vt -0.002500 -0.000628 0.000000
vt -0.002500 -0.000838 0.000000
vt -0.002500 -0.001047 0.000000
vt -0.002500 -0.001257 0.000000
vt -0.002500 -0.001466 0.000000
vt -0.002500 0.001466 0.000000
vt -0.002500 0.001257 0.000000
vt -0.002500 0.001047 0.000000
vt -0.002500 0.000838 0.000000
vt -0.002500 0.000628 0.000000
vt -0.002500 0.000419 0.000000
vt -0.002500 0.000209 0.000000
vt -0.000000 0.000000 0.000000
vt -0.000000 0.000209 0.000000
vt -0.000000 0.000419 0.000000
vt -0.000000 0.000628 0.000000
vt -0.000000 0.000838 0.000000
vt -0.000000 0.001047 0.000000
vt -0.000000 0.001257 0.000000
vt -0.000000 -0.001676 0.000000
vt -0.000000 -0.001466 0.000000
vt -0.000000 -0.001257 0.000000
vt -0.000000 -0.001047 0.000000
vt -0.000000 -0.000838 0.000000
vt -0.000000 -0.000628 0.000000
vt -0.000000 -0.000419 0.000000
vt -0.000000 -0.000209 0.000000
vt -0.000000 0.001466 0.000000
vt -0.000000 0.001466 0.000000
vt -0.002500 -0.001676 0.000000
vt -0.002500 -0.001676 0.000000
vt 0.000000 0.000500 0.000000
vt -0.000203 0.000457 0.000000
vt -0.000372 0.000335 0.000000
vt -0.000476 0.000155 0.000000
vt -0.000497 -0.000052 0.000000
vt -0.000433 -0.000250 0.000000
vt -0.000294 -0.000405 0.000000
vt -0.000104 -0.000489 0.000000
vt 0.000104 -0.000489 0.000000
vt 0.000294 -0.000405 0.000000
vt 0.000433 -0.000250 0.000000
vt 0.000497 -0.000052 0.000000
vt 0.000476 0.000155 0.000000
vt 0.000372 0.000335 0.000000
vt 0.000203 0.000457 0.000000
vt -0.000610 0.000000 0.000000
vt -0.000610 -0.000423 0.000000
vt -0.000610 -0.000847 0.000000
vt -0.000610 -0.001270 0.000000
vt -0.000610 -0.001694 0.000000
vt -0.000610 -0.002117 0.000000
vt -0.000610 -0.002541 0.000000
vt -0.000610 -0.002964 0.000000
vt -0.000610 -0.003387 0.000000
vt -0.000610 -0.003811 0.000000
vt -0.000610 -0.004234 0.000000
vt -0.000610 0.005081 0.000000
vt -0.000610 0.004658 0.000000
vt -0.000610 0.004234 0.000000
vt -0.000610 0.003811 0.000000
vt -0.000610 0.003387 0.000000
vt -0.000610 0.002964 0.000000
vt -0.000610 0.002541 0.000000
vt -0.000610 0.002117 0.000000
vt -0.000610 0.001694 0.000000
vt -0.000610 0.001270 0.000000
vt -0.000610 0.000847 0.000000
vt -0.000610 0.000423 0.000000
vt 0.000610 0.000000 0.000000
vt 0.000610 0.000336 0.000000
vt 0.000610 0.000672 0.000000
vt 0.000610 0.001007 0.000000
vt 0.000610 0.001343 0.000000
vt 0.000610 0.001679 0.000000
vt 0.000610 0.002015 0.000000
vt 0.000610 0.002351 0.000000
vt 0.000610 0.002687 0.000000
vt 0.000610 0.003022 0.000000
vt 0.000610 0.003358 0.000000
vt 0.000610 0.003694 0.000000
vt 0.000610 0.004030 0.000000
vt 0.000610 0.004366 0.000000
vt 0.000610 0.004702 0.000000
vt 0.000610 -0.004702 0.000000
vt 0.000610 -0.004366 0.000000
vt 0.000610 -0.004030 0.000000
vt 0.000610 -0.003694 0.000000
vt 0.000610 -0.003358 0.000000
vt 0.000610 -0.003022 0.000000
vt 0.000610 -0.002687 0.000000
vt 0.000610 -0.002351 0.000000
vt 0.000610 -0.002015 0.000000
vt 0.000610 -0.001679 0.000000
vt 0.000610 -0.001343 0.000000
vt 0.000610 -0.001007 0.000000
vt 0.000610 -0.000672 0.000000
vt 0.000610 -0.000336 0.000000
vt -0.000610 -0.004658 0.000000
vt -0.000610 -0.004658 0.000000
vt 0.000610 0.005037 0.000000
vt 0.000610 0.005037 0.000000
vt 0.000000 0.000500 0.000000
vt 0.000203 0.000457 0.000000
vt 0.000372 0.000335 0.000000
vt 0.000476 0.000155 0.000000
vt 0.000497 -0.000052 0.000000
vt 0.000433 -0.000250 0.000000
vt 0.000294 -0.000405 0.000000
vt 0.000104 -0.000489 0.000000
vt -0.000104 -0.000489 0.000000
vt -0.000294 -0.000405 0.000000
vt -0.000433 -0.000250 0.000000
vt -0.000497 -0.000052 0.000000
vt -0.000476 0.000155 0.000000
vt -0.000372 0.000335 0.000000
vt -0.000203 0.000457 0.000000
vt -0.001200 0.000000 0.000000
vt -0.001156 -0.000324 0.000000
vt -0.001025 -0.000624 0.000000
vt -0.000819 -0.000877 0.000000
vt -0.000552 -0.001065 0.000000
vt -0.000244 -0.001175 0.000000
vt 0.000082 -0.001197 0.000000
vt 0.000402 -0.001131 0.000000
vt 0.000692 -0.000980 0.000000
vt 0.000931 -0.000757 0.000000
vt 0.001101 -0.000478 0.000000
vt 0.001189 -0.000163 0.000000
vt 0.001189 0.000163 0.000000
vt 0.001101 0.000478 0.000000
vt 0.000931 0.000757 0.000000
vt 0.000692 0.000980 0.000000
vt 0.000402 0.001131 0.000000
vt 0.000082 0.001197 0.000000
vt -0.000244 0.001175 0.000000
vt -0.000552 0.001065 0.000000
vt -0.000819 0.000877 0.000000
vt -0.001025 0.000624 0.000000
vt -0.001156 0.000324 0.000000
vt -0.000000 0.001900 0.000000
vt -0.000408 0.001856 0.000000
vt -0.000798 0.001724 0.000000
vt -0.001150 0.001513 0.000000
vt -0.001448 0.001230 0.000000
vt -0.001679 0.000890 0.000000
vt -0.001831 0.000508 0.000000
vt -0.001897 0.000103 0.000000
vt -0.001875 -0.000307 0.000000
vt -0.001765 -0.000703 0.000000
vt -0.001573 -0.001066 0.000000
vt -0.001307 -0.001379 0.000000
vt -0.000980 -0.001628 0.000000
vt -0.000607 -0.001801 0.000000
vt -0.000205 -0.001889 0.000000
vt 0.000205 -0.001889 0.000000
vt 0.000607 -0.001801 0.000000
vt 0.000980 -0.001628 0.000000
vt 0.001307 -0.001379 0.000000
vt 0.001573 -0.001066 0.000000
vt 0.001765 -0.000703 0.000000
vt 0.001875 -0.000307 0.000000
vt 0.001897 0.000103 0.000000
vt 0.001831 0.000508 0.000000
vt 0.001679 0.000890 0.000000
vt 0.001448 0.001230 0.000000
vt 0.001150 0.001513 0.000000
vt 0.000798 0.001724 0.000000
vt 0.000408 0.001856 0.000000
vt -0.000000 0.000750 0.000000
vt 0.000244 0.000709 0.000000
vt 0.000461 0.000592 0.000000
vt 0.000628 0.000410 0.000000
vt 0.000727 0.000184 0.000000
vt 0.000747 -0.000062 0.000000
vt 0.000687 -0.000301 0.000000
vt 0.000552 -0.000508 0.000000
vt 0.000357 -0.000660 0.000000
vt 0.000123 -0.000740 0.000000
vt -0.000123 -0.000740 0.000000
vt -0.000357 -0.000660 0.000000
vt -0.000552 -0.000508 0.000000
vt -0.000687 -0.000301 0.000000
vt -0.000747 -0.000062 0.000000
vt -0.000727 0.000184 0.000000
vt -0.000628 0.000410 0.000000
vt -0.000461 0.000592 0.000000
vt -0.000244 0.000709 0.000000
vt -0.004000 0.002985 0.000000
vt -0.004000 0.002573 0.000000
vt -0.004000 0.002161 0.000000
vt -0.004000 0.001750 0.000000
vt -0.004000 0.001338 0.000000
vt -0.004000 0.000926 0.000000
vt -0.004000 0.000515 0.000000
vt -0.004000 0.000103 0.000000
vt -0.004000 -0.000309 0.000000
vt -0.004000 -0.000720 0.000000
vt -0.004000 -0.001132 0.000000
vt -0.004000 -0.001544 0.000000
vt -0.004000 -0.001955 0.000000
vt -0.004000 -0.002367 0.000000
vt -0.004000 -0.002779 0.000000
vt -0.004000 -0.003190 0.000000
vt -0.004000 -0.003602 0.000000
vt -0.004000 -0.004014 0.000000
vt -0.004000 -0.004425 0.000000
vt -0.004000 -0.004837 0.000000
vt -0.004000 -0.005249 0.000000
vt -0.004000 0.006278 0.000000
vt -0.004000 0.005866 0.000000
vt -0.004000 0.005454 0.000000
vt -0.004000 0.005043 0.000000
vt -0.004000 0.004631 0.000000
vt -0.004000 0.004219 0.000000
vt -0.004000 0.003808 0.000000
vt -0.004000 0.003396 0.000000
vt -0.000000 0.000000 0.000000
vt -0.000000 0.000412 0.000000
vt -0.000000 0.000823 0.000000
vt -0.000000 0.001235 0.000000
vt -0.000000 0.001647 0.000000
vt -0.000000 0.002058 0.000000
vt -0.000000 0.002470 0.000000
vt -0.000000 0.002882 0.000000
vt -0.000000 0.003293 0.000000
vt -0.000000 0.003705 0.000000
vt -0.000000 0.004117 0.000000
vt -0.000000 0.004528 0.000000
vt -0.000000 0.004940 0.000000
vt -0.000000 0.005352 0.000000
vt -0.000000 0.005763 0.000000
vt -0.000000 -0.005763 0.000000
vt -0.000000 -0.005352 0.000000
vt -0.000000 -0.004940 0.000000
vt -0.000000 -0.004528 0.000000
vt -0.000000 -0.004117 0.000000
vt -0.000000 -0.003705 0.000000
vt -0.000000 -0.003293 0.000000
vt -0.000000 -0.002882 0.000000
vt -0.000000 -0.002470 0.000000
vt -0.000000 -0.002058 0.000000
vt -0.000000 -0.001647 0.000000
vt -0.000000 -0.001235 0.000000
vt -0.000000 -0.000823 0.000000
vt -0.000000 -0.000412 0.000000
vt -0.000000 0.006175 0.000000
vt -0.000000 0.006175 0.000000
vt -0.004000 -0.005660 0.000000
vt -0.004000 -0.005660 0.000000
vt -0.000300 0.000000 0.000000
vt -0.000300 -0.000248 0.000000
vt -0.000300 -0.000496 0.000000
vt -0.000300 -0.000744 0.000000
vt -0.000300 -0.000992 0.000000
vt -0.000300 -0.001240 0.000000
vt -0.000300 -0.001488 0.000000
vt -0.000300 -0.001736 0.000000
vt -0.000300 -0.001984 0.000000
vt -0.000300 -0.002232 0.000000
vt -0.000300 0.002232 0.000000
vt -0.000300 0.001984 0.000000
vt -0.000300 0.001736 0.000000
vt -0.000300 0.001488 0.000000
vt -0.000300 0.001240 0.000000
vt -0.000300 0.000992 0.000000
vt -0.000300 0.000744 0.000000
vt -0.000300 0.000496 0.000000
vt -0.000300 0.000248 0.000000
vt -0.000000 0.000000 0.000000
vt -0.000000 0.000248 0.000000
vt -0.000000 0.000496 0.000000
vt -0.000000 0.000744 0.000000
vt -0.000000 0.000992 0.000000
vt -0.000000 0.001240 0.000000
vt -0.000000 0.001488 0.000000
vt -0.000000 0.001736 0.000000
vt -0.000000 0.001984 0.000000
vt -0.000000 -0.002480 0.000000
vt -0.000000 -0.002232 0.000000
vt -0.000000 -0.001984 0.000000
vt -0.000000 -0.001736 0.000000
vt -0.000000 -0.001488 0.000000
vt -0.000000 -0.001240 0.000000
vt -0.000000 -0.000992 0.000000
vt -0.000000 -0.000744 0.000000
vt -0.000000 -0.000496 0.000000
vt -0.000000 -0.000248 0.000000
vt -0.000300 -0.002480 0.000000
vt -0.000300 -0.002480 0.000000
vt -0.000000 0.002232 0.000000
vt -0.000000 0.002232 0.000000
vt 0.002800 0.000000 0.000000
vt 0.002755 0.000500 0.000000
vt 0.002621 0.000984 0.000000
vt 0.002404 0.001436 0.000000
vt 0.002109 0.001842 0.000000
vt 0.001746 0.002189 0.000000
vt 0.001327 0.002466 0.000000
vt 0.000865 0.002663 0.000000
vt 0.000376 0.002775 0.000000
vt -0.000126 0.002797 0.000000
vt -0.000623 0.002730 0.000000
vt -0.001100 0.002575 0.000000
vt -0.001543 0.002337 0.000000
vt -0.001935 0.002024 0.000000
vt -0.002265 0.001646 0.000000
vt -0.002523 0.001215 0.000000
vt -0.002699 0.000745 0.000000
vt -0.002789 0.000251 0.000000
vt -0.002789 -0.000251 0.000000
vt -0.002699 -0.000745 0.000000
vt -0.002523 -0.001215 0.000000
vt -0.002265 -0.001646 0.000000
vt -0.001935 -0.002024 0.000000
vt -0.001543 -0.002337 0.000000
vt -0.001100 -0.002575 0.000000
vt -0.000623 -0.002730 0.000000
vt -0.000126 -0.002797 0.000000
vt 0.000376 -0.002775 0.000000
vt 0.000865 -0.002663 0.000000
vt 0.001327 -0.002466 0.000000
vt 0.001746 -0.002189 0.000000
vt 0.002109 -0.001842 0.000000
vt 0.002404 -0.001436 0.000000
vt 0.002621 -0.000984 0.000000
vt 0.002755 -0.000500 0.000000
vt 0.000000 0.002000 0.000000
vt 0.000416 0.001956 0.000000
vt 0.000813 0.001827 0.000000
vt 0.001176 0.001618 0.000000
vt 0.001486 0.001338 0.000000
vt 0.001732 0.001000 0.000000
vt 0.001902 0.000618 0.000000
vt 0.001989 0.000209 0.000000
vt 0.001989 -0.000209 0.000000
vt 0.001902 -0.000618 0.000000
vt 0.001732 -0.001000 0.000000
vt 0.001486 -0.001338 0.000000
vt 0.001176 -0.001618 0.000000
vt 0.000813 -0.001827 0.000000
vt 0.000416 -0.001956 0.000000
vt 0.000000 -0.002000 0.000000
vt -0.000416 -0.001956 0.000000
vt -0.000813 -0.001827 0.000000
vt -0.001176 -0.001618 0.000000
vt -0.001486 -0.001338 0.000000
vt -0.001732 -0.001000 0.000000
vt -0.001902 -0.000618 0.000000
vt -0.001989 -0.000209 0.000000
vt -0.001989 0.000209 0.000000
vt -0.001902 0.000618 0.000000
vt -0.001732 0.001000 0.000000
vt -0.001486 0.001338 0.000000
vt -0.001176 0.001618 0.000000
vt -0.000813 0.001827 0.000000
vt -0.000416 0.001956 0.000000
vt 0.002150 0.000750 0.000000
vt 0.002394 0.000709 0.000000
vt 0.002611 0.000592 0.000000
vt 0.002778 0.000410 0.000000
vt 0.002877 0.000184 0.000000
vt 0.002897 -0.000062 0.000000
vt 0.002837 -0.000301 0.000000
vt 0.002702 -0.000508 0.000000
vt 0.002507 -0.000660 0.000000
vt 0.002273 -0.000740 0.000000
vt 0.002027 -0.000740 0.000000
vt 0.001793 -0.000660 0.000000
vt 0.001598 -0.000508 0.000000
vt 0.001463 -0.000301 0.000000
vt 0.001403 -0.000062 0.000000
vt 0.001423 0.000184 0.000000
vt 0.001522 0.000410 0.000000
vt 0.001689 0.000592 0.000000
vt 0.001906 0.000709 0.000000
vt 0.000000 0.000000 0.000000
vt 0.000044 -0.000433 0.000000
vt 0.000174 -0.000848 0.000000
vt 0.000385 -0.001228 0.000000
vt 0.000669 -0.001558 0.000000
vt 0.001013 -0.001825 0.000000
vt 0.001403 -0.002016 0.000000
vt 0.001824 -0.002125 0.000000
vt 0.002259 -0.002147 0.000000
vt 0.002689 -0.002081 0.000000
vt 0.003097 -0.001930 0.000000
vt 0.003466 -0.001700 0.000000
vt 0.003781 -0.001400 0.000000
vt 0.004030 -0.001043 0.000000
vt 0.004201 -0.000644 0.000000
vt 0.004289 -0.000218 0.000000
vt 0.004289 0.000218 0.000000
vt 0.004201 0.000644 0.000000
vt 0.004030 0.001043 0.000000
vt 0.003781 0.001400 0.000000
vt 0.003466 0.001700 0.000000
vt 0.003097 0.001930 0.000000
vt 0.002689 0.002081 0.000000
vt 0.002259 0.002147 0.000000
vt 0.001824 0.002125 0.000000
vt 0.001403 0.002016 0.000000
vt 0.001013 0.001825 0.000000
vt 0.000669 0.001558 0.000000
vt 0.000385 0.001228 0.000000
vt 0.000174 0.000848 0.000000
vt 0.000044 0.000433 0.000000
vt 0.001731 0.000000 0.000000
vt 0.001731 0.000502 0.000000
vt 0.001731 0.001003 0.000000
vt 0.001731 0.001505 0.000000
vt 0.001731 0.002007 0.000000
vt 0.001731 0.002508 0.000000
vt 0.001731 0.003010 0.000000
vt 0.001731 0.003511 0.000000
vt 0.001731 0.004013 0.000000
vt 0.001731 0.004515 0.000000
vt 0.001731 0.005016 0.000000
vt 0.001731 0.005518 0.000000
vt 0.001731 0.006020 0.000000
vt 0.001731 0.006521 0.000000
vt 0.001731 0.007023 0.000000
vt 0.001731 -0.008026 0.000000
vt 0.001731 -0.007525 0.000000
vt 0.001731 -0.007023 0.000000
vt 0.001731 -0.006521 0.000000
vt 0.001731 -0.006020 0.000000
vt 0.001731 -0.005518 0.000000
vt 0.001731 -0.005016 0.000000
vt 0.001731 -0.004515 0.000000
vt 0.001731 -0.004013 0.000000
vt 0.001731 -0.003511 0.000000
vt 0.001731 -0.003010 0.000000
vt 0.001731 -0.002508 0.000000
vt 0.001731 -0.002007 0.000000
vt 0.001731 -0.001505 0.000000
vt 0.001731 -0.001003 0.000000
vt 0.001731 -0.000502 0.000000
vt -0.001731 0.000000 0.000000
vt -0.001731 -0.000444 0.000000
vt -0.001731 -0.000889 0.000000
vt -0.001731 -0.001333 0.000000
vt -0.001731 -0.001777 0.000000
vt -0.001731 -0.002222 0.000000
vt -0.001731 -0.002666 0.000000
vt -0.001731 -0.003110 0.000000
vt -0.001731 -0.003554 0.000000
vt -0.001731 -0.003999 0.000000
vt -0.001731 -0.004443 0.000000
vt -0.001731 -0.004887 0.000000
vt -0.001731 -0.005332 0.000000
vt -0.001731 -0.005776 0.000000
vt -0.001731 -0.006220 0.000000
vt -0.001731 -0.006665 0.000000
vt -0.001731 -0.007109 0.000000
vt -0.001731 0.007998 0.000000
vt -0.001731 0.007553 0.000000
vt -0.001731 0.007109 0.000000
vt -0.001731 0.006665 0.000000
vt -0.001731 0.006220 0.000000
vt -0.001731 0.005776 0.000000
vt -0.001731 0.005332 0.000000
vt -0.001731 0.004887 0.000000
vt -0.001731 0.004443 0.000000
vt -0.001731 0.003999 0.000000
vt -0.001731 0.003554 0.000000
vt -0.001731 0.003110 0.000000
vt -0.001731 0.002666 0.000000
vt -0.001731 0.002222 0.000000
vt -0.001731 0.001777 0.000000
vt -0.001731 0.001333 0.000000
vt -0.001731 0.000889 0.000000
vt -0.001731 0.000444 0.000000
vt -0.000000 -0.005554 0.000000
vt -0.000000 -0.001555 0.000000
vt -0.000000 0.001555 0.000000
vt -0.000000 0.005554 0.000000
vt -0.000000 0.000222 0.000000
vt -0.000000 -0.000222 0.000000
vt -0.000000 0.000666 0.000000
vt -0.000000 0.001111 0.000000
vt -0.000000 0.002444 0.000000
vt -0.000000 0.001999 0.000000
vt -0.000000 0.002888 0.000000
vt -0.000000 0.003332 0.000000
vt -0.000000 0.003777 0.000000
vt -0.000000 0.004221 0.000000
vt -0.000000 0.004665 0.000000
vt -0.000000 0.005110 0.000000
vt -0.000000 0.006443 0.000000
vt -0.000000 0.005998 0.000000
vt -0.000000 0.006887 0.000000
vt -0.000000 0.007331 0.000000
vt -0.000000 0.007775 0.000000
vt -0.000000 -0.007331 0.000000
vt -0.000000 -0.006887 0.000000
vt -0.000000 -0.006443 0.000000
vt -0.000000 -0.005998 0.000000
vt -0.000000 -0.005110 0.000000
vt -0.000000 -0.004665 0.000000
vt -0.000000 -0.004221 0.000000
vt -0.000000 -0.003777 0.000000
vt -0.000000 -0.003332 0.000000
vt -0.000000 -0.002888 0.000000
vt -0.000000 -0.002444 0.000000
vt -0.000000 -0.001999 0.000000
vt -0.000000 -0.001111 0.000000
vt -0.000000 -0.000666 0.000000
vt -0.000000 0.008220 0.000000
vt -0.001731 -0.007553 0.000000
vt 0.001731 0.007525 0.000000
vt 0.001731 0.007525 0.000000
vt -0.000000 -0.007775 0.000000
vt -0.000000 -0.007775 0.000000
vt -0.003000 0.000000 0.000000
vt -0.003000 -0.000419 0.000000
vt -0.003000 -0.000838 0.000000
vt -0.003000 -0.001257 0.000000
vt -0.003000 -0.001676 0.000000
vt -0.003000 -0.002094 0.000000
vt -0.003000 -0.002513 0.000000
vt -0.003000 -0.002932 0.000000
vt -0.003000 -0.003351 0.000000
vt -0.003000 -0.003770 0.000000
vt -0.003000 -0.004189 0.000000
vt -0.003000 -0.004608 0.000000
vt -0.003000 -0.005027 0.000000
vt -0.003000 -0.005445 0.000000
vt -0.003000 -0.005864 0.000000
vt -0.003000 0.006283 0.000000
vt -0.003000 0.005864 0.000000
vt -0.003000 0.005445 0.000000
vt -0.003000 0.005027 0.000000
vt -0.003000 0.004608 0.000000
vt -0.003000 0.004189 0.000000
vt -0.003000 0.003770 0.000000
vt -0.003000 0.003351 0.000000
vt -0.003000 0.002932 0.000000
vt -0.003000 0.002513 0.000000
vt -0.003000 0.002094 0.000000
vt -0.003000 0.001676 0.000000
vt -0.003000 0.001257 0.000000
vt -0.003000 0.000838 0.000000
vt -0.003000 0.000419 0.000000
vt -0.000000 0.000000 0.000000
vt -0.000000 0.000419 0.000000
vt -0.000000 0.000838 0.000000
vt -0.000000 0.001257 0.000000
vt -0.000000 0.001676 0.000000
vt -0.000000 0.002094 0.000000
vt -0.000000 0.002513 0.000000
vt -0.000000 0.002932 0.000000
vt -0.000000 0.003351 0.000000
vt -0.000000 0.003770 0.000000
vt -0.000000 0.004189 0.000000
vt -0.000000 0.004608 0.000000
vt -0.000000 0.005027 0.000000
vt -0.000000 0.005445 0.000000
vt -0.000000 0.005864 0.000000
vt -0.000000 -0.006283 0.000000
vt -0.000000 -0.005864 0.000000
vt -0.000000 -0.005445 0.000000
vt -0.000000 -0.005027 0.000000
vt -0.000000 -0.004608 0.000000
vt -0.000000 -0.004189 0.000000
vt -0.000000 -0.003770 0.000000
vt -0.000000 -0.003351 0.000000
vt -0.000000 -0.002932 0.000000
vt -0.000000 -0.002513 0.000000
vt -0.000000 -0.002094 0.000000
vt -0.000000 -0.001676 0.000000
vt -0.000000 -0.001257 0.000000
vt -0.000000 -0.000838 0.000000
vt -0.000000 -0.000419 0.000000
vt -0.000000 0.006283 0.000000
vt -0.003000 -0.006283 0.000000
vt -0.005500 0.000000 0.000000
vt -0.005500 -0.000393 0.000000
vt -0.005500 -0.000785 0.000000
vt -0.005500 -0.001178 0.000000
vt -0.005500 -0.001571 0.000000
vt -0.005500 -0.001963 0.000000
vt -0.005500 -0.002356 0.000000
vt -0.005500 -0.002749 0.000000
vt -0.005500 -0.003142 0.000000
vt -0.005500 -0.003534 0.000000
vt -0.005500 -0.003927 0.000000
vt -0.005500 -0.004320 0.000000
vt -0.005500 -0.004712 0.000000
vt -0.005500 -0.005105 0.000000
vt -0.005500 0.005498 0.000000
vt -0.005500 0.005105 0.000000
vt -0.005500 0.004712 0.000000
vt -0.005500 0.004320 0.000000
vt -0.005500 0.003927 0.000000
vt -0.005500 0.003534 0.000000
vt -0.005500 0.003142 0.000000
vt -0.005500 0.002749 0.000000
vt -0.005500 0.002356 0.000000
vt -0.005500 0.001963 0.000000
vt -0.005500 0.001571 0.000000
vt -0.005500 0.001178 0.000000
vt -0.005500 0.000785 0.000000
vt -0.005500 0.000393 0.000000
vt -0.000000 0.000000 0.000000
vt -0.000000 0.000393 0.000000
vt -0.000000 0.000785 0.000000
vt -0.000000 0.001178 0.000000
vt -0.000000 0.001571 0.000000
vt -0.000000 0.001963 0.000000
vt -0.000000 0.002356 0.000000
vt -0.000000 0.002749 0.000000
vt -0.000000 0.003142 0.000000
vt -0.000000 0.003534 0.000000
vt -0.000000 0.003927 0.000000
vt -0.000000 0.004320 0.000000
vt -0.000000 0.004712 0.000000
vt -0.000000 0.005105 0.000000
vt -0.000000 -0.005498 0.000000
vt -0.000000 -0.005105 0.000000
vt -0.000000 -0.004712 0.000000
vt -0.000000 -0.004320 0.000000
vt -0.000000 -0.003927 0.000000
vt -0.000000 -0.003534 0.000000
vt -0.000000 -0.003142 0.000000
vt -0.000000 -0.002749 0.000000
vt -0.000000 -0.002356 0.000000
vt -0.000000 -0.001963 0.000000
vt -0.000000 -0.001571 0.000000
vt -0.000000 -0.001178 0.000000
vt -0.000000 -0.000785 0.000000
vt -0.000000 -0.000393 0.000000
vt -0.000000 0.005498 0.000000
vt -0.005500 -0.005498 0.000000
vt 0.000000 0.001750 0.000000
vt -0.000389 0.001706 0.000000
vt -0.000759 0.001577 0.000000
vt -0.001091 0.001368 0.000000
vt -0.001368 0.001091 0.000000
vt -0.001577 0.000759 0.000000
vt -0.001706 0.000389 0.000000
vt -0.001750 0.000000 0.000000
vt -0.001706 -0.000389 0.000000
vt -0.001577 -0.000759 0.000000
vt -0.001368 -0.001091 0.000000
vt -0.001091 -0.001368 0.000000
vt -0.000759 -0.001577 0.000000
vt -0.000389 -0.001706 0.000000
vt 0.000000 -0.001750 0.000000
vt 0.000389 -0.001706 0.000000
vt 0.000759 -0.001577 0.000000
vt 0.001091 -0.001368 0.000000
vt 0.001368 -0.001091 0.000000
vt 0.001577 -0.000759 0.000000
vt 0.001706 -0.000389 0.000000
vt 0.001750 0.000000 0.000000
vt 0.001706 0.000389 0.000000
vt 0.001577 0.000759 0.000000
vt 0.001368 0.001091 0.000000
vt 0.001091 0.001368 0.000000
vt 0.000759 0.001577 0.000000
vt 0.000389 0.001706 0.000000
vt -0.010946 -0.000942 0.000000
vt -0.010946 -0.000785 0.000000
vt -0.010946 -0.000628 0.000000
vt -0.010946 -0.000471 0.000000
vt -0.010946 -0.000314 0.000000
vt -0.010946 -0.000157 0.000000
vt -0.010946 0.000000 0.000000
vt -0.010946 0.000157 0.000000
vt -0.010946 0.000314 0.000000
vt -0.010946 0.000471 0.000000
vt -0.010946 0.000628 0.000000
vt -0.010946 0.000785 0.000000
vt -0.011446 0.000000 0.000000
vt -0.011446 -0.000157 0.000000
vt -0.011446 -0.000314 0.000000
vt -0.011446 -0.000471 0.000000
vt -0.011446 -0.000628 0.000000
vt -0.011446 -0.000785 0.000000
vt -0.011446 0.000942 0.000000
vt -0.011446 0.000785 0.000000
vt -0.011446 0.000628 0.000000
vt -0.011446 0.000471 0.000000
vt -0.011446 0.000314 0.000000
vt -0.011446 0.000157 0.000000
vt -0.011446 -0.000942 0.000000
vt -0.010946 0.000942 0.000000
vt 0.010946 0.000942 0.000000
vt 0.010946 0.000785 0.000000
vt 0.010946 0.000628 0.000000
vt 0.010946 0.000471 0.000000
vt 0.010946 0.000314 0.000000
vt 0.010946 0.000157 0.000000
vt 0.010946 0.000000 0.000000
vt 0.010946 -0.000157 0.000000
vt 0.010946 -0.000314 0.000000
vt 0.010946 -0.000471 0.000000
vt 0.010946 -0.000628 0.000000
vt 0.010946 -0.000785 0.000000
vt 0.011446 0.000000 0.000000
vt 0.011446 0.000157 0.000000
vt 0.011446 0.000314 0.000000
vt 0.011446 0.000471 0.000000
vt 0.011446 0.000628 0.000000
vt 0.011446 0.000785 0.000000
vt 0.011446 -0.000942 0.000000
vt 0.011446 -0.000785 0.000000
vt 0.011446 -0.000628 0.000000
vt 0.011446 -0.000471 0.000000
vt 0.011446 -0.000314 0.000000
vt 0.011446 -0.000157 0.000000
vt 0.011446 0.000942 0.000000
vt 0.010946 -0.000942 0.000000
vt 0.000000 0.000000 0.000000
vt 0.009000 0.000000 0.000000
vt 0.009000 0.000500 0.000000
vt 0.000000 0.000500 0.000000
vt 0.000050 0.001750 0.000000
vt 0.000439 0.001706 0.000000
vt 0.000809 0.001577 0.000000
vt 0.001141 0.001368 0.000000
vt 0.001418 0.001091 0.000000
vt 0.001627 0.000759 0.000000
vt 0.001756 0.000389 0.000000
vt 0.001800 0.000000 0.000000
vt 0.001756 -0.000389 0.000000
vt 0.001627 -0.000759 0.000000
vt 0.001418 -0.001091 0.000000
vt 0.001141 -0.001368 0.000000
vt 0.000809 -0.001577 0.000000
vt 0.000439 -0.001706 0.000000
vt 0.000050 -0.001750 0.000000
vt -0.000339 -0.001706 0.000000
vt -0.000709 -0.001577 0.000000
vt -0.001041 -0.001368 0.000000
vt -0.001318 -0.001091 0.000000
vt -0.001527 -0.000759 0.000000
vt -0.001656 -0.000389 0.000000
vt -0.001700 0.000000 0.000000
vt -0.001656 0.000389 0.000000
vt -0.001527 0.000759 0.000000
vt -0.001318 0.001091 0.000000
vt -0.001041 0.001368 0.000000
vt -0.000709 0.001577 0.000000
vt -0.000339 0.001706 0.000000
vt 0.002250 -0.004500 0.000000
vt 0.002250 0.004500 0.000000
vt -0.002250 0.004500 0.000000
vt -0.002250 -0.004500 0.000000
vt -0.002750 0.001450 0.000000
vt -0.002710 0.001600 0.000000
vt -0.002600 0.001710 0.000000
vt -0.002450 0.001750 0.000000
vt -0.002300 0.001710 0.000000
vt -0.002190 0.001600 0.000000
vt -0.002150 0.001450 0.000000
vt -0.002190 0.001300 0.000000
vt -0.002300 0.001190 0.000000
vt -0.002450 0.001150 0.000000
vt -0.002600 0.001190 0.000000
vt -0.002710 0.001300 0.000000
vt 0.002750 0.001450 0.000000
vt 0.002710 0.001300 0.000000
vt 0.002600 0.001190 0.000000
vt 0.002450 0.001150 0.000000
vt 0.002300 0.001190 0.000000
vt 0.002190 0.001300 0.000000
vt 0.002150 0.001450 0.000000
vt 0.002190 0.001600 0.000000
vt 0.002300 0.001710 0.000000
vt 0.002450 0.001750 0.000000
vt 0.002600 0.001710 0.000000
vt 0.002710 0.001600 0.000000
vt -0.004500 -0.002000 0.000000
vt 0.004500 -0.002000 0.000000
vt 0.004500 0.002500 0.000000
vt -0.004500 0.002500 0.000000
vt 0.000000 0.000000 0.000000
vt 0.005000 0.000000 0.000000
vt 0.005000 0.005000 0.000000
vt 0.004500 0.005000 0.000000
vt 0.004500 0.000500 0.000000
vt 0.000000 0.000500 0.000000
vt 0.000000 0.000000 0.000000
vt 0.009000 0.000000 0.000000
vt 0.009000 0.000500 0.000000
vt 0.000000 0.000500 0.000000
vt 0.000000 0.000000 0.000000
vt 0.005000 0.000000 0.000000
vt 0.005000 0.000500 0.000000
vt 0.000500 0.000500 0.000000
vt 0.000500 0.005000 0.000000
vt 0.000000 0.005000 0.000000
vt 0.006500 0.002800 0.000000
vt 0.006456 0.002384 0.000000
vt 0.006327 0.001987 0.000000
vt 0.006118 0.001624 0.000000
vt 0.005838 0.001314 0.000000
vt 0.005500 0.001068 0.000000
vt 0.005118 0.000898 0.000000
vt 0.004709 0.000811 0.000000
vt 0.004291 0.000811 0.000000
vt 0.003882 0.000898 0.000000
vt 0.003500 0.001068 0.000000
vt 0.003162 0.001314 0.000000
vt 0.002882 0.001624 0.000000
vt 0.002673 0.001987 0.000000
vt 0.002544 0.002384 0.000000
vt 0.002500 0.002800 0.000000
vt 0.002544 0.003216 0.000000
vt 0.002673 0.003613 0.000000
vt 0.002882 0.003976 0.000000
vt 0.003162 0.004286 0.000000
vt 0.003500 0.004532 0.000000
vt 0.003882 0.004702 0.000000
vt 0.004291 0.004789 0.000000
vt 0.004709 0.004789 0.000000
vt 0.005118 0.004702 0.000000
vt 0.005500 0.004532 0.000000
vt 0.005838 0.004286 0.000000
vt 0.006118 0.003976 0.000000
vt 0.006327 0.003613 0.000000
vt 0.006456 0.003216 0.000000
vt 0.000000 0.000000 0.000000
vt 0.009000 0.000000 0.000000
vt 0.009000 0.005000 0.000000
vt 0.000000 0.005000 0.000000
vt 0.002150 0.001450 0.000000
vt 0.002190 0.001600 0.000000
vt 0.002300 0.001710 0.000000
vt 0.002450 0.001750 0.000000
vt 0.002600 0.001710 0.000000
vt 0.002710 0.001600 0.000000
vt 0.002750 0.001450 0.000000
vt 0.002710 0.001300 0.000000
vt 0.002600 0.001190 0.000000
vt 0.002450 0.001150 0.000000
vt 0.002300 0.001190 0.000000
vt 0.002190 0.001300 0.000000
vt -0.002150 0.001450 0.000000
vt -0.002190 0.001300 0.000000
vt -0.002300 0.001190 0.000000
vt -0.002450 0.001150 0.000000
vt -0.002600 0.001190 0.000000
vt -0.002710 0.001300 0.000000
vt -0.002750 0.001450 0.000000
vt -0.002710 0.001600 0.000000
vt -0.002600 0.001710 0.000000
vt -0.002450 0.001750 0.000000
vt -0.002300 0.001710 0.000000
vt -0.002190 0.001600 0.000000
vt -0.004500 -0.002500 0.000000
vt 0.004500 -0.002500 0.000000
vt 0.004500 0.002500 0.000000
vt -0.004500 0.002500 0.000000
vn 0.100000 0.000000 0.000000
vn 0.091355 0.000000 -0.040674
vn 0.066913 0.000000 -0.074314
vn 0.030902 0.000000 -0.095106
vn -0.010453 0.000000 -0.099452
vn -0.050000 0.000000 -0.086603
vn -0.080902 0.000000 -0.058779
vn -0.097815 0.000000 -0.020791
vn -0.097815 0.000000 0.020791
vn -0.080902 0.000000 0.058779
vn -0.050000 0.000000 0.086603
vn -0.010453 0.000000 0.099452
vn 0.030902 0.000000 0.095106
vn 0.066913 0.000000 0.074314
vn 0.091355 0.000000 0.040674
vn 0.100000 0.000000 0.000000
vn 0.091355 0.000000 0.040674
vn 0.066913 0.000000 0.074314
vn 0.030902 0.000000 0.095106
vn -0.010453 0.000000 0.099452
vn -0.050000 0.000000 0.086603
vn -0.080902 0.000000 0.058779
vn -0.097815 0.000000 0.020791
vn -0.097815 0.000000 -0.020791
vn -0.080902 0.000000 -0.058779
vn -0.050000 0.000000 -0.086603
vn -0.010453 0.000000 -0.099452
vn 0.030902 0.000000 -0.095106
vn 0.066913 0.000000 -0.074314
vn 0.091355 0.000000 -0.040674
vn -0.097815 0.000000 0.020791
vn -0.097815 0.000000 0.020791
vn -0.097815 0.000000 0.020791
vn -0.097815 0.000000 0.020791
vn 0.000000 -0.100000 0.000000
vn 0.000000 -0.100000 0.000000
vn 0.000000 -0.100000 0.000000
vn 0.000000 -0.100000 0.000000
vn 0.000000 -0.100000 0.000000
vn 0.000000 -0.100000 0.000000
vn 0.000000 -0.100000 0.000000
vn 0.000000 -0.100000 0.000000
vn 0.000000 -0.100000 0.000000
vn 0.000000 -0.100000 0.000000
vn 0.000000 -0.100000 0.000000
vn 0.000000 -0.100000 0.000000
vn 0.000000 -0.100000 0.000000
vn 0.000000 -0.100000 0.000000
vn 0.000000 -0.100000 0.000000
vn 0.000000 -0.057346 0.081923
vn 0.022103 -0.057346 0.078885
vn 0.042566 -0.057346 0.069997
vn 0.059872 -0.057346 0.055917
vn 0.072738 -0.057346 0.037690
vn 0.080210 -0.057346 0.016668
vn 0.081732 -0.057346 -0.005591
vn 0.077193 -0.057346 -0.027434
vn 0.066929 -0.057346 -0.047243
vn 0.051701 -0.057346 -0.063549
vn 0.032638 -0.057346 -0.075141
vn 0.011155 -0.057346 -0.081160
vn -0.011155 -0.057346 -0.081160
vn -0.032638 -0.057346 -0.075141
vn -0.051701 -0.057346 -0.063549
vn -0.066929 -0.057346 -0.047243
vn -0.077193 -0.057346 -0.027434
vn -0.081732 -0.057346 -0.005591
vn -0.080210 -0.057346 0.016668
vn -0.072738 -0.057346 0.037690
vn -0.059872 -0.057346 0.055917
vn -0.042566 -0.057346 0.069997
vn -0.022103 -0.057346 0.078885
vn 0.000000 -0.057346 0.081923
vn -0.017611 -0.057346 0.080008
vn -0.034399 -0.057346 0.074351
vn -0.049578 -0.057346 0.065218
vn -0.062439 -0.057346 0.053036
vn -0.072380 -0.057346 0.038374
vn -0.078937 -0.057346 0.021917
vn -0.081803 -0.057346 0.004435
vn -0.080844 -0.057346 -0.013254
vn -0.076105 -0.057346 -0.030323
vn -0.067807 -0.057346 -0.045974
vn -0.056339 -0.057346 -0.059476
vn -0.042236 -0.057346 -0.070196
vn -0.026158 -0.057346 -0.077635
vn -0.008857 -0.057346 -0.081443
vn 0.008857 -0.057346 -0.081443
vn 0.026158 -0.057346 -0.077635
vn 0.042236 -0.057346 -0.070196
vn 0.056339 -0.057346 -0.059476
vn 0.067807 -0.057346 -0.045974
vn 0.076105 -0.057346 -0.030323
vn 0.080844 -0.057346 -0.013254
vn 0.081803 -0.057346 0.004435
vn 0.078937 -0.057346 0.021917
vn 0.072380 -0.057346 0.038374
vn 0.062439 -0.057346 0.053036
vn 0.049578 -0.057346 0.065218
vn 0.034399 -0.057346 0.074351
vn 0.017611 -0.057346 0.080008
vn 0.011155 -0.057346 -0.081160
vn 0.011155 -0.057346 -0.081160
vn 0.008857 -0.057346 -0.081443
vn 0.008857 -0.057346 -0.081443
vn 0.000000 -0.100000 0.000000
vn 0.000000 -0.100000 0.000000
vn 0.000000 -0.100000 0.000000
vn 0.000000 -0.100000 0.000000
vn 0.000000 -0.100000 0.000000
vn 0.000000 -0.100000 0.000000
vn 0.000000 -0.100000 0.000000
vn 0.000000 -0.100000 0.000000
vn 0.000000 -0.100000 0.000000
vn 0.000000 -0.100000 0.000000
vn 0.000000 -0.100000 0.000000
vn 0.000000 -0.100000 0.000000
vn 0.000000 -0.100000 0.000000
vn 0.000000 -0.100000 0.000000
vn 0.000000 -0.100000 0.000000
vn 0.000000 -0.100000 0.000000
vn 0.000000 -0.100000 0.000000
vn 0.000000 -0.100000 0.000000
vn 0.000000 -0.100000 0.000000
vn 0.000000 -0.100000 0.000000
vn 0.000000 -0.100000 0.000000
vn 0.000000 -0.100000 0.000000
vn 0.000000 -0.100000 0.000000
vn 0.000000 -0.100000 0.000000
vn 0.000000 -0.100000 0.000000
vn 0.000000 -0.100000 0.000000
vn 0.000000 -0.100000 0.000000
vn 0.000000 -0.100000 0.000000
vn 0.000000 -0.100000 0.000000
vn 0.000000 -0.100000 0.000000
vn 0.000000 -0.100000 0.000000
vn 0.000000 -0.100000 0.000000
vn 0.000000 -0.100000 0.000000
vn 0.000000 -0.100000 0.000000
vn 0.000000 -0.100000 0.000000
vn 0.000000 -0.100000 0.000000
vn 0.000000 -0.100000 0.000000
vn 0.000000 -0.100000 0.000000
vn 0.000000 0.100000 0.000000
vn 0.000000 0.100000 0.000000
vn 0.000000 0.100000 0.000000
vn 0.000000 0.100000 0.000000
vn 0.000000 0.100000 0.000000
vn 0.000000 0.100000 0.000000
vn 0.000000 0.100000 0.000000
vn 0.000000 0.100000 0.000000
vn 0.000000 0.100000 0.000000
vn 0.000000 0.100000 0.000000
vn 0.000000 0.100000 0.000000
vn 0.000000 0.100000 0.000000
vn 0.000000 0.100000 0.000000
vn 0.000000 0.100000 0.000000
vn 0.000000 0.100000 0.000000
vn 0.000000 0.100000 0.000000
vn 0.000000 0.100000 0.000000
vn 0.000000 0.100000 0.000000
vn 0.000000 0.100000 0.000000
vn 0.000000 0.100000 0.000000
vn 0.000000 0.100000 0.000000
vn 0.000000 0.100000 0.000000
vn 0.000000 0.100000 0.000000
vn 0.000000 0.100000 0.000000
vn 0.000000 0.100000 0.000000
vn 0.000000 0.100000 0.000000
vn 0.000000 0.100000 0.000000
vn 0.000000 0.100000 0.000000
vn 0.000000 0.100000 0.000000
vn 0.000000 0.100000 0.000000
vn 0.000000 0.100000 0.000000
vn 0.000000 0.100000 0.000000
vn 0.000000 0.100000 0.000000
vn 0.000000 0.100000 0.000000
vn 0.000000 0.100000 0.000000
vn 0.000000 0.100000 0.000000
vn 0.000000 0.100000 0.000000
vn 0.000000 0.100000 0.000000
vn 0.000000 0.100000 0.000000
vn 0.000000 0.100000 0.000000
vn 0.000000 0.100000 0.000000
vn 0.000000 0.100000 0.000000
vn 0.000000 0.100000 0.000000
vn 0.000000 0.100000 0.000000
vn 0.000000 0.100000 0.000000
vn 0.000000 0.100000 0.000000
vn 0.000000 0.100000 0.000000
vn 0.000000 0.100000 0.000000
vn 0.000000 0.000000 0.100000
vn 0.021497 0.000000 0.097662
vn 0.041989 0.000000 0.090758
vn 0.060517 0.000000 0.079609
vn 0.076216 0.000000 0.064739
vn 0.088351 0.000000 0.046841
vn 0.096355 0.000000 0.026753
vn 0.099853 0.000000 0.005414
vn 0.098683 0.000000 -0.016178
vn 0.092898 0.000000 -0.037014
vn 0.082769 0.000000 -0.056119
vn 0.068770 0.000000 -0.072600
vn 0.051555 0.000000 -0.085686
vn 0.031930 0.000000 -0.094765
vn 0.010812 0.000000 -0.099414
vn -0.010812 0.000000 -0.099414
vn -0.031930 0.000000 -0.094765
vn -0.051555 0.000000 -0.085686
vn -0.068770 0.000000 -0.072600
vn -0.082769 0.000000 -0.056119
vn -0.092898 0.000000 -0.037014
vn -0.098683 0.000000 -0.016178
vn -0.099853 0.000000 0.005414
vn -0.096355 0.000000 0.026753
vn -0.088351 0.000000 0.046841
vn -0.076216 0.000000 0.064739
vn -0.060517 0.000000 0.079609
vn -0.041989 0.000000 0.090758
vn -0.021497 0.000000 0.097662
vn 0.100000 0.000000 0.000000
vn 0.097662 0.000000 0.021497
vn 0.090758 0.000000 0.041989
vn 0.079609 0.000000 0.060517
vn 0.064739 0.000000 0.076216
vn 0.046841 0.000000 0.088351
vn 0.026753 0.000000 0.096355
vn 0.005414 0.000000 0.099853
vn -0.016178 0.000000 0.098683
vn -0.037014 0.000000 0.092898
vn -0.056119 0.000000 0.082769
vn -0.072600 0.000000 0.068770
vn -0.085686 0.000000 0.051555
vn -0.094765 0.000000 0.031930
vn -0.099414 0.000000 0.010812
vn -0.099414 0.000000 -0.010812
vn -0.094765 0.000000 -0.031930
vn -0.085686 0.000000 -0.051555
vn -0.072600 0.000000 -0.068770
vn -0.056119 0.000000 -0.082769
vn -0.037014 0.000000 -0.092898
vn -0.016178 0.000000 -0.098683
vn 0.005414 0.000000 -0.099853
vn 0.026753 0.000000 -0.096355
vn 0.046841 0.000000 -0.088351
vn 0.064739 0.000000 -0.076216
vn 0.079609 0.000000 -0.060517
vn 0.090758 0.000000 -0.041989
vn 0.097662 0.000000 -0.021497
vn -0.099414 0.000000 -0.010812
vn -0.099414 0.000000 -0.010812
vn -0.098683 0.000000 -0.016178
vn -0.098683 0.000000 -0.016178
vn 0.100000 0.000000 0.000000
vn 0.094582 0.000000 -0.032470
vn 0.078914 0.000000 -0.061421
vn 0.054695 0.000000 -0.083717
vn 0.024549 0.000000 -0.096940
vn -0.008258 0.000000 -0.099658
vn -0.040170 0.000000 -0.091577
vn -0.067728 0.000000 -0.073572
vn -0.087947 0.000000 -0.047595
vn -0.098636 0.000000 -0.016459
vn -0.098636 0.000000 0.016459
vn -0.087947 0.000000 0.047595
vn -0.067728 0.000000 0.073572
vn -0.040170 0.000000 0.091577
vn -0.008258 0.000000 0.099658
vn 0.024549 0.000000 0.096940
vn 0.054695 0.000000 0.083717
vn 0.078914 0.000000 0.061421
vn 0.094582 0.000000 0.032470
vn 0.100000 0.000000 0.000000
vn 0.094582 0.000000 0.032470
vn 0.078914 0.000000 0.061421
vn 0.054695 0.000000 0.083717
vn 0.024549 0.000000 0.096940
vn -0.008258 0.000000 0.099658
vn -0.040170 0.000000 0.091577
vn -0.067728 0.000000 0.073572
vn -0.087947 0.000000 0.047595
vn -0.098636 0.000000 0.016459
vn -0.098636 0.000000 -0.016459
vn -0.087947 0.000000 -0.047595
vn -0.067728 0.000000 -0.073572
vn -0.040170 0.000000 -0.091577
vn -0.008258 0.000000 -0.099658
vn 0.024549 0.000000 -0.096940
vn 0.054695 0.000000 -0.083717
vn 0.078914 0.000000 -0.061421
vn 0.094582 0.000000 -0.032470
vn -0.098636 0.000000 0.016459
vn -0.098636 0.000000 0.016459
vn -0.098636 0.000000 0.016459
vn -0.098636 0.000000 0.016459
vn 0.000000 0.100000 0.000000
vn 0.000000 0.100000 0.000000
vn 0.000000 0.100000 0.000000
vn 0.000000 0.100000 0.000000
vn 0.000000 0.100000 0.000000
vn 0.000000 0.100000 0.000000
vn 0.000000 0.100000 0.000000
vn 0.000000 0.100000 0.000000
vn 0.000000 0.100000 0.000000
vn 0.000000 0.100000 0.000000
vn 0.000000 0.100000 0.000000
vn 0.000000 0.100000 0.000000
vn 0.000000 0.100000 0.000000
vn 0.000000 0.100000 0.000000
vn 0.000000 0.100000 0.000000
vn 0.000000 0.100000 0.000000
vn 0.000000 0.100000 0.000000
vn 0.000000 0.100000 0.000000
vn 0.000000 0.100000 0.000000
vn 0.000000 0.100000 0.000000
vn 0.000000 0.100000 0.000000
vn 0.000000 0.100000 0.000000
vn 0.000000 0.100000 0.000000
vn 0.000000 0.100000 0.000000
vn 0.000000 0.100000 0.000000
vn 0.000000 0.100000 0.000000
vn 0.000000 0.100000 0.000000
vn 0.000000 0.100000 0.000000
vn 0.000000 0.100000 0.000000
vn 0.000000 0.100000 0.000000
vn 0.000000 0.100000 0.000000
vn 0.000000 0.100000 0.000000
vn 0.000000 0.100000 0.000000
vn 0.000000 0.100000 0.000000
vn 0.000000 0.100000 0.000000
vn 0.000000 0.100000 0.000000
vn 0.000000 0.100000 0.000000
vn 0.000000 0.100000 0.000000
vn 0.000000 0.100000 0.000000
vn 0.000000 0.100000 0.000000
vn 0.000000 0.100000 0.000000
vn 0.000000 0.100000 0.000000
vn 0.000000 0.100000 0.000000
vn 0.000000 0.100000 0.000000
vn 0.000000 0.100000 0.000000
vn 0.000000 0.100000 0.000000
vn 0.000000 0.100000 0.000000
vn 0.000000 0.100000 0.000000
vn 0.000000 0.100000 0.000000
vn 0.000000 0.100000 0.000000
vn 0.000000 0.100000 0.000000
vn 0.000000 0.100000 0.000000
vn 0.000000 0.100000 0.000000
vn 0.000000 0.100000 0.000000
vn 0.000000 0.100000 0.000000
vn 0.000000 0.100000 0.000000
vn 0.000000 0.100000 0.000000
vn 0.000000 0.100000 0.000000
vn 0.000000 0.100000 0.000000
vn 0.000000 0.100000 0.000000
vn 0.000000 0.100000 0.000000
vn 0.000000 0.100000 0.000000
vn 0.000000 0.100000 0.000000
vn 0.000000 0.100000 0.000000
vn 0.000000 0.100000 0.000000
vn 0.000000 -0.100000 0.000000
vn 0.000000 -0.100000 0.000000
vn 0.000000 -0.100000 0.000000
vn 0.000000 -0.100000 0.000000
vn 0.000000 -0.100000 0.000000
vn 0.000000 -0.100000 0.000000
vn 0.000000 -0.100000 0.000000
vn 0.000000 -0.100000 0.000000
vn 0.000000 -0.100000 0.000000
vn 0.000000 -0.100000 0.000000
vn 0.000000 -0.100000 0.000000
vn 0.000000 -0.100000 0.000000
vn 0.000000 -0.100000 0.000000
vn 0.000000 -0.100000 0.000000
vn 0.000000 -0.100000 0.000000
vn 0.000000 -0.100000 0.000000
vn 0.000000 -0.100000 0.000000
vn 0.000000 -0.100000 0.000000
vn 0.000000 -0.100000 0.000000
vn 0.000000 -0.100000 0.000000
vn 0.000000 -0.100000 0.000000
vn 0.000000 -0.100000 0.000000
vn 0.000000 -0.100000 0.000000
vn 0.000000 -0.100000 0.000000
vn 0.000000 -0.100000 0.000000
vn 0.000000 -0.100000 0.000000
vn 0.000000 -0.100000 0.000000
vn 0.000000 -0.100000 0.000000
vn 0.000000 -0.100000 0.000000
vn 0.000000 -0.100000 0.000000
vn 0.000000 -0.100000 0.000000
vn 0.000000 -0.100000 0.000000
vn 0.000000 -0.100000 0.000000
vn 0.000000 -0.100000 0.000000
vn 0.000000 -0.100000 0.000000
vn 0.000000 -0.100000 0.000000
vn 0.000000 -0.100000 0.000000
vn 0.000000 -0.100000 0.000000
vn 0.000000 -0.100000 0.000000
vn 0.000000 -0.100000 0.000000
vn 0.000000 -0.100000 0.000000
vn 0.000000 -0.100000 0.000000
vn 0.000000 -0.100000 0.000000
vn 0.000000 -0.100000 0.000000
vn 0.000000 -0.100000 0.000000
vn 0.000000 -0.100000 0.000000
vn 0.000000 -0.100000 0.000000
vn 0.000000 -0.100000 0.000000
vn 0.000000 -0.100000 0.000000
vn 0.000000 -0.100000 0.000000
vn 0.000000 -0.018778 0.098221
vn 0.019772 -0.018778 0.096211
vn 0.038734 -0.018778 0.090261
vn 0.056111 -0.018778 0.080616
vn 0.071190 -0.018778 0.067671
vn 0.083355 -0.018778 0.051955
vn 0.092107 -0.018778 0.034113
vn 0.097089 -0.018778 0.014873
vn 0.098095 -0.018778 -0.004975
vn 0.095086 -0.018778 -0.024619
vn 0.088183 -0.018778 -0.043256
vn 0.077671 -0.018778 -0.060122
vn 0.063979 -0.018778 -0.074526
vn 0.047667 -0.018778 -0.085879
vn 0.029404 -0.018778 -0.093717
vn 0.009937 -0.018778 -0.097717
vn -0.009937 -0.018778 -0.097717
vn -0.029404 -0.018778 -0.093717
vn -0.047667 -0.018778 -0.085879
vn -0.063979 -0.018778 -0.074526
vn -0.077671 -0.018778 -0.060122
vn -0.088183 -0.018778 -0.043256
vn -0.095086 -0.018778 -0.024619
vn -0.098095 -0.018778 -0.004975
vn -0.097089 -0.018778 0.014873
vn -0.092107 -0.018778 0.034113
vn -0.083355 -0.018778 0.051955
vn -0.071190 -0.018778 0.067671
vn -0.056111 -0.018778 0.080616
vn -0.038734 -0.018778 0.090261
vn -0.019772 -0.018778 0.096211
vn 0.000000 -0.018778 0.098221
vn -0.017538 -0.018778 0.096643
vn -0.034512 -0.018778 0.091958
vn -0.050378 -0.018778 0.084318
vn -0.064624 -0.018778 0.073968
vn -0.076792 -0.018778 0.061240
vn -0.086493 -0.018778 0.046544
vn -0.093414 -0.018778 0.030352
vn -0.097332 -0.018778 0.013185
vn -0.098122 -0.018778 -0.004407
vn -0.095759 -0.018778 -0.021856
vn -0.090317 -0.018778 -0.038603
vn -0.081973 -0.018778 -0.054110
vn -0.070994 -0.018778 -0.067877
vn -0.057733 -0.018778 -0.079463
vn -0.042617 -0.018778 -0.088494
vn -0.026130 -0.018778 -0.094682
vn -0.008804 -0.018778 -0.097826
vn 0.008804 -0.018778 -0.097826
vn 0.026130 -0.018778 -0.094682
vn 0.042617 -0.018778 -0.088494
vn 0.057733 -0.018778 -0.079463
vn 0.070994 -0.018778 -0.067877
vn 0.081973 -0.018778 -0.054110
vn 0.090317 -0.018778 -0.038603
vn 0.095759 -0.018778 -0.021856
vn 0.098122 -0.018778 -0.004407
vn 0.097332 -0.018778 0.013185
vn 0.093414 -0.018778 0.030352
vn 0.086493 -0.018778 0.046544
vn 0.076792 -0.018778 0.061240
vn 0.064624 -0.018778 0.073968
vn 0.050378 -0.018778 0.084318
vn 0.034512 -0.018778 0.091958
vn 0.017538 -0.018778 0.096643
vn -0.076792 -0.018778 -0.061240
vn -0.057733 -0.018778 0.079463
vn 0.057733 -0.018778 0.079463
vn 0.076792 -0.018778 -0.061240
vn 0.008804 -0.018778 0.097826
vn -0.008804 -0.018778 0.097826
vn 0.026130 -0.018778 0.094682
vn 0.042617 -0.018778 0.088494
vn 0.081973 -0.018778 0.054110
vn 0.070994 -0.018778 0.067877
vn 0.090317 -0.018778 0.038603
vn 0.095759 -0.018778 0.021856
vn 0.098122 -0.018778 0.004407
vn 0.097332 -0.018778 -0.013185
vn 0.093414 -0.018778 -0.030352
vn 0.086493 -0.018778 -0.046544
vn 0.050378 -0.018778 -0.084318
vn 0.064624 -0.018778 -0.073968
vn 0.034512 -0.018778 -0.091958
vn 0.017538 -0.018778 -0.096643
vn 0.000000 -0.018778 -0.098221
vn -0.017538 -0.018778 -0.096643
vn -0.034512 -0.018778 -0.091958
vn -0.050378 -0.018778 -0.084318
vn -0.064624 -0.018778 -0.073968
vn -0.086493 -0.018778 -0.046544
vn -0.093414 -0.018778 -0.030352
vn -0.097332 -0.018778 -0.013185
vn -0.098122 -0.018778 0.004407
vn -0.095759 -0.018778 0.021856
vn -0.090317 -0.018778 0.038603
vn -0.081973 -0.018778 0.054110
vn -0.070994 -0.018778 0.067877
vn -0.042617 -0.018778 0.088494
vn -0.026130 -0.018778 0.094682
vn -0.017538 -0.018778 -0.096643
vn -0.008804 -0.018778 -0.097826
vn 0.009937 -0.018778 -0.097717
vn 0.009937 -0.018778 -0.097717
vn 0.000000 -0.018778 -0.098221
vn 0.000000 -0.018778 -0.098221
vn 0.100000 0.000000 0.000000
vn 0.097815 0.000000 -0.020791
vn 0.091355 0.000000 -0.040674
vn 0.080902 0.000000 -0.058779
vn 0.066913 0.000000 -0.074314
vn 0.050000 0.000000 -0.086603
vn 0.030902 0.000000 -0.095106
vn 0.010453 0.000000 -0.099452
vn -0.010453 0.000000 -0.099452
vn -0.030902 0.000000 -0.095106
vn -0.050000 0.000000 -0.086603
vn -0.066913 0.000000 -0.074314
vn -0.080902 0.000000 -0.058779
vn -0.091355 0.000000 -0.040674
vn -0.097815 0.000000 -0.020791
vn -0.100000 0.000000 0.000000
vn -0.097815 0.000000 0.020791
vn -0.091355 0.000000 0.040674
vn -0.080902 0.000000 0.058779
vn -0.066913 0.000000 0.074314
vn -0.050000 0.000000 0.086603
vn -0.030902 0.000000 0.095106
vn -0.010453 0.000000 0.099452
vn 0.010453 0.000000 0.099452
vn 0.030902 0.000000 0.095106
vn 0.050000 0.000000 0.086603
vn 0.066913 0.000000 0.074314
vn 0.080902 0.000000 0.058779
vn 0.091355 0.000000 0.040674
vn 0.097815 0.000000 0.020791
vn 0.100000 0.000000 0.000000
vn 0.097815 0.000000 0.020791
vn 0.091355 0.000000 0.040674
vn 0.080902 0.000000 0.058779
vn 0.066913 0.000000 0.074314
vn 0.050000 0.000000 0.086603
vn 0.030902 0.000000 0.095106
vn 0.010453 0.000000 0.099452
vn -0.010453 0.000000 0.099452
vn -0.030902 0.000000 0.095106
vn -0.050000 0.000000 0.086603
vn -0.066913 0.000000 0.074314
vn -0.080902 0.000000 0.058779
vn -0.091355 0.000000 0.040674
vn -0.097815 0.000000 0.020791
vn -0.100000 0.000000 0.000000
vn -0.097815 0.000000 -0.020791
vn -0.091355 0.000000 -0.040674
vn -0.080902 0.000000 -0.058779
vn -0.066913 0.000000 -0.074314
vn -0.050000 0.000000 -0.086603
vn -0.030902 0.000000 -0.095106
vn -0.010453 0.000000 -0.099452
vn 0.010453 0.000000 -0.099452
vn 0.030902 0.000000 -0.095106
vn 0.050000 0.000000 -0.086603
vn 0.066913 0.000000 -0.074314
vn 0.080902 0.000000 -0.058779
vn 0.091355 0.000000 -0.040674
vn 0.097815 0.000000 -0.020791
vn -0.100000 0.000000 0.000000
vn -0.100000 0.000000 0.000000
vn 0.100000 0.000000 0.000000
vn 0.097493 0.000000 0.022252
vn 0.090097 0.000000 0.043388
vn 0.078183 0.000000 0.062349
vn 0.062349 0.000000 0.078183
vn 0.043388 0.000000 0.090097
vn 0.022252 0.000000 0.097493
vn 0.000000 0.000000 0.100000
vn -0.022252 0.000000 0.097493
vn -0.043388 0.000000 0.090097
vn -0.062349 0.000000 0.078183
vn -0.078183 0.000000 0.062349
vn -0.090097 0.000000 0.043388
vn -0.097493 0.000000 0.022252
vn -0.100000 0.000000 0.000000
vn -0.097493 0.000000 -0.022252
vn -0.090097 0.000000 -0.043388
vn -0.078183 0.000000 -0.062349
vn -0.062349 0.000000 -0.078183
vn -0.043388 0.000000 -0.090097
vn -0.022252 0.000000 -0.097493
vn 0.000000 0.000000 -0.100000
vn 0.022252 0.000000 -0.097493
vn 0.043388 0.000000 -0.090097
vn 0.062349 0.000000 -0.078183
vn 0.078183 0.000000 -0.062349
vn 0.090097 0.000000 -0.043388
vn 0.097493 0.000000 -0.022252
vn 0.100000 0.000000 0.000000
vn 0.097493 0.000000 -0.022252
vn 0.090097 0.000000 -0.043388
vn 0.078183 0.000000 -0.062349
vn 0.062349 0.000000 -0.078183
vn 0.043388 0.000000 -0.090097
vn 0.022252 0.000000 -0.097493
vn 0.000000 0.000000 -0.100000
vn -0.022252 0.000000 -0.097493
vn -0.043388 0.000000 -0.090097
vn -0.062349 0.000000 -0.078183
vn -0.078183 0.000000 -0.062349
vn -0.090097 0.000000 -0.043388
vn -0.097493 0.000000 -0.022252
vn -0.100000 0.000000 0.000000
vn -0.097493 0.000000 0.022252
vn -0.090097 0.000000 0.043388
vn -0.078183 0.000000 0.062349
vn -0.062349 0.000000 0.078183
vn -0.043388 0.000000 0.090097
vn -0.022252 0.000000 0.097493
vn 0.000000 0.000000 0.100000
vn 0.022252 0.000000 0.097493
vn 0.043388 0.000000 0.090097
vn 0.062349 0.000000 0.078183
vn 0.078183 0.000000 0.062349
vn 0.090097 0.000000 0.043388
vn 0.097493 0.000000 0.022252
vn -0.100000 0.000000 0.000000
vn -0.100000 0.000000 0.000000
vn 0.000000 0.100000 0.000000
vn 0.000000 0.100000 0.000000
vn 0.000000 0.100000 0.000000
vn 0.000000 0.100000 0.000000
vn 0.000000 0.100000 0.000000
vn 0.000000 0.100000 0.000000
vn 0.000000 0.100000 0.000000
vn 0.000000 0.100000 0.000000
vn 0.000000 0.100000 0.000000
vn 0.000000 0.100000 0.000000
vn 0.000000 0.100000 0.000000
vn 0.000000 0.100000 0.000000
vn 0.000000 0.100000 0.000000
vn 0.000000 0.100000 0.000000
vn 0.000000 0.100000 0.000000
vn 0.000000 0.100000 0.000000
vn 0.000000 0.100000 0.000000
vn 0.000000 0.100000 0.000000
vn 0.000000 0.100000 0.000000
vn 0.000000 0.100000 0.000000
vn 0.000000 0.100000 0.000000
vn 0.000000 0.100000 0.000000
vn 0.000000 0.100000 0.000000
vn 0.000000 0.100000 0.000000
vn 0.000000 0.100000 0.000000
vn 0.000000 0.100000 0.000000
vn 0.000000 0.100000 0.000000
vn 0.000000 0.100000 0.000000
vn -0.100000 0.000000 0.000000
vn -0.086603 0.050000 0.000000
vn -0.050000 0.086603 0.000000
vn 0.000000 0.100000 0.000000
vn 0.050000 0.086603 0.000000
vn 0.086603 0.050000 0.000000
vn 0.100000 0.000000 0.000000
vn 0.086603 -0.050000 0.000000
vn 0.050000 -0.086603 0.000000
vn 0.000000 -0.100000 0.000000
vn -0.050000 -0.086603 0.000000
vn -0.086603 -0.050000 0.000000
vn 0.100000 0.000000 0.000000
vn 0.086603 0.050000 0.000000
vn 0.050000 0.086603 0.000000
vn 0.000000 0.100000 0.000000
vn -0.050000 0.086603 0.000000
vn -0.086603 0.050000 0.000000
vn -0.100000 0.000000 0.000000
vn -0.086603 -0.050000 0.000000
vn -0.050000 -0.086603 0.000000
vn 0.000000 -0.100000 0.000000
vn 0.050000 -0.086603 0.000000
vn 0.086603 -0.050000 0.000000
vn -0.100000 0.000000 0.000000
vn -0.100000 0.000000 0.000000
vn 0.100000 0.000000 0.000000
vn 0.086603 -0.050000 0.000000
vn 0.050000 -0.086603 0.000000
vn 0.000000 -0.100000 0.000000
vn -0.050000 -0.086603 0.000000
vn -0.086603 -0.050000 0.000000
vn -0.100000 0.000000 0.000000
vn -0.086603 0.050000 0.000000
vn -0.050000 0.086603 0.000000
vn 0.000000 0.100000 0.000000
vn 0.050000 0.086603 0.000000
vn 0.086603 0.050000 0.000000
vn -0.100000 0.000000 0.000000
vn -0.086603 -0.050000 0.000000
vn -0.050000 -0.086603 0.000000
vn 0.000000 -0.100000 0.000000
vn 0.050000 -0.086603 0.000000
vn 0.086603 -0.050000 0.000000
vn 0.100000 0.000000 0.000000
vn 0.086603 0.050000 0.000000
vn 0.050000 0.086603 0.000000
vn 0.000000 0.100000 0.000000
vn -0.050000 0.086603 0.000000
vn -0.086603 0.050000 0.000000
vn 0.100000 0.000000 0.000000
vn 0.100000 0.000000 0.000000
vn 0.000000 0.000000 0.100000
vn 0.000000 0.000000 0.100000
vn 0.000000 0.000000 0.100000
vn 0.000000 0.000000 0.100000
vn 0.000000 0.100000 0.000000
vn 0.000000 0.100000 0.000000
vn 0.000000 0.100000 0.000000
vn 0.000000 0.100000 0.000000
vn 0.000000 0.100000 0.000000
vn 0.000000 0.100000 0.000000
vn 0.000000 0.100000 0.000000
vn 0.000000 0.100000 0.000000
vn 0.000000 0.100000 0.000000
vn 0.000000 0.100000 0.000000
vn 0.000000 0.100000 0.000000
vn 0.000000 0.100000 0.000000
vn 0.000000 0.100000 0.000000
vn 0.000000 0.100000 0.000000
vn 0.000000 0.100000 0.000000
vn 0.000000 0.100000 0.000000
vn 0.000000 0.100000 0.000000
vn 0.000000 0.100000 0.000000
vn 0.000000 0.100000 0.000000
vn 0.000000 0.100000 0.000000
vn 0.000000 0.100000 0.000000
vn 0.000000 0.100000 0.000000
vn 0.000000 0.100000 0.000000
vn 0.000000 0.100000 0.000000
vn 0.000000 0.100000 0.000000
vn 0.000000 0.100000 0.000000
vn 0.000000 0.100000 0.000000
vn 0.000000 0.100000 0.000000
vn 0.000000 0.100000 0.000000
vn 0.000000 0.100000 0.000000
vn 0.000000 0.100000 0.000000
vn 0.000000 0.100000 0.000000
vn 0.000000 0.000000 0.100000
vn 0.000000 0.000000 0.100000
vn 0.000000 0.000000 0.100000
vn 0.000000 0.000000 0.100000
vn 0.000000 0.000000 0.100000
vn 0.000000 0.000000 0.100000
vn 0.000000 0.000000 0.100000
vn 0.000000 0.000000 0.100000
vn 0.000000 0.000000 0.100000
vn 0.000000 0.000000 0.100000
vn 0.000000 0.000000 0.100000
vn 0.000000 0.000000 0.100000
vn 0.000000 0.000000 0.100000
vn 0.000000 0.000000 0.100000
vn 0.000000 0.000000 0.100000
vn 0.000000 0.000000 0.100000
vn 0.000000 0.000000 0.100000
vn 0.000000 0.000000 0.100000
vn 0.000000 0.000000 0.100000
vn 0.000000 0.000000 0.100000
vn 0.000000 0.000000 0.100000
vn 0.000000 0.000000 0.100000
vn 0.000000 0.000000 0.100000
vn 0.000000 0.000000 0.100000
vn 0.000000 0.000000 0.100000
vn 0.000000 0.000000 0.100000
vn 0.000000 0.000000 0.100000
vn 0.000000 0.000000 0.100000
vn -0.100000 0.000000 0.000000
vn -0.100000 0.000000 0.000000
vn -0.100000 0.000000 0.000000
vn -0.100000 0.000000 0.000000
vn -0.100000 0.000000 0.000000
vn -0.100000 0.000000 0.000000
vn 0.000000 0.100000 0.000000
vn 0.000000 0.100000 0.000000
vn 0.000000 0.100000 0.000000
vn 0.000000 0.100000 0.000000
vn 0.100000 0.000000 0.000000
vn 0.100000 0.000000 0.000000
vn 0.100000 0.000000 0.000000
vn 0.100000 0.000000 0.000000
vn 0.100000 0.000000 0.000000
vn 0.100000 0.000000 0.000000
vn 0.000000 -0.100000 0.000000
vn 0.000000 -0.100000 0.000000
vn 0.000000 -0.100000 0.000000
vn 0.000000 -0.100000 0.000000
vn 0.000000 -0.100000 0.000000
vn 0.000000 -0.100000 0.000000
vn 0.000000 -0.100000 0.000000
vn 0.000000 -0.100000 0.000000
vn 0.000000 -0.100000 0.000000
vn 0.000000 -0.100000 0.000000
vn 0.000000 -0.100000 0.000000
vn 0.000000 -0.100000 0.000000
vn 0.000000 -0.100000 0.000000
vn 0.000000 -0.100000 0.000000
vn 0.000000 -0.100000 0.000000
vn 0.000000 -0.100000 0.000000
vn 0.000000 -0.100000 0.000000
vn 0.000000 -0.100000 0.000000
vn 0.000000 -0.100000 0.000000
vn 0.000000 -0.100000 0.000000
vn 0.000000 -0.100000 0.000000
vn 0.000000 -0.100000 0.000000
vn 0.000000 -0.100000 0.000000
vn 0.000000 -0.100000 0.000000
vn 0.000000 -0.100000 0.000000
vn 0.000000 -0.100000 0.000000
vn 0.000000 -0.100000 0.000000
vn 0.000000 -0.100000 0.000000
vn 0.000000 -0.100000 0.000000
vn 0.000000 -0.100000 0.000000
vn 0.000000 -0.100000 0.000000
vn 0.000000 -0.100000 0.000000
vn 0.000000 -0.100000 0.000000
vn 0.000000 -0.100000 0.000000
vn 0.000000 0.000000 -0.100000
vn 0.000000 0.000000 -0.100000
vn 0.000000 0.000000 -0.100000
vn 0.000000 0.000000 -0.100000
vn 0.000000 0.000000 -0.100000
vn 0.000000 0.000000 -0.100000
vn 0.000000 0.000000 -0.100000
vn 0.000000 0.000000 -0.100000
vn 0.000000 0.000000 -0.100000
vn 0.000000 0.000000 -0.100000
vn 0.000000 0.000000 -0.100000
vn 0.000000 0.000000 -0.100000
vn 0.000000 0.000000 -0.100000
vn 0.000000 0.000000 -0.100000
vn 0.000000 0.000000 -0.100000
vn 0.000000 0.000000 -0.100000
vn 0.000000 0.000000 -0.100000
vn 0.000000 0.000000 -0.100000
vn 0.000000 0.000000 -0.100000
vn 0.000000 0.000000 -0.100000
vn 0.000000 0.000000 -0.100000
vn 0.000000 0.000000 -0.100000
vn 0.000000 0.000000 -0.100000
vn 0.000000 0.000000 -0.100000
vn 0.000000 0.000000 -0.100000
vn 0.000000 0.000000 -0.100000
vn 0.000000 0.000000 -0.100000
vn 0.000000 0.000000 -0.100000
usemtl 191,191,191
f 255/2/2 260/16/16 256/1/1
f 256/1/1 260/16/16 261/17/17
f 256/1/1 261/17/17 257/15/15
f 257/15/15 261/17/17 241/18/18
f 257/15/15 241/18/18 239/14/14
f 239/14/14 241/18/18 226/19/19
f 239/14/14 226/19/19 223/13/13
f 223/13/13 226/19/19 206/20/20
f 223/13/13 206/20/20 204/12/12
f 204/12/12 206/20/20 186/21/21
f 204/12/12 186/21/21 184/11/11
f 184/11/11 186/21/21 175/22/22
f 184/11/11 175/22/22 173/10/10
f 173/10/10 175/22/22 166/31/31
f 173/10/10 166/32/32 163/9/9
f 163/33/33 166/23/23 165/24/24
f 163/34/34 165/24/24 162/8/8
f 162/8/8 165/24/24 174/25/25
f 162/8/8 174/25/25 172/7/7
f 172/7/7 174/25/25 185/26/26
f 172/7/7 185/26/26 183/6/6
f 183/6/6 185/26/26 205/27/27
f 183/6/6 205/27/27 203/5/5
f 203/5/5 205/27/27 225/28/28
f 203/5/5 225/28/28 222/4/4
f 222/4/4 225/28/28 240/29/29
f 222/4/4 240/29/29 238/3/3
f 238/3/3 240/29/29 259/30/30
f 238/3/3 259/30/30 255/2/2
f 255/2/2 259/30/30 260/16/16
f 256/35/35 257/36/36 255/49/49
f 255/49/49 257/36/36 238/48/48
f 238/48/48 257/36/36 239/37/37
f 238/48/48 239/37/37 222/47/47
f 222/47/47 239/37/37 223/38/38
f 222/47/47 223/38/38 203/46/46
f 203/46/46 223/38/38 204/39/39
f 203/46/46 204/39/39 183/45/45
f 183/45/45 204/39/39 184/40/40
f 183/45/45 184/40/40 172/44/44
f 172/44/44 184/40/40 173/41/41
f 172/44/44 173/41/41 162/43/43
f 162/43/43 173/41/41 163/42/42
f 242/51/51 244/101/101 211/50/50
f 211/50/50 244/101/101 212/73/73
f 211/50/50 212/73/73 176/74/74
f 244/101/101 242/51/51 283/100/100
f 283/100/100 242/51/51 265/52/52
f 283/100/100 265/52/52 305/99/99
f 305/99/99 265/52/52 291/53/53
f 305/99/99 291/53/53 323/98/98
f 323/98/98 291/53/53 304/54/54
f 323/98/98 304/54/54 345/97/97
f 345/97/97 304/54/54 354/96/96
f 354/96/96 304/54/54 312/55/55
f 354/96/96 312/55/55 365/95/95
f 365/95/95 312/55/55 311/56/56
f 365/95/95 311/56/56 364/94/94
f 364/94/94 311/56/56 303/57/57
f 364/94/94 303/57/57 353/93/93
f 353/93/93 303/57/57 295/58/58
f 353/93/93 295/58/58 333/92/92
f 333/92/92 295/58/58 317/91/91
f 317/91/91 295/58/58 282/59/59
f 317/91/91 282/59/59 296/90/90
f 296/90/90 282/59/59 258/60/60
f 296/90/90 258/60/60 266/89/89
f 266/89/89 258/60/60 224/102/102
f 266/89/89 224/103/103 227/88/88
f 227/104/104 224/61/61 195/62/62
f 227/105/105 195/62/62 196/87/87
f 196/87/87 195/62/62 156/86/86
f 156/86/86 195/62/62 164/63/63
f 156/86/86 164/63/63 127/85/85
f 127/85/85 164/63/63 136/64/64
f 127/85/85 136/64/64 106/84/84
f 106/84/84 136/64/64 126/65/65
f 106/84/84 126/65/65 82/83/83
f 82/83/83 126/65/65 63/82/82
f 63/82/82 126/65/65 116/66/66
f 63/82/82 116/66/66 57/81/81
f 57/81/81 116/66/66 112/67/67
f 57/81/81 112/67/67 58/80/80
f 58/80/80 112/67/67 113/68/68
f 58/80/80 113/68/68 64/79/79
f 64/79/79 113/68/68 117/69/69
f 64/79/79 117/69/69 76/78/78
f 76/78/78 117/69/69 97/77/77
f 97/77/77 117/69/69 134/70/70
f 97/77/77 134/70/70 118/76/76
f 118/76/76 134/70/70 155/71/71
f 118/76/76 155/71/71 137/75/75
f 137/75/75 155/71/71 187/72/72
f 137/75/75 187/72/72 176/74/74
f 176/74/74 187/72/72 211/50/50
f 259/107/107 303/137/137 260/106/106
f 260/106/106 303/137/137 311/138/138
f 260/106/106 311/138/138 312/139/139
f 303/137/137 259/107/107 295/136/136
f 295/136/136 259/107/107 240/108/108
f 295/136/136 240/108/108 282/135/135
f 282/135/135 240/108/108 258/134/134
f 258/134/134 240/108/108 225/109/109
f 258/134/134 225/109/109 224/133/133
f 224/133/133 225/109/109 205/110/110
f 224/133/133 205/110/110 195/132/132
f 195/132/132 205/110/110 164/131/131
f 164/131/131 205/110/110 185/111/111
f 164/131/131 185/111/111 136/130/130
f 136/130/130 185/111/111 174/112/112
f 136/130/130 174/112/112 126/129/129
f 126/129/129 174/112/112 116/128/128
f 116/128/128 174/112/112 165/113/113
f 116/128/128 165/113/113 112/127/127
f 112/127/127 165/113/113 166/114/114
f 112/127/127 166/114/114 113/126/126
f 113/126/126 166/114/114 117/125/125
f 117/125/125 166/114/114 175/115/115
f 117/125/125 175/115/115 134/124/124
f 134/124/124 175/115/115 186/116/116
f 134/124/124 186/116/116 155/123/123
f 155/123/123 186/116/116 187/122/122
f 187/122/122 186/116/116 206/117/117
f 187/122/122 206/117/117 211/121/121
f 211/121/121 206/117/117 226/118/118
f 211/121/121 226/118/118 242/143/143
f 242/143/143 226/118/118 265/142/142
f 265/142/142 226/118/118 241/119/119
f 265/142/142 241/119/119 291/141/141
f 291/141/141 241/119/119 261/120/120
f 291/141/141 261/120/120 304/140/140
f 304/140/140 261/120/120 312/139/139
f 312/139/139 261/120/120 260/106/106
f 368/172/172 367/144/144 284/173/173
f 284/173/173 367/144/144 366/145/145
f 284/173/173 366/145/145 276/191/191
f 276/191/191 366/145/145 346/146/146
f 276/191/191 346/146/146 267/190/190
f 267/190/190 346/146/146 330/147/147
f 267/190/190 330/147/147 313/148/148
f 267/190/190 313/148/148 245/189/189
f 245/189/189 313/148/148 292/149/149
f 245/189/189 292/149/149 228/188/188
f 228/188/188 292/149/149 262/150/150
f 228/188/188 262/150/150 220/151/151
f 228/188/188 220/151/151 207/187/187
f 207/187/187 220/151/151 188/152/152
f 207/187/187 188/152/152 189/186/186
f 189/186/186 188/152/152 143/153/153
f 189/186/186 143/153/153 119/154/154
f 189/186/186 119/154/154 167/185/185
f 167/185/185 119/154/154 98/155/155
f 167/185/185 98/155/155 144/184/184
f 144/184/184 98/155/155 83/156/156
f 144/184/184 83/156/156 65/157/157
f 144/184/184 65/157/157 145/183/183
f 145/183/183 65/157/157 59/158/158
f 145/183/183 59/158/158 60/159/159
f 145/183/183 60/159/159 146/182/182
f 146/182/182 60/159/159 66/160/160
f 146/182/182 66/160/160 147/181/181
f 147/181/181 66/160/160 84/161/161
f 147/181/181 84/161/161 99/162/162
f 147/181/181 99/162/162 168/180/180
f 168/180/180 99/162/162 120/163/163
f 168/180/180 120/163/163 190/179/179
f 190/179/179 120/163/163 148/164/164
f 190/179/179 148/164/164 191/165/165
f 190/179/179 191/165/165 208/178/178
f 208/178/178 191/165/165 221/166/166
f 208/178/178 221/166/166 229/177/177
f 229/177/177 221/166/166 263/167/167
f 229/177/177 263/167/167 293/168/168
f 229/177/177 293/168/168 246/176/176
f 246/176/176 293/168/168 314/169/169
f 246/176/176 314/169/169 268/175/175
f 268/175/175 314/169/169 331/170/170
f 268/175/175 331/170/170 347/171/171
f 268/175/175 347/171/171 277/174/174
f 277/174/174 347/171/171 368/172/172
f 277/174/174 368/172/172 284/173/173
f 244/193/193 221/228/228 212/192/192
f 212/192/192 221/228/228 191/229/229
f 212/192/192 191/229/229 176/220/220
f 176/220/220 191/229/229 148/230/230
f 176/220/220 148/230/230 137/219/219
f 137/219/219 148/230/230 120/231/231
f 137/219/219 120/231/231 118/218/218
f 118/218/218 120/231/231 99/232/232
f 118/218/218 99/232/232 97/217/217
f 97/217/217 99/232/232 84/233/233
f 97/217/217 84/233/233 76/216/216
f 76/216/216 84/233/233 66/234/234
f 76/216/216 66/234/234 64/215/215
f 64/215/215 66/234/234 60/235/235
f 64/215/215 60/235/235 58/214/214
f 58/214/214 60/235/235 59/250/250
f 58/214/214 59/251/251 57/213/213
f 57/252/252 59/236/236 65/237/237
f 57/253/253 65/237/237 63/212/212
f 63/212/212 65/237/237 83/238/238
f 63/212/212 83/238/238 82/211/211
f 82/211/211 83/238/238 98/239/239
f 82/211/211 98/239/239 106/210/210
f 106/210/210 98/239/239 119/240/240
f 106/210/210 119/240/240 127/209/209
f 127/209/209 119/240/240 143/241/241
f 127/209/209 143/241/241 156/208/208
f 156/208/208 143/241/241 188/242/242
f 156/208/208 188/242/242 196/207/207
f 196/207/207 188/242/242 220/243/243
f 196/207/207 220/243/243 227/206/206
f 227/206/206 220/243/243 262/244/244
f 227/206/206 262/244/244 266/205/205
f 266/205/205 262/244/244 292/245/245
f 266/205/205 292/245/245 296/204/204
f 296/204/204 292/245/245 313/246/246
f 296/204/204 313/246/246 317/203/203
f 317/203/203 313/246/246 330/247/247
f 317/203/203 330/247/247 333/202/202
f 333/202/202 330/247/247 346/248/248
f 333/202/202 346/248/248 353/201/201
f 353/201/201 346/248/248 366/249/249
f 353/201/201 366/249/249 364/200/200
f 364/200/200 366/249/249 367/221/221
f 364/200/200 367/221/221 365/199/199
f 365/199/199 367/221/221 368/222/222
f 365/199/199 368/222/222 354/198/198
f 354/198/198 368/222/222 347/223/223
f 354/198/198 347/223/223 345/197/197
f 345/197/197 347/223/223 331/224/224
f 345/197/197 331/224/224 323/196/196
f 323/196/196 331/224/224 314/225/225
f 323/196/196 314/225/225 305/195/195
f 305/195/195 314/225/225 293/226/226
f 305/195/195 293/226/226 283/194/194
f 283/194/194 293/226/226 263/227/227
f 283/194/194 263/227/227 244/193/193
f 244/193/193 263/227/227 221/228/228
f 276/255/255 278/291/291 284/254/254
f 284/254/254 278/291/291 285/273/273
f 284/254/254 285/273/273 277/272/272
f 277/272/272 285/273/273 279/274/274
f 277/272/272 279/274/274 271/275/275
f 276/255/255 267/256/256 278/291/291
f 278/291/291 267/256/256 270/290/290
f 270/290/290 267/256/256 245/257/257
f 270/290/290 245/257/257 247/289/289
f 247/289/289 245/257/257 228/258/258
f 247/289/289 228/258/258 231/288/288
f 231/288/288 228/258/258 207/259/259
f 231/288/288 207/259/259 209/287/287
f 209/287/287 207/259/259 189/260/260
f 209/287/287 189/260/260 192/286/286
f 192/286/286 189/260/260 167/261/261
f 192/286/286 167/261/261 169/285/285
f 169/285/285 167/261/261 144/262/262
f 169/285/285 144/262/262 149/284/284
f 149/284/284 144/262/262 145/263/263
f 149/284/284 145/263/263 150/283/283
f 150/283/283 145/263/263 146/292/292
f 150/283/283 146/293/293 151/282/282
f 151/294/294 146/264/264 147/265/265
f 151/295/295 147/265/265 152/281/281
f 152/281/281 147/265/265 168/266/266
f 152/281/281 168/266/266 170/280/280
f 170/280/280 168/266/266 190/267/267
f 170/280/280 190/267/267 193/279/279
f 193/279/279 190/267/267 208/268/268
f 193/279/279 208/268/268 210/278/278
f 210/278/278 208/268/268 229/269/269
f 210/278/278 229/269/269 232/277/277
f 232/277/277 229/269/269 246/270/270
f 232/277/277 246/270/270 248/276/276
f 248/276/276 246/270/270 268/271/271
f 248/276/276 268/271/271 271/275/275
f 271/275/275 268/271/271 277/272/272
f 264/297/297 235/338/338 215/296/296
f 215/296/296 235/338/338 200/339/339
f 215/296/296 200/339/339 171/330/330
f 171/330/330 200/339/339 159/340/340
f 171/330/330 159/340/340 131/329/329
f 131/329/329 159/340/340 130/341/341
f 131/329/329 130/341/341 101/328/328
f 101/328/328 130/341/341 71/327/327
f 71/327/327 130/341/341 109/342/342
f 71/327/327 109/342/342 38/326/326
f 38/326/326 109/342/342 89/343/343
f 38/326/326 89/343/343 24/325/325
f 24/325/325 89/343/343 70/344/344
f 24/325/325 70/344/344 10/324/324
f 10/324/324 70/344/344 53/345/345
f 10/324/324 53/345/345 8/323/323
f 8/323/323 53/345/345 52/346/346
f 8/323/323 52/346/346 7/322/322
f 7/322/322 52/346/346 51/347/347
f 7/322/322 51/347/347 9/321/321
f 9/321/321 51/347/347 69/348/348
f 9/321/321 69/348/348 17/320/320
f 17/320/320 69/348/348 32/319/319
f 32/319/319 69/348/348 88/349/349
f 32/319/319 88/349/349 50/318/318
f 50/318/318 88/349/349 108/350/350
f 50/318/318 108/350/350 87/317/317
f 87/317/317 108/350/350 129/351/351
f 87/317/317 129/351/351 115/316/316
f 115/316/316 129/351/351 158/352/352
f 115/316/316 158/352/352 154/315/315
f 154/315/315 158/352/352 199/353/353
f 154/315/315 199/353/353 194/314/314
f 194/314/314 199/353/353 234/354/354
f 194/314/314 234/354/354 243/313/313
f 243/313/313 234/354/354 281/312/312
f 281/312/312 234/354/354 272/355/355
f 281/312/312 272/355/355 316/311/311
f 316/311/311 272/355/355 298/356/356
f 316/311/311 298/356/356 336/310/310
f 336/310/310 298/356/356 319/357/357
f 336/310/310 319/357/357 372/309/309
f 372/309/309 319/357/357 337/358/358
f 372/309/309 337/358/358 392/308/308
f 392/308/308 337/358/358 357/359/359
f 392/308/308 357/359/359 406/307/307
f 406/307/307 357/359/359 411/306/306
f 411/306/306 357/359/359 373/360/360
f 411/306/306 373/360/360 419/305/305
f 419/305/305 373/360/360 374/331/331
f 419/305/305 374/331/331 420/304/304
f 420/304/304 374/331/331 375/332/332
f 420/304/304 375/332/332 412/303/303
f 412/303/303 375/332/332 358/333/333
f 412/303/303 358/333/333 401/302/302
f 401/302/302 358/333/333 338/334/334
f 401/302/302 338/334/334 384/301/301
f 384/301/301 338/334/334 320/335/335
f 384/301/301 320/335/335 359/300/300
f 359/300/300 320/335/335 299/336/336
f 359/300/300 299/336/336 325/299/299
f 325/299/299 299/336/336 300/298/298
f 300/298/298 299/336/336 273/337/337
f 300/298/298 273/337/337 264/297/297
f 264/297/297 273/337/337 235/338/338
f 278/362/362 379/402/402 285/361/361
f 285/361/361 379/402/402 380/403/403
f 285/361/361 380/403/403 381/404/404
f 379/402/402 278/362/362 369/401/401
f 369/401/401 278/362/362 270/363/363
f 369/401/401 270/363/363 348/400/400
f 348/400/400 270/363/363 324/399/399
f 324/399/399 270/363/363 247/364/364
f 324/399/399 247/364/364 297/398/398
f 297/398/398 247/364/364 231/365/365
f 297/398/398 231/365/365 269/397/397
f 269/397/397 231/365/365 230/396/396
f 230/396/396 231/365/365 209/366/366
f 230/396/396 209/366/366 197/395/395
f 197/395/395 209/366/366 157/394/394
f 157/394/394 209/366/366 192/367/367
f 157/394/394 192/367/367 128/393/393
f 128/393/393 192/367/367 169/368/368
f 128/393/393 169/368/368 100/392/392
f 100/392/392 169/368/368 77/391/391
f 77/391/391 169/368/368 149/369/369
f 77/391/391 149/369/369 61/390/390
f 61/390/390 149/369/369 45/389/389
f 45/389/389 149/369/369 150/370/370
f 45/389/389 150/370/370 46/388/388
f 46/388/388 150/370/370 151/371/371
f 46/388/388 151/371/371 47/387/387
f 47/387/387 151/371/371 49/386/386
f 49/386/386 151/371/371 152/372/372
f 49/386/386 152/372/372 67/385/385
f 67/385/385 152/372/372 85/384/384
f 85/384/384 152/372/372 170/373/373
f 85/384/384 170/373/373 114/383/383
f 114/383/383 170/373/373 193/374/374
f 114/383/383 193/374/374 138/382/382
f 138/382/382 193/374/374 177/381/381
f 177/381/381 193/374/374 210/375/375
f 177/381/381 210/375/375 213/380/380
f 213/380/380 210/375/375 232/376/376
f 213/380/380 232/376/376 249/410/410
f 249/410/410 232/376/376 286/409/409
f 286/409/409 232/376/376 248/377/377
f 286/409/409 248/377/377 315/408/408
f 315/408/408 248/377/377 334/407/407
f 334/407/407 248/377/377 271/378/378
f 334/407/407 271/378/378 355/406/406
f 355/406/406 271/378/378 279/379/379
f 355/406/406 279/379/379 371/405/405
f 371/405/405 279/379/379 381/404/404
f 381/404/404 279/379/379 285/361/361
f 249/412/412 233/481/481 213/411/411
f 213/411/411 233/481/481 198/482/482
f 213/411/411 198/482/482 177/441/441
f 177/441/441 198/482/482 153/511/511
f 177/441/441 153/511/511 138/440/440
f 138/440/440 153/511/511 121/510/510
f 138/440/440 121/510/510 114/439/439
f 114/439/439 121/510/510 96/478/478
f 114/439/439 96/478/478 85/438/438
f 85/438/438 96/478/478 68/509/509
f 85/438/438 68/509/509 48/508/508
f 48/508/508 68/509/509 38/447/447
f 48/508/508 38/447/447 24/448/448
f 233/481/481 249/412/412 280/483/483
f 280/483/483 249/412/412 286/413/413
f 280/483/483 286/413/413 306/484/484
f 306/484/484 286/413/413 315/414/414
f 306/484/484 315/414/414 332/479/479
f 332/479/479 315/414/414 334/415/415
f 332/479/479 334/415/415 356/486/486
f 356/486/486 334/415/415 382/485/485
f 356/486/486 382/485/485 384/472/472
f 384/472/472 382/485/485 401/471/471
f 401/471/471 382/485/485 391/487/487
f 401/471/471 391/487/487 412/470/470
f 412/470/470 391/487/487 398/488/488
f 412/470/470 398/488/488 420/469/469
f 420/469/469 398/488/488 400/489/489
f 420/469/469 400/489/489 419/468/468
f 419/468/468 400/489/489 399/490/490
f 419/468/468 399/490/490 411/467/467
f 411/467/467 399/490/490 397/491/491
f 411/467/467 397/491/491 406/466/466
f 406/466/466 397/491/491 383/492/492
f 406/466/466 383/492/492 392/465/465
f 392/465/465 383/492/492 370/480/480
f 392/465/465 370/480/480 372/464/464
f 372/464/464 370/480/480 335/494/494
f 372/464/464 335/494/494 336/463/463
f 336/463/463 335/494/494 318/493/493
f 336/463/463 318/493/493 316/462/462
f 316/462/462 318/493/493 294/495/495
f 316/462/462 294/495/495 281/461/461
f 281/461/461 294/495/495 250/496/496
f 281/461/461 250/496/496 243/460/460
f 243/460/460 250/496/496 214/497/497
f 243/460/460 214/497/497 194/459/459
f 194/459/459 214/497/497 178/512/512
f 194/513/513 178/498/498 154/458/458
f 154/458/458 178/498/498 135/499/499
f 154/458/458 135/499/499 115/457/457
f 115/457/457 135/499/499 107/500/500
f 115/457/457 107/500/500 87/456/456
f 87/456/456 107/500/500 86/501/501
f 87/456/456 86/501/501 50/455/455
f 50/455/455 86/501/501 62/477/477
f 50/455/455 62/477/477 32/454/454
f 32/454/454 62/477/477 37/502/502
f 32/454/454 37/502/502 17/453/453
f 17/453/453 37/502/502 29/503/503
f 17/453/453 29/503/503 9/452/452
f 9/452/452 29/503/503 22/504/504
f 9/452/452 22/504/504 7/451/451
f 7/451/451 22/504/504 23/505/505
f 7/451/451 23/505/505 8/450/450
f 8/450/450 23/505/505 30/506/506
f 8/450/450 30/506/506 10/449/449
f 10/449/449 30/506/506 31/507/507
f 10/449/449 31/507/507 24/448/448
f 24/448/448 31/507/507 48/508/508
f 334/415/415 355/416/416 382/485/485
f 382/485/485 355/416/416 391/487/487
f 355/416/416 371/417/417 391/487/487
f 391/487/487 371/417/417 398/488/488
f 371/417/417 381/418/418 398/488/488
f 398/488/488 381/418/418 400/489/489
f 381/418/418 380/419/419 400/489/489
f 400/489/489 380/419/419 399/490/490
f 380/419/419 379/420/420 399/490/490
f 399/490/490 379/420/420 397/491/491
f 379/420/420 369/421/421 397/491/491
f 397/491/491 369/421/421 383/492/492
f 369/421/421 348/422/422 383/492/492
f 383/492/492 348/422/422 370/480/480
f 348/422/422 324/423/423 370/480/480
f 370/480/480 324/423/423 335/494/494
f 335/494/494 324/423/423 318/493/493
f 318/493/493 324/423/423 297/424/424
f 318/493/493 297/424/424 294/495/495
f 294/495/495 297/424/424 269/425/425
f 294/495/495 269/425/425 250/496/496
f 250/496/496 269/425/425 230/514/514
f 250/496/496 230/515/515 214/497/497
f 214/516/516 230/426/426 197/427/427
f 214/517/517 197/427/427 178/498/498
f 178/498/498 197/427/427 157/428/428
f 178/498/498 157/428/428 135/499/499
f 135/499/499 157/428/428 128/429/429
f 135/499/499 128/429/429 107/500/500
f 107/500/500 128/429/429 100/430/430
f 107/500/500 100/430/430 86/501/501
f 86/501/501 100/430/430 62/477/477
f 100/430/430 77/431/431 62/477/477
f 62/477/477 77/431/431 37/502/502
f 77/431/431 61/432/432 37/502/502
f 37/502/502 61/432/432 29/503/503
f 61/432/432 45/433/433 29/503/503
f 29/503/503 45/433/433 22/504/504
f 45/433/433 46/434/434 22/504/504
f 22/504/504 46/434/434 23/505/505
f 46/434/434 47/435/435 23/505/505
f 23/505/505 47/435/435 30/506/506
f 47/435/435 49/436/436 30/506/506
f 30/506/506 49/436/436 31/507/507
f 49/436/436 67/437/437 31/507/507
f 31/507/507 67/437/437 48/508/508
f 67/437/437 85/438/438 48/508/508
f 171/443/443 198/482/482 215/442/442
f 215/442/442 198/482/482 233/481/481
f 215/442/442 233/481/481 264/476/476
f 264/476/476 233/481/481 280/483/483
f 264/476/476 280/483/483 300/475/475
f 300/475/475 280/483/483 306/484/484
f 300/475/475 306/484/484 325/474/474
f 325/474/474 306/484/484 332/479/479
f 325/474/474 332/479/479 359/473/473
f 359/473/473 332/479/479 356/486/486
f 359/473/473 356/486/486 384/472/472
f 198/482/482 171/443/443 153/511/511
f 153/511/511 171/443/443 131/444/444
f 153/511/511 131/444/444 121/510/510
f 121/510/510 131/444/444 101/445/445
f 121/510/510 101/445/445 96/478/478
f 96/478/478 101/445/445 71/446/446
f 96/478/478 71/446/446 68/509/509
f 68/509/509 71/446/446 38/447/447
f 373/519/519 376/577/577 374/518/518
f 374/518/518 376/577/577 377/548/548
f 374/518/518 377/548/548 375/547/547
f 375/547/547 377/548/548 378/549/549
f 375/547/547 378/549/549 358/546/546
f 358/546/546 378/549/549 361/550/550
f 358/546/546 361/550/550 338/545/545
f 338/545/545 361/550/550 340/551/551
f 338/545/545 340/551/551 320/544/544
f 320/544/544 340/551/551 322/552/552
f 320/544/544 322/552/552 299/543/543
f 299/543/543 322/552/552 302/553/553
f 299/543/543 302/553/553 273/542/542
f 273/542/542 302/553/553 275/554/554
f 273/542/542 275/554/554 235/541/541
f 235/541/541 275/554/554 237/555/555
f 235/541/541 237/555/555 200/540/540
f 200/540/540 237/555/555 202/556/556
f 200/540/540 202/556/556 159/539/539
f 159/539/539 202/556/556 161/557/557
f 159/539/539 161/557/557 130/538/538
f 130/538/538 161/557/557 133/558/558
f 130/538/538 133/558/558 109/537/537
f 109/537/537 133/558/558 111/559/559
f 109/537/537 111/559/559 89/536/536
f 89/536/536 111/559/559 91/560/560
f 89/536/536 91/560/560 70/535/535
f 70/535/535 91/560/560 73/561/561
f 70/535/535 73/561/561 53/534/534
f 53/534/534 73/561/561 56/562/562
f 53/534/534 56/562/562 52/533/533
f 52/533/533 56/562/562 55/578/578
f 52/579/579 55/563/563 51/532/532
f 51/532/532 55/563/563 54/564/564
f 51/532/532 54/564/564 69/531/531
f 69/531/531 54/564/564 72/565/565
f 69/531/531 72/565/565 88/530/530
f 88/530/530 72/565/565 90/566/566
f 88/530/530 90/566/566 108/529/529
f 108/529/529 90/566/566 110/567/567
f 108/529/529 110/567/567 129/528/528
f 129/528/528 110/567/567 132/568/568
f 129/528/528 132/568/568 158/527/527
f 158/527/527 132/568/568 160/569/569
f 158/527/527 160/569/569 199/526/526
f 199/526/526 160/569/569 201/570/570
f 199/526/526 201/570/570 234/525/525
f 234/525/525 201/570/570 236/571/571
f 234/525/525 236/571/571 272/524/524
f 272/524/524 236/571/571 274/572/572
f 272/524/524 274/572/572 298/523/523
f 298/523/523 274/572/572 301/573/573
f 298/523/523 301/573/573 319/522/522
f 319/522/522 301/573/573 321/574/574
f 319/522/522 321/574/574 337/521/521
f 337/521/521 321/574/574 339/575/575
f 337/521/521 339/575/575 357/520/520
f 357/520/520 339/575/575 360/576/576
f 357/520/520 360/576/576 373/519/519
f 373/519/519 360/576/576 376/577/577
f 352/581/581 350/635/635 363/580/580
f 363/580/580 350/635/635 362/608/608
f 363/580/580 362/608/608 351/607/607
f 351/607/607 362/608/608 349/609/609
f 351/607/607 349/609/609 343/606/606
f 343/606/606 349/609/609 341/610/610
f 343/606/606 341/610/610 328/605/605
f 328/605/605 341/610/610 326/611/611
f 328/605/605 326/611/611 309/604/604
f 309/604/604 326/611/611 307/612/612
f 309/604/604 307/612/612 289/603/603
f 289/603/603 307/612/612 287/613/613
f 289/603/603 287/613/613 253/602/602
f 253/602/602 287/613/613 251/614/614
f 253/602/602 251/614/614 218/601/601
f 218/601/601 251/614/614 216/615/615
f 218/601/601 216/615/615 181/600/600
f 181/600/600 216/615/615 179/616/616
f 181/600/600 179/616/616 141/599/599
f 141/599/599 179/616/616 139/617/617
f 141/599/599 139/617/617 124/598/598
f 124/598/598 139/617/617 122/618/618
f 124/598/598 122/618/618 104/597/597
f 104/597/597 122/618/618 102/619/619
f 104/597/597 102/619/619 94/596/596
f 94/596/596 102/619/619 92/620/620
f 94/596/596 92/620/620 80/595/595
f 80/595/595 92/620/620 78/621/621
f 80/595/595 78/621/621 75/594/594
f 75/594/594 78/621/621 74/636/636
f 75/637/637 74/622/622 81/593/593
f 81/593/593 74/622/622 79/623/623
f 81/593/593 79/623/623 95/592/592
f 95/592/592 79/623/623 93/624/624
f 95/592/592 93/624/624 105/591/591
f 105/591/591 93/624/624 103/625/625
f 105/591/591 103/625/625 125/590/590
f 125/590/590 103/625/625 123/626/626
f 125/590/590 123/626/626 142/589/589
f 142/589/589 123/626/626 140/627/627
f 142/589/589 140/627/627 182/588/588
f 182/588/588 140/627/627 180/628/628
f 182/588/588 180/628/628 219/587/587
f 219/587/587 180/628/628 217/629/629
f 219/587/587 217/629/629 254/586/586
f 254/586/586 217/629/629 252/630/630
f 254/586/586 252/630/630 290/585/585
f 290/585/585 252/630/630 288/631/631
f 290/585/585 288/631/631 310/584/584
f 310/584/584 288/631/631 308/632/632
f 310/584/584 308/632/632 329/583/583
f 329/583/583 308/632/632 327/633/633
f 329/583/583 327/633/633 344/582/582
f 344/582/582 327/633/633 342/634/634
f 344/582/582 342/634/634 352/581/581
f 352/581/581 342/634/634 350/635/635
f 363/638/638 351/639/639 352/665/665
f 352/665/665 351/639/639 344/664/664
f 344/664/664 351/639/639 343/640/640
f 344/664/664 343/640/640 329/663/663
f 329/663/663 343/640/640 328/641/641
f 329/663/663 328/641/641 310/662/662
f 310/662/662 328/641/641 309/642/642
f 310/662/662 309/642/642 290/661/661
f 290/661/661 309/642/642 289/643/643
f 290/661/661 289/643/643 254/660/660
f 254/660/660 289/643/643 253/644/644
f 254/660/660 253/644/644 219/659/659
f 219/659/659 253/644/644 218/645/645
f 219/659/659 218/645/645 182/658/658
f 182/658/658 218/645/645 181/646/646
f 182/658/658 181/646/646 142/657/657
f 142/657/657 181/646/646 141/647/647
f 142/657/657 141/647/647 125/656/656
f 125/656/656 141/647/647 124/648/648
f 125/656/656 124/648/648 105/655/655
f 105/655/655 124/648/648 104/649/649
f 105/655/655 104/649/649 95/654/654
f 95/654/654 104/649/649 94/650/650
f 95/654/654 94/650/650 81/653/653
f 81/653/653 94/650/650 80/651/651
f 81/653/653 80/651/651 75/652/652
f 39/667/667 40/683/683 41/666/666
f 41/666/666 40/683/683 42/690/690
f 41/691/691 42/684/684 43/677/677
f 43/677/677 42/684/684 44/685/685
f 43/677/677 44/685/685 35/676/676
f 35/676/676 44/685/685 36/686/686
f 35/676/676 36/686/686 27/675/675
f 27/675/675 36/686/686 28/687/687
f 27/675/675 28/687/687 20/674/674
f 20/674/674 28/687/687 21/688/688
f 20/674/674 21/688/688 15/673/673
f 15/673/673 21/688/688 16/689/689
f 15/673/673 16/689/689 13/672/672
f 13/672/672 16/689/689 14/678/678
f 13/672/672 14/678/678 11/671/671
f 11/671/671 14/678/678 12/679/679
f 11/671/671 12/679/679 18/670/670
f 18/670/670 12/679/679 19/680/680
f 18/670/670 19/680/680 25/669/669
f 25/669/669 19/680/680 26/681/681
f 25/669/669 26/681/681 33/668/668
f 33/668/668 26/681/681 34/682/682
f 33/668/668 34/682/682 39/667/667
f 39/667/667 34/682/682 40/683/683
f 389/693/693 390/709/709 387/692/692
f 387/692/692 390/709/709 388/716/716
f 387/717/717 388/710/710 385/703/703
f 385/703/703 388/710/710 386/711/711
f 385/703/703 386/711/711 393/702/702
f 393/702/702 386/711/711 394/712/712
f 393/702/702 394/712/712 402/701/701
f 402/701/701 394/712/712 403/713/713
f 402/701/701 403/713/713 407/700/700
f 407/700/700 403/713/713 408/714/714
f 407/700/700 408/714/714 413/699/699
f 413/699/699 408/714/714 414/715/715
f 413/699/699 414/715/715 415/698/698
f 415/698/698 414/715/715 416/704/704
f 415/698/698 416/704/704 417/697/697
f 417/697/697 416/704/704 418/705/705
f 417/697/697 418/705/705 409/696/696
f 409/696/696 418/705/705 410/706/706
f 409/696/696 410/706/706 404/695/695
f 404/695/695 410/706/706 405/707/707
f 404/695/695 405/707/707 395/694/694
f 395/694/694 405/707/707 396/708/708
f 395/694/694 396/708/708 389/693/693
f 389/693/693 396/708/708 390/709/709
f 2/718/718 422/719/719 4/721/721
f 4/721/721 422/719/719 424/720/720
f 350/723/723 424/751/751 362/722/722
f 362/722/722 424/751/751 423/752/752
f 362/722/722 423/752/752 349/749/749
f 349/749/749 423/752/752 341/748/748
f 341/748/748 423/752/752 326/747/747
f 326/747/747 423/752/752 307/746/746
f 307/746/746 423/752/752 287/745/745
f 287/745/745 423/752/752 251/744/744
f 251/744/744 423/752/752 216/743/743
f 216/743/743 423/752/752 3/753/753
f 216/743/743 3/753/753 179/742/742
f 179/742/742 3/753/753 139/741/741
f 139/741/741 3/753/753 122/740/740
f 122/740/740 3/753/753 102/739/739
f 102/739/739 3/753/753 92/738/738
f 92/738/738 3/753/753 78/737/737
f 78/737/737 3/753/753 74/736/736
f 74/736/736 3/753/753 4/750/750
f 74/736/736 4/750/750 79/735/735
f 79/735/735 4/750/750 93/734/734
f 93/734/734 4/750/750 103/733/733
f 103/733/733 4/750/750 123/732/732
f 123/732/732 4/750/750 140/731/731
f 140/731/731 4/750/750 180/730/730
f 180/730/730 4/750/750 217/729/729
f 217/729/729 4/750/750 424/751/751
f 217/729/729 424/751/751 252/728/728
f 252/728/728 424/751/751 288/727/727
f 288/727/727 424/751/751 308/726/726
f 308/726/726 424/751/751 327/725/725
f 327/725/725 424/751/751 342/724/724
f 342/724/724 424/751/751 350/723/723
f 12/765/765 14/754/754 6/781/781
f 6/781/781 14/754/754 16/755/755
f 6/781/781 16/755/755 21/756/756
f 21/756/756 28/757/757 6/781/781
f 6/781/781 28/757/757 405/775/775
f 6/781/781 405/775/775 426/780/780
f 426/780/780 405/775/775 410/776/776
f 426/780/780 410/776/776 418/777/777
f 405/775/775 28/757/757 396/774/774
f 396/774/774 28/757/757 36/758/758
f 396/774/774 36/758/758 390/773/773
f 390/773/773 36/758/758 44/759/759
f 390/773/773 44/759/759 388/772/772
f 388/772/772 44/759/759 42/760/760
f 388/772/772 42/760/760 386/771/771
f 386/771/771 42/760/760 40/761/761
f 386/771/771 40/761/761 394/770/770
f 394/770/770 40/761/761 34/762/762
f 394/770/770 34/762/762 423/779/779
f 423/779/779 34/762/762 3/778/778
f 3/778/778 34/762/762 26/763/763
f 3/778/778 26/763/763 19/764/764
f 19/764/764 12/765/765 3/778/778
f 3/778/778 12/765/765 6/781/781
f 418/777/777 416/766/766 426/780/780
f 426/780/780 416/766/766 414/767/767
f 426/780/780 414/767/767 423/779/779
f 423/779/779 414/767/767 408/768/768
f 423/779/779 408/768/768 403/769/769
f 403/769/769 394/770/770 423/779/779
f 6/787/787 5/782/782 3/786/786
f 3/786/786 5/782/782 1/783/783
f 3/786/786 1/783/783 2/784/784
f 2/784/784 4/785/785 3/786/786
f 425/788/788 5/789/789 426/791/791
f 426/791/791 5/789/789 6/790/790
f 422/797/797 421/792/792 423/795/795
f 423/795/795 421/792/792 425/793/793
f 423/795/795 425/793/793 426/794/794
f 423/795/795 424/796/796 422/797/797
f 376/799/799 421/829/829 377/798/798
f 377/798/798 421/829/829 422/830/830
f 377/798/798 422/830/830 378/827/827
f 378/827/827 422/830/830 361/826/826
f 361/826/826 422/830/830 340/825/825
f 340/825/825 422/830/830 322/824/824
f 322/824/824 422/830/830 302/823/823
f 302/823/823 422/830/830 275/822/822
f 275/822/822 422/830/830 237/821/821
f 237/821/821 422/830/830 2/831/831
f 237/821/821 2/831/831 202/820/820
f 202/820/820 2/831/831 161/819/819
f 161/819/819 2/831/831 133/818/818
f 133/818/818 2/831/831 111/817/817
f 111/817/817 2/831/831 91/816/816
f 91/816/816 2/831/831 73/815/815
f 73/815/815 2/831/831 56/814/814
f 56/814/814 2/831/831 55/813/813
f 55/813/813 2/831/831 1/828/828
f 55/813/813 1/828/828 54/812/812
f 54/812/812 1/828/828 72/811/811
f 72/811/811 1/828/828 90/810/810
f 90/810/810 1/828/828 110/809/809
f 110/809/809 1/828/828 132/808/808
f 132/808/808 1/828/828 160/807/807
f 160/807/807 1/828/828 201/806/806
f 201/806/806 1/828/828 421/829/829
f 201/806/806 421/829/829 236/805/805
f 236/805/805 421/829/829 274/804/804
f 274/804/804 421/829/829 301/803/803
f 301/803/803 421/829/829 321/802/802
f 321/802/802 421/829/829 339/801/801
f 339/801/801 421/829/829 360/800/800
f 360/800/800 421/829/829 376/799/799
f 43/833/833 389/855/855 41/832/832
f 41/832/832 389/855/855 387/844/844
f 41/832/832 387/844/844 39/843/843
f 39/843/843 387/844/844 385/845/845
f 39/843/843 385/845/845 33/842/842
f 33/842/842 385/845/845 393/846/846
f 33/842/842 393/846/846 1/857/857
f 1/857/857 393/846/846 421/856/856
f 421/856/856 393/846/846 402/847/847
f 421/856/856 402/847/847 407/848/848
f 389/855/855 43/833/833 395/854/854
f 395/854/854 43/833/833 35/834/834
f 395/854/854 35/834/834 404/853/853
f 404/853/853 35/834/834 27/835/835
f 404/853/853 27/835/835 425/859/859
f 425/859/859 27/835/835 5/858/858
f 5/858/858 27/835/835 20/836/836
f 5/858/858 20/836/836 15/837/837
f 15/837/837 13/838/838 5/858/858
f 5/858/858 13/838/838 11/839/839
f 5/858/858 11/839/839 1/857/857
f 1/857/857 11/839/839 18/840/840
f 1/857/857 18/840/840 25/841/841
f 25/841/841 33/842/842 1/857/857
f 407/848/848 413/849/849 421/856/856
f 421/856/856 413/849/849 425/859/859
f 425/859/859 413/849/849 415/850/850
f 425/859/859 415/850/850 417/851/851
f 417/851/851 409/852/852 425/859/859
f 425/859/859 409/852/852 404/853/853
# 426 vertices
# 859 texture params
# 859 normals
# 856 facets

# 1 groups
