# WaveFront *.obj file (generated by Autodesk ATF)

mtllib plate.mtl

g Solido1

v -0.088624 -0.077338 0.005000
v -0.088624 -0.077338 0.025000
v -0.089000 -0.074000 0.005000
v -0.089000 -0.074000 0.025000
v -0.089000 0.074000 0.005000
v -0.089000 0.074000 0.025000
v -0.088624 0.077338 0.005000
v -0.088624 0.077338 0.025000
v -0.087515 -0.080508 0.005000
v -0.087515 -0.080508 0.025000
v -0.087515 0.080508 0.005000
v -0.087515 0.080508 0.025000
v -0.085727 -0.083352 0.005000
v -0.085727 -0.083352 0.025000
v -0.085727 0.083352 0.005000
v -0.085727 0.083352 0.025000
v -0.083511 -0.077090 0.000000
v -0.083511 -0.077090 0.030000
v -0.084000 -0.074000 0.000000
v -0.084000 -0.074000 0.030000
v -0.084000 0.074000 0.000000
v -0.084000 0.074000 0.030000
v -0.083511 0.077090 0.000000
v -0.083511 0.077090 0.030000
v -0.083352 -0.085727 0.005000
v -0.083352 -0.085727 0.025000
v -0.083352 0.085727 0.005000
v -0.083352 0.085727 0.025000
v -0.082090 -0.079878 0.000000
v -0.082090 -0.079878 0.030000
v -0.082090 0.079878 0.000000
v -0.082090 0.079878 0.030000
v -0.080508 -0.087515 0.005000
v -0.080508 -0.087515 0.025000
v -0.080508 0.087515 0.005000
v -0.080508 0.087515 0.025000
v -0.079878 -0.082090 0.000000
v -0.079878 -0.082090 0.030000
v -0.079878 0.082090 0.000000
v -0.079878 0.082090 0.030000
v -0.077338 -0.088624 0.005000
v -0.077338 -0.088624 0.025000
v -0.077090 -0.083511 0.000000
v -0.077090 -0.083511 0.030000
v -0.077090 0.083511 0.000000
v -0.077090 0.083511 0.030000
v -0.077338 0.088624 0.005000
v -0.077338 0.088624 0.025000
v -0.074000 -0.089000 0.005000
v -0.074000 -0.089000 0.025000
v -0.074000 -0.084000 0.000000
v -0.074000 -0.084000 0.030000
v -0.074000 0.084000 0.000000
v -0.074000 0.084000 0.030000
v -0.074000 0.089000 0.005000
v -0.074000 0.089000 0.025000
v 0.062458 0.064141 0.000000
v 0.062116 0.065043 0.030000
v 0.062000 0.066000 0.000000
v 0.062116 0.066957 0.030000
v 0.062458 0.067859 0.000000
v 0.063006 0.063348 0.030000
v 0.063006 0.068652 0.030000
v 0.063728 0.062708 0.000000
v 0.063728 0.069292 0.000000
v 0.064582 0.062260 0.030000
v 0.064582 0.069740 0.030000
v 0.065518 0.062029 0.000000
v 0.066482 0.062029 0.030000
v 0.065518 0.069971 0.000000
v 0.066482 0.069971 0.030000
v 0.067418 0.062260 0.000000
v 0.067418 0.069740 0.000000
v 0.068272 0.062708 0.030000
v 0.068272 0.069292 0.030000
v 0.068994 0.063348 0.000000
v 0.068994 0.068652 0.000000
v 0.069542 0.064141 0.030000
v 0.069884 0.065043 0.000000
v 0.070000 0.066000 0.030000
v 0.069884 0.066957 0.000000
v 0.069542 0.067859 0.030000
v 0.074000 -0.089000 0.005000
v 0.074000 -0.089000 0.025000
v 0.074000 -0.084000 0.000000
v 0.074000 -0.084000 0.030000
v 0.074000 0.084000 0.000000
v 0.074000 0.084000 0.030000
v 0.074000 0.089000 0.005000
v 0.074000 0.089000 0.025000
v 0.077338 -0.088624 0.005000
v 0.077338 -0.088624 0.025000
v 0.077090 -0.083511 0.000000
v 0.077090 -0.083511 0.030000
v 0.077090 0.083511 0.000000
v 0.077090 0.083511 0.030000
v 0.077338 0.088624 0.005000
v 0.077338 0.088624 0.025000
v 0.079878 -0.082090 0.000000
v 0.079878 -0.082090 0.030000
v 0.079878 0.082090 0.000000
v 0.079878 0.082090 0.030000
v 0.080508 -0.087515 0.005000
v 0.080508 -0.087515 0.025000
v 0.080508 0.087515 0.005000
v 0.080508 0.087515 0.025000
v 0.082090 -0.079878 0.000000
v 0.082090 -0.079878 0.030000
v 0.082090 0.079878 0.000000
v 0.082090 0.079878 0.030000
v 0.083352 -0.085727 0.005000
v 0.083352 -0.085727 0.025000
v 0.083352 0.085727 0.005000
v 0.083352 0.085727 0.025000
v 0.083511 -0.077090 0.000000
v 0.083511 -0.077090 0.030000
v 0.084000 -0.074000 0.000000
v 0.084000 -0.074000 0.030000
v 0.084000 0.074000 0.000000
v 0.084000 0.074000 0.030000
v 0.083511 0.077090 0.000000
v 0.083511 0.077090 0.030000
v 0.085727 -0.083352 0.005000
v 0.085727 -0.083352 0.025000
v 0.085727 0.083352 0.005000
v 0.085727 0.083352 0.025000
v 0.087515 -0.080508 0.005000
v 0.087515 -0.080508 0.025000
v 0.087515 0.080508 0.005000
v 0.087515 0.080508 0.025000
v 0.088624 -0.077338 0.005000
v 0.088624 -0.077338 0.025000
v 0.089000 -0.074000 0.005000
v 0.089000 -0.074000 0.025000
v 0.089000 0.074000 0.005000
v 0.089000 0.074000 0.025000
v 0.088624 0.077338 0.005000
v 0.088624 0.077338 0.025000
vt 0.011850 -0.000354 0.000000
vt 0.011850 0.000354 0.000000
vt -0.002950 0.000354 0.000000
vt -0.002950 -0.000354 0.000000
vt 0.000354 0.000982 0.000000
vt -0.000354 0.000982 0.000000
vt -0.000354 0.000701 0.000000
vt -0.000354 0.000421 0.000000
vt -0.000354 0.000140 0.000000
vt -0.000354 -0.000140 0.000000
vt -0.000354 -0.000421 0.000000
vt -0.000354 -0.000701 0.000000
vt -0.000354 -0.000982 0.000000
vt 0.000354 -0.000982 0.000000
vt 0.000354 -0.000589 0.000000
vt 0.000354 -0.000196 0.000000
vt 0.000354 0.000196 0.000000
vt 0.000354 0.000589 0.000000
vt -0.000354 -0.011850 0.000000
vt 0.000354 -0.011850 0.000000
vt 0.000354 0.002950 0.000000
vt -0.000354 0.002950 0.000000
vt 0.000354 0.000982 0.000000
vt -0.000354 0.000982 0.000000
vt -0.000354 0.000701 0.000000
vt -0.000354 0.000421 0.000000
vt -0.000354 0.000140 0.000000
vt -0.000354 -0.000140 0.000000
vt -0.000354 -0.000421 0.000000
vt -0.000354 -0.000701 0.000000
vt -0.000354 -0.000982 0.000000
vt 0.000354 -0.000982 0.000000
vt 0.000354 -0.000589 0.000000
vt 0.000354 -0.000196 0.000000
vt 0.000354 0.000196 0.000000
vt 0.000354 0.000589 0.000000
vt -0.011850 0.000354 0.000000
vt -0.011850 -0.000354 0.000000
vt 0.002950 -0.000354 0.000000
vt 0.002950 0.000354 0.000000
vt 0.000354 0.000982 0.000000
vt -0.000354 0.000982 0.000000
vt -0.000354 0.000701 0.000000
vt -0.000354 0.000421 0.000000
vt -0.000354 0.000140 0.000000
vt -0.000354 -0.000140 0.000000
vt -0.000354 -0.000421 0.000000
vt -0.000354 -0.000701 0.000000
vt -0.000354 -0.000982 0.000000
vt 0.000354 -0.000982 0.000000
vt 0.000354 -0.000589 0.000000
vt 0.000354 -0.000196 0.000000
vt 0.000354 0.000196 0.000000
vt 0.000354 0.000589 0.000000
vt 0.000354 0.011850 0.000000
vt -0.000354 0.011850 0.000000
vt -0.000354 -0.002950 0.000000
vt 0.000354 -0.002950 0.000000
vt 0.000354 0.000982 0.000000
vt -0.000354 0.000982 0.000000
vt -0.000354 0.000701 0.000000
vt -0.000354 0.000421 0.000000
vt -0.000354 0.000140 0.000000
vt -0.000354 -0.000140 0.000000
vt -0.000354 -0.000421 0.000000
vt -0.000354 -0.000701 0.000000
vt -0.000354 -0.000982 0.000000
vt 0.000354 -0.000982 0.000000
vt 0.000354 -0.000589 0.000000
vt 0.000354 -0.000196 0.000000
vt 0.000354 0.000196 0.000000
vt 0.000354 0.000589 0.000000
vt -0.000500 -0.001178 0.000000
vt -0.000500 -0.000841 0.000000
vt -0.000500 -0.000505 0.000000
vt -0.000500 -0.000168 0.000000
vt -0.000500 0.000168 0.000000
vt -0.000500 0.000505 0.000000
vt -0.000500 0.000841 0.000000
vt -0.000500 0.001178 0.000000
vt -0.002500 0.001178 0.000000
vt -0.002500 0.000841 0.000000
vt -0.002500 0.000505 0.000000
vt -0.002500 0.000168 0.000000
vt -0.002500 -0.000168 0.000000
vt -0.002500 -0.000505 0.000000
vt -0.002500 -0.000841 0.000000
vt -0.002500 -0.001178 0.000000
vt 0.001500 0.000500 0.000000
vt 0.016300 0.000500 0.000000
vt 0.016300 0.002500 0.000000
vt 0.001500 0.002500 0.000000
vt -0.000500 -0.001178 0.000000
vt -0.000500 -0.000841 0.000000
vt -0.000500 -0.000505 0.000000
vt -0.000500 -0.000168 0.000000
vt -0.000500 0.000168 0.000000
vt -0.000500 0.000505 0.000000
vt -0.000500 0.000841 0.000000
vt -0.000500 0.001178 0.000000
vt -0.002500 0.001178 0.000000
vt -0.002500 0.000841 0.000000
vt -0.002500 0.000505 0.000000
vt -0.002500 0.000168 0.000000
vt -0.002500 -0.000168 0.000000
vt -0.002500 -0.000505 0.000000
vt -0.002500 -0.000841 0.000000
vt -0.002500 -0.001178 0.000000
vt 0.001500 0.000500 0.000000
vt 0.016300 0.000500 0.000000
vt 0.016300 0.002500 0.000000
vt 0.001500 0.002500 0.000000
vt -0.006200 0.006600 0.000000
vt -0.006246 0.006414 0.000000
vt -0.006373 0.006271 0.000000
vt -0.006552 0.006203 0.000000
vt -0.006742 0.006226 0.000000
vt -0.006899 0.006335 0.000000
vt -0.006988 0.006504 0.000000
vt -0.006988 0.006696 0.000000
vt -0.006899 0.006865 0.000000
vt -0.006742 0.006974 0.000000
vt -0.006552 0.006997 0.000000
vt -0.006373 0.006929 0.000000
vt -0.006246 0.006786 0.000000
vt 0.007400 0.008400 0.000000
vt -0.007400 0.008400 0.000000
vt -0.007709 0.008351 0.000000
vt -0.007988 0.008209 0.000000
vt -0.008209 0.007988 0.000000
vt -0.008351 0.007709 0.000000
vt -0.008400 0.007400 0.000000
vt -0.008400 -0.007400 0.000000
vt -0.008351 -0.007709 0.000000
vt -0.008209 -0.007988 0.000000
vt -0.007988 -0.008209 0.000000
vt -0.007709 -0.008351 0.000000
vt -0.007400 -0.008400 0.000000
vt 0.007400 -0.008400 0.000000
vt 0.007709 -0.008351 0.000000
vt 0.007988 -0.008209 0.000000
vt 0.008209 -0.007988 0.000000
vt 0.008351 -0.007709 0.000000
vt 0.008400 -0.007400 0.000000
vt 0.008400 0.007400 0.000000
vt 0.008351 0.007709 0.000000
vt 0.008209 0.007988 0.000000
vt 0.007988 0.008209 0.000000
vt 0.007709 0.008351 0.000000
vt -0.011850 0.000354 0.000000
vt -0.011850 -0.000354 0.000000
vt 0.002950 -0.000354 0.000000
vt 0.002950 0.000354 0.000000
vt 0.000354 0.000982 0.000000
vt -0.000354 0.000982 0.000000
vt -0.000354 0.000701 0.000000
vt -0.000354 0.000421 0.000000
vt -0.000354 0.000140 0.000000
vt -0.000354 -0.000140 0.000000
vt -0.000354 -0.000421 0.000000
vt -0.000354 -0.000701 0.000000
vt -0.000354 -0.000982 0.000000
vt 0.000354 -0.000982 0.000000
vt 0.000354 -0.000589 0.000000
vt 0.000354 -0.000196 0.000000
vt 0.000354 0.000196 0.000000
vt 0.000354 0.000589 0.000000
vt -0.000354 -0.011850 0.000000
vt 0.000354 -0.011850 0.000000
vt 0.000354 0.002950 0.000000
vt -0.000354 0.002950 0.000000
vt 0.000354 0.000982 0.000000
vt -0.000354 0.000982 0.000000
vt -0.000354 0.000701 0.000000
vt -0.000354 0.000421 0.000000
vt -0.000354 0.000140 0.000000
vt -0.000354 -0.000140 0.000000
vt -0.000354 -0.000421 0.000000
vt -0.000354 -0.000701 0.000000
vt -0.000354 -0.000982 0.000000
vt 0.000354 -0.000982 0.000000
vt 0.000354 -0.000589 0.000000
vt 0.000354 -0.000196 0.000000
vt 0.000354 0.000196 0.000000
vt 0.000354 0.000589 0.000000
vt 0.011850 -0.000354 0.000000
vt 0.011850 0.000354 0.000000
vt -0.002950 0.000354 0.000000
vt -0.002950 -0.000354 0.000000
vt 0.000354 0.000982 0.000000
vt -0.000354 0.000982 0.000000
vt -0.000354 0.000701 0.000000
vt -0.000354 0.000421 0.000000
vt -0.000354 0.000140 0.000000
vt -0.000354 -0.000140 0.000000
vt -0.000354 -0.000421 0.000000
vt -0.000354 -0.000701 0.000000
vt -0.000354 -0.000982 0.000000
vt 0.000354 -0.000982 0.000000
vt 0.000354 -0.000589 0.000000
vt 0.000354 -0.000196 0.000000
vt 0.000354 0.000196 0.000000
vt 0.000354 0.000589 0.000000
vt 0.000354 0.011850 0.000000
vt -0.000354 0.011850 0.000000
vt -0.000354 -0.002950 0.000000
vt 0.000354 -0.002950 0.000000
vt 0.000354 0.000982 0.000000
vt -0.000354 0.000982 0.000000
vt -0.000354 0.000701 0.000000
vt -0.000354 0.000421 0.000000
vt -0.000354 0.000140 0.000000
vt -0.000354 -0.000140 0.000000
vt -0.000354 -0.000421 0.000000
vt -0.000354 -0.000701 0.000000
vt -0.000354 -0.000982 0.000000
vt 0.000354 -0.000982 0.000000
vt 0.000354 -0.000589 0.000000
vt 0.000354 -0.000196 0.000000
vt 0.000354 0.000196 0.000000
vt 0.000354 0.000589 0.000000
vt -0.000500 -0.001178 0.000000
vt -0.000500 -0.000841 0.000000
vt -0.000500 -0.000505 0.000000
vt -0.000500 -0.000168 0.000000
vt -0.000500 0.000168 0.000000
vt -0.000500 0.000505 0.000000
vt -0.000500 0.000841 0.000000
vt -0.000500 0.001178 0.000000
vt -0.002500 0.001178 0.000000
vt -0.002500 0.000841 0.000000
vt -0.002500 0.000505 0.000000
vt -0.002500 0.000168 0.000000
vt -0.002500 -0.000168 0.000000
vt -0.002500 -0.000505 0.000000
vt -0.002500 -0.000841 0.000000
vt -0.002500 -0.001178 0.000000
vt 0.001500 0.000500 0.000000
vt 0.016300 0.000500 0.000000
vt 0.016300 0.002500 0.000000
vt 0.001500 0.002500 0.000000
vt -0.000500 -0.001178 0.000000
vt -0.000500 -0.000841 0.000000
vt -0.000500 -0.000505 0.000000
vt -0.000500 -0.000168 0.000000
vt -0.000500 0.000168 0.000000
vt -0.000500 0.000505 0.000000
vt -0.000500 0.000841 0.000000
vt -0.000500 0.001178 0.000000
vt -0.002500 0.001178 0.000000
vt -0.002500 0.000841 0.000000
vt -0.002500 0.000505 0.000000
vt -0.002500 0.000168 0.000000
vt -0.002500 -0.000168 0.000000
vt -0.002500 -0.000505 0.000000
vt -0.002500 -0.000841 0.000000
vt -0.002500 -0.001178 0.000000
vt 0.007000 0.006600 0.000000
vt 0.006954 0.006414 0.000000
vt 0.006827 0.006271 0.000000
vt 0.006648 0.006203 0.000000
vt 0.006458 0.006226 0.000000
vt 0.006301 0.006335 0.000000
vt 0.006212 0.006504 0.000000
vt 0.006212 0.006696 0.000000
vt 0.006301 0.006865 0.000000
vt 0.006458 0.006974 0.000000
vt 0.006648 0.006997 0.000000
vt 0.006827 0.006929 0.000000
vt 0.006954 0.006786 0.000000
vt 0.007400 0.008400 0.000000
vt -0.007400 0.008400 0.000000
vt -0.007709 0.008351 0.000000
vt -0.007988 0.008209 0.000000
vt -0.008209 0.007988 0.000000
vt -0.008351 0.007709 0.000000
vt -0.008400 0.007400 0.000000
vt -0.008400 -0.007400 0.000000
vt -0.008351 -0.007709 0.000000
vt -0.008209 -0.007988 0.000000
vt -0.007988 -0.008209 0.000000
vt -0.007709 -0.008351 0.000000
vt -0.007400 -0.008400 0.000000
vt 0.007400 -0.008400 0.000000
vt 0.007709 -0.008351 0.000000
vt 0.007988 -0.008209 0.000000
vt 0.008209 -0.007988 0.000000
vt 0.008351 -0.007709 0.000000
vt 0.008400 -0.007400 0.000000
vt 0.008400 0.007400 0.000000
vt 0.008351 0.007709 0.000000
vt 0.008209 0.007988 0.000000
vt 0.007988 0.008209 0.000000
vt 0.007709 0.008351 0.000000
vt 0.001500 0.000500 0.000000
vt 0.016300 0.000500 0.000000
vt 0.016300 0.002500 0.000000
vt 0.001500 0.002500 0.000000
vt 0.003000 -0.001257 0.000000
vt 0.003000 -0.001063 0.000000
vt 0.003000 -0.000870 0.000000
vt 0.003000 -0.000677 0.000000
vt 0.003000 -0.000483 0.000000
vt 0.003000 -0.000290 0.000000
vt 0.003000 -0.000097 0.000000
vt 0.003000 0.000097 0.000000
vt 0.003000 0.000290 0.000000
vt 0.003000 0.000483 0.000000
vt 0.003000 0.000677 0.000000
vt 0.003000 0.000870 0.000000
vt 0.003000 0.001063 0.000000
vt 0.000000 0.000000 0.000000
vt 0.000000 -0.000193 0.000000
vt 0.000000 -0.000387 0.000000
vt 0.000000 -0.000580 0.000000
vt 0.000000 -0.000773 0.000000
vt 0.000000 -0.000967 0.000000
vt 0.000000 0.001353 0.000000
vt 0.000000 0.001160 0.000000
vt 0.000000 0.000967 0.000000
vt 0.000000 0.000773 0.000000
vt 0.000000 0.000580 0.000000
vt 0.000000 0.000387 0.000000
vt 0.000000 0.000193 0.000000
vt 0.000000 -0.001160 0.000000
vt 0.003000 0.001257 0.000000
vt 0.003000 0.001257 0.000000
vt 0.000000 -0.001160 0.000000
vn 0.000000 0.070711 -0.070711
vn 0.000000 0.070711 -0.070711
vn 0.000000 0.070711 -0.070711
vn 0.000000 0.070711 -0.070711
vn -0.070711 0.000000 -0.070711
vn -0.070711 0.000000 -0.070711
vn -0.068938 0.015735 -0.070711
vn -0.063708 0.030680 -0.070711
vn -0.055284 0.044087 -0.070711
vn -0.044087 0.055284 -0.070711
vn -0.030680 0.063708 -0.070711
vn -0.015735 0.068938 -0.070711
vn 0.000000 0.070711 -0.070711
vn 0.000000 0.070711 -0.070711
vn -0.021851 0.067250 -0.070711
vn -0.041563 0.057206 -0.070711
vn -0.057206 0.041563 -0.070711
vn -0.067250 0.021851 -0.070711
vn -0.070711 0.000000 -0.070711
vn -0.070711 0.000000 -0.070711
vn -0.070711 0.000000 -0.070711
vn -0.070711 0.000000 -0.070711
vn 0.000000 -0.070711 -0.070711
vn 0.000000 -0.070711 -0.070711
vn -0.015735 -0.068938 -0.070711
vn -0.030680 -0.063708 -0.070711
vn -0.044087 -0.055284 -0.070711
vn -0.055284 -0.044087 -0.070711
vn -0.063708 -0.030680 -0.070711
vn -0.068938 -0.015735 -0.070711
vn -0.070711 0.000000 -0.070711
vn -0.070711 0.000000 -0.070711
vn -0.067250 -0.021851 -0.070711
vn -0.057206 -0.041563 -0.070711
vn -0.041563 -0.057206 -0.070711
vn -0.021851 -0.067250 -0.070711
vn 0.000000 -0.070711 -0.070711
vn 0.000000 -0.070711 -0.070711
vn 0.000000 -0.070711 -0.070711
vn 0.000000 -0.070711 -0.070711
vn 0.070711 0.000000 -0.070711
vn 0.070711 0.000000 -0.070711
vn 0.068938 -0.015735 -0.070711
vn 0.063708 -0.030680 -0.070711
vn 0.055284 -0.044087 -0.070711
vn 0.044087 -0.055284 -0.070711
vn 0.030680 -0.063708 -0.070711
vn 0.015735 -0.068938 -0.070711
vn 0.000000 -0.070711 -0.070711
vn 0.000000 -0.070711 -0.070711
vn 0.021851 -0.067250 -0.070711
vn 0.041563 -0.057206 -0.070711
vn 0.057206 -0.041563 -0.070711
vn 0.067250 -0.021851 -0.070711
vn 0.070711 0.000000 -0.070711
vn 0.070711 0.000000 -0.070711
vn 0.070711 0.000000 -0.070711
vn 0.070711 0.000000 -0.070711
vn 0.000000 0.070711 -0.070711
vn 0.000000 0.070711 -0.070711
vn 0.015735 0.068938 -0.070711
vn 0.030680 0.063708 -0.070711
vn 0.044087 0.055284 -0.070711
vn 0.055284 0.044087 -0.070711
vn 0.063708 0.030680 -0.070711
vn 0.068938 0.015735 -0.070711
vn 0.070711 0.000000 -0.070711
vn 0.070711 0.000000 -0.070711
vn 0.067250 0.021851 -0.070711
vn 0.057206 0.041563 -0.070711
vn 0.041563 0.057206 -0.070711
vn 0.021851 0.067250 -0.070711
vn 0.000000 -0.100000 0.000000
vn 0.022252 -0.097493 0.000000
vn 0.043388 -0.090097 0.000000
vn 0.062349 -0.078183 0.000000
vn 0.078183 -0.062349 0.000000
vn 0.090097 -0.043388 0.000000
vn 0.097493 -0.022252 0.000000
vn 0.100000 0.000000 0.000000
vn 0.100000 0.000000 0.000000
vn 0.097493 -0.022252 0.000000
vn 0.090097 -0.043388 0.000000
vn 0.078183 -0.062349 0.000000
vn 0.062349 -0.078183 0.000000
vn 0.043388 -0.090097 0.000000
vn 0.022252 -0.097493 0.000000
vn 0.000000 -0.100000 0.000000
vn 0.100000 0.000000 0.000000
vn 0.100000 0.000000 0.000000
vn 0.100000 0.000000 0.000000
vn 0.100000 0.000000 0.000000
vn 0.100000 0.000000 0.000000
vn 0.097493 0.022252 0.000000
vn 0.090097 0.043388 0.000000
vn 0.078183 0.062349 0.000000
vn 0.062349 0.078183 0.000000
vn 0.043388 0.090097 0.000000
vn 0.022252 0.097493 0.000000
vn 0.000000 0.100000 0.000000
vn 0.000000 0.100000 0.000000
vn 0.022252 0.097493 0.000000
vn 0.043388 0.090097 0.000000
vn 0.062349 0.078183 0.000000
vn 0.078183 0.062349 0.000000
vn 0.090097 0.043388 0.000000
vn 0.097493 0.022252 0.000000
vn 0.100000 0.000000 0.000000
vn 0.000000 0.100000 0.000000
vn 0.000000 0.100000 0.000000
vn 0.000000 0.100000 0.000000
vn 0.000000 0.100000 0.000000
vn 0.000000 0.000000 -0.100000
vn 0.000000 0.000000 -0.100000
vn 0.000000 0.000000 -0.100000
vn 0.000000 0.000000 -0.100000
vn 0.000000 0.000000 -0.100000
vn 0.000000 0.000000 -0.100000
vn 0.000000 0.000000 -0.100000
vn 0.000000 0.000000 -0.100000
vn 0.000000 0.000000 -0.100000
vn 0.000000 0.000000 -0.100000
vn 0.000000 0.000000 -0.100000
vn 0.000000 0.000000 -0.100000
vn 0.000000 0.000000 -0.100000
vn 0.000000 0.000000 -0.100000
vn 0.000000 0.000000 -0.100000
vn 0.000000 0.000000 -0.100000
vn 0.000000 0.000000 -0.100000
vn 0.000000 0.000000 -0.100000
vn 0.000000 0.000000 -0.100000
vn 0.000000 0.000000 -0.100000
vn 0.000000 0.000000 -0.100000
vn 0.000000 0.000000 -0.100000
vn 0.000000 0.000000 -0.100000
vn 0.000000 0.000000 -0.100000
vn 0.000000 0.000000 -0.100000
vn 0.000000 0.000000 -0.100000
vn 0.000000 0.000000 -0.100000
vn 0.000000 0.000000 -0.100000
vn 0.000000 0.000000 -0.100000
vn 0.000000 0.000000 -0.100000
vn 0.000000 0.000000 -0.100000
vn 0.000000 0.000000 -0.100000
vn 0.000000 0.000000 -0.100000
vn 0.000000 0.000000 -0.100000
vn 0.000000 0.000000 -0.100000
vn 0.000000 0.000000 -0.100000
vn 0.000000 0.000000 -0.100000
vn 0.000000 0.070711 0.070711
vn 0.000000 0.070711 0.070711
vn 0.000000 0.070711 0.070711
vn 0.000000 0.070711 0.070711
vn 0.000000 0.070711 0.070711
vn 0.000000 0.070711 0.070711
vn -0.015735 0.068938 0.070711
vn -0.030680 0.063708 0.070711
vn -0.044087 0.055284 0.070711
vn -0.055284 0.044087 0.070711
vn -0.063708 0.030680 0.070711
vn -0.068938 0.015735 0.070711
vn -0.070711 0.000000 0.070711
vn -0.070711 0.000000 0.070711
vn -0.067250 0.021851 0.070711
vn -0.057206 0.041563 0.070711
vn -0.041563 0.057206 0.070711
vn -0.021851 0.067250 0.070711
vn -0.070711 0.000000 0.070711
vn -0.070711 0.000000 0.070711
vn -0.070711 0.000000 0.070711
vn -0.070711 0.000000 0.070711
vn -0.070711 0.000000 0.070711
vn -0.070711 0.000000 0.070711
vn -0.068938 -0.015735 0.070711
vn -0.063708 -0.030680 0.070711
vn -0.055284 -0.044087 0.070711
vn -0.044087 -0.055284 0.070711
vn -0.030680 -0.063708 0.070711
vn -0.015735 -0.068938 0.070711
vn 0.000000 -0.070711 0.070711
vn 0.000000 -0.070711 0.070711
vn -0.021851 -0.067250 0.070711
vn -0.041563 -0.057206 0.070711
vn -0.057206 -0.041563 0.070711
vn -0.067250 -0.021851 0.070711
vn 0.000000 -0.070711 0.070711
vn 0.000000 -0.070711 0.070711
vn 0.000000 -0.070711 0.070711
vn 0.000000 -0.070711 0.070711
vn 0.000000 -0.070711 0.070711
vn 0.000000 -0.070711 0.070711
vn 0.015735 -0.068938 0.070711
vn 0.030680 -0.063708 0.070711
vn 0.044087 -0.055284 0.070711
vn 0.055284 -0.044087 0.070711
vn 0.063708 -0.030680 0.070711
vn 0.068938 -0.015735 0.070711
vn 0.070711 0.000000 0.070711
vn 0.070711 0.000000 0.070711
vn 0.067250 -0.021851 0.070711
vn 0.057206 -0.041563 0.070711
vn 0.041563 -0.057206 0.070711
vn 0.021851 -0.067250 0.070711
vn 0.070711 0.000000 0.070711
vn 0.070711 0.000000 0.070711
vn 0.070711 0.000000 0.070711
vn 0.070711 0.000000 0.070711
vn 0.070711 0.000000 0.070711
vn 0.070711 0.000000 0.070711
vn 0.068938 0.015735 0.070711
vn 0.063708 0.030680 0.070711
vn 0.055284 0.044087 0.070711
vn 0.044087 0.055284 0.070711
vn 0.030680 0.063708 0.070711
vn 0.015735 0.068938 0.070711
vn 0.000000 0.070711 0.070711
vn 0.000000 0.070711 0.070711
vn 0.021851 0.067250 0.070711
vn 0.041563 0.057206 0.070711
vn 0.057206 0.041563 0.070711
vn 0.067250 0.021851 0.070711
vn -0.100000 0.000000 0.000000
vn -0.097493 -0.022252 0.000000
vn -0.090097 -0.043388 0.000000
vn -0.078183 -0.062349 0.000000
vn -0.062349 -0.078183 0.000000
vn -0.043388 -0.090097 0.000000
vn -0.022252 -0.097493 0.000000
vn 0.000000 -0.100000 0.000000
vn 0.000000 -0.100000 0.000000
vn -0.022252 -0.097493 0.000000
vn -0.043388 -0.090097 0.000000
vn -0.062349 -0.078183 0.000000
vn -0.078183 -0.062349 0.000000
vn -0.090097 -0.043388 0.000000
vn -0.097493 -0.022252 0.000000
vn -0.100000 0.000000 0.000000
vn -0.100000 0.000000 0.000000
vn -0.100000 0.000000 0.000000
vn -0.100000 0.000000 0.000000
vn -0.100000 0.000000 0.000000
vn 0.000000 0.100000 0.000000
vn -0.022252 0.097493 0.000000
vn -0.043388 0.090097 0.000000
vn -0.062349 0.078183 0.000000
vn -0.078183 0.062349 0.000000
vn -0.090097 0.043388 0.000000
vn -0.097493 0.022252 0.000000
vn -0.100000 0.000000 0.000000
vn -0.100000 0.000000 0.000000
vn -0.097493 0.022252 0.000000
vn -0.090097 0.043388 0.000000
vn -0.078183 0.062349 0.000000
vn -0.062349 0.078183 0.000000
vn -0.043388 0.090097 0.000000
vn -0.022252 0.097493 0.000000
vn 0.000000 0.100000 0.000000
vn 0.000000 0.000000 0.100000
vn 0.000000 0.000000 0.100000
vn 0.000000 0.000000 0.100000
vn 0.000000 0.000000 0.100000
vn 0.000000 0.000000 0.100000
vn 0.000000 0.000000 0.100000
vn 0.000000 0.000000 0.100000
vn 0.000000 0.000000 0.100000
vn 0.000000 0.000000 0.100000
vn 0.000000 0.000000 0.100000
vn 0.000000 0.000000 0.100000
vn 0.000000 0.000000 0.100000
vn 0.000000 0.000000 0.100000
vn 0.000000 0.000000 0.100000
vn 0.000000 0.000000 0.100000
vn 0.000000 0.000000 0.100000
vn 0.000000 0.000000 0.100000
vn 0.000000 0.000000 0.100000
vn 0.000000 0.000000 0.100000
vn 0.000000 0.000000 0.100000
vn 0.000000 0.000000 0.100000
vn 0.000000 0.000000 0.100000
vn 0.000000 0.000000 0.100000
vn 0.000000 0.000000 0.100000
vn 0.000000 0.000000 0.100000
vn 0.000000 0.000000 0.100000
vn 0.000000 0.000000 0.100000
vn 0.000000 0.000000 0.100000
vn 0.000000 0.000000 0.100000
vn 0.000000 0.000000 0.100000
vn 0.000000 0.000000 0.100000
vn 0.000000 0.000000 0.100000
vn 0.000000 0.000000 0.100000
vn 0.000000 0.000000 0.100000
vn 0.000000 0.000000 0.100000
vn 0.000000 0.000000 0.100000
vn 0.000000 0.000000 0.100000
vn 0.000000 -0.100000 0.000000
vn 0.000000 -0.100000 0.000000
vn 0.000000 -0.100000 0.000000
vn 0.000000 -0.100000 0.000000
vn 0.100000 0.000000 0.000000
vn 0.088546 -0.046472 0.000000
vn 0.056806 -0.082298 0.000000
vn 0.012054 -0.099271 0.000000
vn -0.035460 -0.093502 0.000000
vn -0.074851 -0.066312 0.000000
vn -0.097094 -0.023932 0.000000
vn -0.097094 0.023932 0.000000
vn -0.074851 0.066312 0.000000
vn -0.035460 0.093502 0.000000
vn 0.012054 0.099271 0.000000
vn 0.056806 0.082298 0.000000
vn 0.088546 0.046472 0.000000
vn -0.100000 0.000000 0.000000
vn -0.088546 -0.046472 0.000000
vn -0.056806 -0.082298 0.000000
vn -0.012054 -0.099271 0.000000
vn 0.035460 -0.093502 0.000000
vn 0.074851 -0.066312 0.000000
vn 0.097094 -0.023932 0.000000
vn 0.097094 0.023932 0.000000
vn 0.074851 0.066312 0.000000
vn 0.035460 0.093502 0.000000
vn -0.012054 0.099271 0.000000
vn -0.056806 0.082298 0.000000
vn -0.088546 0.046472 0.000000
vn 0.097094 -0.023932 0.000000
vn 0.100000 0.000000 0.000000
vn 0.100000 0.000000 0.000000
vn 0.097094 -0.023932 0.000000
usemtl 191,191,191
f 55/2/2 89/3/3 53/1/1
f 53/1/1 89/3/3 87/4/4
f 5/6/6 7/7/7 21/5/5
f 21/5/5 7/7/7 23/18/18
f 23/18/18 7/7/7 11/8/8
f 23/18/18 11/8/8 31/17/17
f 31/17/17 11/8/8 15/9/9
f 31/17/17 15/9/9 27/10/10
f 31/17/17 27/10/10 39/16/16
f 39/16/16 27/10/10 35/11/11
f 39/16/16 35/11/11 45/15/15
f 45/15/15 35/11/11 47/12/12
f 45/15/15 47/12/12 53/14/14
f 53/14/14 47/12/12 55/13/13
f 19/19/19 3/20/20 21/22/22
f 21/22/22 3/20/20 5/21/21
f 49/24/24 41/25/25 51/23/23
f 51/23/23 41/25/25 43/36/36
f 43/36/36 41/25/25 33/26/26
f 43/36/36 33/26/26 37/35/35
f 37/35/35 33/26/26 25/27/27
f 37/35/35 25/27/27 13/28/28
f 37/35/35 13/28/28 29/34/34
f 29/34/34 13/28/28 9/29/29
f 29/34/34 9/29/29 17/33/33
f 17/33/33 9/29/29 1/30/30
f 17/33/33 1/30/30 19/32/32
f 19/32/32 1/30/30 3/31/31
f 83/38/38 49/39/39 85/37/37
f 85/37/37 49/39/39 51/40/40
f 133/42/42 131/43/43 117/41/41
f 117/41/41 131/43/43 115/54/54
f 115/54/54 131/43/43 127/44/44
f 115/54/54 127/44/44 107/53/53
f 107/53/53 127/44/44 123/45/45
f 107/53/53 123/45/45 111/46/46
f 107/53/53 111/46/46 99/52/52
f 99/52/52 111/46/46 103/47/47
f 99/52/52 103/47/47 93/51/51
f 93/51/51 103/47/47 91/48/48
f 93/51/51 91/48/48 85/50/50
f 85/50/50 91/48/48 83/49/49
f 119/55/55 135/56/56 117/58/58
f 117/58/58 135/56/56 133/57/57
f 89/60/60 97/61/61 87/59/59
f 87/59/59 97/61/61 95/72/72
f 95/72/72 97/61/61 105/62/62
f 95/72/72 105/62/62 101/71/71
f 101/71/71 105/62/62 113/63/63
f 101/71/71 113/63/63 125/64/64
f 101/71/71 125/64/64 109/70/70
f 109/70/70 125/64/64 129/65/65
f 109/70/70 129/65/65 121/69/69
f 121/69/69 129/65/65 137/66/66
f 121/69/69 137/66/66 119/68/68
f 119/68/68 137/66/66 135/67/67
f 84/88/88 83/73/73 92/87/87
f 92/87/87 83/73/73 91/74/74
f 92/87/87 91/74/74 103/75/75
f 92/87/87 103/75/75 104/86/86
f 104/86/86 103/75/75 111/76/76
f 104/86/86 111/76/76 112/85/85
f 112/85/85 111/76/76 123/77/77
f 112/85/85 123/77/77 124/84/84
f 124/84/84 123/77/77 127/78/78
f 124/84/84 127/78/78 128/83/83
f 128/83/83 127/78/78 131/79/79
f 128/83/83 131/79/79 132/82/82
f 132/82/82 131/79/79 134/81/81
f 134/81/81 131/79/79 133/80/80
f 133/89/89 135/90/90 134/92/92
f 134/92/92 135/90/90 136/91/91
f 136/108/108 135/93/93 138/107/107
f 138/107/107 135/93/93 137/94/94
f 138/107/107 137/94/94 129/95/95
f 138/107/107 129/95/95 130/106/106
f 130/106/106 129/95/95 125/96/96
f 130/106/106 125/96/96 126/105/105
f 126/105/105 125/96/96 113/97/97
f 126/105/105 113/97/97 114/104/104
f 114/104/104 113/97/97 105/98/98
f 114/104/104 105/98/98 106/103/103
f 106/103/103 105/98/98 97/99/99
f 106/103/103 97/99/99 98/102/102
f 98/102/102 97/99/99 90/101/101
f 90/101/101 97/99/99 89/100/100
f 89/109/109 55/110/110 90/112/112
f 90/112/112 55/110/110 56/111/111
f 61/125/125 59/113/113 53/126/126
f 53/126/126 59/113/113 57/114/114
f 53/126/126 57/114/114 21/145/145
f 21/145/145 57/114/114 19/144/144
f 19/144/144 57/114/114 64/115/115
f 19/144/144 64/115/115 51/139/139
f 51/139/139 64/115/115 85/138/138
f 85/138/138 64/115/115 117/133/133
f 85/138/138 117/133/133 93/137/137
f 93/137/137 117/133/133 99/136/136
f 99/136/136 117/133/133 107/135/135
f 107/135/135 117/133/133 115/134/134
f 64/115/115 68/116/116 117/133/133
f 117/133/133 68/116/116 72/117/117
f 117/133/133 72/117/117 76/118/118
f 117/133/133 76/118/118 119/132/132
f 119/132/132 76/118/118 79/119/119
f 119/132/132 79/119/119 81/120/120
f 81/120/120 77/121/121 119/132/132
f 119/132/132 77/121/121 121/131/131
f 121/131/131 77/121/121 109/130/130
f 109/130/130 77/121/121 101/129/129
f 101/129/129 77/121/121 95/128/128
f 95/128/128 77/121/121 87/127/127
f 87/127/127 77/121/121 73/122/122
f 87/127/127 73/122/122 70/123/123
f 70/123/123 65/124/124 87/127/127
f 87/127/127 65/124/124 53/126/126
f 53/126/126 65/124/124 61/125/125
f 51/139/139 43/140/140 19/144/144
f 19/144/144 43/140/140 37/141/141
f 19/144/144 37/141/141 29/142/142
f 29/142/142 17/143/143 19/144/144
f 21/145/145 23/146/146 53/126/126
f 53/126/126 23/146/146 31/147/147
f 53/126/126 31/147/147 39/148/148
f 39/148/148 45/149/149 53/126/126
f 54/151/151 88/152/152 56/150/150
f 56/150/150 88/152/152 90/153/153
f 56/155/155 48/156/156 54/154/154
f 54/154/154 48/156/156 46/167/167
f 46/167/167 48/156/156 36/157/157
f 46/167/167 36/157/157 40/166/166
f 40/166/166 36/157/157 28/158/158
f 40/166/166 28/158/158 16/159/159
f 40/166/166 16/159/159 32/165/165
f 32/165/165 16/159/159 12/160/160
f 32/165/165 12/160/160 24/164/164
f 24/164/164 12/160/160 8/161/161
f 24/164/164 8/161/161 22/163/163
f 22/163/163 8/161/161 6/162/162
f 4/168/168 20/169/169 6/171/171
f 6/171/171 20/169/169 22/170/170
f 4/173/173 2/174/174 20/172/172
f 20/172/172 2/174/174 18/185/185
f 18/185/185 2/174/174 10/175/175
f 18/185/185 10/175/175 30/184/184
f 30/184/184 10/175/175 14/176/176
f 30/184/184 14/176/176 26/177/177
f 30/184/184 26/177/177 38/183/183
f 38/183/183 26/177/177 34/178/178
f 38/183/183 34/178/178 44/182/182
f 44/182/182 34/178/178 42/179/179
f 44/182/182 42/179/179 52/181/181
f 52/181/181 42/179/179 50/180/180
f 86/187/187 52/188/188 84/186/186
f 84/186/186 52/188/188 50/189/189
f 84/191/191 92/192/192 86/190/190
f 86/190/190 92/192/192 94/203/203
f 94/203/203 92/192/192 104/193/193
f 94/203/203 104/193/193 100/202/202
f 100/202/202 104/193/193 112/194/194
f 100/202/202 112/194/194 124/195/195
f 100/202/202 124/195/195 108/201/201
f 108/201/201 124/195/195 128/196/196
f 108/201/201 128/196/196 116/200/200
f 116/200/200 128/196/196 132/197/197
f 116/200/200 132/197/197 118/199/199
f 118/199/199 132/197/197 134/198/198
f 136/204/204 120/205/205 134/207/207
f 134/207/207 120/205/205 118/206/206
f 136/209/209 138/210/210 120/208/208
f 120/208/208 138/210/210 122/221/221
f 122/221/221 138/210/210 130/211/211
f 122/221/221 130/211/211 110/220/220
f 110/220/220 130/211/211 126/212/212
f 110/220/220 126/212/212 114/213/213
f 110/220/220 114/213/213 102/219/219
f 102/219/219 114/213/213 106/214/214
f 102/219/219 106/214/214 96/218/218
f 96/218/218 106/214/214 98/215/215
f 96/218/218 98/215/215 88/217/217
f 88/217/217 98/215/215 90/216/216
f 4/237/237 3/222/222 2/236/236
f 2/236/236 3/222/222 1/223/223
f 2/236/236 1/223/223 9/224/224
f 2/236/236 9/224/224 10/235/235
f 10/235/235 9/224/224 13/225/225
f 10/235/235 13/225/225 14/234/234
f 14/234/234 13/225/225 25/226/226
f 14/234/234 25/226/226 26/233/233
f 26/233/233 25/226/226 33/227/227
f 26/233/233 33/227/227 34/232/232
f 34/232/232 33/227/227 41/228/228
f 34/232/232 41/228/228 42/231/231
f 42/231/231 41/228/228 50/230/230
f 50/230/230 41/228/228 49/229/229
f 5/238/238 3/239/239 6/241/241
f 6/241/241 3/239/239 4/240/240
f 56/257/257 55/242/242 48/256/256
f 48/256/256 55/242/242 47/243/243
f 48/256/256 47/243/243 35/244/244
f 48/256/256 35/244/244 36/255/255
f 36/255/255 35/244/244 27/245/245
f 36/255/255 27/245/245 28/254/254
f 28/254/254 27/245/245 15/246/246
f 28/254/254 15/246/246 16/253/253
f 16/253/253 15/246/246 11/247/247
f 16/253/253 11/247/247 12/252/252
f 12/252/252 11/247/247 7/248/248
f 12/252/252 7/248/248 8/251/251
f 8/251/251 7/248/248 6/250/250
f 6/250/250 7/248/248 5/249/249
f 82/270/270 80/258/258 120/290/290
f 120/290/290 80/258/258 78/259/259
f 120/290/290 78/259/259 74/260/260
f 120/290/290 74/260/260 118/289/289
f 118/289/289 74/260/260 69/261/261
f 118/289/289 69/261/261 66/262/262
f 118/289/289 66/262/262 86/284/284
f 86/284/284 66/262/262 62/263/263
f 86/284/284 62/263/263 52/283/283
f 52/283/283 62/263/263 20/278/278
f 52/283/283 20/278/278 44/282/282
f 44/282/282 20/278/278 38/281/281
f 38/281/281 20/278/278 30/280/280
f 30/280/280 20/278/278 18/279/279
f 58/264/264 54/272/272 62/263/263
f 62/263/263 54/272/272 22/277/277
f 62/263/263 22/277/277 20/278/278
f 58/264/264 60/265/265 54/272/272
f 54/272/272 60/265/265 63/266/266
f 54/272/272 63/266/266 88/271/271
f 88/271/271 63/266/266 67/267/267
f 88/271/271 67/267/267 71/268/268
f 71/268/268 75/269/269 88/271/271
f 88/271/271 75/269/269 96/294/294
f 96/294/294 75/269/269 102/293/293
f 102/293/293 75/269/269 110/292/292
f 110/292/292 75/269/269 122/291/291
f 122/291/291 75/269/269 82/270/270
f 122/291/291 82/270/270 120/290/290
f 46/273/273 40/274/274 54/272/272
f 54/272/272 40/274/274 32/275/275
f 54/272/272 32/275/275 24/276/276
f 24/276/276 22/277/277 54/272/272
f 86/284/284 94/285/285 118/289/289
f 118/289/289 94/285/285 100/286/286
f 118/289/289 100/286/286 108/287/287
f 108/287/287 116/288/288 118/289/289
f 49/295/295 83/296/296 50/298/298
f 50/298/298 83/296/296 84/297/297
f 61/300/300 60/325/325 59/299/299
f 59/326/326 60/318/318 58/319/319
f 59/327/327 58/319/319 57/311/311
f 57/311/311 58/319/319 62/320/320
f 57/311/311 62/320/320 64/310/310
f 64/310/310 62/320/320 66/321/321
f 64/310/310 66/321/321 68/309/309
f 68/309/309 66/321/321 69/322/322
f 68/309/309 69/322/322 72/308/308
f 72/308/308 69/322/322 74/323/323
f 72/308/308 74/323/323 76/307/307
f 76/307/307 74/323/323 78/324/324
f 76/307/307 78/324/324 79/306/306
f 79/306/306 78/324/324 80/312/312
f 79/306/306 80/312/312 81/305/305
f 81/305/305 80/312/312 82/313/313
f 81/305/305 82/313/313 77/304/304
f 77/304/304 82/313/313 75/314/314
f 77/304/304 75/314/314 73/303/303
f 73/303/303 75/314/314 71/315/315
f 73/303/303 71/315/315 70/302/302
f 70/302/302 71/315/315 67/316/316
f 70/302/302 67/316/316 65/301/301
f 65/301/301 67/316/316 63/317/317
f 65/301/301 63/317/317 61/300/300
f 61/300/300 63/317/317 60/328/328
# 138 vertices
# 328 texture params
# 328 normals
# 276 facets

# 1 groups
