# WaveFront *.obj file (generated by Autodesk ATF)

mtllib reconstructed.mtl

g Lavorazione mesh1

v 1.317500 0.170000 1.295000
v 1.331667 0.235000 1.293333
v 1.253571 0.232143 1.291429
v 1.248333 0.170000 1.291667
v 1.245000 0.170000 1.240000
v 1.253000 0.233000 1.240000
v 1.345000 0.245000 1.240000
v 1.253000 0.233000 1.155000
v 1.345000 0.245000 1.155000
v 1.345000 0.245000 1.070000
v 1.252407 0.230741 1.065741
v 1.345000 0.245000 1.025000
v 1.248860 0.229912 0.991316
v 1.249483 0.168621 1.067241
v 1.252059 0.173431 0.990490
v 1.253857 0.230143 0.902714
v 1.255000 0.170000 0.900000
v 1.251667 0.229167 0.825000
v 1.252284 0.170185 0.821914
v 1.308500 0.182000 0.800000
v 1.245000 0.140000 0.730000
v 1.246000 0.085000 0.819000
v 1.245000 0.085000 0.730000
v 1.245000 0.140000 0.645000
v 1.246562 0.083958 0.640104
v 1.249667 0.139667 0.558000
v 1.249894 0.084149 0.559681
v 1.250127 0.086013 0.475633
v 1.250000 0.140000 0.475000
v 1.251000 0.090417 0.391583
v 1.255000 0.000000 0.390000
v 1.255000 0.000000 0.325000
v 1.255000 -0.085000 0.390000
v 1.255000 -0.085000 0.325000
v 1.263333 -0.148333 0.390000
v 1.265000 -0.147000 0.325000
v 1.324575 -0.150745 0.325638
v 1.324000 -0.151000 0.390000
v 1.395000 -0.152500 0.390000
v 1.324000 -0.151000 0.475000
v 1.396081 -0.152568 0.476081
v 1.324000 -0.151000 0.560000
v 1.403000 -0.153000 0.560000
v 1.324059 -0.150765 0.643706
v 1.406702 -0.154149 0.642872
v 1.322971 -0.150362 0.728913
v 1.409545 -0.155000 0.729242
v 1.326333 -0.173556 0.797778
v 1.405000 -0.166053 0.791316
v 1.331818 -0.235303 0.811212
v 1.413750 -0.245625 0.826875
v 1.337500 -0.252500 0.900000
v 1.410000 -0.255000 0.900000
v 1.410000 -0.255000 0.985000
v 1.337500 -0.252500 0.985000
v 1.338200 -0.251800 1.068600
v 1.419000 -0.255000 1.064000
v 1.341500 -0.250500 1.146500
v 1.260000 -0.236667 1.070000
v 1.259375 -0.234375 1.153125
v 1.335000 -0.245000 1.240000
v 1.259000 -0.233000 1.240000
v 1.335000 -0.245000 1.290000
v 1.259000 -0.233000 1.290000
v 1.250000 -0.170000 1.290000
v 1.251809 -0.166809 1.245319
v 1.250000 -0.085000 1.290000
v 1.250035 -0.084720 1.240245
v 1.247727 -0.006818 1.240000
v 1.248600 -0.003000 1.291800
v 1.315000 0.010000 1.305000
v 1.248333 0.085000 1.293518
v 1.315000 0.085000 1.296111
v 1.245000 0.085000 1.240000
v 1.245400 0.169133 1.153533
v 1.252129 0.088267 1.075693
v 1.255000 0.085000 0.985000
v 1.255000 0.085000 0.900000
v 1.255000 0.000000 0.900000
v 1.248077 -0.005769 0.816923
v 1.247809 -0.006798 0.729719
v 1.250135 0.001577 0.644369
v 1.251809 0.006702 0.560638
v 1.254351 0.001753 0.477078
v 1.255000 -0.085000 0.475000
v 1.263333 -0.148333 0.475000
v 1.263333 -0.148333 0.560000
v 1.263333 -0.148333 0.645000
v 1.263333 -0.148333 0.730000
v 1.262273 -0.168295 0.814091
v 1.267143 -0.235536 0.822857
v 1.257530 -0.236084 0.901988
v 1.257823 -0.236294 0.979941
v 1.255000 -0.170000 0.985000
v 1.255000 -0.170000 1.070000
v 1.255000 -0.170000 1.155000
v 1.252500 -0.081759 1.161204
v 1.249836 -0.000328 1.154262
v 1.247957 0.080130 1.149696
v 1.254697 0.000758 1.071061
v 1.255000 0.000000 0.985000
v 1.255000 -0.085000 0.985000
v 1.254000 -0.084500 0.896500
v 1.250956 -0.080368 0.817132
v 1.252912 -0.078846 0.732363
v 1.254643 -0.083571 0.646071
v 1.255000 -0.085000 0.560000
v 1.255000 -0.170000 0.900000
v 1.255000 -0.085000 1.070000
v 1.309000 0.228000 0.797000
v 1.309000 0.228000 0.797000
usemtl 0,0,0
f 1 2 3
f 4 1 3
f 5 4 3
f 6 5 3
f 2 6 3
f 6 2 7
f 8 6 7
f 8 7 9
f 8 9 10
f 11 8 10
f 11 10 12
f 11 12 13
f 14 11 13
f 15 14 13
f 15 13 16
f 17 15 16
f 17 16 18
f 19 17 18
f 19 18 20
f 19 20 21
f 22 19 21
f 23 22 21
f 23 21 24
f 25 23 24
f 25 24 26
f 27 25 26
f 28 27 26
f 28 26 29
f 28 29 30
f 31 28 30
f 31 30 32
f 33 31 32
f 33 32 34
f 35 33 34
f 35 34 36
f 35 36 37
f 38 35 37
f 38 37 39
f 40 38 39
f 40 39 41
f 42 40 41
f 42 41 43
f 44 42 43
f 44 43 45
f 46 44 45
f 46 45 47
f 48 46 47
f 48 47 49
f 50 48 49
f 50 49 51
f 52 50 51
f 52 51 53
f 52 53 54
f 55 52 54
f 56 55 54
f 56 54 57
f 56 57 58
f 59 56 58
f 60 59 58
f 60 58 61
f 62 60 61
f 62 61 63
f 64 62 63
f 64 63 65
f 62 64 65
f 66 62 65
f 66 65 67
f 68 66 67
f 69 68 67
f 70 69 67
f 70 67 71
f 72 70 71
f 72 71 73
f 4 72 73
f 4 73 1
f 74 72 4
f 74 4 5
f 75 74 5
f 8 75 5
f 8 5 6
f 75 8 11
f 75 11 14
f 76 75 14
f 77 76 14
f 77 14 15
f 77 15 17
f 78 77 17
f 78 17 22
f 79 78 22
f 80 79 22
f 80 22 23
f 81 80 23
f 82 81 23
f 82 23 25
f 83 82 25
f 83 25 27
f 83 27 28
f 84 83 28
f 84 28 31
f 85 84 31
f 85 31 33
f 85 33 35
f 86 85 35
f 86 35 40
f 86 40 42
f 87 86 42
f 87 42 44
f 88 87 44
f 88 44 46
f 89 88 46
f 89 46 48
f 90 89 48
f 91 90 48
f 91 48 50
f 91 50 52
f 92 91 52
f 93 92 52
f 93 52 55
f 93 55 59
f 94 93 59
f 95 94 59
f 95 59 60
f 96 95 60
f 96 60 62
f 96 62 66
f 97 96 66
f 97 66 68
f 97 68 69
f 98 97 69
f 74 98 69
f 74 69 70
f 74 70 72
f 99 98 74
f 99 74 75
f 76 99 75
f 100 99 76
f 100 76 77
f 101 100 77
f 101 77 78
f 101 78 79
f 102 101 79
f 103 102 79
f 103 79 80
f 104 103 80
f 105 104 80
f 105 80 81
f 106 105 81
f 106 81 82
f 107 106 82
f 107 82 83
f 107 83 84
f 107 84 85
f 107 85 87
f 107 87 88
f 106 107 88
f 106 88 89
f 105 106 89
f 104 105 89
f 104 89 90
f 103 104 90
f 108 103 90
f 108 90 91
f 108 91 92
f 108 92 93
f 108 93 94
f 102 108 94
f 109 102 94
f 109 94 95
f 109 95 96
f 109 96 97
f 109 97 98
f 100 109 98
f 99 100 98
f 101 109 100
f 101 102 109
f 103 108 102
f 85 86 87
f 55 56 59
f 35 38 40
f 17 19 22
f 65 63 67
f 21 110 24
f 18 111 20
# 111 vertices
# 0 texture params
# 0 normals
# 183 facets

# 1 groups
