# WaveFront *.obj file (generated by Autodesk ATF)

mtllib Small_screwdriver.mtl

g Solido1

v -0.024746 -0.003558 0.200000
v -0.024899 -0.002241 0.000000
v -0.024972 0.001190 0.200000
v -0.024899 0.002241 0.000000
v -0.023625 -0.008177 0.200000
v -0.024099 -0.006651 0.000000
v -0.024295 0.005894 0.200000
v -0.023987 0.007043 0.000000
v -0.022524 -0.010847 0.000000
v -0.022741 0.010385 0.200000
v -0.022524 0.010847 0.000000
v -0.021651 -0.012500 0.200000
v -0.022221 -0.011456 0.000000
v -0.022221 0.011456 0.000000
v -0.019651 -0.015454 0.000000
v -0.020225 0.014695 0.000000
v -0.020364 0.014501 0.200000
v -0.018894 -0.016372 0.200000
v -0.017277 -0.018070 0.000000
v -0.017277 0.018070 0.000000
v -0.017252 0.018093 0.200000
v -0.016372 -0.018894 0.000000
v -0.016372 0.018894 0.000000
v -0.015454 -0.019651 0.200000
v -0.013772 -0.020864 0.000000
v -0.013772 0.020864 0.000000
v -0.013516 0.021031 0.200000
v -0.012500 -0.021651 0.000000
v -0.012148 -0.002947 0.212500
v -0.012486 -0.000595 0.212500
v -0.012373 0.001779 0.212500
v -0.011813 0.004088 0.212500
v -0.012500 0.021651 0.000000
v -0.011456 -0.022221 0.200000
v -0.011370 -0.005193 0.212500
v -0.010825 0.006250 0.212500
v -0.009826 -0.022988 0.000000
v -0.010182 -0.007251 0.212500
v -0.009826 0.022988 0.000000
v -0.008626 -0.009047 0.212500
v -0.009447 0.008186 0.212500
v -0.009292 0.023209 0.200000
v -0.008177 -0.023625 0.000000
v -0.007727 0.009826 0.212500
v -0.008177 0.023625 0.000000
v -0.007043 -0.023987 0.200000
v -0.006758 -0.010516 0.212500
v -0.005563 -0.024373 0.000000
v -0.005728 0.011110 0.212500
v -0.005563 0.024373 0.000000
v -0.004646 -0.011605 0.212500
v -0.004731 0.024548 0.200000
v -0.003558 -0.024746 0.000000
v -0.003522 0.011994 0.212500
v -0.003558 0.024746 0.000000
v -0.002376 -0.024887 0.200000
v -0.002366 -0.012274 0.212500
v -0.001122 -0.024975 0.000000
v -0.001188 0.012443 0.212500
v -0.001122 0.024975 0.000000
v 0.000000 -0.012500 0.212500
v 0.000000 0.000000 0.225000
v 0.000000 0.025000 0.200000
v 0.001190 -0.024972 0.000000
v 0.001188 0.012443 0.212500
v 0.001190 0.024972 0.000000
v 0.002376 -0.024887 0.200000
v 0.002366 -0.012274 0.212500
v 0.003356 -0.024774 0.000000
v 0.003356 0.024774 0.000000
v 0.003522 0.011994 0.212500
v 0.004646 -0.011605 0.212500
v 0.004731 0.024548 0.200000
v 0.005894 -0.024295 0.000000
v 0.005728 0.011110 0.212500
v 0.005894 0.024295 0.000000
v 0.007043 -0.023987 0.200000
v 0.006758 -0.010516 0.212500
v 0.007725 -0.023776 0.000000
v 0.007727 0.009826 0.212500
v 0.007725 0.023776 0.000000
v 0.008626 -0.009047 0.212500
v 0.009447 0.008186 0.212500
v 0.009292 0.023209 0.200000
v 0.010385 -0.022741 0.000000
v 0.010182 -0.007251 0.212500
v 0.010385 0.022741 0.000000
v 0.011456 -0.022221 0.200000
v 0.011370 -0.005193 0.212500
v 0.010825 0.006250 0.212500
v 0.011847 -0.022015 0.000000
v 0.012148 -0.002947 0.212500
v 0.012486 -0.000595 0.212500
v 0.012373 0.001779 0.212500
v 0.011813 0.004088 0.212500
v 0.011847 0.022015 0.000000
v 0.013516 0.021031 0.200000
v 0.014501 -0.020364 0.000000
v 0.015454 -0.019651 0.200000
v 0.014501 0.020364 0.000000
v 0.015587 -0.019546 0.000000
v 0.015587 0.019546 0.000000
v 0.017252 0.018093 0.200000
v 0.018093 -0.017252 0.000000
v 0.018093 0.017252 0.000000
v 0.018827 -0.016448 0.000000
v 0.018894 -0.016372 0.200000
v 0.018827 0.016448 0.000000
v 0.020364 0.014501 0.200000
v 0.021031 -0.013516 0.000000
v 0.021461 -0.012822 0.000000
v 0.021461 0.012822 0.000000
v 0.021031 0.013516 0.000000
v 0.021651 -0.012500 0.200000
v 0.023209 -0.009292 0.000000
v 0.023209 0.009292 0.000000
v 0.022741 0.010385 0.200000
v 0.023625 -0.008177 0.200000
v 0.024295 0.005894 0.200000
v 0.024548 -0.004731 0.000000
v 0.024598 -0.004464 0.000000
v 0.024746 -0.003558 0.200000
v 0.025000 0.000000 0.000000
v 0.024972 0.001190 0.200000
v 0.024598 0.004464 0.000000
v 0.024548 0.004731 0.000000
vt -0.020000 0.003927 0.000000
vt -0.020000 0.003451 0.000000
vt -0.020000 0.002975 0.000000
vt -0.020000 0.002499 0.000000
vt -0.020000 0.002023 0.000000
vt -0.020000 0.001547 0.000000
vt -0.020000 0.001071 0.000000
vt -0.020000 0.000595 0.000000
vt -0.020000 0.000119 0.000000
vt -0.020000 -0.000357 0.000000
vt -0.020000 -0.000833 0.000000
vt -0.020000 -0.001309 0.000000
vt -0.020000 -0.001785 0.000000
vt -0.020000 -0.002261 0.000000
vt -0.020000 -0.002737 0.000000
vt -0.020000 -0.003213 0.000000
vt -0.020000 -0.003689 0.000000
vt -0.020000 -0.004165 0.000000
vt -0.020000 -0.004641 0.000000
vt -0.020000 -0.005117 0.000000
vt -0.020000 -0.005593 0.000000
vt -0.020000 -0.006069 0.000000
vt -0.020000 -0.006545 0.000000
vt -0.020000 -0.007021 0.000000
vt -0.020000 0.008211 0.000000
vt -0.020000 0.007735 0.000000
vt -0.020000 0.007259 0.000000
vt -0.020000 0.006783 0.000000
vt -0.020000 0.006307 0.000000
vt -0.020000 0.005831 0.000000
vt -0.020000 0.005355 0.000000
vt -0.020000 0.004879 0.000000
vt -0.020000 0.004403 0.000000
vt -0.000000 0.000000 0.000000
vt -0.000000 0.000476 0.000000
vt -0.000000 0.000952 0.000000
vt -0.000000 0.001428 0.000000
vt -0.000000 0.001904 0.000000
vt -0.000000 0.002380 0.000000
vt -0.000000 0.002856 0.000000
vt -0.000000 0.003332 0.000000
vt -0.000000 0.003808 0.000000
vt -0.000000 0.004284 0.000000
vt -0.000000 0.004760 0.000000
vt -0.000000 0.005236 0.000000
vt -0.000000 0.005712 0.000000
vt -0.000000 0.006188 0.000000
vt -0.000000 0.006664 0.000000
vt -0.000000 0.007140 0.000000
vt -0.000000 0.007616 0.000000
vt -0.000000 -0.007616 0.000000
vt -0.000000 -0.007140 0.000000
vt -0.000000 -0.006664 0.000000
vt -0.000000 -0.006188 0.000000
vt -0.000000 -0.005712 0.000000
vt -0.000000 -0.005236 0.000000
vt -0.000000 -0.004760 0.000000
vt -0.000000 -0.004284 0.000000
vt -0.000000 -0.003808 0.000000
vt -0.000000 -0.003332 0.000000
vt -0.000000 -0.002856 0.000000
vt -0.000000 -0.002380 0.000000
vt -0.000000 -0.001904 0.000000
vt -0.000000 -0.001428 0.000000
vt -0.000000 -0.000952 0.000000
vt -0.000000 -0.000476 0.000000
vt -0.000000 0.008092 0.000000
vt -0.000000 0.008092 0.000000
vt -0.020000 -0.007497 0.000000
vt -0.020000 -0.007497 0.000000
vt -0.000000 0.000000 0.000000
vt -0.000000 0.000238 0.000000
vt -0.000000 0.000476 0.000000
vt -0.000000 0.000714 0.000000
vt -0.000000 0.000952 0.000000
vt -0.000000 0.001190 0.000000
vt -0.000000 0.001428 0.000000
vt -0.000000 0.001666 0.000000
vt -0.000000 0.001904 0.000000
vt -0.000000 0.002142 0.000000
vt -0.000000 0.002380 0.000000
vt -0.000000 0.002618 0.000000
vt -0.000000 0.002856 0.000000
vt -0.000000 0.003094 0.000000
vt -0.000000 0.003332 0.000000
vt -0.000000 0.003570 0.000000
vt -0.000000 -0.004046 0.000000
vt -0.000000 -0.003808 0.000000
vt -0.000000 -0.003570 0.000000
vt -0.000000 -0.003332 0.000000
vt -0.000000 -0.003094 0.000000
vt -0.000000 -0.002856 0.000000
vt -0.000000 -0.002618 0.000000
vt -0.000000 -0.002380 0.000000
vt -0.000000 -0.002142 0.000000
vt -0.000000 -0.001904 0.000000
vt -0.000000 -0.001666 0.000000
vt -0.000000 -0.001428 0.000000
vt -0.000000 -0.001190 0.000000
vt -0.000000 -0.000952 0.000000
vt -0.000000 -0.000714 0.000000
vt -0.000000 -0.000476 0.000000
vt -0.000000 -0.000238 0.000000
vt -0.003536 0.003927 0.000000
vt -0.003536 0.001309 0.000000
vt -0.003536 -0.001309 0.000000
vt -0.003536 0.003689 0.000000
vt -0.003536 0.003451 0.000000
vt -0.003536 0.003213 0.000000
vt -0.003536 0.002975 0.000000
vt -0.003536 0.002737 0.000000
vt -0.003536 0.002499 0.000000
vt -0.003536 0.002261 0.000000
vt -0.003536 0.002023 0.000000
vt -0.003536 0.001785 0.000000
vt -0.003536 0.001547 0.000000
vt -0.003536 0.001071 0.000000
vt -0.003536 0.000833 0.000000
vt -0.003536 0.000595 0.000000
vt -0.003536 0.000357 0.000000
vt -0.003536 0.000119 0.000000
vt -0.003536 -0.000119 0.000000
vt -0.003536 -0.000357 0.000000
vt -0.003536 -0.000595 0.000000
vt -0.003536 -0.000833 0.000000
vt -0.003536 -0.001071 0.000000
vt -0.003536 -0.001547 0.000000
vt -0.003536 -0.001785 0.000000
vt -0.003536 -0.002023 0.000000
vt -0.003536 -0.002261 0.000000
vt -0.003536 -0.002499 0.000000
vt -0.003536 -0.002737 0.000000
vt -0.003536 -0.002975 0.000000
vt -0.003536 -0.003213 0.000000
vt -0.003536 -0.003451 0.000000
vt -0.003536 -0.003689 0.000000
vt -0.001768 0.003927 0.000000
vt -0.001768 0.000119 0.000000
vt -0.001768 -0.000119 0.000000
vt -0.001768 0.000357 0.000000
vt -0.001768 0.000595 0.000000
vt -0.001768 0.000833 0.000000
vt -0.001768 0.001071 0.000000
vt -0.001768 0.001309 0.000000
vt -0.001768 0.001547 0.000000
vt -0.001768 0.001785 0.000000
vt -0.001768 0.002023 0.000000
vt -0.001768 0.002261 0.000000
vt -0.001768 0.002499 0.000000
vt -0.001768 0.002737 0.000000
vt -0.001768 0.002975 0.000000
vt -0.001768 0.003213 0.000000
vt -0.001768 0.003451 0.000000
vt -0.001768 0.003689 0.000000
vt -0.001768 -0.003689 0.000000
vt -0.001768 -0.003451 0.000000
vt -0.001768 -0.003213 0.000000
vt -0.001768 -0.002975 0.000000
vt -0.001768 -0.002737 0.000000
vt -0.001768 -0.002499 0.000000
vt -0.001768 -0.002261 0.000000
vt -0.001768 -0.002023 0.000000
vt -0.001768 -0.001785 0.000000
vt -0.001768 -0.001547 0.000000
vt -0.001768 -0.001309 0.000000
vt -0.001768 -0.001071 0.000000
vt -0.001768 -0.000833 0.000000
vt -0.001768 -0.000595 0.000000
vt -0.001768 -0.000357 0.000000
vt -0.001768 -0.003927 0.000000
vt -0.001768 -0.003927 0.000000
vt -0.000000 0.003808 0.000000
vt -0.000000 0.003808 0.000000
vt -0.001768 -0.003927 0.000000
vt -0.002500 0.000000 0.000000
vt -0.002460 -0.000446 0.000000
vt -0.002341 -0.000878 0.000000
vt -0.002146 -0.001282 0.000000
vt -0.001883 -0.001645 0.000000
vt -0.001559 -0.001955 0.000000
vt -0.001185 -0.002201 0.000000
vt -0.000773 -0.002378 0.000000
vt -0.000336 -0.002477 0.000000
vt 0.000112 -0.002497 0.000000
vt 0.000556 -0.002437 0.000000
vt 0.000983 -0.002299 0.000000
vt 0.001377 -0.002086 0.000000
vt 0.001728 -0.001807 0.000000
vt 0.002023 -0.001469 0.000000
vt 0.002252 -0.001085 0.000000
vt 0.002410 -0.000665 0.000000
vt 0.002490 -0.000224 0.000000
vt 0.002490 0.000224 0.000000
vt 0.002410 0.000665 0.000000
vt 0.002252 0.001085 0.000000
vt 0.002023 0.001469 0.000000
vt 0.001728 0.001807 0.000000
vt 0.001377 0.002086 0.000000
vt 0.000983 0.002299 0.000000
vt 0.000556 0.002437 0.000000
vt 0.000112 0.002497 0.000000
vt -0.000336 0.002477 0.000000
vt -0.000773 0.002378 0.000000
vt -0.001185 0.002201 0.000000
vt -0.001559 0.001955 0.000000
vt -0.001883 0.001645 0.000000
vt -0.002146 0.001282 0.000000
vt -0.002341 0.000878 0.000000
vt -0.002460 0.000446 0.000000
vn 0.000000 0.100000 0.000000
vn 0.018925 0.098193 0.000000
vn 0.037166 0.092837 0.000000
vn 0.054064 0.084125 0.000000
vn 0.069008 0.072373 0.000000
vn 0.081458 0.058006 0.000000
vn 0.090963 0.041542 0.000000
vn 0.097181 0.023576 0.000000
vn 0.099887 0.004758 0.000000
vn 0.098982 -0.014231 0.000000
vn 0.094500 -0.032707 0.000000
vn 0.086603 -0.050000 0.000000
vn 0.075575 -0.065486 0.000000
vn 0.061816 -0.078605 0.000000
vn 0.045823 -0.088884 0.000000
vn 0.028173 -0.095949 0.000000
vn 0.009506 -0.099547 0.000000
vn -0.009506 -0.099547 0.000000
vn -0.028173 -0.095949 0.000000
vn -0.045823 -0.088884 0.000000
vn -0.061816 -0.078605 0.000000
vn -0.075575 -0.065486 0.000000
vn -0.086603 -0.050000 0.000000
vn -0.094500 -0.032707 0.000000
vn -0.098982 -0.014231 0.000000
vn -0.099887 0.004758 0.000000
vn -0.097181 0.023576 0.000000
vn -0.090963 0.041542 0.000000
vn -0.081458 0.058006 0.000000
vn -0.069008 0.072373 0.000000
vn -0.054064 0.084125 0.000000
vn -0.037166 0.092837 0.000000
vn -0.018925 0.098193 0.000000
vn 0.100000 0.000000 0.000000
vn 0.098193 0.018925 0.000000
vn 0.092837 0.037166 0.000000
vn 0.084125 0.054064 0.000000
vn 0.072373 0.069008 0.000000
vn 0.058006 0.081458 0.000000
vn 0.041542 0.090963 0.000000
vn 0.023576 0.097181 0.000000
vn 0.004758 0.099887 0.000000
vn -0.014231 0.098982 0.000000
vn -0.032707 0.094500 0.000000
vn -0.050000 0.086603 0.000000
vn -0.065486 0.075575 0.000000
vn -0.078605 0.061816 0.000000
vn -0.088884 0.045823 0.000000
vn -0.095949 0.028173 0.000000
vn -0.099547 0.009506 0.000000
vn -0.099547 -0.009506 0.000000
vn -0.095949 -0.028173 0.000000
vn -0.088884 -0.045823 0.000000
vn -0.078605 -0.061816 0.000000
vn -0.065486 -0.075575 0.000000
vn -0.050000 -0.086603 0.000000
vn -0.032707 -0.094500 0.000000
vn -0.014231 -0.098982 0.000000
vn 0.004758 -0.099887 0.000000
vn 0.023576 -0.097181 0.000000
vn 0.041542 -0.090963 0.000000
vn 0.058006 -0.081458 0.000000
vn 0.072373 -0.069008 0.000000
vn 0.084125 -0.054064 0.000000
vn 0.092837 -0.037166 0.000000
vn 0.098193 -0.018925 0.000000
vn -0.099547 -0.009506 0.000000
vn -0.099547 -0.009506 0.000000
vn -0.098982 -0.014231 0.000000
vn -0.098982 -0.014231 0.000000
vn 0.000000 0.070711 0.070711
vn -0.013382 0.069433 0.070711
vn -0.026281 0.065646 0.070711
vn -0.038229 0.059486 0.070711
vn -0.048796 0.051176 0.070711
vn -0.057599 0.041016 0.070711
vn -0.064321 0.029374 0.070711
vn -0.068717 0.016671 0.070711
vn -0.070631 0.003365 0.070711
vn -0.069991 -0.010063 0.070711
vn -0.066822 -0.023127 0.070711
vn -0.061237 -0.035355 0.070711
vn -0.053440 -0.046306 0.070711
vn -0.043710 -0.055582 0.070711
vn -0.032402 -0.062850 0.070711
vn -0.019921 -0.067846 0.070711
vn -0.006721 -0.070390 0.070711
vn 0.006721 -0.070390 0.070711
vn 0.019921 -0.067846 0.070711
vn 0.032402 -0.062850 0.070711
vn 0.043710 -0.055582 0.070711
vn 0.053440 -0.046306 0.070711
vn 0.061237 -0.035355 0.070711
vn 0.066822 -0.023127 0.070711
vn 0.069991 -0.010063 0.070711
vn 0.070631 0.003365 0.070711
vn 0.068717 0.016671 0.070711
vn 0.064321 0.029374 0.070711
vn 0.057599 0.041016 0.070711
vn 0.048796 0.051176 0.070711
vn 0.038229 0.059486 0.070711
vn 0.026281 0.065646 0.070711
vn 0.013382 0.069433 0.070711
vn 0.000000 -0.070711 0.070711
vn -0.061237 0.035355 0.070711
vn 0.061237 0.035355 0.070711
vn -0.013382 -0.069433 0.070711
vn -0.026281 -0.065646 0.070711
vn -0.038229 -0.059486 0.070711
vn -0.048796 -0.051176 0.070711
vn -0.057599 -0.041016 0.070711
vn -0.064321 -0.029374 0.070711
vn -0.068717 -0.016671 0.070711
vn -0.070631 -0.003365 0.070711
vn -0.069991 0.010063 0.070711
vn -0.066822 0.023127 0.070711
vn -0.053440 0.046306 0.070711
vn -0.043710 0.055582 0.070711
vn -0.032402 0.062850 0.070711
vn -0.019921 0.067846 0.070711
vn -0.006721 0.070390 0.070711
vn 0.006721 0.070390 0.070711
vn 0.019921 0.067846 0.070711
vn 0.032402 0.062850 0.070711
vn 0.043710 0.055582 0.070711
vn 0.053440 0.046306 0.070711
vn 0.066822 0.023127 0.070711
vn 0.069991 0.010063 0.070711
vn 0.070631 -0.003365 0.070711
vn 0.068717 -0.016671 0.070711
vn 0.064321 -0.029374 0.070711
vn 0.057599 -0.041016 0.070711
vn 0.048796 -0.051176 0.070711
vn 0.038229 -0.059486 0.070711
vn 0.026281 -0.065646 0.070711
vn 0.013382 -0.069433 0.070711
vn 0.000000 -0.070711 0.070711
vn -0.006721 0.070390 0.070711
vn 0.006721 0.070390 0.070711
vn -0.019921 0.067846 0.070711
vn -0.032402 0.062850 0.070711
vn -0.043710 0.055582 0.070711
vn -0.053440 0.046306 0.070711
vn -0.061237 0.035355 0.070711
vn -0.066822 0.023127 0.070711
vn -0.069991 0.010063 0.070711
vn -0.070631 -0.003365 0.070711
vn -0.068717 -0.016671 0.070711
vn -0.064321 -0.029374 0.070711
vn -0.057599 -0.041016 0.070711
vn -0.048796 -0.051176 0.070711
vn -0.038229 -0.059486 0.070711
vn -0.026281 -0.065646 0.070711
vn -0.013382 -0.069433 0.070711
vn 0.013382 -0.069433 0.070711
vn 0.026281 -0.065646 0.070711
vn 0.038229 -0.059486 0.070711
vn 0.048796 -0.051176 0.070711
vn 0.057599 -0.041016 0.070711
vn 0.064321 -0.029374 0.070711
vn 0.068717 -0.016671 0.070711
vn 0.070631 -0.003365 0.070711
vn 0.069991 0.010063 0.070711
vn 0.066822 0.023127 0.070711
vn 0.061237 0.035355 0.070711
vn 0.053440 0.046306 0.070711
vn 0.043710 0.055582 0.070711
vn 0.032402 0.062850 0.070711
vn 0.019921 0.067846 0.070711
vn 0.000000 -0.070711 0.070711
vn 0.000000 -0.070711 0.070711
vn -0.006721 -0.070390 0.070711
vn -0.006721 -0.070390 0.070711
vn 0.000000 -0.070711 0.070711
vn 0.000000 0.000000 -0.100000
vn 0.000000 0.000000 -0.100000
vn 0.000000 0.000000 -0.100000
vn 0.000000 0.000000 -0.100000
vn 0.000000 0.000000 -0.100000
vn 0.000000 0.000000 -0.100000
vn 0.000000 0.000000 -0.100000
vn 0.000000 0.000000 -0.100000
vn 0.000000 0.000000 -0.100000
vn 0.000000 0.000000 -0.100000
vn 0.000000 0.000000 -0.100000
vn 0.000000 0.000000 -0.100000
vn 0.000000 0.000000 -0.100000
vn 0.000000 0.000000 -0.100000
vn 0.000000 0.000000 -0.100000
vn 0.000000 0.000000 -0.100000
vn 0.000000 0.000000 -0.100000
vn 0.000000 0.000000 -0.100000
vn 0.000000 0.000000 -0.100000
vn 0.000000 0.000000 -0.100000
vn 0.000000 0.000000 -0.100000
vn 0.000000 0.000000 -0.100000
vn 0.000000 0.000000 -0.100000
vn 0.000000 0.000000 -0.100000
vn 0.000000 0.000000 -0.100000
vn 0.000000 0.000000 -0.100000
vn 0.000000 0.000000 -0.100000
vn 0.000000 0.000000 -0.100000
vn 0.000000 0.000000 -0.100000
vn 0.000000 0.000000 -0.100000
vn 0.000000 0.000000 -0.100000
vn 0.000000 0.000000 -0.100000
vn 0.000000 0.000000 -0.100000
vn 0.000000 0.000000 -0.100000
vn 0.000000 0.000000 -0.100000
usemtl 191,191,191
f 73/2/2 66/42/42 63/1/1
f 63/1/1 66/42/42 55/43/43
f 63/1/1 55/43/43 52/33/33
f 52/33/33 55/43/43 45/44/44
f 52/33/33 45/44/44 42/32/32
f 42/32/32 45/44/44 33/45/45
f 42/32/32 33/45/45 27/31/31
f 27/31/31 33/45/45 23/46/46
f 27/31/31 23/46/46 21/30/30
f 21/30/30 23/46/46 16/47/47
f 21/30/30 16/47/47 17/29/29
f 17/29/29 16/47/47 14/48/48
f 17/29/29 14/48/48 10/28/28
f 10/28/28 14/48/48 8/49/49
f 10/28/28 8/49/49 7/27/27
f 7/27/27 8/49/49 4/50/50
f 7/27/27 4/50/50 3/26/26
f 3/26/26 4/50/50 2/67/67
f 3/26/26 2/68/68 1/25/25
f 1/69/69 2/51/51 6/52/52
f 1/70/70 6/52/52 5/24/24
f 5/24/24 6/52/52 13/53/53
f 5/24/24 13/53/53 12/23/23
f 12/23/23 13/53/53 15/54/54
f 12/23/23 15/54/54 18/22/22
f 18/22/22 15/54/54 22/55/55
f 18/22/22 22/55/55 24/21/21
f 24/21/21 22/55/55 28/56/56
f 24/21/21 28/56/56 34/20/20
f 34/20/20 28/56/56 43/57/57
f 34/20/20 43/57/57 46/19/19
f 46/19/19 43/57/57 53/58/58
f 46/19/19 53/58/58 56/18/18
f 56/18/18 53/58/58 64/59/59
f 56/18/18 64/59/59 67/17/17
f 67/17/17 64/59/59 74/60/60
f 67/17/17 74/60/60 77/16/16
f 77/16/16 74/60/60 85/61/61
f 77/16/16 85/61/61 88/15/15
f 88/15/15 85/61/61 98/62/62
f 88/15/15 98/62/62 99/14/14
f 99/14/14 98/62/62 104/63/63
f 99/14/14 104/63/63 107/13/13
f 107/13/13 104/63/63 110/64/64
f 107/13/13 110/64/64 114/12/12
f 114/12/12 110/64/64 115/65/65
f 114/12/12 115/65/65 118/11/11
f 118/11/11 115/65/65 120/66/66
f 118/11/11 120/66/66 122/10/10
f 122/10/10 120/66/66 123/34/34
f 122/10/10 123/34/34 124/9/9
f 124/9/9 123/34/34 126/35/35
f 124/9/9 126/35/35 119/8/8
f 119/8/8 126/35/35 116/36/36
f 119/8/8 116/36/36 117/7/7
f 117/7/7 116/36/36 113/37/37
f 117/7/7 113/37/37 109/6/6
f 109/6/6 113/37/37 105/38/38
f 109/6/6 105/38/38 103/5/5
f 103/5/5 105/38/38 100/39/39
f 103/5/5 100/39/39 97/4/4
f 97/4/4 100/39/39 87/40/40
f 97/4/4 87/40/40 84/3/3
f 84/3/3 87/40/40 76/41/41
f 84/3/3 76/41/41 73/2/2
f 73/2/2 76/41/41 66/42/42
f 52/72/72 59/138/138 63/71/71
f 63/71/71 59/138/138 65/139/139
f 63/71/71 65/139/139 73/103/103
f 73/103/103 65/139/139 71/169/169
f 73/103/103 71/169/169 84/102/102
f 84/102/102 71/169/169 75/168/168
f 84/102/102 75/168/168 97/101/101
f 97/101/101 75/168/168 80/167/167
f 97/101/101 80/167/167 103/100/100
f 103/100/100 80/167/167 83/166/166
f 103/100/100 83/166/166 109/99/99
f 109/99/99 83/166/166 90/165/165
f 109/99/99 90/165/165 117/98/98
f 117/98/98 90/165/165 95/164/164
f 117/98/98 95/164/164 119/97/97
f 119/97/97 95/164/164 94/163/163
f 119/97/97 94/163/163 124/96/96
f 124/96/96 94/163/163 93/162/162
f 124/96/96 93/162/162 122/95/95
f 122/95/95 93/162/162 92/161/161
f 122/95/95 92/161/161 118/94/94
f 118/94/94 92/161/161 89/160/160
f 118/94/94 89/160/160 114/93/93
f 114/93/93 89/160/160 86/159/159
f 114/93/93 86/159/159 107/92/92
f 107/92/92 86/159/159 82/158/158
f 107/92/92 82/158/158 99/91/91
f 99/91/91 82/158/158 78/157/157
f 99/91/91 78/157/157 88/90/90
f 88/90/90 78/157/157 72/156/156
f 88/90/90 72/156/156 77/89/89
f 77/89/89 72/156/156 68/155/155
f 77/89/89 68/155/155 67/88/88
f 67/88/88 68/155/155 61/170/170
f 67/88/88 61/171/171 56/87/87
f 56/172/172 61/137/137 57/154/154
f 56/173/173 57/154/154 46/86/86
f 46/86/86 57/154/154 51/153/153
f 46/86/86 51/153/153 34/85/85
f 34/85/85 51/153/153 47/152/152
f 34/85/85 47/152/152 24/84/84
f 24/84/84 47/152/152 40/151/151
f 24/84/84 40/151/151 18/83/83
f 18/83/83 40/151/151 38/150/150
f 18/83/83 38/150/150 12/82/82
f 12/82/82 38/150/150 35/149/149
f 12/82/82 35/149/149 5/81/81
f 5/81/81 35/149/149 29/148/148
f 5/81/81 29/148/148 1/80/80
f 1/80/80 29/148/148 30/147/147
f 1/80/80 30/147/147 3/79/79
f 3/79/79 30/147/147 31/146/146
f 3/79/79 31/146/146 7/78/78
f 7/78/78 31/146/146 32/145/145
f 7/78/78 32/145/145 10/77/77
f 10/77/77 32/145/145 36/144/144
f 10/77/77 36/144/144 17/76/76
f 17/76/76 36/144/144 41/143/143
f 17/76/76 41/143/143 21/75/75
f 21/75/75 41/143/143 44/142/142
f 21/75/75 44/142/142 27/74/74
f 27/74/74 44/142/142 49/141/141
f 27/74/74 49/141/141 42/73/73
f 42/73/73 49/141/141 54/140/140
f 42/73/73 54/140/140 52/72/72
f 52/72/72 54/140/140 59/138/138
f 61/137/137 62/104/104 57/154/154
f 57/154/154 62/107/107 51/153/153
f 51/153/153 62/108/108 47/152/152
f 47/152/152 62/109/109 40/151/151
f 40/151/151 62/110/110 38/150/150
f 38/150/150 62/111/111 35/149/149
f 35/149/149 62/112/112 29/148/148
f 29/148/148 62/113/113 30/147/147
f 30/147/147 62/114/114 31/146/146
f 31/146/146 62/115/115 32/145/145
f 32/145/145 62/116/116 36/144/144
f 41/143/143 62/117/117 44/142/142
f 44/142/142 62/118/118 49/141/141
f 49/141/141 62/119/119 54/140/140
f 54/140/140 62/120/120 59/138/138
f 59/138/138 62/121/121 65/139/139
f 65/139/139 62/122/122 71/169/169
f 71/169/169 62/123/123 75/168/168
f 75/168/168 62/124/124 80/167/167
f 80/167/167 62/125/125 83/166/166
f 83/166/166 62/126/126 90/165/165
f 95/164/164 62/127/127 94/163/163
f 94/163/163 62/128/128 93/162/162
f 93/162/162 62/129/129 92/161/161
f 92/161/161 62/130/130 89/160/160
f 89/160/160 62/131/131 86/159/159
f 86/159/159 62/132/132 82/158/158
f 82/158/158 62/133/133 78/157/157
f 78/157/157 62/134/134 72/156/156
f 72/156/156 62/135/135 68/155/155
f 68/155/155 62/136/136 61/174/174
f 90/165/165 62/106/106 95/164/164
f 36/144/144 62/105/105 41/143/143
f 123/175/175 121/176/176 125/209/209
f 125/209/209 121/176/176 116/208/208
f 116/208/208 121/176/176 115/177/177
f 116/208/208 115/177/177 112/207/207
f 112/207/207 115/177/177 111/178/178
f 112/207/207 111/178/178 108/206/206
f 108/206/206 111/178/178 102/205/205
f 102/205/205 111/178/178 96/204/204
f 96/204/204 111/178/178 81/203/203
f 81/203/203 111/178/178 70/202/202
f 70/202/202 111/178/178 60/201/201
f 60/201/201 111/178/178 50/200/200
f 50/200/200 111/178/178 39/199/199
f 39/199/199 111/178/178 26/198/198
f 26/198/198 111/178/178 20/197/197
f 20/197/197 111/178/178 106/179/179
f 20/197/197 106/179/179 16/196/196
f 16/196/196 106/179/179 11/195/195
f 11/195/195 106/179/179 8/194/194
f 8/194/194 106/179/179 4/193/193
f 4/193/193 106/179/179 2/192/192
f 2/192/192 106/179/179 6/191/191
f 6/191/191 106/179/179 9/190/190
f 9/190/190 106/179/179 15/189/189
f 15/189/189 106/179/179 19/188/188
f 19/188/188 106/179/179 101/180/180
f 19/188/188 101/180/180 25/187/187
f 25/187/187 101/180/180 91/181/181
f 25/187/187 91/181/181 37/186/186
f 37/186/186 91/181/181 79/182/182
f 37/186/186 79/182/182 48/185/185
f 48/185/185 79/182/182 69/183/183
f 48/185/185 69/183/183 58/184/184
# 126 vertices
# 209 texture params
# 209 normals
# 198 facets

# 1 groups
