# WaveFront *.obj file (generated by Autodesk ATF)

mtllib cad_T.mtl

g Solido1

v -0.25 -0.25 0.0
v -0.25 -0.25 0.5
v -0.25 0.25 0.0
v -0.25 0.25 0.5
v -0.15 -0.25 -0.5
v -0.15 -0.25 0.0
v -0.15 0.25 -0.5
v -0.15 0.25 0.0
v 0.15 -0.25 -0.5
v 0.15 -0.25 0.0
v 0.15 0.25 -0.5
v 0.15 0.25 0.0
v 0.25 -0.25 0.0
v 0.25 -0.25 0.5
v 0.25 0.25 0.0
v 0.25 0.25 0.5
vt 0.000000 0.000000 0.000000
vt 100.000000 0.000000 0.000000
vt 100.000000 20.000000 0.000000
vt 0.000000 20.000000 0.000000
vt 50.000000 -50.000000 0.000000
vt 50.000000 50.000000 0.000000
vt -50.000000 50.000000 0.000000
vt -50.000000 -50.000000 0.000000
vt 100.000000 -50.000000 0.000000
vt 100.000000 -30.000000 0.000000
vt 200.000000 -30.000000 0.000000
vt 200.000000 30.000000 0.000000
vt 100.000000 30.000000 0.000000
vt 100.000000 50.000000 0.000000
vt 0.000000 50.000000 0.000000
vt 0.000000 -50.000000 0.000000
vt 0.000000 -30.000000 0.000000
vt 100.000000 -30.000000 0.000000
vt 100.000000 30.000000 0.000000
vt 0.000000 30.000000 0.000000
vt -100.000000 0.000000 0.000000
vt -0.000000 0.000000 0.000000
vt -0.000000 20.000000 0.000000
vt -100.000000 20.000000 0.000000
vt -50.000000 50.000000 0.000000
vt -50.000000 -50.000000 0.000000
vt 50.000000 -50.000000 0.000000
vt 50.000000 50.000000 0.000000
vt 0.000000 -50.000000 0.000000
vt 0.000000 50.000000 0.000000
vt -100.000000 50.000000 0.000000
vt -100.000000 -50.000000 0.000000
vt 100.000000 -30.000000 0.000000
vt 100.000000 -50.000000 0.000000
vt 200.000000 -50.000000 0.000000
vt 200.000000 50.000000 0.000000
vt 100.000000 50.000000 0.000000
vt 100.000000 30.000000 0.000000
vt 0.000000 30.000000 0.000000
vt 0.000000 -30.000000 0.000000
vt 0.000000 50.000000 0.000000
vt 0.000000 -50.000000 0.000000
vt 100.000000 -50.000000 0.000000
vt 100.000000 50.000000 0.000000
vt 100.000000 -50.000000 0.000000
vt 100.000000 50.000000 0.000000
vt 0.000000 50.000000 0.000000
vt 0.000000 -50.000000 0.000000
vn 0.000000 0.000000 -0.100000
vn 0.000000 0.000000 -0.100000
vn 0.000000 0.000000 -0.100000
vn 0.000000 0.000000 -0.100000
vn -0.100000 0.000000 0.000000
vn -0.100000 0.000000 0.000000
vn -0.100000 0.000000 0.000000
vn -0.100000 0.000000 0.000000
vn 0.000000 -0.100000 0.000000
vn 0.000000 -0.100000 0.000000
vn 0.000000 -0.100000 0.000000
vn 0.000000 -0.100000 0.000000
vn 0.000000 -0.100000 0.000000
vn 0.000000 -0.100000 0.000000
vn 0.000000 -0.100000 0.000000
vn 0.000000 -0.100000 0.000000
vn 0.000000 0.000000 -0.100000
vn 0.000000 0.000000 -0.100000
vn 0.000000 0.000000 -0.100000
vn 0.000000 0.000000 -0.100000
vn 0.000000 0.000000 -0.100000
vn 0.000000 0.000000 -0.100000
vn 0.000000 0.000000 -0.100000
vn 0.000000 0.000000 -0.100000
vn 0.100000 0.000000 0.000000
vn 0.100000 0.000000 0.000000
vn 0.100000 0.000000 0.000000
vn 0.100000 0.000000 0.000000
vn 0.100000 0.000000 0.000000
vn 0.100000 0.000000 0.000000
vn 0.100000 0.000000 0.000000
vn 0.100000 0.000000 0.000000
vn 0.000000 0.100000 0.000000
vn 0.000000 0.100000 0.000000
vn 0.000000 0.100000 0.000000
vn 0.000000 0.100000 0.000000
vn 0.000000 0.100000 0.000000
vn 0.000000 0.100000 0.000000
vn 0.000000 0.100000 0.000000
vn 0.000000 0.100000 0.000000
vn -0.100000 0.000000 0.000000
vn -0.100000 0.000000 0.000000
vn -0.100000 0.000000 0.000000
vn -0.100000 0.000000 0.000000
vn 0.000000 0.000000 0.100000
vn 0.000000 0.000000 0.100000
vn 0.000000 0.000000 0.100000
vn 0.000000 0.000000 0.100000
usemtl 191,191,191
f 1/1/1 3/2/2 6/4/4
f 6/4/4 3/2/2 8/3/3
f 8/6/6 7/7/7 6/5/5
f 6/5/5 7/7/7 5/8/8
f 1/9/9 6/10/10 2/16/16
f 2/16/16 6/10/10 10/13/13
f 2/16/16 10/13/13 14/15/15
f 14/15/15 10/13/13 13/14/14
f 6/10/10 5/11/11 10/13/13
f 10/13/13 5/11/11 9/12/12
f 5/17/17 7/18/18 9/20/20
f 9/20/20 7/18/18 11/19/19
f 15/21/21 13/22/22 12/24/24
f 12/24/24 13/22/22 10/23/23
f 10/26/26 9/27/27 12/25/25
f 12/25/25 9/27/27 11/28/28
f 15/30/30 16/31/31 13/29/29
f 13/29/29 16/31/31 14/32/32
f 3/34/34 4/35/35 8/33/33
f 8/33/33 4/35/35 12/38/38
f 8/33/33 12/38/38 11/39/39
f 4/35/35 16/36/36 12/38/38
f 12/38/38 16/36/36 15/37/37
f 11/39/39 7/40/40 8/33/33
f 1/42/42 2/43/43 3/41/41
f 3/41/41 2/43/43 4/44/44
f 14/46/46 16/47/47 2/45/45
f 2/45/45 16/47/47 4/48/48
# 16 vertices
# 48 texture params
# 48 normals
# 28 facets

# 1 groups
