# WaveFront *.obj file (generated by Autodesk ATF)

mtllib extension.mtl

g Solido1

v -0.021589 -0.006339 0.000000
v -0.022271 -0.003202 0.161029
v -0.022398 -0.002139 0.000000
v -0.022475 0.001071 0.161029
v -0.022398 0.002139 0.000000
v -0.021866 0.005305 0.161029
v -0.021589 0.006339 0.000000
v -0.021263 -0.007359 0.161029
v -0.019999 -0.010310 0.000000
v -0.020467 0.009347 0.161029
v -0.019999 0.010310 0.000000
v -0.019486 -0.011250 0.161029
v -0.017686 -0.013909 0.000000
v -0.018328 0.013051 0.161029
v -0.017686 0.013909 0.000000
v -0.017004 -0.014734 0.161029
v -0.015527 0.016284 0.161029
v -0.014734 -0.017004 0.000000
v -0.014577 -0.003536 0.174019
v -0.014983 -0.000714 0.174019
v -0.014847 0.002135 0.174019
v -0.014734 0.017004 0.000000
v -0.013909 -0.017686 0.161029
v -0.013644 -0.006231 0.174019
v -0.014175 0.004906 0.174019
v -0.012990 0.007500 0.174019
v -0.012219 -0.008701 0.174019
v -0.012164 0.018928 0.161029
v -0.011250 -0.019486 0.000000
v -0.011336 0.009823 0.174019
v -0.011250 0.019486 0.000000
v -0.010310 -0.019999 0.161029
v -0.010351 -0.010856 0.174019
v -0.009272 0.011791 0.174019
v -0.008110 -0.012619 0.174019
v -0.008362 0.020888 0.161029
v -0.007359 -0.021263 0.000000
v -0.006822 -0.003116 0.187010
v -0.007289 -0.001768 0.187010
v -0.007492 -0.000357 0.187010
v -0.007424 0.001067 0.187010
v -0.007088 0.002453 0.187010
v -0.006873 0.013333 0.174019
v -0.007359 0.021263 0.000000
v -0.006339 -0.021589 0.161029
v -0.005575 -0.013926 0.174019
v -0.006109 -0.004350 0.187010
v -0.006495 0.003750 0.187010
v -0.005668 0.004911 0.187010
v -0.005176 -0.005428 0.187010
v -0.004636 0.005895 0.187010
v -0.004055 -0.006309 0.187010
v -0.004226 0.014392 0.174019
v -0.004258 0.022093 0.161029
v -0.003202 -0.022271 0.000000
v -0.002839 -0.014729 0.174019
v -0.002787 -0.006963 0.187010
v -0.003437 0.006666 0.187010
v -0.003202 0.022271 0.000000
v -0.002139 -0.022398 0.161029
v -0.002113 0.007196 0.187010
v -0.001419 -0.007364 0.187010
v -0.000713 0.007466 0.187010
v -0.001426 0.014932 0.174019
v 0.000000 -0.015000 0.174019
v 0.000000 -0.007500 0.187010
v 0.000000 0.000000 0.200000
v 0.000000 0.022500 0.161029
v 0.001071 -0.022475 0.000000
v 0.001419 -0.007364 0.187010
v 0.000713 0.007466 0.187010
v 0.001426 0.014932 0.174019
v 0.001071 0.022475 0.000000
v 0.002139 -0.022398 0.161029
v 0.002113 0.007196 0.187010
v 0.002839 -0.014729 0.174019
v 0.002787 -0.006963 0.187010
v 0.003437 0.006666 0.187010
v 0.004055 -0.006309 0.187010
v 0.004226 0.014392 0.174019
v 0.004258 0.022093 0.161029
v 0.005305 -0.021866 0.000000
v 0.005176 -0.005428 0.187010
v 0.004636 0.005895 0.187010
v 0.005305 0.021866 0.000000
v 0.006339 -0.021589 0.161029
v 0.005575 -0.013926 0.174019
v 0.006109 -0.004350 0.187010
v 0.006495 0.003750 0.187010
v 0.005668 0.004911 0.187010
v 0.006822 -0.003116 0.187010
v 0.007289 -0.001768 0.187010
v 0.007492 -0.000357 0.187010
v 0.007424 0.001067 0.187010
v 0.007088 0.002453 0.187010
v 0.006873 0.013333 0.174019
v 0.008110 -0.012619 0.174019
v 0.008362 0.020888 0.161029
v 0.009347 -0.020467 0.000000
v 0.009272 0.011791 0.174019
v 0.009347 0.020467 0.000000
v 0.010310 -0.019999 0.161029
v 0.010351 -0.010856 0.174019
v 0.011336 0.009823 0.174019
v 0.012219 -0.008701 0.174019
v 0.012164 0.018928 0.161029
v 0.013051 -0.018328 0.000000
v 0.012990 0.007500 0.174019
v 0.013051 0.018328 0.000000
v 0.013909 -0.017686 0.161029
v 0.013644 -0.006231 0.174019
v 0.014175 0.004906 0.174019
v 0.014577 -0.003536 0.174019
v 0.014983 -0.000714 0.174019
v 0.014847 0.002135 0.174019
v 0.016284 -0.015527 0.000000
v 0.016284 0.015527 0.000000
v 0.015527 0.016284 0.161029
v 0.017004 -0.014734 0.161029
v 0.018328 0.013051 0.161029
v 0.018928 -0.012164 0.000000
v 0.019486 -0.011250 0.161029
v 0.018928 0.012164 0.000000
v 0.020467 0.009347 0.161029
v 0.020888 -0.008362 0.000000
v 0.021263 -0.007359 0.161029
v 0.020888 0.008362 0.000000
v 0.022093 -0.004258 0.000000
v 0.022271 -0.003202 0.161029
v 0.022500 0.000000 0.000000
v 0.022475 0.001071 0.161029
v 0.022093 0.004258 0.000000
v 0.021866 0.005305 0.161029
vt -0.016103 0.003534 0.000000
vt -0.016103 0.003106 0.000000
vt -0.016103 0.002677 0.000000
vt -0.016103 0.002249 0.000000
vt -0.016103 0.001821 0.000000
vt -0.016103 0.001392 0.000000
vt -0.016103 0.000964 0.000000
vt -0.016103 0.000535 0.000000
vt -0.016103 0.000107 0.000000
vt -0.016103 -0.000321 0.000000
vt -0.016103 -0.000750 0.000000
vt -0.016103 -0.001178 0.000000
vt -0.016103 -0.001606 0.000000
vt -0.016103 -0.002035 0.000000
vt -0.016103 -0.002463 0.000000
vt -0.016103 -0.002892 0.000000
vt -0.016103 -0.003320 0.000000
vt -0.016103 -0.003748 0.000000
vt -0.016103 -0.004177 0.000000
vt -0.016103 -0.004605 0.000000
vt -0.016103 -0.005034 0.000000
vt -0.016103 -0.005462 0.000000
vt -0.016103 -0.005890 0.000000
vt -0.016103 -0.006319 0.000000
vt -0.016103 0.007390 0.000000
vt -0.016103 0.006961 0.000000
vt -0.016103 0.006533 0.000000
vt -0.016103 0.006105 0.000000
vt -0.016103 0.005676 0.000000
vt -0.016103 0.005248 0.000000
vt -0.016103 0.004819 0.000000
vt -0.016103 0.004391 0.000000
vt -0.016103 0.003963 0.000000
vt -0.000000 0.000000 0.000000
vt -0.000000 0.000428 0.000000
vt -0.000000 0.000857 0.000000
vt -0.000000 0.001285 0.000000
vt -0.000000 0.001714 0.000000
vt -0.000000 0.002142 0.000000
vt -0.000000 0.002570 0.000000
vt -0.000000 0.002999 0.000000
vt -0.000000 0.003427 0.000000
vt -0.000000 0.003856 0.000000
vt -0.000000 0.004284 0.000000
vt -0.000000 0.004712 0.000000
vt -0.000000 0.005141 0.000000
vt -0.000000 0.005569 0.000000
vt -0.000000 0.005998 0.000000
vt -0.000000 0.006426 0.000000
vt -0.000000 0.006854 0.000000
vt -0.000000 -0.006854 0.000000
vt -0.000000 -0.006426 0.000000
vt -0.000000 -0.005998 0.000000
vt -0.000000 -0.005569 0.000000
vt -0.000000 -0.005141 0.000000
vt -0.000000 -0.004712 0.000000
vt -0.000000 -0.004284 0.000000
vt -0.000000 -0.003856 0.000000
vt -0.000000 -0.003427 0.000000
vt -0.000000 -0.002999 0.000000
vt -0.000000 -0.002570 0.000000
vt -0.000000 -0.002142 0.000000
vt -0.000000 -0.001714 0.000000
vt -0.000000 -0.001285 0.000000
vt -0.000000 -0.000857 0.000000
vt -0.000000 -0.000428 0.000000
vt -0.000000 0.007283 0.000000
vt -0.000000 0.007283 0.000000
vt -0.016103 -0.006747 0.000000
vt -0.016103 -0.006747 0.000000
vt 0.002250 0.000000 0.000000
vt 0.002250 0.000214 0.000000
vt 0.002250 0.000428 0.000000
vt 0.002250 0.000643 0.000000
vt 0.002250 0.000857 0.000000
vt 0.002250 0.001071 0.000000
vt 0.002250 0.001285 0.000000
vt 0.002250 0.001499 0.000000
vt 0.002250 0.001714 0.000000
vt 0.002250 0.001928 0.000000
vt 0.002250 0.002142 0.000000
vt 0.002250 0.002356 0.000000
vt 0.002250 0.002570 0.000000
vt 0.002250 0.002785 0.000000
vt 0.002250 0.002999 0.000000
vt 0.002250 0.003213 0.000000
vt 0.002250 -0.003641 0.000000
vt 0.002250 -0.003427 0.000000
vt 0.002250 -0.003213 0.000000
vt 0.002250 -0.002999 0.000000
vt 0.002250 -0.002785 0.000000
vt 0.002250 -0.002570 0.000000
vt 0.002250 -0.002356 0.000000
vt 0.002250 -0.002142 0.000000
vt 0.002250 -0.001928 0.000000
vt 0.002250 -0.001714 0.000000
vt 0.002250 -0.001499 0.000000
vt 0.002250 -0.001285 0.000000
vt 0.002250 -0.001071 0.000000
vt 0.002250 -0.000857 0.000000
vt 0.002250 -0.000643 0.000000
vt 0.002250 -0.000428 0.000000
vt 0.002250 -0.000214 0.000000
vt -0.002250 0.003534 0.000000
vt -0.002250 0.001178 0.000000
vt -0.002250 -0.001178 0.000000
vt -0.002250 0.003320 0.000000
vt -0.002250 0.003106 0.000000
vt -0.002250 0.002892 0.000000
vt -0.002250 0.002677 0.000000
vt -0.002250 0.002463 0.000000
vt -0.002250 0.002249 0.000000
vt -0.002250 0.002035 0.000000
vt -0.002250 0.001821 0.000000
vt -0.002250 0.001606 0.000000
vt -0.002250 0.001392 0.000000
vt -0.002250 0.000964 0.000000
vt -0.002250 0.000750 0.000000
vt -0.002250 0.000535 0.000000
vt -0.002250 0.000321 0.000000
vt -0.002250 0.000107 0.000000
vt -0.002250 -0.000107 0.000000
vt -0.002250 -0.000321 0.000000
vt -0.002250 -0.000535 0.000000
vt -0.002250 -0.000750 0.000000
vt -0.002250 -0.000964 0.000000
vt -0.002250 -0.001392 0.000000
vt -0.002250 -0.001606 0.000000
vt -0.002250 -0.001821 0.000000
vt -0.002250 -0.002035 0.000000
vt -0.002250 -0.002249 0.000000
vt -0.002250 -0.002463 0.000000
vt -0.002250 -0.002677 0.000000
vt -0.002250 -0.002892 0.000000
vt -0.002250 -0.003106 0.000000
vt -0.002250 -0.003320 0.000000
vt 0.000750 0.003534 0.000000
vt -0.000750 0.003534 0.000000
vt 0.000750 0.000107 0.000000
vt -0.000750 0.000107 0.000000
vt -0.000750 -0.000107 0.000000
vt 0.000750 -0.000107 0.000000
vt 0.000750 0.000321 0.000000
vt -0.000750 0.000321 0.000000
vt 0.000750 0.000535 0.000000
vt -0.000750 0.000535 0.000000
vt 0.000750 0.000750 0.000000
vt -0.000750 0.000750 0.000000
vt 0.000750 0.000964 0.000000
vt -0.000750 0.000964 0.000000
vt 0.000750 0.001178 0.000000
vt -0.000750 0.001178 0.000000
vt 0.000750 0.001392 0.000000
vt -0.000750 0.001392 0.000000
vt 0.000750 0.001606 0.000000
vt -0.000750 0.001606 0.000000
vt 0.000750 0.001821 0.000000
vt -0.000750 0.001821 0.000000
vt 0.000750 0.002035 0.000000
vt -0.000750 0.002035 0.000000
vt 0.000750 0.002249 0.000000
vt -0.000750 0.002249 0.000000
vt 0.000750 0.002463 0.000000
vt -0.000750 0.002463 0.000000
vt 0.000750 0.002677 0.000000
vt -0.000750 0.002677 0.000000
vt 0.000750 0.002892 0.000000
vt -0.000750 0.002892 0.000000
vt 0.000750 0.003106 0.000000
vt -0.000750 0.003106 0.000000
vt 0.000750 0.003320 0.000000
vt -0.000750 0.003320 0.000000
vt 0.000750 -0.003320 0.000000
vt -0.000750 -0.003320 0.000000
vt 0.000750 -0.003106 0.000000
vt -0.000750 -0.003106 0.000000
vt 0.000750 -0.002892 0.000000
vt -0.000750 -0.002892 0.000000
vt 0.000750 -0.002677 0.000000
vt -0.000750 -0.002677 0.000000
vt 0.000750 -0.002463 0.000000
vt -0.000750 -0.002463 0.000000
vt 0.000750 -0.002249 0.000000
vt -0.000750 -0.002249 0.000000
vt 0.000750 -0.002035 0.000000
vt -0.000750 -0.002035 0.000000
vt 0.000750 -0.001821 0.000000
vt -0.000750 -0.001821 0.000000
vt 0.000750 -0.001606 0.000000
vt -0.000750 -0.001606 0.000000
vt 0.000750 -0.001392 0.000000
vt -0.000750 -0.001392 0.000000
vt 0.000750 -0.001178 0.000000
vt -0.000750 -0.001178 0.000000
vt 0.000750 -0.000964 0.000000
vt -0.000750 -0.000964 0.000000
vt 0.000750 -0.000750 0.000000
vt -0.000750 -0.000750 0.000000
vt 0.000750 -0.000535 0.000000
vt -0.000750 -0.000535 0.000000
vt 0.000750 -0.000321 0.000000
vt -0.000750 -0.000321 0.000000
vt 0.000750 -0.003534 0.000000
vt 0.000750 -0.003534 0.000000
vt 0.002250 0.003427 0.000000
vt 0.002250 0.003427 0.000000
vt -0.000750 -0.003534 0.000000
vt 0.000750 -0.003534 0.000000
vt -0.000750 0.003748 0.000000
vt -0.002250 0.000000 0.000000
vt -0.002209 -0.000426 0.000000
vt -0.002089 -0.000836 0.000000
vt -0.001893 -0.001216 0.000000
vt -0.001628 -0.001553 0.000000
vt -0.001305 -0.001833 0.000000
vt -0.000935 -0.002047 0.000000
vt -0.000530 -0.002187 0.000000
vt -0.000107 -0.002247 0.000000
vt 0.000320 -0.002227 0.000000
vt 0.000736 -0.002126 0.000000
vt 0.001125 -0.001949 0.000000
vt 0.001473 -0.001700 0.000000
vt 0.001769 -0.001391 0.000000
vt 0.002000 -0.001031 0.000000
vt 0.002159 -0.000634 0.000000
vt 0.002240 -0.000214 0.000000
vt 0.002240 0.000214 0.000000
vt 0.002159 0.000634 0.000000
vt 0.002000 0.001031 0.000000
vt 0.001769 0.001391 0.000000
vt 0.001473 0.001700 0.000000
vt 0.001125 0.001949 0.000000
vt 0.000736 0.002126 0.000000
vt 0.000320 0.002227 0.000000
vt -0.000107 0.002247 0.000000
vt -0.000530 0.002187 0.000000
vt -0.000935 0.002047 0.000000
vt -0.001305 0.001833 0.000000
vt -0.001628 0.001553 0.000000
vt -0.001893 0.001216 0.000000
vt -0.002089 0.000836 0.000000
vt -0.002209 0.000426 0.000000
vn 0.000000 0.100000 0.000000
vn 0.018925 0.098193 0.000000
vn 0.037166 0.092837 0.000000
vn 0.054064 0.084125 0.000000
vn 0.069008 0.072373 0.000000
vn 0.081458 0.058006 0.000000
vn 0.090963 0.041542 0.000000
vn 0.097181 0.023576 0.000000
vn 0.099887 0.004758 0.000000
vn 0.098982 -0.014231 0.000000
vn 0.094500 -0.032707 0.000000
vn 0.086603 -0.050000 0.000000
vn 0.075575 -0.065486 0.000000
vn 0.061816 -0.078605 0.000000
vn 0.045823 -0.088884 0.000000
vn 0.028173 -0.095949 0.000000
vn 0.009506 -0.099547 0.000000
vn -0.009506 -0.099547 0.000000
vn -0.028173 -0.095949 0.000000
vn -0.045823 -0.088884 0.000000
vn -0.061816 -0.078605 0.000000
vn -0.075575 -0.065486 0.000000
vn -0.086603 -0.050000 0.000000
vn -0.094500 -0.032707 0.000000
vn -0.098982 -0.014231 0.000000
vn -0.099887 0.004758 0.000000
vn -0.097181 0.023576 0.000000
vn -0.090963 0.041542 0.000000
vn -0.081458 0.058006 0.000000
vn -0.069008 0.072373 0.000000
vn -0.054064 0.084125 0.000000
vn -0.037166 0.092837 0.000000
vn -0.018925 0.098193 0.000000
vn 0.100000 0.000000 0.000000
vn 0.098193 0.018925 0.000000
vn 0.092837 0.037166 0.000000
vn 0.084125 0.054064 0.000000
vn 0.072373 0.069008 0.000000
vn 0.058006 0.081458 0.000000
vn 0.041542 0.090963 0.000000
vn 0.023576 0.097181 0.000000
vn 0.004758 0.099887 0.000000
vn -0.014231 0.098982 0.000000
vn -0.032707 0.094500 0.000000
vn -0.050000 0.086603 0.000000
vn -0.065486 0.075575 0.000000
vn -0.078605 0.061816 0.000000
vn -0.088884 0.045823 0.000000
vn -0.095949 0.028173 0.000000
vn -0.099547 0.009506 0.000000
vn -0.099547 -0.009506 0.000000
vn -0.095949 -0.028173 0.000000
vn -0.088884 -0.045823 0.000000
vn -0.078605 -0.061816 0.000000
vn -0.065486 -0.075575 0.000000
vn -0.050000 -0.086603 0.000000
vn -0.032707 -0.094500 0.000000
vn -0.014231 -0.098982 0.000000
vn 0.004758 -0.099887 0.000000
vn 0.023576 -0.097181 0.000000
vn 0.041542 -0.090963 0.000000
vn 0.058006 -0.081458 0.000000
vn 0.072373 -0.069008 0.000000
vn 0.084125 -0.054064 0.000000
vn 0.092837 -0.037166 0.000000
vn 0.098193 -0.018925 0.000000
vn -0.099547 -0.009506 0.000000
vn -0.099547 -0.009506 0.000000
vn -0.098982 -0.014231 0.000000
vn -0.098982 -0.014231 0.000000
vn 0.000000 0.086603 0.050000
vn -0.016390 0.085038 0.050000
vn -0.032187 0.080399 0.050000
vn -0.046821 0.072855 0.050000
vn -0.059763 0.062677 0.050000
vn -0.070544 0.050234 0.050000
vn -0.078776 0.035976 0.050000
vn -0.084161 0.020417 0.050000
vn -0.086504 0.004121 0.050000
vn -0.085721 -0.012325 0.050000
vn -0.081839 -0.028325 0.050000
vn -0.075000 -0.043301 0.050000
vn -0.065450 -0.056713 0.050000
vn -0.053534 -0.068074 0.050000
vn -0.039684 -0.076975 0.050000
vn -0.024399 -0.083095 0.050000
vn -0.008232 -0.086210 0.050000
vn 0.008232 -0.086210 0.050000
vn 0.024399 -0.083095 0.050000
vn 0.039684 -0.076975 0.050000
vn 0.053534 -0.068074 0.050000
vn 0.065450 -0.056713 0.050000
vn 0.075000 -0.043301 0.050000
vn 0.081839 -0.028325 0.050000
vn 0.085721 -0.012325 0.050000
vn 0.086504 0.004121 0.050000
vn 0.084161 0.020417 0.050000
vn 0.078776 0.035976 0.050000
vn 0.070544 0.050234 0.050000
vn 0.059763 0.062677 0.050000
vn 0.046821 0.072855 0.050000
vn 0.032187 0.080399 0.050000
vn 0.016390 0.085038 0.050000
vn 0.000000 -0.086603 0.050000
vn -0.075000 0.043301 0.050000
vn 0.075000 0.043301 0.050000
vn -0.016390 -0.085038 0.050000
vn -0.032187 -0.080399 0.050000
vn -0.046821 -0.072855 0.050000
vn -0.059763 -0.062677 0.050000
vn -0.070544 -0.050234 0.050000
vn -0.078776 -0.035976 0.050000
vn -0.084161 -0.020417 0.050000
vn -0.086504 -0.004121 0.050000
vn -0.085721 0.012325 0.050000
vn -0.081839 0.028325 0.050000
vn -0.065450 0.056713 0.050000
vn -0.053534 0.068074 0.050000
vn -0.039684 0.076975 0.050000
vn -0.024399 0.083095 0.050000
vn -0.008232 0.086210 0.050000
vn 0.008232 0.086210 0.050000
vn 0.024399 0.083095 0.050000
vn 0.039684 0.076975 0.050000
vn 0.053534 0.068074 0.050000
vn 0.065450 0.056713 0.050000
vn 0.081839 0.028325 0.050000
vn 0.085721 0.012325 0.050000
vn 0.086504 -0.004121 0.050000
vn 0.084161 -0.020417 0.050000
vn 0.078776 -0.035976 0.050000
vn 0.070544 -0.050234 0.050000
vn 0.059763 -0.062677 0.050000
vn 0.046821 -0.072855 0.050000
vn 0.032187 -0.080399 0.050000
vn 0.016390 -0.085038 0.050000
vn 0.000000 -0.086603 0.050000
vn 0.000000 -0.086603 0.050000
vn -0.008232 0.086210 0.050000
vn -0.008232 0.086210 0.050000
vn 0.008232 0.086210 0.050000
vn 0.008232 0.086210 0.050000
vn -0.024399 0.083095 0.050000
vn -0.024399 0.083095 0.050000
vn -0.039684 0.076975 0.050000
vn -0.039684 0.076975 0.050000
vn -0.053534 0.068074 0.050000
vn -0.053534 0.068074 0.050000
vn -0.065450 0.056713 0.050000
vn -0.065450 0.056713 0.050000
vn -0.075000 0.043301 0.050000
vn -0.075000 0.043301 0.050000
vn -0.081839 0.028325 0.050000
vn -0.081839 0.028325 0.050000
vn -0.085721 0.012325 0.050000
vn -0.085721 0.012325 0.050000
vn -0.086504 -0.004121 0.050000
vn -0.086504 -0.004121 0.050000
vn -0.084161 -0.020417 0.050000
vn -0.084161 -0.020417 0.050000
vn -0.078776 -0.035976 0.050000
vn -0.078776 -0.035976 0.050000
vn -0.070544 -0.050234 0.050000
vn -0.070544 -0.050234 0.050000
vn -0.059763 -0.062677 0.050000
vn -0.059763 -0.062677 0.050000
vn -0.046821 -0.072855 0.050000
vn -0.046821 -0.072855 0.050000
vn -0.032187 -0.080399 0.050000
vn -0.032187 -0.080399 0.050000
vn -0.016390 -0.085038 0.050000
vn -0.016390 -0.085038 0.050000
vn 0.016390 -0.085038 0.050000
vn 0.016390 -0.085038 0.050000
vn 0.032187 -0.080399 0.050000
vn 0.032187 -0.080399 0.050000
vn 0.046821 -0.072855 0.050000
vn 0.046821 -0.072855 0.050000
vn 0.059763 -0.062677 0.050000
vn 0.059763 -0.062677 0.050000
vn 0.070544 -0.050234 0.050000
vn 0.070544 -0.050234 0.050000
vn 0.078776 -0.035976 0.050000
vn 0.078776 -0.035976 0.050000
vn 0.084161 -0.020417 0.050000
vn 0.084161 -0.020417 0.050000
vn 0.086504 -0.004121 0.050000
vn 0.086504 -0.004121 0.050000
vn 0.085721 0.012325 0.050000
vn 0.085721 0.012325 0.050000
vn 0.081839 0.028325 0.050000
vn 0.081839 0.028325 0.050000
vn 0.075000 0.043301 0.050000
vn 0.075000 0.043301 0.050000
vn 0.065450 0.056713 0.050000
vn 0.065450 0.056713 0.050000
vn 0.053534 0.068074 0.050000
vn 0.053534 0.068074 0.050000
vn 0.039684 0.076975 0.050000
vn 0.039684 0.076975 0.050000
vn 0.024399 0.083095 0.050000
vn 0.024399 0.083095 0.050000
vn 0.000000 -0.086603 0.050000
vn 0.000000 -0.086603 0.050000
vn -0.008232 -0.086210 0.050000
vn -0.008232 -0.086210 0.050000
vn 0.000000 -0.086603 0.050000
vn 0.000000 -0.086603 0.050000
vn 0.016390 -0.085038 0.050000
vn 0.000000 0.000000 -0.100000
vn 0.000000 0.000000 -0.100000
vn 0.000000 0.000000 -0.100000
vn 0.000000 0.000000 -0.100000
vn 0.000000 0.000000 -0.100000
vn 0.000000 0.000000 -0.100000
vn 0.000000 0.000000 -0.100000
vn 0.000000 0.000000 -0.100000
vn 0.000000 0.000000 -0.100000
vn 0.000000 0.000000 -0.100000
vn 0.000000 0.000000 -0.100000
vn 0.000000 0.000000 -0.100000
vn 0.000000 0.000000 -0.100000
vn 0.000000 0.000000 -0.100000
vn 0.000000 0.000000 -0.100000
vn 0.000000 0.000000 -0.100000
vn 0.000000 0.000000 -0.100000
vn 0.000000 0.000000 -0.100000
vn 0.000000 0.000000 -0.100000
vn 0.000000 0.000000 -0.100000
vn 0.000000 0.000000 -0.100000
vn 0.000000 0.000000 -0.100000
vn 0.000000 0.000000 -0.100000
vn 0.000000 0.000000 -0.100000
vn 0.000000 0.000000 -0.100000
vn 0.000000 0.000000 -0.100000
vn 0.000000 0.000000 -0.100000
vn 0.000000 0.000000 -0.100000
vn 0.000000 0.000000 -0.100000
vn 0.000000 0.000000 -0.100000
vn 0.000000 0.000000 -0.100000
vn 0.000000 0.000000 -0.100000
vn 0.000000 0.000000 -0.100000
usemtl 191,191,191
f 81/2/2 73/42/42 68/1/1
f 68/1/1 73/42/42 59/43/43
f 68/1/1 59/43/43 54/33/33
f 54/33/33 59/43/43 44/44/44
f 54/33/33 44/44/44 36/32/32
f 36/32/32 44/44/44 31/45/45
f 36/32/32 31/45/45 28/31/31
f 28/31/31 31/45/45 22/46/46
f 28/31/31 22/46/46 17/30/30
f 17/30/30 22/46/46 15/47/47
f 17/30/30 15/47/47 14/29/29
f 14/29/29 15/47/47 11/48/48
f 14/29/29 11/48/48 10/28/28
f 10/28/28 11/48/48 7/49/49
f 10/28/28 7/49/49 6/27/27
f 6/27/27 7/49/49 5/50/50
f 6/27/27 5/50/50 4/26/26
f 4/26/26 5/50/50 3/67/67
f 4/26/26 3/68/68 2/25/25
f 2/69/69 3/51/51 1/52/52
f 2/70/70 1/52/52 8/24/24
f 8/24/24 1/52/52 9/53/53
f 8/24/24 9/53/53 12/23/23
f 12/23/23 9/53/53 13/54/54
f 12/23/23 13/54/54 16/22/22
f 16/22/22 13/54/54 18/55/55
f 16/22/22 18/55/55 23/21/21
f 23/21/21 18/55/55 29/56/56
f 23/21/21 29/56/56 32/20/20
f 32/20/20 29/56/56 37/57/57
f 32/20/20 37/57/57 45/19/19
f 45/19/19 37/57/57 55/58/58
f 45/19/19 55/58/58 60/18/18
f 60/18/18 55/58/58 69/59/59
f 60/18/18 69/59/59 74/17/17
f 74/17/17 69/59/59 82/60/60
f 74/17/17 82/60/60 86/16/16
f 86/16/16 82/60/60 99/61/61
f 86/16/16 99/61/61 102/15/15
f 102/15/15 99/61/61 107/62/62
f 102/15/15 107/62/62 110/14/14
f 110/14/14 107/62/62 116/63/63
f 110/14/14 116/63/63 119/13/13
f 119/13/13 116/63/63 121/64/64
f 119/13/13 121/64/64 122/12/12
f 122/12/12 121/64/64 125/65/65
f 122/12/12 125/65/65 126/11/11
f 126/11/11 125/65/65 128/66/66
f 126/11/11 128/66/66 129/10/10
f 129/10/10 128/66/66 130/34/34
f 129/10/10 130/34/34 131/9/9
f 131/9/9 130/34/34 132/35/35
f 131/9/9 132/35/35 133/8/8
f 133/8/8 132/35/35 127/36/36
f 133/8/8 127/36/36 124/7/7
f 124/7/7 127/36/36 123/37/37
f 124/7/7 123/37/37 120/6/6
f 120/6/6 123/37/37 117/38/38
f 120/6/6 117/38/38 118/5/5
f 118/5/5 117/38/38 109/39/39
f 118/5/5 109/39/39 106/4/4
f 106/4/4 109/39/39 101/40/40
f 106/4/4 101/40/40 98/3/3
f 98/3/3 101/40/40 85/41/41
f 98/3/3 85/41/41 81/2/2
f 81/2/2 85/41/41 73/42/42
f 54/72/72 64/139/139 68/71/71
f 68/71/71 64/139/139 72/142/142
f 68/71/71 72/142/142 81/103/103
f 81/103/103 72/142/142 80/201/201
f 81/103/103 80/201/201 98/102/102
f 98/102/102 80/201/201 96/199/199
f 98/102/102 96/199/199 106/101/101
f 106/101/101 96/199/199 100/197/197
f 106/101/101 100/197/197 118/100/100
f 118/100/100 100/197/197 104/195/195
f 118/100/100 104/195/195 120/99/99
f 120/99/99 104/195/195 108/193/193
f 120/99/99 108/193/193 124/98/98
f 124/98/98 108/193/193 112/191/191
f 124/98/98 112/191/191 133/97/97
f 133/97/97 112/191/191 115/189/189
f 133/97/97 115/189/189 131/96/96
f 131/96/96 115/189/189 114/187/187
f 131/96/96 114/187/187 129/95/95
f 129/95/95 114/187/187 113/185/185
f 129/95/95 113/185/185 126/94/94
f 126/94/94 113/185/185 111/183/183
f 126/94/94 111/183/183 122/93/93
f 122/93/93 111/183/183 105/181/181
f 122/93/93 105/181/181 119/92/92
f 119/92/92 105/181/181 103/179/179
f 119/92/92 103/179/179 110/91/91
f 110/91/91 103/179/179 97/177/177
f 110/91/91 97/177/177 102/90/90
f 102/90/90 97/177/177 87/175/175
f 102/90/90 87/175/175 86/89/89
f 86/89/89 87/175/175 76/173/173
f 86/89/89 76/173/173 74/88/88
f 74/88/88 76/173/173 65/203/203
f 74/88/88 65/204/204 60/87/87
f 60/205/205 65/137/137 56/171/171
f 60/206/206 56/171/171 45/86/86
f 45/86/86 56/171/171 46/169/169
f 45/86/86 46/169/169 32/85/85
f 32/85/85 46/169/169 35/167/167
f 32/85/85 35/167/167 23/84/84
f 23/84/84 35/167/167 33/165/165
f 23/84/84 33/165/165 16/83/83
f 16/83/83 33/165/165 27/163/163
f 16/83/83 27/163/163 12/82/82
f 12/82/82 27/163/163 24/161/161
f 12/82/82 24/161/161 8/81/81
f 8/81/81 24/161/161 19/159/159
f 8/81/81 19/159/159 2/80/80
f 2/80/80 19/159/159 20/157/157
f 2/80/80 20/157/157 4/79/79
f 4/79/79 20/157/157 21/155/155
f 4/79/79 21/155/155 6/78/78
f 6/78/78 21/155/155 25/153/153
f 6/78/78 25/153/153 10/77/77
f 10/77/77 25/153/153 26/151/151
f 10/77/77 26/151/151 14/76/76
f 14/76/76 26/151/151 30/149/149
f 14/76/76 30/149/149 17/75/75
f 17/75/75 30/149/149 34/147/147
f 17/75/75 34/147/147 28/74/74
f 28/74/74 34/147/147 43/145/145
f 28/74/74 43/145/145 36/73/73
f 36/73/73 43/145/145 53/143/143
f 36/73/73 53/143/143 54/72/72
f 54/72/72 53/143/143 64/139/139
f 66/138/138 67/104/104 62/172/172
f 62/172/172 67/107/107 57/170/170
f 57/170/170 67/108/108 52/168/168
f 52/168/168 67/109/109 50/166/166
f 50/166/166 67/110/110 47/164/164
f 47/164/164 67/111/111 38/162/162
f 38/162/162 67/112/112 39/160/160
f 39/160/160 67/113/113 40/158/158
f 40/158/158 67/114/114 41/156/156
f 41/156/156 67/115/115 42/154/154
f 42/154/154 67/116/116 48/152/152
f 49/150/150 67/117/117 51/148/148
f 51/148/148 67/118/118 58/146/146
f 58/146/146 67/119/119 61/144/144
f 61/144/144 67/120/120 63/140/140
f 63/140/140 67/121/121 71/141/141
f 71/141/141 67/122/122 75/202/202
f 75/202/202 67/123/123 78/200/200
f 78/200/200 67/124/124 84/198/198
f 84/198/198 67/125/125 90/196/196
f 90/196/196 67/126/126 89/194/194
f 95/192/192 67/127/127 94/190/190
f 94/190/190 67/128/128 93/188/188
f 93/188/188 67/129/129 92/186/186
f 92/186/186 67/130/130 91/184/184
f 91/184/184 67/131/131 88/182/182
f 88/182/182 67/132/132 83/180/180
f 83/180/180 67/133/133 79/178/178
f 79/178/178 67/134/134 77/176/176
f 77/176/176 67/135/135 70/174/174
f 70/174/174 67/136/136 66/207/207
f 65/137/137 66/138/138 56/171/171
f 56/171/171 66/138/138 62/172/172
f 56/171/171 62/172/172 46/169/169
f 46/169/169 62/172/172 57/170/170
f 46/169/169 57/170/170 35/167/167
f 35/167/167 57/170/170 52/168/168
f 35/167/167 52/168/168 33/165/165
f 33/165/165 52/168/168 50/166/166
f 33/165/165 50/166/166 27/163/163
f 27/163/163 50/166/166 47/164/164
f 27/163/163 47/164/164 24/161/161
f 24/161/161 47/164/164 38/162/162
f 24/161/161 38/162/162 19/159/159
f 19/159/159 38/162/162 39/160/160
f 19/159/159 39/160/160 20/157/157
f 20/157/157 39/160/160 40/158/158
f 20/157/157 40/158/158 21/155/155
f 21/155/155 40/158/158 41/156/156
f 21/155/155 41/156/156 25/153/153
f 25/153/153 41/156/156 42/154/154
f 25/153/153 42/154/154 26/151/151
f 26/151/151 42/154/154 48/152/152
f 26/151/151 48/152/152 30/149/149
f 30/149/149 48/152/152 49/150/150
f 30/149/149 49/150/150 34/147/147
f 34/147/147 49/150/150 51/148/148
f 34/147/147 51/148/148 43/145/145
f 43/145/145 51/148/148 58/146/146
f 43/145/145 58/146/146 53/143/143
f 53/143/143 58/146/146 61/144/144
f 53/143/143 61/144/144 64/139/139
f 64/139/139 61/144/144 63/140/140
f 64/139/139 63/140/140 72/142/142
f 72/142/142 63/140/140 71/141/141
f 72/142/142 71/141/141 80/201/201
f 80/201/201 71/141/141 75/202/202
f 80/201/201 75/202/202 96/199/199
f 96/199/199 75/202/202 78/200/200
f 96/199/199 78/200/200 100/197/197
f 100/197/197 78/200/200 84/198/198
f 100/197/197 84/198/198 104/195/195
f 104/195/195 84/198/198 90/196/196
f 104/195/195 90/196/196 108/193/193
f 108/193/193 90/196/196 89/194/194
f 108/193/193 89/194/194 112/191/191
f 112/191/191 89/194/194 95/192/192
f 112/191/191 95/192/192 115/189/189
f 115/189/189 95/192/192 94/190/190
f 115/189/189 94/190/190 114/187/187
f 114/187/187 94/190/190 93/188/188
f 114/187/187 93/188/188 113/185/185
f 113/185/185 93/188/188 92/186/186
f 113/185/185 92/186/186 111/183/183
f 111/183/183 92/186/186 91/184/184
f 111/183/183 91/184/184 105/181/181
f 105/181/181 91/184/184 88/182/182
f 105/181/181 88/182/182 103/179/179
f 103/179/179 88/182/182 83/180/180
f 103/179/179 83/180/180 97/177/177
f 97/177/177 83/180/180 79/178/178
f 97/177/177 79/178/178 87/175/175
f 87/175/175 79/178/178 77/176/176
f 87/175/175 77/176/176 76/173/173
f 76/173/173 77/176/176 70/174/174
f 76/173/173 70/174/174 65/208/208
f 65/137/137 70/209/209 66/138/138
f 89/194/194 67/106/106 95/192/192
f 48/152/152 67/105/105 49/150/150
f 132/242/242 130/210/210 18/222/222
f 18/222/222 130/210/210 128/211/211
f 18/222/222 128/211/211 125/212/212
f 125/212/212 121/213/213 18/222/222
f 18/222/222 121/213/213 116/214/214
f 18/222/222 116/214/214 107/215/215
f 18/222/222 107/215/215 29/221/221
f 29/221/221 107/215/215 99/216/216
f 29/221/221 99/216/216 37/220/220
f 37/220/220 99/216/216 82/217/217
f 37/220/220 82/217/217 55/219/219
f 55/219/219 82/217/217 69/218/218
f 18/222/222 13/223/223 132/242/242
f 132/242/242 13/223/223 127/241/241
f 127/241/241 13/223/223 123/240/240
f 123/240/240 13/223/223 117/239/239
f 117/239/239 13/223/223 109/238/238
f 109/238/238 13/223/223 101/237/237
f 101/237/237 13/223/223 85/236/236
f 85/236/236 13/223/223 73/235/235
f 73/235/235 13/223/223 59/234/234
f 59/234/234 13/223/223 44/233/233
f 44/233/233 13/223/223 31/232/232
f 31/232/232 13/223/223 22/231/231
f 22/231/231 13/223/223 15/230/230
f 15/230/230 13/223/223 9/224/224
f 15/230/230 9/224/224 11/229/229
f 11/229/229 9/224/224 1/225/225
f 11/229/229 1/225/225 7/228/228
f 7/228/228 1/225/225 3/226/226
f 7/228/228 3/226/226 5/227/227
# 133 vertices
# 242 texture params
# 242 normals
# 262 facets

# 1 groups
