# https://github.com/mikedh/trimesh
v 91.28884888 -27.64037132 24.89721870
v 95.27307892 9.91110325 24.93061638
v 73.16130829 -18.24666786 85.00000000
v -98.80000305 -42.46088409 70.99954224
v -98.80000305 41.86188507 70.99965668
v -99.57559967 61.66564941 24.64018250
v 94.86763763 10.55370045 -0.00274456
v 88.73424530 34.45561600 -0.00006421
v -46.19903183 83.44344330 -0.00919883
v -97.24176788 49.44393921 1.61079526
v -17.94178963 72.98765564 85.00000000
v 6.64277744 95.19685364 25.03597832
v -21.91074181 92.80617523 24.83856201
v -98.80000305 40.17259216 14.00000000
v -98.79065704 -40.17409134 13.99068737
v -96.80185699 -47.60755920 -0.13708122
v -98.50507355 -60.81802750 25.95504189
v 34.21746445 -89.54376984 25.17352867
v 20.65469551 -72.10965729 85.00000000
v 0.38833192 -95.35691833 24.81252480
v 24.26746368 -92.47693634 -0.01128317
v 47.86193848 -82.15342712 -0.00001017
v 61.01218033 -72.99659729 24.75131035
v -5.97198391 -75.04176331 85.00016022
v -27.66633415 -91.00479126 24.38494682
v -29.90968323 -68.61640167 85.00000000
v 45.48371506 -59.88739777 85.00009155
v -48.81242752 -82.02639008 24.51846695
v -28.71560287 -90.82730865 -0.00001716
v -4.52185822 -95.15068054 -0.00000268
v -98.80004883 -49.25081635 65.45745087
v 73.87453461 12.99859810 85.00000000
v -74.34326935 8.93819714 85.00000000
v -70.40921021 25.65702438 85.00000000
v 94.14886475 -14.03375244 -0.00006967
v 87.88021851 -37.47013092 0.04451161
v 72.69791412 -61.64202118 -0.00773597
v 53.80462646 53.42664719 85.00002289
v 57.84932709 76.01780701 25.32766914
v 27.24415207 69.84941101 85.00000000
v 68.15445709 30.79988861 85.00000000
v 80.70922852 50.59082031 25.13551712
v 59.45313263 -74.19638062 0.00002750
v 75.17788696 -58.75365829 24.85450172
v -56.97204590 -54.07086182 -0.82569158
v -93.14318848 19.60407448 0.00001148
v 1.13119280 95.48236084 -0.00776023
v 26.02275848 91.56338501 0.00000126
v 30.25872231 90.28121185 25.11338425
v -46.88108063 83.34603119 24.78465462
v -98.80003357 49.23692322 65.70128632
v -45.59171295 59.79932785 85.00000763
v 5.66439152 74.75937653 85.00000000
v -95.19065094 -10.50820160 -0.00407669
v -47.94194031 -82.16327667 -0.00002542
v -98.80001068 -51.17004013 30.51980972
v 88.91059875 33.83161545 25.20705795
v -51.97441483 -54.36405945 85.00012970
v -65.03767395 -37.25590134 84.99992371
v -73.87467957 -12.99741554 85.00000000
v 42.44015503 85.08200073 -0.00000450
v 61.39651108 72.60166931 -0.14382853
v 80.80139923 50.11480331 -0.00003249
v 68.60079193 65.76674652 24.98033714
v 54.76221466 55.50767899 -0.57323229
v 63.17873764 -40.04853058 84.99987793
v -24.81756592 91.97344208 0.00004375
v -88.87026978 39.84624481 0.22045502
v -81.89704895 49.75625992 -0.01069846
v -64.64186096 69.95461273 -0.00016634
v -59.25630188 54.12859344 -0.30470225
v -62.63761139 41.02845383 85.00000000
v 72.50527954 61.50836563 -0.00009855
v 65.45964050 57.35492325 -0.28570682
f 1 2 3
f 4 5 6
f 7 8 2
f 9 10 6
f 11 12 13
f 14 15 6
f 14 6 10
f 14 10 15
f 16 15 10
f 16 17 15
f 18 19 20
f 18 20 21
f 18 21 22
f 18 22 23
f 24 20 19
f 24 25 20
f 24 26 25
f 27 18 23
f 27 19 18
f 27 24 19
f 28 25 17
f 28 17 29
f 28 29 25
f 30 25 29
f 30 20 25
f 30 21 20
f 31 25 26
f 31 17 25
f 31 26 4
f 31 4 6
f 32 3 2
f 32 27 3
f 33 34 5
f 33 5 4
f 35 36 37
f 35 1 36
f 35 7 2
f 35 2 1
f 38 39 40
f 38 41 42
f 38 24 27
f 38 32 41
f 38 27 32
f 43 37 23
f 43 23 22
f 44 37 36
f 44 36 1
f 44 23 37
f 44 27 23
f 45 22 21
f 45 43 22
f 45 37 43
f 45 21 30
f 45 30 29
f 45 16 46
f 47 12 48
f 47 13 12
f 49 48 12
f 49 40 39
f 50 9 6
f 51 6 5
f 51 50 6
f 51 11 13
f 51 13 50
f 52 51 5
f 52 11 51
f 53 12 11
f 53 38 40
f 53 49 12
f 53 40 49
f 53 11 24
f 53 24 38
f 54 16 10
f 54 10 46
f 54 46 16
f 55 29 17
f 55 17 16
f 55 45 29
f 55 16 45
f 56 15 17
f 56 17 31
f 56 31 6
f 56 6 15
f 57 32 2
f 57 41 32
f 57 42 41
f 57 2 8
f 57 8 42
f 58 59 4
f 58 4 26
f 58 26 24
f 58 34 33
f 58 24 11
f 58 11 52
f 60 33 4
f 60 59 58
f 60 4 59
f 60 58 33
f 61 62 48
f 61 39 62
f 61 49 39
f 61 48 49
f 63 42 8
f 64 62 39
f 64 38 42
f 64 39 38
f 65 8 7
f 65 63 8
f 65 7 35
f 65 47 48
f 65 48 62
f 65 35 37
f 65 37 45
f 66 44 1
f 66 1 3
f 66 3 27
f 66 27 44
f 67 13 47
f 67 47 65
f 67 50 13
f 67 9 50
f 68 69 46
f 68 46 10
f 68 10 69
f 70 69 10
f 70 10 9
f 71 45 46
f 71 46 69
f 71 69 70
f 71 70 9
f 71 65 45
f 71 67 65
f 71 9 67
f 72 52 5
f 72 5 34
f 72 58 52
f 72 34 58
f 73 63 62
f 73 62 64
f 73 64 42
f 73 42 63
f 74 65 62
f 74 62 63
f 74 63 65

