# https://github.com/mikedh/trimesh
v 22.71144104 -266.91387939 356.49209595
v 36.52427292 -278.50625610 77.05330658
v 33.76321030 -260.05258179 356.49209595
v 51.31059647 -201.32817078 355.21295166
v 53.78861618 -214.11048889 356.49209595
v 75.55942535 -206.31546021 25.52133560
v 22.89431000 -283.41192627 90.53112030
v 10.35979271 -270.92590332 356.49209595
v 5.18761063 -286.32061768 98.52284241
v -45.81460571 -246.45036316 356.49209595
v -37.68008804 -256.58270264 356.49209595
v -45.18999100 -261.39419556 649.65356445
v -27.35165024 -264.47814941 356.49209595
v -22.87837982 -283.41888428 90.55039215
v -15.42887592 -269.67596436 356.49209595
v -70.67954254 -194.33174133 41.84830856
v -53.15639114 -208.90452576 356.49209595
v -49.43878555 -196.45346069 356.49209595
v -75.45986938 -206.00343323 25.94348335
v -10.34477901 -165.07232666 356.49209595
v -28.01506042 -155.27903748 96.77381134
v -22.72325516 -169.09101868 356.49209595
v -33.75869751 -175.94346619 356.49209595
v -42.84335327 -185.24656677 356.49209595
v -39.19121552 -171.41059875 625.01495361
v 37.67764664 -179.41567993 356.49209595
v 43.73183441 -163.52687073 84.94867706
v 27.34976006 -171.51960754 356.49209595
v -43.03518677 -163.04042053 85.64423370
v -9.80556583 -159.24536133 604.73162842
v 2.61054897 -164.13299561 356.49209595
v -54.82065964 -172.56575012 72.13076782
v -55.97857666 -189.03085327 654.60351562
v -63.88584137 -183.11270142 57.35445023
v 10.60376263 -150.77966309 103.27436829
v 15.43585682 -166.32736206 356.49209595
v 9.16099739 -159.15071106 604.57574463
v 25.92356682 -163.83734131 612.36926270
v 28.88490295 -155.63932800 96.25336456
v -9.52952671 -150.63195801 103.48897552
v 55.35414124 -173.10931396 71.36347198
v 45.81940460 -189.55758667 356.49209595
v 48.49642563 -179.61804199 638.78424072
v 38.80659866 -171.13038635 624.54980469
v 64.29582977 -183.69761658 56.53995514
v 55.76335144 -188.70808411 654.06304932
v 61.10650253 -198.14529419 669.92077637
v 70.97445679 -194.93835449 41.01554108
v -64.92479706 -208.12216187 686.68218994
v -61.26091766 -198.47633362 670.47576904
v -78.38600922 -218.00000000 9.83024597
v -53.78884125 -221.90307617 356.49209595
v -67.18247986 -216.03852844 703.76165771
v -51.29484558 -234.64941406 356.49209595
v -63.30725479 -260.45532227 27.45858002
v -69.60997009 -254.03912354 9.83024597
v -53.00197983 -253.92887878 667.24066162
v -59.16184235 -246.23962402 685.35522461
v -55.95275879 -266.74035645 44.72659302
v -35.08858109 -268.43255615 633.07202148
v -47.19861984 -272.82165527 61.43460083
v -36.49789810 -278.52053833 77.09258270
v -2.62222195 -271.86520386 356.49209595
v -5.18770742 -286.32073975 98.52314758
v -3.10862470 -277.86785889 610.84393311
v 5.18662214 -278.99078369 609.61767578
v 35.10148621 -268.42745972 633.08398438
v 47.20636368 -272.81539917 61.41769791
v 42.84400177 -250.75389099 356.49209595
v 52.98380661 -253.94940186 667.19226074
v 45.17567062 -261.40686035 649.62341309
v 55.94908905 -266.74230957 44.73205566
v 49.43564987 -239.55094910 356.49209595
v 63.30611038 -260.45602417 27.46054649
v 69.60997009 -254.03912354 9.83024597
v 53.15926361 -227.08602905 356.49209595
v 64.87419891 -207.95460510 686.39978027
v 78.38600922 -218.00000000 9.83024597
v -26.43894768 -164.06069946 612.73834229
v -48.78535080 -179.92578125 639.29766846
v -64.03191376 -238.42662048 703.76165771
v -21.55292892 -274.49234009 618.79620361
v 21.55723381 -274.49182129 618.79742432
v 59.15020752 -246.25679016 685.31494141
v 64.03191376 -238.42662048 703.76165771
v 67.18247986 -216.03852844 703.76165771
v 61.42635727 -95.86357117 733.88519287
v 52.35838318 -76.00000000 749.35784912
v 52.65340805 -95.86359406 749.63952637
v -15.60885429 -95.86234283 644.81542969
v -15.62700367 -115.72485352 643.31414795
v -32.26103592 -95.86253357 651.49194336
v 55.71824265 -76.00000000 675.55981445
v 59.40015030 -95.86321259 680.92065430
v 49.54504776 -95.86293793 665.74841309
v 59.90540695 -135.58988953 679.29522705
v 49.76016235 -115.72595978 664.64959717
v 59.66405869 -115.72648621 680.07165527
v 36.02901840 -95.86264801 653.81817627
v 36.19545364 -115.72542572 652.50885010
v 19.85913277 -95.86241913 646.02575684
v 27.53864098 -76.00000000 650.56848145
v 43.45819855 -76.00000000 660.99011230
v 2.21255898 -95.86229706 642.94458008
v 19.97007179 -115.72499084 644.56890869
v -57.35729980 -95.86308289 676.94116211
v -63.96113586 -95.86332703 693.81146240
v -63.36875916 -76.00000000 693.41735840
v -65.46406555 -76.00000000 712.30395508
v -64.51402283 -135.59016418 692.41204834
v -66.93374634 -154.63456726 710.56390381
v -66.62299347 -134.97583008 710.93182373
v -64.24992371 -115.72669983 693.08050537
v -67.34339905 -193.95239258 710.07885742
v -67.17935181 -174.29341125 710.27307129
v -64.91944122 -175.31755066 691.38580322
v -64.74120331 -155.45376587 691.83697510
v -67.44429779 -215.25848389 710.03662109
v -65.11756134 -200.88351440 691.27386475
v -66.26351929 -115.31717682 711.35742188
v -32.34453583 -115.72520447 650.09838867
v -39.17265320 -141.60696411 652.98791504
v -46.80211639 -135.58883667 660.14086914
v -65.87332916 -95.65856934 711.81939697
v -46.52160263 -95.86279297 662.46655273
v -46.66812515 -115.72570038 661.25177002
v -57.76162720 -135.58955383 675.05358887
v -26.09172249 -129.88116455 645.93865967
v 9.46472645 -122.52526093 641.58990479
v 49.95688248 -135.58918762 663.64477539
v 39.26503372 -141.71678162 653.05694580
v 65.60128784 -95.86352539 716.28485107
v 61.81973267 -76.00000000 731.65307617
v 49.09563446 -155.51275635 661.56762695
v 63.25855637 -76.00000000 693.00750732
v 64.87735748 -95.86342621 698.18096924
v 66.72350311 -155.45431519 715.41552734
v 62.63072205 -155.45443726 733.67041016
v 62.90589905 -175.31816101 733.62133789
v 65.50386047 -135.59042358 697.06256104
v 66.39666748 -135.59066772 715.66870117
v 24.26403427 -95.86360931 771.27954102
v 20.04275894 -76.00000000 772.35992432
v 6.79180002 -95.86360931 775.55627441
v 39.94932938 -95.86360931 762.42004395
v -11.61987591 -175.31825256 776.18170166
v -29.34055519 -195.18202209 770.62457275
v -11.67286396 -195.18202209 776.33123779
v -29.06707191 -155.45451355 770.31677246
v -29.23247719 -175.31823730 770.50292969
v -11.53878212 -155.45452881 775.95288086
v -55.65963745 -115.72714996 746.00823975
v -55.20226288 -95.86357117 746.00231934
v -63.37156677 -115.72708130 729.45281982
v -43.39171982 -95.86358643 759.60705566
v -28.34314346 -95.86360168 769.50213623
v -37.63821411 -76.00000000 763.60772705
v -62.90077591 -95.86353302 729.66809082
v -52.10727310 -76.00000000 749.69097900
v -44.81495667 -195.18200684 760.27655029
v -56.90444565 -195.18196106 746.02429199
v -49.80174255 -213.60768127 755.42901611
v 6.82012081 -135.59086609 776.29992676
v -11.43541431 -135.59085083 775.66113281
v -64.65289307 -195.18190002 728.86688232
v -56.72000122 -175.31816101 746.02191162
v -44.42471695 -155.45448303 760.09295654
v -56.43772125 -155.45443726 746.01824951
v 6.83175802 -155.45454407 776.60546875
v -62.85617065 -213.60626221 734.35040283
v 0.20494777 -76.00000000 775.50244141
v -11.18385696 -95.86360168 774.95123291
v 37.98852158 -76.00000000 763.35943604
v 40.50917816 -135.59086609 762.92718506
v 24.57037735 -135.59086609 771.95690918
v 24.69625854 -155.45454407 772.23529053
v 65.47326660 -76.00000000 711.91552734
v 62.27996445 -135.59075928 733.73297119
v 40.73922729 -155.45454407 763.13555908
v 40.91970825 -175.31825256 763.29901123
v 53.72093964 -155.45449829 749.96252441
v 65.76129150 -155.45405579 696.60296631
v 65.14015198 -201.01432800 691.36322021
v 66.09523010 -195.18173218 696.00689697
v 65.96325684 -175.31781006 696.24243164
v 60.11302567 -155.45346069 678.62731934
v -55.93019104 -76.00000000 675.90429688
v -57.92777252 -155.45309448 674.27795410
v -57.56849289 -115.72623444 675.95526123
v -56.34851837 -170.16076660 670.87561035
v -61.61618805 -185.41175842 680.85937500
v -43.76226807 -76.00000000 661.25909424
v -49.02554703 -155.39183044 661.48992920
v -27.92877007 -76.00000000 650.75018311
v -9.72223949 -76.00000000 645.22247314
v 9.31851768 -76.00000000 645.16253662
v -9.31083393 -122.48997498 641.56842041
v 26.21522903 -129.96690369 645.99114990
v -19.64818192 -76.00000000 772.48614502
v 56.40037537 -170.28738403 670.95861816
v 65.20459747 -115.72689056 697.59680176
v 61.65269089 -185.54122925 680.94610596
v 66.01673889 -115.72707367 715.96301270
v 67.14744568 -195.18190002 715.08715820
v 66.97990417 -175.31805420 715.21691895
v 66.32166290 -213.61071777 722.06109619
v 63.08570480 -195.18196106 733.58923340
v 61.87222290 -115.72714996 733.80566406
v 41.03763580 -195.18203735 763.40582275
v 49.75635529 -213.60791016 755.47882080
v 54.12422943 -195.18200684 750.08459473
v 53.04861832 -115.72719574 749.75909424
v 53.41003418 -135.59083557 749.86846924
v 60.39619064 -213.60687256 739.93847656
v 53.96485519 -175.31822205 750.03637695
v 40.24175644 -115.72722626 762.68493652
v 24.42404747 -115.72722626 771.63336182
v 42.76914978 -214.01626587 762.61145020
v 24.85954285 -195.18203735 772.59637451
v 24.79501534 -175.31826782 772.45367432
v 22.86104012 -209.29135132 773.75842285
v 6.84088802 -175.31825256 776.84521484
v 6.80659294 -115.72722626 775.94470215
v 6.84685326 -195.18203735 777.00183105
v -11.31525326 -115.72721863 775.32202148
v -0.01758559 -207.61705017 777.70819092
v -28.85623741 -135.59085083 770.07952881
v -28.61114883 -115.72721100 769.80371094
v -22.88325882 -209.29566956 773.74798584
v -44.12386703 -135.59082031 759.95141602
v -43.77414322 -115.72718811 759.78692627
v -44.66073990 -175.31820679 760.20397949
v -42.76922989 -214.01609802 762.61138916
v -61.68567657 -76.00000000 732.03637695
v -56.07790756 -135.59077454 746.01361084
v -63.80210495 -135.59066772 729.25592041
v -64.17247009 -155.45433044 729.08654785
v -64.46303558 -175.31806946 728.95367432
v -65.19386292 -230.65428162 722.07214355
v -60.31894684 -223.10365295 739.86029053
v 52.48600769 -229.70710754 -58.64997101
v 65.12525940 -218.00000000 -44.71693420
v 64.09043121 -235.04924011 -43.97260284
v 73.94817352 -218.00000000 -27.79240227
v 37.19593811 -225.60047913 -69.93286133
v 36.79943848 -218.00000000 -69.90547943
v 52.50145340 -218.00000000 -59.02776337
v 19.25894165 -223.01251221 -77.04322052
v -0.00000000 -222.13064575 -79.46615601
v 18.97240639 -218.00000000 -76.68614960
v -65.10193634 -218.00000000 -44.74837875
v -52.51222229 -229.71568298 -58.62643051
v -64.10682678 -235.06030273 -43.94221115
v -36.77802658 -218.00000000 -69.91513824
v -19.30105591 -223.01626587 -77.03293610
v -37.21397781 -225.60462952 -69.92143250
v -71.17735291 -241.25418091 -26.92464447
v -73.94124603 -218.00000000 -27.81484985
v -73.23171997 -247.87535095 -8.73315334
v -78.45094299 -218.00000000 -9.28262711
v -52.47315216 -218.00000000 -59.05482101
v -18.92693329 -218.00000000 -76.69796753
v 0.00000000 -218.00000000 -79.00000000
v 71.17093658 -241.24707031 -26.94417763
v 78.45701599 -218.00000000 -9.23603630
v 73.23342896 -247.86047363 -8.77401066
v -36.69874191 -120.00000000 69.95670319
v -65.00091553 -120.00000000 44.89497757
v -52.37429810 -120.00000000 59.14259338
v 65.02532959 -120.00000000 44.86196899
v 73.86934662 -120.00000000 28.00179100
v -36.73345947 -120.00000000 -69.93809509
v -18.88396835 -120.00000000 76.70858002
v -73.86358643 -120.00000000 28.02060127
v -78.41936493 -120.00000000 9.54657078
v 0.00000000 -120.00000000 79.00000000
v -78.42399597 -120.00000000 -9.51772976
v -65.02440643 -120.00000000 -44.86126709
v 36.72160339 -120.00000000 69.94636536
v 52.40167618 -120.00000000 59.11635208
v -73.87278748 -120.00000000 -27.99371529
v 18.92949486 -120.00000000 76.69672394
v 78.42545319 -120.00000000 9.49905968
v -18.91070557 -120.00000000 -76.70317841
v -52.39693832 -120.00000000 -59.12271500
v 36.69537735 -120.00000000 -69.95936584
v 73.85578156 -120.00000000 -28.03604507
v 52.37031937 -120.00000000 -59.14421082
v 18.89721680 -120.00000000 -76.70549011
v 78.42369080 -120.00000000 -9.52485085
v 65.00871277 -120.00000000 -44.88676071
v -0.02409216 -120.00000000 -78.99846649
v 60.29138565 -223.07713318 739.92279053
v 65.19115448 -230.63902283 722.10809326
v -72.20906830 -187.19145203 32.04169083
v -76.15296173 -202.47972107 21.01637650
v -58.51538086 -158.05642700 53.06970978
v -66.40826416 -172.30334473 42.78437042
v -48.20573425 -144.88998413 62.57952118
v -18.75071907 -125.30610657 76.73220825
v -35.04844666 -133.52514648 70.79145050
v 0.00001002 -122.17494202 78.99585724
v 72.21298981 -187.19514465 32.03903961
v 76.15487671 -202.48524475 21.01239395
v 66.41741943 -172.30792236 42.78108215
v 58.52930832 -158.06083679 53.06655502
v 48.22590256 -144.88734436 62.58145142
v 18.74682808 -125.27886200 76.75194550
v 35.06945038 -133.51397705 70.79955292
v -9.53770161 -140.53593445 635.88189697
v 0.06199573 -139.52947998 635.14050293
v 9.61306953 -140.55210876 635.89477539
v 9.49726200 -153.62498474 622.69403076
v 28.67898560 -148.68443298 642.16571045
v 19.21006584 -143.60995483 638.20294189
v 18.99978447 -155.90670776 625.82531738
v 28.40401268 -159.83209229 631.00415039
v 37.56191254 -155.53355408 647.70129395
v 37.25051880 -165.29890442 637.99261475
v 52.44821548 -173.37820435 662.80499268
v 45.59579468 -163.91384888 654.69042969
v 52.13101578 -180.01412964 656.31207275
v 45.27080917 -172.14749146 646.57049561
v 58.07819748 -183.72979736 671.88800049
v 57.79403305 -188.72331238 667.03674316
v 62.16159058 -197.96971130 678.40551758
v 65.38268280 -205.87127686 691.91711426
v 65.25446320 -207.58335876 690.28936768
v 62.38430405 -194.62242126 681.63708496
v 0.06172933 -152.88246155 621.64263916
v -9.42182636 -153.61320496 622.67626953
v -19.13969231 -143.57966614 638.17803955
v -28.60414314 -148.63523865 642.12438965
v -18.92931175 -155.88388062 625.79229736
v -37.52595139 -155.50053406 647.67175293
v -28.32914352 -159.79367065 630.95141602
v -37.21443939 -165.27259827 637.95629883
v -45.53979492 -163.84593201 654.63085938
v -45.21471786 -172.09191895 646.49865723
v -52.40819550 -173.31434631 662.74780273
v -52.09090805 -179.96107483 656.24456787
v -58.05744171 -183.68531799 671.84741211
v -62.37049866 -194.58056641 681.59887695
v -57.77315521 -188.68594360 666.98956299
v -62.14753342 -197.93412781 678.36138916
v -65.25160980 -207.57188416 690.27569580
v -65.37994385 -205.85794067 691.90521240
v 33.72714233 -149.79937744 77.39636230
v 45.74906921 -157.83172607 69.34472656
v 75.75541687 -204.56256104 23.03270721
v 71.16555023 -191.48927307 35.92133331
v 64.64057922 -179.15643311 48.12319565
v 56.10268784 -167.74966431 59.45212936
v -6.84928608 -141.35380554 85.92492676
v 6.92094040 -141.36239624 85.91650391
v -45.68815231 -157.78677368 69.38953400
v -33.67146683 -149.77059937 77.42497253
v -64.58727264 -179.07571411 48.20318604
v -71.15421295 -191.46528625 35.94499969
v -56.05536652 -167.69816589 59.50331497
v -75.73153687 -204.47492981 23.11893654
v -20.51043892 -144.18023682 83.06035614
v 20.58928299 -144.20668030 83.03414154
v -25.62034035 -275.81127930 641.12170410
v -42.02836609 -268.22259521 672.74768066
v 9.10753059 -283.16918945 672.74768066
v 8.75958252 -280.73217773 641.12170410
v 26.63803291 -278.05282593 672.74768066
v -26.63803291 -278.05282593 672.74768066
v -48.97639465 -258.27609253 667.23645020
v -43.83844376 -270.32611084 704.34771729
v -27.78527832 -280.57971191 704.34771729
v -56.36307144 -255.99090576 704.34771729
v -47.49618149 -259.66101074 663.97375488
v -0.00123492 -279.97897339 621.39990234
v -8.79308224 -280.72640991 641.12170410
v -9.14236069 -283.16317749 672.74768066
v 47.51554489 -259.65991211 663.97637939
v 46.03421021 -261.84976196 649.99084473
v 49.84923553 -259.26889038 665.46948242
v 56.34386444 -256.02236938 704.34771729
v 59.62563705 -246.60798645 685.84832764
v 48.75335693 -258.32986450 667.10974121
v 53.63142395 -254.33834839 667.66308594
v 42.00093079 -268.24487305 672.74768066
v 3.70781279 -280.51641846 630.92864990
v 23.15063858 -275.18084717 618.60333252
v 25.62034035 -275.81127930 641.12170410
v 9.48134041 -285.70068359 704.34771729
v 43.80982208 -270.34936523 704.34771729
v -9.48133945 -285.70068359 704.34771729
v 27.78527832 -280.57971191 704.34771729
v 36.24065018 -268.95715332 633.26275635
v -30.59638405 -273.39367676 737.09436035
v -36.82760239 -273.39367676 727.39556885
v -19.40881729 -283.42028809 719.44500732
v -30.00811958 -257.82901001 757.24810791
v -35.04287720 -238.32214355 765.07702637
v -41.93079376 -257.82901001 746.91430664
v -57.77699280 -226.69757080 741.63073730
v -48.96593857 -238.32214355 753.00946045
v -18.26716805 -238.32214355 772.74481201
v -27.63932991 -216.87316895 772.11639404
v -4.72229671 -216.87316895 777.87402344
v -59.81880569 -228.42727661 737.55584717
v -54.91603088 -257.82901001 718.46429443
v -40.07155228 -273.39367676 716.33471680
v -21.89655495 -273.39367676 744.63476562
v -16.12485313 -283.42028809 724.55639648
v -11.53988361 -283.42028809 728.53039551
v -21.11843872 -283.42028809 713.61572266
v 0.00000000 -286.88076782 710.58612061
v 11.39351177 -273.39367676 749.43139648
v 0.00000000 -282.97070312 733.22607422
v 6.00458813 -283.42028809 731.05828857
v 0.00301519 -232.67495728 776.67877197
v 18.23398399 -238.32214355 772.75347900
v 4.72229576 -216.87316895 777.87402344
v 48.96186066 -238.32214355 753.01495361
v 57.92454910 -226.58430481 741.89758301
v 61.15180206 -229.15760803 737.43975830
v 50.45827484 -257.82901001 733.64654541
v 0.00000000 -271.69351196 753.24316406
v 15.61423016 -257.82901001 763.82159424
v 0.00000000 -254.35572815 768.31823730
v 47.16971588 -216.87316895 758.80267334
v 35.01257324 -238.32214355 765.09753418
v 27.66264725 -216.87316895 772.10510254
v 30.59383583 -273.39367676 737.09777832
v 11.52990437 -283.42028809 728.53710938
v 16.12350845 -283.42028809 724.55822754
v 40.06851959 -273.39367676 716.35839844
v 19.40416908 -283.42028809 719.45422363
v 21.11684036 -283.42028809 713.62823486
v 36.81878281 -273.39367676 727.41302490
v 54.91187668 -257.82901001 718.49676514
v 41.92730331 -257.82901001 746.91900635
v 51.60123444 -246.37660217 744.52001953
v -51.58465576 -246.36045837 744.55804443
v -50.47035980 -257.82901001 733.62261963
v 21.87761879 -273.39367676 744.64758301
v 29.98216820 -257.82901001 757.26562500
v -6.01551580 -283.42028809 731.05541992
v -11.41424656 -273.39367676 749.42596436
v -47.16901398 -216.87316895 758.80334473
v -15.64264679 -257.82901001 763.81420898
v 1.04546428 -211.04432678 777.82037354
v -2.43532252 -211.89662170 776.49957275
v 55.99710464 -226.65455627 742.98944092
v -51.72054672 -228.96075439 737.55633545
v -55.98743439 -226.76670837 742.72521973
v -40.71208954 -259.43716431 665.75842285
v -44.99183273 -257.13467407 671.18280029
v 4.28790998 -277.02008057 624.33569336
v 0.00767410 -274.71765137 629.75982666
v 44.99544907 -257.13217163 671.18859863
v 0.00000630 -297.79058838 9.31721592
v -21.37250519 -294.82351685 9.31721592
v -0.00000000 -298.40954590 -0.51303023
v -13.12573528 -276.24075317 -53.79156113
v 0.01673407 -276.24075317 -55.38422394
v 0.01180569 -288.27462769 -39.22402191
v -16.14416313 -260.47033691 -66.04362488
v -66.99848175 -260.47033691 -8.65024662
v -50.17027283 -242.06126404 -57.17262268
v -58.59468079 -258.67025757 -35.82513428
v -63.09605026 -260.47033691 -24.46462440
v -66.97444153 -243.30039978 -31.36933708
v 13.25453472 -295.83850098 -15.46894360
v 25.67565727 -288.27462769 -29.48446465
v 16.44882965 -295.83850098 -11.86131191
v 62.29277039 -242.06126404 -43.48970032
v 58.58199692 -258.65820312 -35.85966110
v 55.55128479 -260.47033691 -38.83865356
v 31.86339569 -288.27462769 -22.49604034
v 36.39416122 -276.24075317 -41.57881546
v 45.16501999 -276.24075317 -31.67301941
v 66.99874115 -260.47033691 -8.64416218
v 63.11058044 -260.47033691 -24.42846107
v 65.91760254 -242.21156311 -34.36093140
v 18.68714905 -295.83850098 -7.59442997
v -36.19096375 -288.27462769 -14.25131035
v -16.44485855 -295.83850098 -11.86775970
v -18.68284607 -295.83850098 -7.60513783
v 57.89867020 -272.24691772 9.31721592
v 54.47217560 -276.24075317 -7.12390804
v 19.83726883 -295.83850098 1.90190756
v 19.83843994 -295.83850098 -2.92067218
v 38.42948532 -288.27462769 -5.17692757
v 21.47788429 -294.79333496 9.31721592
v 31.38191986 -260.47033691 -60.26214218
v 25.51453209 -276.24075317 -49.09102249
v 36.19929886 -288.27462769 -14.23056889
v -45.15411758 -276.24075317 -31.69072723
v -31.85570335 -288.27462769 -22.50853348
v -51.29916000 -276.24075317 -19.98646355
v -65.90362549 -242.20803833 -34.37058640
v 0.02308006 -242.06126404 -76.19281006
v 38.42721939 -288.27462769 4.16499996
v 41.25619888 -286.05908203 9.31721592
v -62.27773285 -242.06126404 -43.51412201
v 4.78372622 -295.83850098 -19.91616631
v 0.00609445 -295.83850098 -20.49678993
v 18.11627769 -242.06126404 -73.99394989
v 67.95494843 -242.69375610 -33.38576126
v 44.76345444 -260.47033691 -51.02241135
v 18.00020599 -288.27462769 -34.78424072
v 9.29223919 -295.83850098 -18.20484352
v 9.26666355 -288.27462769 -38.09928131
v 51.31097412 -276.24075317 -19.95706177
v 0.02058227 -260.47033691 -68.00254822
v 13.13510418 -276.24075317 -53.78995132
v 66.75106812 -243.25276184 -31.50022697
v -4.78031397 -295.83850098 -19.91675186
v -9.26005363 -288.27462769 -38.10041428
v 50.19577408 -242.06126404 -57.15203476
v -18.10335541 -242.06126404 -73.99616241
v -35.15382385 -242.06126404 -67.53343964
v 35.19030762 -242.06126404 -67.51306152
v -9.28260612 -295.83850098 -18.21022415
v -17.98154449 -288.27462769 -34.79466248
v 16.15568733 -260.47033691 -66.04164886
v -13.24780083 -295.83850098 -15.47438049
v -25.66261292 -288.27462769 -29.49499893
v -44.74071503 -260.47033691 -51.04077530
v -25.48808098 -276.24075317 -49.10580063
v -36.37567139 -276.24075317 -41.59374619
v -31.34938622 -260.47033691 -60.28031921
v -38.42934036 -288.27462769 -5.18041754
v -19.83836365 -295.83850098 -2.92247367
v -54.47196579 -276.24075317 -7.12885427
v -55.53787231 -260.47033691 -38.86043167
v -19.83880806 -295.83850098 1.88988900
v -38.43020248 -288.27462769 4.14171839
v -41.17088318 -286.10861206 9.31721592
v -57.84542847 -272.30508423 9.31721592
v 8.75118923 -290.27160645 69.64926910
v 25.07801247 -283.97351074 90.42607117
v 8.08921528 -287.29550171 99.56871033
v 26.94925308 -289.13073730 39.46667099
v 25.74168205 -286.00662231 69.64926910
v 9.16171741 -293.59582520 39.46667099
v -9.19308853 -293.59045410 39.46667099
v 63.99863052 -260.83337402 26.86248589
v 56.86766815 -267.10266113 44.07821655
v 1.51550627 -287.13168335 87.61975861
v 0.00168017 -290.05462646 76.83785248
v 51.67642212 -270.99206543 44.71287918
v 43.13679504 -280.45706177 39.46667099
v -8.08917809 -287.29550171 99.56871796
v -26.98782539 -289.11706543 39.46667099
v -25.77852631 -285.99356079 69.64926910
v -43.15092087 -280.44561768 39.46667099
v -8.78115463 -290.26647949 69.64926910
v -48.41688538 -273.17993164 60.76655579
v -48.83829498 -272.87911987 49.89754868
v -38.13743591 -278.91571045 76.52268219
v -25.12876701 -283.95825195 90.38409424
v -63.99694443 -260.83499146 26.86700058
v -56.87048721 -267.10040283 44.07196426
v -51.67642212 -270.99206543 44.71287918
v -51.12730789 -272.41326904 49.15297318
v -52.33047485 -271.58685303 46.90150833
v 52.33047485 -271.58685303 46.90150833
v 51.12730789 -272.41326904 49.15297318
v 48.42450714 -273.17504883 60.75301743
v 48.83829498 -272.87911987 49.89754868
v 38.11969376 -278.92419434 76.54599762
v -0.00492480 -283.84994507 80.03958130
v 4.28790998 -285.20446777 82.32469940
v 62.99390793 -245.15290833 -27.71601105
v -58.73870087 -243.13600159 -33.25740814
v -63.00661087 -245.14952087 -27.72533798
f 1 2 3
f 4 5 6
f 7 8 9
f 10 11 12
f 13 14 15
f 16 17 18
f 19 17 16
f 20 21 22
f 23 24 25
f 26 27 28
f 23 22 29
f 30 31 20
f 32 24 23
f 33 24 18
f 22 21 29
f 24 34 18
f 35 31 36
f 37 38 36
f 39 36 28
f 20 31 40
f 27 39 28
f 32 23 29
f 41 26 42
f 42 26 43
f 44 43 26
f 42 45 41
f 4 42 46
f 47 4 46
f 48 45 4
f 17 49 50
f 51 17 19
f 52 53 17
f 54 52 51
f 51 52 17
f 55 10 56
f 10 57 58
f 59 10 55
f 10 54 56
f 11 13 60
f 10 59 11
f 13 61 62
f 61 13 11
f 13 62 14
f 63 15 64
f 63 65 15
f 8 63 9
f 63 8 66
f 3 67 1
f 7 1 8
f 2 68 3
f 69 70 71
f 3 68 72
f 73 69 74
f 3 72 69
f 73 74 75
f 69 73 70
f 76 73 75
f 47 77 4
f 76 75 78
f 6 5 78
f 78 5 76
f 4 6 48
f 4 45 42
f 46 42 43
f 28 38 44
f 27 26 41
f 44 26 28
f 36 38 28
f 31 37 36
f 35 36 39
f 30 37 31
f 40 31 35
f 79 30 20
f 21 20 40
f 20 22 79
f 79 23 25
f 79 22 23
f 25 24 80
f 33 80 24
f 34 24 32
f 50 33 18
f 16 18 34
f 50 18 17
f 53 49 17
f 53 52 81
f 51 56 54
f 52 54 81
f 58 81 54
f 58 54 10
f 10 12 57
f 60 12 11
f 61 11 59
f 60 13 82
f 13 15 82
f 65 82 15
f 64 15 14
f 66 65 63
f 9 63 64
f 66 8 83
f 1 83 8
f 67 83 1
f 2 1 7
f 67 3 71
f 3 69 71
f 70 73 84
f 74 69 72
f 84 73 85
f 85 76 86
f 85 73 76
f 77 86 5
f 86 76 5
f 77 5 4
f 87 88 89
f 90 91 92
f 93 94 95
f 96 97 98
f 99 97 100
f 101 102 99
f 103 95 99
f 104 101 105
f 106 107 108
f 107 109 108
f 110 111 112
f 110 112 113
f 114 115 116
f 111 117 115
f 114 53 118
f 114 119 53
f 116 115 117
f 113 120 107
f 121 122 123
f 107 124 109
f 106 125 126
f 127 110 113
f 91 128 121
f 125 92 121
f 104 91 90
f 129 104 105
f 95 103 93
f 130 131 100
f 132 133 87
f 131 130 134
f 94 135 136
f 137 138 139
f 137 140 141
f 142 143 144
f 145 89 88
f 146 147 148
f 149 150 151
f 152 153 154
f 155 156 157
f 109 124 158
f 158 120 154
f 153 155 159
f 160 161 162
f 163 164 151
f 165 161 166
f 166 167 168
f 146 169 151
f 118 170 165
f 144 171 172
f 142 145 173
f 174 175 176
f 136 177 132
f 178 138 141
f 179 180 181
f 140 182 96
f 183 184 86
f 182 185 186
f 124 107 120
f 187 106 108
f 117 110 188
f 120 113 112
f 189 127 113
f 111 110 117
f 110 127 188
f 190 191 116
f 190 116 117
f 119 114 116
f 191 119 116
f 106 189 107
f 192 125 187
f 193 127 123
f 107 189 113
f 189 126 123
f 193 190 188
f 193 188 127
f 190 117 188
f 187 125 106
f 92 192 194
f 189 123 127
f 106 126 189
f 123 126 121
f 193 123 122
f 192 92 125
f 194 195 90
f 121 128 122
f 125 121 126
f 194 90 92
f 195 196 104
f 128 91 197
f 92 91 121
f 195 104 90
f 101 196 102
f 129 197 104
f 104 197 91
f 196 101 104
f 102 103 99
f 198 129 105
f 101 100 105
f 99 100 101
f 105 100 198
f 130 100 97
f 131 198 100
f 95 97 99
f 135 94 93
f 172 199 156
f 95 98 97
f 130 96 186
f 200 134 186
f 130 186 134
f 94 98 95
f 177 136 135
f 96 130 97
f 201 98 94
f 96 98 140
f 200 186 185
f 186 96 182
f 202 200 185
f 136 201 94
f 133 132 177
f 138 137 141
f 201 140 98
f 201 136 203
f 141 140 201
f 137 182 140
f 183 202 184
f 185 184 202
f 204 185 205
f 184 204 86
f 132 203 136
f 88 87 133
f 138 178 181
f 203 141 201
f 158 154 153
f 137 205 182
f 141 203 178
f 206 204 207
f 185 204 184
f 182 205 185
f 205 139 207
f 86 204 206
f 132 208 203
f 87 208 132
f 209 210 211
f 208 178 203
f 208 87 212
f 181 213 179
f 213 178 208
f 214 207 211
f 205 207 204
f 137 139 205
f 139 215 211
f 206 207 214
f 89 212 87
f 173 145 88
f 213 181 178
f 212 213 208
f 212 89 216
f 181 215 138
f 212 174 213
f 215 209 211
f 139 211 207
f 138 215 139
f 180 209 215
f 214 211 210
f 145 216 89
f 143 142 173
f 174 179 213
f 216 174 212
f 217 216 145
f 176 175 169
f 216 175 174
f 176 179 174
f 218 210 209
f 181 180 215
f 219 180 220
f 221 218 209
f 142 217 145
f 171 144 143
f 169 222 176
f 217 175 216
f 217 142 223
f 176 220 179
f 217 163 175
f 221 219 224
f 180 219 209
f 179 220 180
f 220 222 224
f 221 209 219
f 144 223 142
f 199 172 171
f 163 169 175
f 223 163 217
f 223 144 225
f 224 222 148
f 163 223 164
f 151 169 163
f 220 224 219
f 176 222 220
f 222 146 148
f 221 224 226
f 172 225 144
f 157 156 199
f 164 227 149
f 225 164 223
f 172 228 225
f 151 150 146
f 164 225 227
f 151 164 149
f 148 226 224
f 169 146 222
f 147 146 150
f 229 226 148
f 156 228 172
f 159 155 157
f 227 230 167
f 228 227 225
f 156 231 228
f 167 232 149
f 230 227 228
f 150 160 147
f 167 149 227
f 232 160 150
f 233 229 147
f 148 147 229
f 155 231 156
f 153 159 234
f 235 230 231
f 231 230 228
f 231 152 235
f 168 167 230
f 230 235 168
f 232 167 166
f 160 233 147
f 149 232 150
f 232 166 161
f 162 233 160
f 153 152 155
f 234 109 158
f 235 152 236
f 155 152 231
f 152 154 236
f 168 235 237
f 235 236 237
f 168 238 166
f 168 237 238
f 232 161 160
f 166 238 165
f 162 161 170
f 234 158 153
f 124 120 158
f 120 112 154
f 154 112 236
f 112 111 236
f 236 111 237
f 111 115 237
f 237 115 238
f 115 114 238
f 165 170 161
f 238 114 165
f 118 165 114
f 118 53 81
f 239 118 81
f 162 170 240
f 118 239 170
f 170 239 240
f 241 242 243
f 242 244 243
f 245 246 247
f 247 242 241
f 248 249 250
f 248 246 245
f 251 252 253
f 254 255 256
f 257 258 253
f 251 253 258
f 257 259 260
f 260 258 257
f 259 56 51
f 51 260 259
f 251 261 252
f 261 254 256
f 256 252 261
f 262 255 254
f 249 262 263
f 262 249 255
f 250 246 248
f 263 250 249
f 241 245 247
f 243 244 264
f 264 265 266
f 265 264 244
f 265 78 266
f 266 78 75
f 171 108 109
f 194 192 88
f 199 234 157
f 199 109 234
f 159 157 234
f 143 108 171
f 171 109 199
f 187 108 143
f 143 173 187
f 192 173 88
f 173 192 187
f 133 194 88
f 133 177 195
f 195 194 133
f 195 177 196
f 93 103 102
f 102 135 93
f 177 135 196
f 196 135 102
f 267 268 269
f 270 271 272
f 273 274 267
f 268 267 274
f 273 275 274
f 276 277 275
f 275 273 276
f 278 279 280
f 281 277 282
f 283 284 271
f 270 272 285
f 286 287 288
f 289 290 287
f 288 287 291
f 289 292 290
f 287 286 289
f 283 292 284
f 292 283 290
f 270 285 280
f 284 272 271
f 278 280 285
f 281 282 279
f 281 279 278
f 282 277 276
f 206 214 293
f 86 206 294
f 214 210 293
f 206 293 294
f 86 294 85
f 295 268 274
f 51 296 275
f 297 269 268
f 298 268 295
f 269 299 267
f 299 269 297
f 276 273 300
f 301 273 267
f 300 302 276
f 301 267 299
f 301 300 273
f 297 268 298
f 296 295 274
f 274 275 296
f 281 251 258
f 275 277 260
f 262 254 272
f 261 278 285
f 289 286 250
f 292 263 262
f 291 242 247
f 288 246 286
f 283 265 290
f 244 287 290
f 271 303 304
f 304 78 283
f 305 270 306
f 270 303 271
f 307 280 279
f 270 280 306
f 308 309 282
f 307 279 309
f 276 302 308
f 308 282 276
f 270 305 303
f 282 309 279
f 307 306 280
f 265 283 78
f 271 304 283
f 242 287 244
f 290 265 244
f 291 247 288
f 242 291 287
f 286 246 250
f 288 247 246
f 292 289 263
f 289 250 263
f 262 272 284
f 284 292 262
f 254 261 285
f 254 285 272
f 278 251 281
f 261 251 278
f 277 258 260
f 281 258 277
f 275 260 51
f 310 197 311
f 312 311 129
f 312 313 311
f 314 315 198
f 316 315 317
f 314 318 319
f 318 314 131
f 134 320 321
f 322 323 321
f 324 320 200
f 322 320 325
f 324 326 325
f 327 86 328
f 329 326 324
f 329 327 328
f 330 331 310
f 128 332 333
f 334 333 332
f 335 336 337
f 335 122 333
f 338 339 340
f 338 340 193
f 339 341 340
f 340 341 342
f 343 344 345
f 344 343 342
f 345 346 347
f 119 343 347
f 53 346 49
f 345 50 49
f 345 49 346
f 119 347 53
f 53 347 346
f 344 33 50
f 344 50 345
f 119 191 343
f 347 343 345
f 341 80 33
f 343 191 342
f 33 344 341
f 190 342 191
f 344 342 341
f 339 25 80
f 193 340 190
f 342 190 340
f 80 341 339
f 25 337 336
f 337 25 339
f 193 335 338
f 339 338 337
f 336 79 25
f 193 122 335
f 338 335 337
f 334 30 79
f 333 334 336
f 122 128 333
f 335 333 336
f 79 336 334
f 331 330 30
f 331 30 334
f 128 310 332
f 334 332 331
f 330 37 30
f 128 197 310
f 332 310 331
f 37 316 38
f 311 313 330
f 197 129 311
f 310 311 330
f 37 330 313
f 38 316 317
f 313 316 37
f 129 315 312
f 313 312 316
f 317 44 38
f 129 198 315
f 312 315 316
f 319 43 44
f 314 319 317
f 198 131 314
f 315 314 317
f 44 317 319
f 323 322 43
f 323 43 319
f 134 318 131
f 319 318 323
f 322 46 43
f 134 321 318
f 318 321 323
f 325 47 46
f 325 46 322
f 134 200 320
f 321 320 322
f 326 77 47
f 326 47 325
f 200 202 324
f 320 324 325
f 328 86 77
f 324 202 329
f 183 329 202
f 329 328 326
f 77 326 328
f 86 327 183
f 329 183 327
f 348 27 349
f 78 350 6
f 351 352 48
f 352 305 353
f 354 40 355
f 39 27 348
f 32 29 356
f 29 357 356
f 358 359 16
f 360 34 32
f 361 19 359
f 16 34 358
f 295 296 361
f 295 361 359
f 360 32 356
f 361 296 51
f 360 358 34
f 362 301 357
f 21 357 29
f 354 362 40
f 21 362 357
f 35 363 355
f 40 35 355
f 349 307 348
f 39 348 363
f 349 41 353
f 353 306 349
f 303 352 351
f 353 45 352
f 350 48 6
f 350 351 48
f 19 361 51
f 298 295 359
f 19 16 359
f 359 358 298
f 297 298 358
f 358 360 297
f 356 299 297
f 297 360 356
f 357 301 299
f 299 356 357
f 362 300 301
f 354 302 300
f 40 362 21
f 300 362 354
f 302 355 308
f 302 354 355
f 35 39 363
f 355 363 308
f 309 308 363
f 363 348 309
f 307 309 348
f 306 307 349
f 41 349 27
f 305 306 353
f 45 353 41
f 303 305 352
f 48 352 45
f 303 351 304
f 351 350 304
f 304 350 78
f 364 365 60
f 366 367 368
f 365 364 369
f 370 365 371
f 371 365 372
f 370 373 57
f 81 58 373
f 365 374 12
f 65 375 376
f 376 366 377
f 367 366 376
f 364 82 376
f 378 379 380
f 381 382 85
f 383 384 381
f 379 378 385
f 386 66 387
f 367 388 368
f 375 66 386
f 366 389 377
f 66 375 65
f 376 82 65
f 12 374 57
f 371 373 370
f 374 370 57
f 380 379 384
f 381 390 383
f 383 385 378
f 383 380 384
f 57 373 58
f 365 370 374
f 377 369 364
f 60 365 12
f 365 369 372
f 391 372 369
f 82 364 60
f 369 377 391
f 389 391 377
f 375 386 376
f 364 376 377
f 389 366 392
f 385 368 388
f 387 367 386
f 376 386 367
f 366 368 392
f 368 390 392
f 393 388 387
f 367 387 388
f 368 385 390
f 383 390 385
f 379 385 393
f 385 388 393
f 382 381 384
f 394 395 396
f 397 398 399
f 400 401 162
f 402 403 398
f 404 403 402
f 400 162 240
f 240 405 400
f 371 406 373
f 407 406 371
f 408 409 410
f 396 395 411
f 389 412 391
f 394 396 409
f 413 414 415
f 416 417 418
f 210 419 420
f 293 420 421
f 294 421 422
f 423 424 425
f 426 427 419
f 417 425 424
f 423 413 424
f 428 417 427
f 429 430 431
f 432 433 434
f 435 436 422
f 437 422 438
f 420 293 210
f 293 421 294
f 415 414 412
f 437 429 422
f 239 405 240
f 439 440 399
f 439 401 400
f 407 372 411
f 433 435 431
f 413 423 414
f 441 415 430
f 427 417 424
f 413 441 442
f 425 417 416
f 442 427 424
f 418 417 428
f 415 412 430
f 389 434 412
f 413 442 424
f 415 441 413
f 437 441 429
f 442 419 427
f 442 437 419
f 428 427 426
f 412 431 430
f 441 437 442
f 430 429 441
f 422 429 435
f 437 438 419
f 420 419 438
f 426 419 210
f 412 433 431
f 432 434 392
f 422 436 294
f 431 435 429
f 435 432 436
f 421 438 422
f 412 434 433
f 390 432 392
f 436 390 381
f 433 432 435
f 390 436 432
f 436 381 85
f 85 294 436
f 389 392 434
f 372 391 411
f 412 411 391
f 371 372 407
f 397 402 398
f 440 239 406
f 407 395 440
f 406 81 373
f 239 81 406
f 411 412 396
f 443 444 410
f 407 440 406
f 411 395 407
f 399 395 394
f 239 440 405
f 439 405 440
f 396 412 409
f 443 414 444
f 397 399 394
f 440 395 399
f 394 408 397
f 398 445 401
f 162 401 445
f 439 399 401
f 409 412 410
f 423 444 414
f 446 397 408
f 409 408 394
f 444 446 408
f 399 398 401
f 446 402 397
f 445 398 403
f 410 412 443
f 412 414 443
f 423 425 446
f 410 444 408
f 423 446 444
f 425 416 402
f 425 402 446
f 402 416 404
f 418 226 447
f 221 226 418
f 445 403 233
f 229 403 404
f 403 229 233
f 448 226 229
f 448 229 404
f 448 447 226
f 221 428 218
f 426 218 428
f 221 418 428
f 449 420 438
f 438 421 449
f 449 421 420
f 439 450 405
f 400 451 439
f 439 451 450
f 450 400 405
f 450 451 400
f 370 452 374
f 370 453 452
f 452 370 374
f 452 453 370
f 454 375 455
f 375 386 455
f 455 386 375
f 378 456 383
f 383 456 378
f 383 378 380
f 418 404 448
f 447 418 448
f 404 416 418
f 457 458 459
f 460 461 462
f 461 460 463
f 259 464 56
f 465 253 252
f 466 467 468
f 469 470 471
f 472 473 474
f 475 476 477
f 266 478 479
f 472 480 473
f 481 471 475
f 482 483 484
f 485 486 478
f 487 488 489
f 457 459 490
f 491 476 492
f 493 488 481
f 494 495 496
f 253 497 257
f 498 255 249
f 499 500 487
f 257 497 468
f 497 253 501
f 502 503 462
f 248 504 249
f 264 505 243
f 500 490 487
f 477 476 506
f 243 505 480
f 490 459 487
f 493 475 477
f 507 469 508
f 485 500 499
f 499 487 489
f 485 499 486
f 266 75 478
f 485 478 75
f 459 488 487
f 502 509 508
f 489 486 499
f 510 489 493
f 486 510 479
f 479 264 266
f 459 481 488
f 511 512 461
f 489 510 486
f 488 493 489
f 493 481 475
f 486 479 478
f 510 473 479
f 513 479 473
f 513 264 479
f 264 513 505
f 459 471 481
f 503 514 515
f 473 510 477
f 477 510 493
f 470 475 471
f 474 477 506
f 472 243 480
f 473 477 474
f 516 474 506
f 241 243 472
f 459 469 471
f 517 463 518
f 476 491 506
f 470 476 475
f 507 470 469
f 472 474 516
f 492 476 470
f 506 491 519
f 245 241 516
f 472 516 241
f 459 508 469
f 514 520 521
f 519 491 504
f 507 492 470
f 509 507 508
f 516 506 519
f 507 512 492
f 522 504 491
f 248 245 519
f 516 519 245
f 459 502 508
f 520 523 524
f 512 522 492
f 509 512 507
f 509 502 462
f 512 509 461
f 504 248 519
f 492 522 491
f 498 522 511
f 504 498 249
f 459 503 502
f 523 483 495
f 517 498 511
f 462 461 509
f 515 462 503
f 498 517 255
f 522 498 504
f 512 511 522
f 463 517 511
f 503 459 514
f 496 466 494
f 525 526 527
f 515 460 462
f 521 515 514
f 460 515 526
f 256 255 517
f 461 463 511
f 463 528 518
f 514 459 520
f 529 484 530
f 526 528 460
f 521 526 515
f 527 521 524
f 518 528 465
f 518 252 256
f 460 528 463
f 528 525 465
f 256 517 518
f 520 459 523
f 482 531 496
f 521 527 526
f 520 524 521
f 494 524 495
f 526 525 528
f 532 527 494
f 465 525 501
f 532 501 525
f 252 518 465
f 523 459 483
f 533 534 530
f 524 494 527
f 523 495 524
f 483 482 495
f 527 532 525
f 494 466 532
f 497 501 466
f 501 532 466
f 253 465 501
f 483 459 484
f 534 533 535
f 467 496 464
f 482 496 495
f 482 529 531
f 496 531 464
f 259 257 467
f 466 496 467
f 468 467 257
f 484 459 530
f 531 529 534
f 484 529 482
f 464 531 536
f 531 534 536
f 259 467 464
f 530 459 533
f 458 535 533
f 535 536 534
f 530 534 529
f 536 56 464
f 459 458 533
f 537 538 539
f 537 540 541
f 542 540 537
f 490 540 542
f 457 542 543
f 544 545 485
f 546 539 9
f 64 547 546
f 485 548 549
f 550 547 64
f 551 552 553
f 485 75 544
f 550 554 547
f 553 555 556
f 553 535 551
f 557 552 558
f 56 536 559
f 536 560 559
f 537 539 546
f 64 546 9
f 551 458 543
f 537 547 554
f 561 536 553
f 556 561 553
f 560 562 555
f 555 562 556
f 560 563 562
f 560 561 563
f 541 540 549
f 545 564 548
f 549 500 485
f 565 545 566
f 545 565 564
f 567 565 566
f 561 560 536
f 555 553 557
f 557 553 552
f 553 536 535
f 558 554 550
f 552 543 554
f 535 458 551
f 554 558 552
f 554 542 537
f 458 457 543
f 552 551 543
f 546 547 537
f 541 568 538
f 457 490 542
f 554 543 542
f 538 537 541
f 568 541 549
f 500 540 490
f 568 549 566
f 567 566 549
f 548 567 549
f 500 549 540
f 548 485 545
f 546 569 547
f 546 570 569
f 546 569 547
f 546 569 570
f 564 567 548
f 564 565 567
f 571 513 473
f 473 480 571
f 513 571 480
f 513 480 505
f 572 497 466
f 572 466 573
f 466 468 573
f 572 468 497
f 572 573 468
f 561 556 562
f 562 563 561

