# https://github.com/mikedh/trimesh
v -59.50000000 36.82306671 27.23419952
v -59.50000000 40.89600372 20.61933136
v -59.50000000 -22.33642769 -39.98404694
v -59.50000000 28.77247620 -35.63403702
v -59.50000000 22.33642769 -39.98404694
v -59.50000000 39.00003433 -24.01327324
v -59.50000000 34.38079071 -30.25890160
v -59.50000000 15.25780296 -43.18378830
v -59.50000000 42.49731827 -17.07682610
v -59.50000000 44.77202988 -9.64911079
v -59.50000000 7.74023771 -45.14120865
v -59.50000000 0.00000000 -45.79999924
v -59.50000000 45.75873184 -1.94380713
v -59.50000000 43.79243469 13.41128254
v -59.50000000 -7.74023771 -45.14120865
v -59.50000000 -15.25780296 -43.18378830
v -59.50000000 45.42903900 5.81741619
v -59.50000000 25.64684486 37.94574356
v -59.50000000 -39.00003433 -24.01327324
v -59.50000000 18.86507797 41.73426437
v -59.50000000 -34.38079071 -30.25890160
v -59.50000000 31.69079971 33.06558990
v -59.50000000 -28.77247620 -35.63403702
v -59.50000000 11.54059505 44.32217026
v -59.50000000 -42.49731827 -17.07682610
v -59.50000000 -44.77202988 -9.64911079
v -59.50000000 -11.54059505 44.32217026
v -59.50000000 -45.42903900 5.81741619
v -59.50000000 -43.79243469 13.41128254
v -59.50000000 -3.88411140 45.63500595
v -59.50000000 3.88411140 45.63500595
v -59.50000000 -45.75873184 -1.94380713
v -59.50000000 -25.64684486 37.94574356
v -59.50000000 -36.82306671 27.23419952
v -59.50000000 -31.69079971 33.06558990
v -59.50000000 -40.89600372 20.61933136
v -59.50000000 -18.86507797 41.73426437
v -9.50000000 -0.00000000 46.00000000
v -59.29999924 -3.90107250 45.83428574
v -9.50000000 -7.57135105 45.37261963
v -9.50000000 -14.93617535 43.50759125
v -59.29999924 -11.59099102 44.51571655
v -59.29999924 -18.94745827 41.91651154
v -9.50000000 -21.89357948 40.45579147
v -59.29999924 -25.75884056 38.11144257
v -9.50000000 -28.25378418 36.30046463
v -9.50000000 -33.84329987 31.15495300
v -59.29999924 -31.82918739 33.20998001
v -59.29999924 -36.98386765 27.35312653
v -9.50000000 -38.50965881 25.15961456
v -59.29999924 -41.07458878 20.70937157
v -9.50000000 -42.12557220 18.47798920
v -9.50000000 -44.59241104 11.29233265
v -59.29999924 -43.98366928 13.46984768
v -59.29999924 -45.62741852 5.84281969
v -9.50000000 -45.84288788 3.79864979
v -59.29999924 -45.95855331 -1.95229530
v -9.50000000 -45.84288788 -3.79864979
v -9.50000000 -44.59241104 -11.29233265
v -59.29999924 -44.96754074 -9.69124603
v -59.29999924 -42.68289566 -17.15139771
v -9.50000000 -42.12557220 -18.47798920
v -59.29999924 -39.17034149 -24.11813545
v -9.50000000 -38.50965881 -25.15961456
v -9.50000000 -33.84329987 -31.15495300
v -59.29999924 -34.53092575 -30.39103699
v -59.29999924 -28.89811897 -35.78964615
v -9.50000000 -28.25378418 -36.30046463
v -59.29999924 -22.43396759 -40.15864944
v -9.50000000 -21.89357948 -40.45579147
v -9.50000000 -14.93617535 -43.50759125
v -59.29999924 -15.32443047 -43.37236404
v -59.29999924 -7.77403784 -45.33833313
v -9.50000000 -7.57135105 -45.37261963
v -59.29999924 0.00000000 -46.00000000
v -9.50000000 -0.00000000 -46.00000000
v -59.29999924 3.90107250 45.83428574
v -9.50000000 7.57135105 45.37261963
v -59.29999924 11.59099102 44.51571655
v -9.50000000 14.93617535 43.50759125
v -59.29999924 18.94745827 41.91651154
v -59.29999924 25.75884056 38.11144257
v -9.50000000 21.89357948 40.45579147
v -9.50000000 28.25378418 36.30046463
v -59.29999924 31.82918739 33.20998001
v -9.50000000 33.84329987 31.15495300
v -59.29999924 36.98386765 27.35312653
v -59.29999924 41.07458878 20.70937157
v -9.50000000 38.50965881 25.15961456
v -9.50000000 42.12557220 18.47798920
v -59.29999924 43.98366928 13.46984768
v -9.50000000 44.59241104 11.29233265
v -59.29999924 45.62741852 5.84281969
v -9.50000000 45.84288788 3.79864979
v -9.50000000 45.84288788 -3.79864979
v -59.29999924 45.95855331 -1.95229530
v -9.50000000 44.59241104 -11.29233265
v -59.29999924 44.96754074 -9.69124603
v -59.29999924 42.68289566 -17.15139771
v -9.50000000 42.12557220 -18.47798920
v -9.50000000 38.50965881 -25.15961456
v -59.29999924 39.17034149 -24.11813545
v -9.50000000 33.84329987 -31.15495300
v -59.29999924 34.53092575 -30.39103699
v -59.29999924 28.89811897 -35.78964615
v -9.50000000 28.25378418 -36.30046463
v -9.50000000 21.89357948 -40.45579147
v -59.29999924 22.43396759 -40.15864944
v -9.50000000 14.93617535 -43.50759125
v -59.29999924 15.32443047 -43.37236404
v -59.29999924 7.77403784 -45.33833313
v -9.50000000 7.57135105 -45.37261963
v -6.50000000 -42.85313416 -3.55091190
v -6.50000000 -42.85313416 3.55091190
v -6.50000000 0.00000000 -43.00000000
v -6.50000000 -41.68421173 10.55587578
v -6.50000000 -39.37825394 17.27290344
v -6.50000000 -35.99815750 23.51877022
v -6.50000000 -31.63612747 29.12310791
v -6.50000000 -26.41114616 33.93304062
v -6.50000000 -20.46573830 37.81737137
v -6.50000000 -13.96207714 40.67014313
v -6.50000000 -7.07756758 42.41353607
v -6.50000000 -0.00000000 43.00000000
v -6.50000000 -41.68421173 -10.55587578
v -6.50000000 -39.37825394 -17.27290344
v -6.50000000 -35.99815750 -23.51877022
v -6.50000000 -31.63612747 -29.12310791
v -6.50000000 -26.41114616 -33.93304062
v -6.50000000 -20.46573830 -37.81737137
v -6.50000000 -13.96207714 -40.67014313
v -6.50000000 -7.07756758 -42.41353607
v -6.50000000 20.46573830 -37.81737137
v -6.50000000 13.96207714 -40.67014313
v -6.50000000 7.07756758 -42.41353607
v -6.50000000 35.99815750 -23.51877022
v -6.50000000 31.63612747 -29.12310791
v -6.50000000 26.41114616 -33.93304062
v -6.50000000 41.68421173 -10.55587578
v -6.50000000 42.85313416 -3.55091190
v -6.50000000 39.37825394 -17.27290344
v -6.50000000 39.37825394 17.27290344
v -6.50000000 41.68421173 10.55587578
v -6.50000000 42.85313416 3.55091190
v -6.50000000 26.41114616 33.93304062
v -6.50000000 31.63612747 29.12310791
v -6.50000000 35.99815750 23.51877022
v -6.50000000 20.46573830 37.81737137
v -6.50000000 13.96207714 40.67014313
v -6.50000000 7.07756758 42.41353607
v -6.50000000 13.50320435 -7.08702850
v -6.50000000 -5.06159496 14.38550472
v -6.50000000 -7.41124725 13.32801247
v -6.50000000 9.65343952 11.80565929
v -6.50000000 7.49892712 13.27887726
v -6.50000000 13.05932236 7.87506151
v -6.50000000 11.52518082 9.98662663
v -6.50000000 5.12475348 14.36312675
v -6.50000000 14.21092606 5.53281736
v -6.50000000 14.94625950 3.02850461
v -6.50000000 2.60046339 15.02664566
v -6.50000000 0.00000000 15.25000000
v -6.50000000 15.24378109 0.43547976
v -6.50000000 15.09477711 -2.17030120
v -6.50000000 -2.56744480 15.03232288
v -6.50000000 14.50361156 -4.71250916
v -6.50000000 10.38549137 -11.16709709
v -6.50000000 12.11730957 -9.25922871
v -6.50000000 -9.54932404 11.89003372
v -6.50000000 8.35719109 -12.75616932
v -6.50000000 -11.41478920 10.11262035
v -6.50000000 -12.95438576 8.04651356
v -6.50000000 -14.89072609 3.29070902
v -6.50000000 -15.23219109 0.73677903
v -6.50000000 1.10463071 -15.20994091
v -6.50000000 6.09031010 -13.98108101
v -6.50000000 -14.12416363 5.75069618
v -6.50000000 3.64956379 -14.80686283
v -6.50000000 -6.42636681 -13.82983398
v -6.50000000 -14.61324883 -4.36067152
v -6.50000000 -13.67051125 -6.75867128
v -6.50000000 -4.00628757 -14.71435261
v -6.50000000 -1.47183728 -15.17880726
v -6.50000000 -15.13881016 -1.83818436
v -6.50000000 -12.33750916 -8.96372509
v -6.50000000 -8.66298771 -12.55050373
v -6.50000000 -10.65229797 -10.91288376
v -13.52278423 -17.67766953 20.13603592
v -15.00000000 -17.67766953 17.67766953
v -13.52278423 -16.98470879 20.03639221
v -13.52278423 -18.36997604 20.03660011
v -13.52278423 -15.81929588 19.28712082
v -13.52278423 -16.34840202 19.74578094
v -13.52278423 -15.24419022 18.02740288
v -13.52278423 -15.44118118 18.69842529
v -13.52278423 -15.44168282 16.65579033
v -13.52278423 -15.24433422 17.32714081
v -13.52278423 -16.34905243 15.60913277
v -13.52278423 -15.81972027 16.06763077
v -13.52278423 -17.67766953 15.21930408
v -13.52278423 -16.98574638 15.31861210
v -13.52278423 -18.37091637 15.31897831
v -13.52278423 -19.53584099 16.06797600
v -13.52278423 -19.00752258 15.61000252
v -13.52278423 -20.11116409 17.32871628
v -13.52278423 -19.91421509 16.65700912
v -13.52278423 -19.91372108 18.69941139
v -13.52278423 -20.11099052 18.02797127
v -13.52278423 -19.00645638 19.74601555
v -13.52278423 -19.53507805 19.28817177
v -13.52278423 -25.00000000 2.45836592
v -15.00000000 -25.00000000 0.00000000
v -13.52278423 -24.30703926 2.35872197
v -13.52278423 -25.69230652 2.35893106
v -13.52278423 -23.14162636 1.60945117
v -13.52278423 -23.67073250 2.06811237
v -13.52278423 -22.56652069 0.34973383
v -13.52278423 -22.76351166 1.02075493
v -13.52278423 -22.76401329 -1.02187932
v -13.52278423 -22.56666374 -0.35052890
v -13.52278423 -23.67138290 -2.06853652
v -13.52278423 -23.14205170 -1.61003840
v -13.52278423 -25.00000000 -2.45836592
v -13.52278423 -24.30807686 -2.35905719
v -13.52278423 -25.69324684 -2.35869145
v -13.52278423 -26.85817146 -1.60969281
v -13.52278423 -26.32985306 -2.06766748
v -13.52278423 -27.43349457 -0.34895259
v -13.52278423 -27.23654556 -1.02066112
v -13.52278423 -27.23605156 1.02174091
v -13.52278423 -27.43332100 0.35030109
v -13.52278423 -26.32878685 2.06834674
v -13.52278423 -26.85740852 1.61050308
v -13.52278423 -17.67766953 -15.21930408
v -15.00000000 -17.67766953 -17.67766953
v -13.52278423 -16.98470879 -15.31894779
v -13.52278423 -18.36997604 -15.31873798
v -13.52278423 -15.81929588 -16.06821823
v -13.52278423 -16.34840202 -15.60955715
v -13.52278423 -15.24419022 -17.32793617
v -13.52278423 -15.44118118 -16.65691376
v -13.52278423 -15.44168282 -18.69954872
v -13.52278423 -15.24433422 -18.02819824
v -13.52278423 -16.34905243 -19.74620628
v -13.52278423 -15.81972027 -19.28770828
v -13.52278423 -17.67766953 -20.13603592
v -13.52278423 -16.98574638 -20.03672600
v -13.52278423 -18.37091637 -20.03636169
v -13.52278423 -19.53584099 -19.28736305
v -13.52278423 -19.00752258 -19.74533653
v -13.52278423 -20.11116409 -18.02662277
v -13.52278423 -19.91421509 -18.69832993
v -13.52278423 -19.91372108 -16.65592766
v -13.52278423 -20.11099052 -17.32736778
v -13.52278423 -19.00645638 -15.60932255
v -13.52278423 -19.53507805 -16.06716728
v -13.52278423 17.67766953 -15.21930408
v -15.00000000 17.67766953 -17.67766953
v -13.52278423 18.37063026 -15.31894779
v -13.52278423 16.98536301 -15.31873798
v -13.52278423 19.53604317 -16.06821823
v -13.52278423 19.00693703 -15.60955715
v -13.52278423 20.11114883 -17.32793617
v -13.52278423 19.91415787 -16.65691376
v -13.52278423 19.91365623 -18.69954872
v -13.52278423 20.11100578 -18.02819824
v -13.52278423 19.00628662 -19.74620628
v -13.52278423 19.53561783 -19.28770828
v -13.52278423 17.67766953 -20.13603592
v -13.52278423 18.36959267 -20.03672600
v -13.52278423 16.98442268 -20.03636169
v -13.52278423 15.81949902 -19.28736305
v -13.52278423 16.34781647 -19.74533653
v -13.52278423 15.24417400 -18.02662277
v -13.52278423 15.44112396 -18.69832993
v -13.52278423 15.44161797 -16.65592766
v -13.52278423 15.24434853 -17.32736778
v -13.52278423 16.34888268 -15.60932255
v -13.52278423 15.82026100 -16.06716728
v -13.52278423 25.00000000 2.45836592
v -15.00000000 25.00000000 0.00000000
v -13.52278423 25.69296074 2.35872197
v -13.52278423 24.30769348 2.35893106
v -13.52278423 26.85837364 1.60945117
v -13.52278423 26.32926750 2.06811237
v -13.52278423 27.43347931 0.34973383
v -13.52278423 27.23648834 1.02075493
v -13.52278423 27.23598671 -1.02187932
v -13.52278423 27.43333626 -0.35052890
v -13.52278423 26.32861710 -2.06853652
v -13.52278423 26.85794830 -1.61003840
v -13.52278423 25.00000000 -2.45836592
v -13.52278423 25.69192314 -2.35905719
v -13.52278423 24.30675316 -2.35869145
v -13.52278423 23.14182854 -1.60969281
v -13.52278423 23.67014694 -2.06766748
v -13.52278423 22.56650543 -0.34895259
v -13.52278423 22.76345444 -1.02066112
v -13.52278423 22.76394844 1.02174091
v -13.52278423 22.56667900 0.35030109
v -13.52278423 23.67121315 2.06834674
v -13.52278423 23.14259148 1.61050308
v -13.52278423 17.67766953 20.13603592
v -15.00000000 17.67766953 17.67766953
v -13.52278423 18.37063026 20.03639221
v -13.52278423 16.98536301 20.03660011
v -13.52278423 19.53604317 19.28712082
v -13.52278423 19.00693703 19.74578094
v -13.52278423 20.11114883 18.02740288
v -13.52278423 19.91415787 18.69842529
v -13.52278423 19.91365623 16.65579033
v -13.52278423 20.11100578 17.32714081
v -13.52278423 19.00628662 15.60913277
v -13.52278423 19.53561783 16.06763077
v -13.52278423 17.67766953 15.21917057
v -13.52278423 18.36959267 15.31861210
v -13.52278423 16.98442268 15.31897831
v -13.52278423 15.81949902 16.06797600
v -13.52278423 16.34781647 15.61000252
v -13.52278423 15.24417400 17.32871628
v -13.52278423 15.44112396 16.65700912
v -13.52278423 15.44161797 18.69941139
v -13.52278423 15.24434853 18.02797127
v -13.52278423 16.34888268 19.74601555
v -13.52278423 15.82026100 19.28817177
v -13.52278423 -0.00000018 -22.54163361
v -15.00000000 0.00000000 -25.00000000
v -13.52278423 0.69295996 -22.64127731
v -13.52278423 -0.69230568 -22.64106941
v -13.52278423 1.85837400 -23.39054871
v -13.52278423 1.32926798 -22.93188858
v -13.52278423 2.43347907 -24.65026665
v -13.52278423 2.23648810 -23.97924423
v -13.52278423 2.23598695 -26.02187920
v -13.52278423 2.43333554 -25.35052872
v -13.52278423 1.32861793 -27.06853676
v -13.52278423 1.85794926 -26.61003876
v -13.52278423 0.00000021 -27.45832443
v -13.52278423 0.69192332 -27.35905647
v -13.52278423 -0.69324636 -27.35869217
v -13.52278423 -1.85817051 -26.60969353
v -13.52278423 -1.32985306 -27.06766701
v -13.52278423 -2.43349504 -25.34895325
v -13.52278423 -2.23654580 -26.02066040
v -13.52278423 -2.23605132 -23.97825813
v -13.52278423 -2.43332148 -24.64969826
v -13.52278423 -1.32878625 -22.93165398
v -13.52278423 -1.85740900 -23.38949776
v -6.00000000 -11.58765125 -10.66718483
v -6.00000000 2.68572450 15.51932335
v -6.00000000 0.00000000 15.75000000
v -6.00000000 -9.67385006 -12.42896271
v -6.00000000 -7.49617147 -13.85171127
v -6.00000000 -5.11401653 -14.89662170
v -6.00000000 -2.59236479 -15.53519058
v -6.00000000 -0.00000000 -15.75000000
v -6.00000000 2.46384287 -15.55609131
v -6.00000000 4.86701775 -14.97914028
v -6.00000000 7.15035057 -14.03335285
v -6.00000000 9.25761795 -12.74201775
v -6.00000000 11.13693142 -11.13693142
v -6.00000000 12.74201775 -9.25761795
v -6.00000000 14.03335285 -7.15035057
v -6.00000000 14.97914028 -4.86701775
v -6.00000000 -13.18537235 -8.61443329
v -6.00000000 -14.42342949 -6.32670307
v -6.00000000 -15.26805401 -3.86639643
v -6.00000000 -15.69620609 -1.30062473
v -6.00000000 -15.69620609 1.30062473
v -6.00000000 -15.26805401 3.86639643
v -6.00000000 -14.42342949 6.32670307
v -6.00000000 -13.18537235 8.61443329
v -6.00000000 -11.58765125 10.66718483
v -6.00000000 -9.67385006 12.42896271
v -6.00000000 -7.49617147 13.85171127
v -6.00000000 -5.11401653 14.89662170
v -6.00000000 -2.59236479 15.53519058
v -6.00000000 9.96994591 12.19272995
v -6.00000000 7.74479342 13.71425056
v -6.00000000 5.29277802 14.83404827
v -6.00000000 14.67685890 5.71422148
v -6.00000000 13.48749733 8.13325977
v -6.00000000 11.90305614 10.31405640
v -6.00000000 15.74357700 0.44975781
v -6.00000000 15.43630028 3.12779975
v -6.00000000 15.58968735 -2.24145865
v -10.00000000 -18.01188469 20.11332512
v -10.00000000 -18.65684700 19.93272209
v -10.00000000 -19.22857857 19.58519554
v -10.00000000 -19.68603897 19.09564590
v -10.00000000 -19.99393463 18.50157928
v -10.00000000 -20.13036919 17.84605217
v -10.00000000 -20.08476067 17.17763519
v -10.00000000 -19.86083984 16.54730797
v -10.00000000 -19.47465515 15.99986458
v -10.00000000 -18.95555115 15.57744503
v -10.00000000 -18.34159470 15.31054783
v -10.00000000 -17.67766953 15.21916962
v -10.00000000 -17.34220314 20.11310959
v -10.00000000 -16.69804192 19.93256378
v -10.00000000 -16.12559509 19.58425522
v -10.00000000 -15.66894436 19.09506607
v -10.00000000 -15.36097336 18.50050735
v -10.00000000 -15.22491169 17.84469223
v -10.00000000 -15.27060986 17.17738724
v -10.00000000 -15.49516296 16.54599190
v -10.00000000 -15.88130665 15.99926853
v -10.00000000 -16.40063286 15.57687378
v -10.00000000 -17.01512718 15.31018829
v -10.00000000 -25.33421516 2.43565536
v -10.00000000 -25.97917747 2.25505209
v -10.00000000 -26.55090904 1.90752602
v -10.00000000 -27.00836945 1.41797590
v -10.00000000 -27.31626511 0.82391047
v -10.00000000 -27.45269966 0.16838267
v -10.00000000 -27.40709114 -0.50003421
v -10.00000000 -27.18317032 -1.13036203
v -10.00000000 -26.79698563 -1.67780495
v -10.00000000 -26.27788162 -2.10022449
v -10.00000000 -25.66392517 -2.36712146
v -10.00000000 -25.00000000 -2.45849991
v -10.00000000 -24.66453362 2.43544078
v -10.00000000 -24.02037239 2.25489330
v -10.00000000 -23.44792557 1.90658581
v -10.00000000 -22.99127388 1.41739666
v -10.00000000 -22.68330383 0.82283735
v -10.00000000 -22.54724312 0.16702329
v -10.00000000 -22.59293938 -0.50028163
v -10.00000000 -22.81749344 -1.13167810
v -10.00000000 -23.20363617 -1.67840111
v -10.00000000 -23.72296333 -2.10079575
v -10.00000000 -24.33745766 -2.36748147
v -10.00000000 -18.01188469 -15.24201393
v -10.00000000 -18.65684700 -15.42261791
v -10.00000000 -19.22857857 -15.77014351
v -10.00000000 -19.68603897 -16.25969315
v -10.00000000 -19.99393463 -16.85375977
v -10.00000000 -20.13036919 -17.50928688
v -10.00000000 -20.08476067 -18.17770386
v -10.00000000 -19.86083984 -18.80803108
v -10.00000000 -19.47465515 -19.35547447
v -10.00000000 -18.95555115 -19.77789307
v -10.00000000 -18.34159470 -20.04479027
v -10.00000000 -17.67766953 -20.13616943
v -10.00000000 -17.34220314 -15.24222851
v -10.00000000 -16.69804192 -15.42277622
v -10.00000000 -16.12559509 -15.77108383
v -10.00000000 -15.66894436 -16.26027298
v -10.00000000 -15.36097336 -16.85483170
v -10.00000000 -15.22491169 -17.51064682
v -10.00000000 -15.27060986 -18.17795181
v -10.00000000 -15.49516296 -18.80934715
v -10.00000000 -15.88130665 -19.35607147
v -10.00000000 -16.40063286 -19.77846527
v -10.00000000 -17.01512718 -20.04515076
v -10.00000000 17.34345436 -15.24201393
v -10.00000000 16.69849205 -15.42261791
v -10.00000000 16.12676048 -15.77014351
v -10.00000000 15.66930103 -16.25969315
v -10.00000000 15.36140442 -16.85375977
v -10.00000000 15.22496986 -17.50928688
v -10.00000000 15.27057743 -18.17770386
v -10.00000000 15.49449921 -18.80803108
v -10.00000000 15.88068390 -19.35547447
v -10.00000000 16.39978790 -19.77789307
v -10.00000000 17.01374435 -20.04479027
v -10.00000000 17.67766953 -20.13616943
v -10.00000000 18.01313591 -15.24222851
v -10.00000000 18.65729713 -15.42277622
v -10.00000000 19.22974396 -15.77108383
v -10.00000000 19.68639565 -16.26027298
v -10.00000000 19.99436569 -16.85483170
v -10.00000000 20.13042641 -17.51064682
v -10.00000000 20.08473015 -18.17795181
v -10.00000000 19.86017609 -18.80934715
v -10.00000000 19.47403336 -19.35607147
v -10.00000000 18.95470619 -19.77846527
v -10.00000000 18.34021187 -20.04515076
v -10.00000000 24.66578484 2.43565536
v -10.00000000 24.02082253 2.25505209
v -10.00000000 23.44909096 1.90752602
v -10.00000000 22.99163055 1.41797590
v -10.00000000 22.68373489 0.82391047
v -10.00000000 22.54730034 0.16838267
v -10.00000000 22.59290886 -0.50003421
v -10.00000000 22.81682968 -1.13036203
v -10.00000000 23.20301437 -1.67780495
v -10.00000000 23.72211838 -2.10022449
v -10.00000000 24.33607483 -2.36712146
v -10.00000000 25.00000000 -2.45849991
v -10.00000000 25.33546638 2.43544078
v -10.00000000 25.97962761 2.25489330
v -10.00000000 26.55207443 1.90658581
v -10.00000000 27.00872612 1.41739666
v -10.00000000 27.31669617 0.82283735
v -10.00000000 27.45275688 0.16702329
v -10.00000000 27.40706062 -0.50028163
v -10.00000000 27.18250656 -1.13167810
v -10.00000000 26.79636383 -1.67840111
v -10.00000000 26.27703667 -2.10079575
v -10.00000000 25.66254234 -2.36748147
v -10.00000000 17.34345436 20.11332512
v -10.00000000 16.69849205 19.93272209
v -10.00000000 16.12676048 19.58519554
v -10.00000000 15.66930103 19.09564590
v -10.00000000 15.36140442 18.50157928
v -10.00000000 15.22496986 17.84605217
v -10.00000000 15.27057743 17.17763519
v -10.00000000 15.49449921 16.54730797
v -10.00000000 15.88068390 15.99986458
v -10.00000000 16.39978790 15.57744503
v -10.00000000 17.01374435 15.31054783
v -10.00000000 17.67766953 15.21916962
v -10.00000000 18.01313591 20.11310959
v -10.00000000 18.65729713 19.93256378
v -10.00000000 19.22974396 19.58425522
v -10.00000000 19.68639565 19.09506607
v -10.00000000 19.99436569 18.50050735
v -10.00000000 20.13042641 17.84469223
v -10.00000000 20.08473015 17.17738724
v -10.00000000 19.86017609 16.54599190
v -10.00000000 19.47403336 15.99926853
v -10.00000000 18.95470619 15.57687378
v -10.00000000 18.34021187 15.31018829
v -10.00000000 -0.33421504 -22.56434441
v -10.00000000 -0.97917789 -22.74494743
v -10.00000000 -1.55090904 -23.09247398
v -10.00000000 -2.00836897 -23.58202362
v -10.00000000 -2.31626511 -24.17609024
v -10.00000000 -2.45269990 -24.83161736
v -10.00000000 -2.40709186 -25.50003433
v -10.00000000 -2.18317032 -26.13036156
v -10.00000000 -1.79698539 -26.67780495
v -10.00000000 -1.27788222 -27.10022354
v -10.00000000 -0.66392499 -27.36712074
v -10.00000000 -0.00000000 -27.45849991
v -10.00000000 0.33546668 -22.56455994
v -10.00000000 0.97962689 -22.74510574
v -10.00000000 1.55207348 -23.09341431
v -10.00000000 2.00872564 -23.58260345
v -10.00000000 2.31669617 -24.17716217
v -10.00000000 2.45275760 -24.83297729
v -10.00000000 2.40706015 -25.50028229
v -10.00000000 2.18250656 -26.13167763
v -10.00000000 1.79636323 -26.67840195
v -10.00000000 1.27703679 -27.10079575
v -10.00000000 0.66254240 -27.36748123
v -6.50000000 -0.00000022 27.99983597
v -8.30258179 0.00000000 25.00000000
v -6.50000000 0.66774678 27.92468262
v -6.50000000 -0.66762960 27.92471886
v -6.50000000 1.87102914 27.34491920
v -6.50000000 1.30194020 27.70265388
v -6.50000000 2.70299506 26.30129433
v -6.50000000 2.34570932 26.87012863
v -6.50000000 2.99996519 24.99946022
v -6.50000000 2.92489362 25.66667938
v -6.50000000 2.70243359 23.69755363
v -6.50000000 2.92467284 24.33217049
v -6.50000000 1.87033010 22.65442467
v -6.50000000 2.34507513 23.12905121
v -6.50000000 0.66686982 22.07508850
v -6.50000000 1.30079091 22.29676437
v -6.50000000 0.00000025 22.00021553
v -6.50000000 -0.66848028 22.07552338
v -6.50000000 -1.87063885 22.65469933
v -6.50000000 -1.30242133 22.29754066
v -6.50000000 -2.70325255 23.69930267
v -6.50000000 -2.34603906 23.13042641
v -6.50000000 -2.99985456 25.00097084
v -6.50000000 -2.92479992 24.33281136
v -6.50000000 -2.70268393 26.30194473
v -6.50000000 -2.92444777 25.66851044
v -6.50000000 -1.86971736 27.34594345
v -6.50000000 -2.34490299 26.87098503
v -6.50000000 -1.30139899 27.70295334
v -1.00000000 15.69620609 -1.30062473
v -1.00000000 0.00000000 15.75000000
v -1.00000000 15.26805401 -3.86639643
v -1.00000000 14.42342949 -6.32670307
v -1.00000000 13.18537235 -8.61443329
v -1.00000000 11.58765125 -10.66718483
v -1.00000000 9.67385006 -12.42896271
v -1.00000000 7.49617147 -13.85171127
v -1.00000000 5.11401653 -14.89662170
v -1.00000000 2.59236479 -15.53519058
v -1.00000000 0.00000000 -15.75000000
v -1.00000000 15.69620609 1.30062473
v -1.00000000 15.26805401 3.86639643
v -1.00000000 14.42342949 6.32670307
v -1.00000000 13.18537235 8.61443329
v -1.00000000 11.58765125 10.66718483
v -1.00000000 9.67385006 12.42896271
v -1.00000000 7.49617147 13.85171127
v -1.00000000 5.11401653 14.89662170
v -1.00000000 2.59236479 15.53519058
v -1.00000000 -7.49301052 13.85299587
v -1.00000000 -2.59308529 15.53506565
v -1.00000000 -5.11158752 14.89714813
v -1.00000000 -13.18223095 8.61841297
v -1.00000000 -9.67033577 12.43115711
v -1.00000000 -11.58415604 10.67031479
v -1.00000000 -15.69540501 1.30586553
v -1.00000000 -14.42091274 6.33135462
v -1.00000000 -15.26634789 3.87148023
v -1.00000000 -14.42501450 -6.32255888
v -1.00000000 -15.26897907 -3.86165929
v -1.00000000 -15.69631195 -1.29550683
v -1.00000000 -9.67601395 -12.42718029
v -1.00000000 -11.58987522 -10.66459560
v -1.00000000 -13.18739986 -8.61103058
v -1.00000000 -7.49803686 -13.85065174
v -1.00000000 -5.11538219 -14.89613152
v -1.00000000 -2.59308529 -15.53506565
v 0.00000000 -18.34159470 15.31054783
v 0.00000000 -17.67766953 15.21916962
v 0.00000000 -19.86083984 16.54730797
v 0.00000000 -19.47465515 15.99986458
v 0.00000000 -18.95555115 15.57744503
v 0.00000000 -19.99393463 18.50157928
v 0.00000000 -20.13036919 17.84605217
v 0.00000000 -20.08476067 17.17763519
v 0.00000000 -19.22857857 19.58519554
v 0.00000000 -18.65684700 19.93272209
v 0.00000000 -19.68603897 19.09564590
v 0.00000000 -16.69804192 19.93256378
v 0.00000000 -17.34220314 20.11310959
v 0.00000000 -18.01188469 20.11332512
v 0.00000000 -15.36097336 18.50050735
v 0.00000000 -15.66894436 19.09506607
v 0.00000000 -16.12559509 19.58425522
v 0.00000000 -15.27060986 17.17738724
v 0.00000000 -15.22491169 17.84469223
v 0.00000000 -15.49516296 16.54599190
v 0.00000000 -15.88130665 15.99926853
v 0.00000000 -16.40063286 15.57687378
v 0.00000000 -17.01512718 15.31018829
v 0.00000000 -25.66392517 -2.36712146
v 0.00000000 -25.00000000 -2.45849991
v 0.00000000 -27.18317032 -1.13036203
v 0.00000000 -26.79698563 -1.67780495
v 0.00000000 -26.27788162 -2.10022449
v 0.00000000 -27.31626511 0.82391047
v 0.00000000 -27.45269966 0.16838267
v 0.00000000 -27.40709114 -0.50003421
v 0.00000000 -26.55090904 1.90752602
v 0.00000000 -25.97917747 2.25505209
v 0.00000000 -27.00836945 1.41797590
v 0.00000000 -24.02037239 2.25489330
v 0.00000000 -24.66453362 2.43544078
v 0.00000000 -25.33421516 2.43565536
v 0.00000000 -22.68330383 0.82283735
v 0.00000000 -22.99127388 1.41739666
v 0.00000000 -23.44792557 1.90658581
v 0.00000000 -22.59293938 -0.50028163
v 0.00000000 -22.54724312 0.16702329
v 0.00000000 -22.81749344 -1.13167810
v 0.00000000 -23.20363617 -1.67840111
v 0.00000000 -23.72296333 -2.10079575
v 0.00000000 -24.33745766 -2.36748147
v 0.00000000 -18.34159470 -20.04479027
v 0.00000000 -17.67766953 -20.13616943
v 0.00000000 -19.86083984 -18.80803108
v 0.00000000 -19.47465515 -19.35547447
v 0.00000000 -18.95555115 -19.77789307
v 0.00000000 -19.99393463 -16.85375977
v 0.00000000 -20.13036919 -17.50928688
v 0.00000000 -20.08476067 -18.17770386
v 0.00000000 -19.22857857 -15.77014351
v 0.00000000 -18.65684700 -15.42261791
v 0.00000000 -19.68603897 -16.25969315
v 0.00000000 -16.69804192 -15.42277622
v 0.00000000 -17.34220314 -15.24222851
v 0.00000000 -18.01188469 -15.24201393
v 0.00000000 -15.36097336 -16.85483170
v 0.00000000 -15.66894436 -16.26027298
v 0.00000000 -16.12559509 -15.77108383
v 0.00000000 -15.27060986 -18.17795181
v 0.00000000 -15.22491169 -17.51064682
v 0.00000000 -15.49516296 -18.80934715
v 0.00000000 -15.88130665 -19.35607147
v 0.00000000 -16.40063286 -19.77846527
v 0.00000000 -17.01512718 -20.04515076
v 0.00000000 17.01374435 -20.04479027
v 0.00000000 17.67766953 -20.13616943
v 0.00000000 15.49449921 -18.80803108
v 0.00000000 15.88068390 -19.35547447
v 0.00000000 16.39978790 -19.77789307
v 0.00000000 15.36140442 -16.85375977
v 0.00000000 15.22496986 -17.50928688
v 0.00000000 15.27057743 -18.17770386
v 0.00000000 16.12676048 -15.77014351
v 0.00000000 16.69849205 -15.42261791
v 0.00000000 15.66930103 -16.25969315
v 0.00000000 18.65729713 -15.42277622
v 0.00000000 18.01313591 -15.24222851
v 0.00000000 17.34345436 -15.24201393
v 0.00000000 19.99436569 -16.85483170
v 0.00000000 19.68639565 -16.26027298
v 0.00000000 19.22974396 -15.77108383
v 0.00000000 20.08473015 -18.17795181
v 0.00000000 20.13042641 -17.51064682
v 0.00000000 19.86017609 -18.80934715
v 0.00000000 19.47403336 -19.35607147
v 0.00000000 18.95470619 -19.77846527
v 0.00000000 18.34021187 -20.04515076
v 0.00000000 24.33607483 -2.36712146
v 0.00000000 25.00000000 -2.45849991
v 0.00000000 22.81682968 -1.13036203
v 0.00000000 23.20301437 -1.67780495
v 0.00000000 23.72211838 -2.10022449
v 0.00000000 22.68373489 0.82391047
v 0.00000000 22.54730034 0.16838267
v 0.00000000 22.59290886 -0.50003421
v 0.00000000 23.44909096 1.90752602
v 0.00000000 24.02082253 2.25505209
v 0.00000000 22.99163055 1.41797590
v 0.00000000 25.97962761 2.25489330
v 0.00000000 25.33546638 2.43544078
v 0.00000000 24.66578484 2.43565536
v 0.00000000 27.31669617 0.82283735
v 0.00000000 27.00872612 1.41739666
v 0.00000000 26.55207443 1.90658581
v 0.00000000 27.40706062 -0.50028163
v 0.00000000 27.45275688 0.16702329
v 0.00000000 27.18250656 -1.13167810
v 0.00000000 26.79636383 -1.67840111
v 0.00000000 26.27703667 -2.10079575
v 0.00000000 25.66254234 -2.36748147
v 0.00000000 17.01374435 15.31054783
v 0.00000000 17.67766953 15.21916962
v 0.00000000 15.49449921 16.54730797
v 0.00000000 15.88068390 15.99986458
v 0.00000000 16.39978790 15.57744503
v 0.00000000 15.36140442 18.50157928
v 0.00000000 15.22496986 17.84605217
v 0.00000000 15.27057743 17.17763519
v 0.00000000 16.12676048 19.58519554
v 0.00000000 16.69849205 19.93272209
v 0.00000000 15.66930103 19.09564590
v 0.00000000 18.65729713 19.93256378
v 0.00000000 18.01313591 20.11310959
v 0.00000000 17.34345436 20.11332512
v 0.00000000 19.99436569 18.50050735
v 0.00000000 19.68639565 19.09506607
v 0.00000000 19.22974396 19.58425522
v 0.00000000 20.08473015 17.17738724
v 0.00000000 20.13042641 17.84469223
v 0.00000000 19.86017609 16.54599190
v 0.00000000 19.47403336 15.99926853
v 0.00000000 18.95470619 15.57687378
v 0.00000000 18.34021187 15.31018829
v 0.00000000 -0.66392499 -27.36712074
v 0.00000000 0.00000000 -27.45849991
v 0.00000000 -2.18317032 -26.13036156
v 0.00000000 -1.79698539 -26.67780495
v 0.00000000 -1.27788222 -27.10022354
v 0.00000000 -2.31626511 -24.17609024
v 0.00000000 -2.45269990 -24.83161736
v 0.00000000 -2.40709186 -25.50003433
v 0.00000000 -1.55090904 -23.09247398
v 0.00000000 -0.97917789 -22.74494743
v 0.00000000 -2.00836897 -23.58202362
v 0.00000000 0.97962689 -22.74510574
v 0.00000000 0.33546668 -22.56455994
v 0.00000000 -0.33421504 -22.56434441
v 0.00000000 2.31669617 -24.17716217
v 0.00000000 2.00872564 -23.58260345
v 0.00000000 1.55207348 -23.09341431
v 0.00000000 2.40706015 -25.50028229
v 0.00000000 2.45275760 -24.83297729
v 0.00000000 2.18250656 -26.13167763
v 0.00000000 1.79636323 -26.67840195
v 0.00000000 1.27703679 -27.10079575
v 0.00000000 0.66254240 -27.36748123
v 0.00000000 0.00091489 27.99994087
v 0.00000000 -0.66691446 27.92486191
v 0.00000000 -1.30134034 27.70304871
v 0.00000000 -1.86974168 27.34600830
v 0.00000000 -2.34498119 26.87099457
v 0.00000000 -2.70279098 26.30188370
v 0.00000000 -2.92454815 25.66838455
v 0.00000000 -2.99992347 25.00079918
v 0.00000000 -2.92482090 24.33260727
v 0.00000000 -2.70322204 23.69909668
v 0.00000000 -2.34596467 23.13024521
v 0.00000000 -1.87053740 22.65456009
v 0.00000000 -1.30232179 22.29745483
v 0.00000000 -0.66841483 22.07548904
v 0.00000000 0.00000000 22.00000000
v 0.00000000 0.66797262 27.92468071
v 0.00000000 1.30212271 27.70261192
v 0.00000000 1.87115812 27.34486389
v 0.00000000 2.34579539 26.87006950
v 0.00000000 2.70305204 26.30123329
v 0.00000000 2.92492580 25.66663361
v 0.00000000 2.99998164 24.99942780
v 0.00000000 2.92467880 24.33214188
v 0.00000000 2.70243597 23.69753838
v 0.00000000 2.34507656 23.12904358
v 0.00000000 1.87032855 22.65441895
v 0.00000000 1.30079055 22.29676247
v 0.00000000 0.66687000 22.07508850
v 0.00000000 -16.69279099 -1.38320398
v 0.00000000 0.00000000 16.75000000
v 0.00000000 -2.75695944 16.52155113
v 0.00000000 -16.23745537 -4.11188173
v 0.00000000 -15.33920288 -6.72839832
v 0.00000000 -14.02253819 -9.16138172
v 0.00000000 -12.32337570 -11.34446621
v 0.00000000 -10.28806305 -13.21810341
v 0.00000000 -7.97211885 -14.73118496
v 0.00000000 -5.43871593 -15.84243870
v 0.00000000 -2.75695944 -16.52155113
v 0.00000000 -0.00000000 -16.75000000
v 0.00000000 -16.69279099 1.38320398
v 0.00000000 -16.23745537 4.11188173
v 0.00000000 -15.33920288 6.72839832
v 0.00000000 -14.02253819 9.16138172
v 0.00000000 -12.32337570 11.34446621
v 0.00000000 -10.28806305 13.21810341
v 0.00000000 -7.97211885 14.73118496
v 0.00000000 -5.43871593 15.84243870
v 0.00000000 5.43871593 15.84243870
v 0.00000000 2.75695944 16.52155113
v 0.00000000 12.32337570 11.34446621
v 0.00000000 10.28806305 13.21810341
v 0.00000000 7.97211885 14.73118496
v 0.00000000 16.23745537 4.11188173
v 0.00000000 14.02253819 9.16138172
v 0.00000000 15.33920288 6.72839832
v 0.00000000 16.23745537 -4.11188173
v 0.00000000 16.69279099 -1.38320398
v 0.00000000 16.69279099 1.38320398
v 0.00000000 12.32337570 -11.34446621
v 0.00000000 14.02253819 -9.16138172
v 0.00000000 15.33920288 -6.72839832
v 0.00000000 10.28806305 -13.21810341
v 0.00000000 7.97211885 -14.73118496
v 0.00000000 5.43871593 -15.84243870
v 0.00000000 2.75695944 -16.52155113
v 0.00000000 -17.07923126 -25.26954460
v 0.00000000 27.23423958 -13.73121452
v 0.00000000 24.52191162 -18.13631248
v 0.00000000 21.10413551 -22.01966095
v 0.00000000 14.87469578 26.62693024
v 0.00000000 -21.10413551 -22.01966095
v 0.00000000 -28.30061531 11.37212276
v 0.00000000 12.56298828 -27.79246902
v 0.00000000 -29.16308594 -8.93109417
v 0.00000000 -27.23423958 -13.73121452
v 0.00000000 -30.47251892 1.29445672
v 0.00000000 -30.25296402 -3.87404346
v 0.00000000 -25.97163963 15.99137211
v 0.00000000 -22.89550591 20.15057945
v 0.00000000 5.15452480 30.06128502
v 0.00000000 -12.56298828 -27.79246902
v 0.00000000 10.16076374 28.75776291
v 0.00000000 28.30061531 11.37212276
v 0.00000000 -14.87469578 26.62693024
v 0.00000000 -10.16076374 28.75776291
v 0.00000000 -19.16070938 23.73009109
v 0.00000000 29.81543541 6.42571783
v 0.00000000 -5.15452480 30.06128502
v 0.00000000 -29.81543541 6.42571783
v 0.00000000 2.58658075 -30.39012337
v 0.00000000 -2.58658075 -30.39012337
v 0.00000000 17.07923126 -25.26954460
v 0.00000000 30.47251892 1.29445672
v 0.00000000 -24.52191162 -18.13631248
v 0.00000000 29.16308594 -8.93109417
v 0.00000000 25.97163963 15.99137211
v 0.00000000 7.68533087 -29.51585579
v 0.00000000 30.25296402 -3.87404346
v 0.00000000 19.16070938 23.73009109
v 0.00000000 22.89550591 20.15057945
v 0.00000000 -7.68533087 -29.51585579
v 0.00000000 0.00000000 30.50000000
v -1.00000000 0.00000000 -31.50000000
v -1.00000000 -5.18472958 -31.07038116
v -1.00000000 -0.00000000 31.50000000
v -1.00000000 5.18472958 31.07038116
v -1.00000000 -10.22803307 -29.79324341
v -1.00000000 -14.99234295 -27.70342255
v -1.00000000 -19.34770012 -24.85792542
v -1.00000000 -23.17530251 -21.33436966
v -1.00000000 -26.37074471 -17.22886658
v -1.00000000 -28.84685898 -12.65340614
v -1.00000000 -30.53610802 -7.73279285
v -1.00000000 -31.39241219 -2.60124946
v -1.00000000 -31.39241219 2.60124946
v -1.00000000 -30.53610802 7.73279285
v -1.00000000 -28.84685898 12.65340614
v -1.00000000 -26.37074471 17.22886658
v -1.00000000 -23.17530251 21.33436966
v -1.00000000 -19.34770012 24.85792542
v -1.00000000 -14.99234295 27.70342255
v -1.00000000 -10.22803307 29.79324341
v -1.00000000 -5.18472958 31.07038116
v -1.00000000 5.18472958 -31.07038116
v -1.00000000 10.22803307 -29.79324341
v -1.00000000 14.99234295 -27.70342255
v -1.00000000 19.34770012 -24.85792542
v -1.00000000 23.17530251 -21.33436966
v -1.00000000 26.37074471 -17.22886658
v -1.00000000 28.84685898 -12.65340614
v -1.00000000 30.53610802 -7.73279285
v -1.00000000 31.39241219 -2.60124946
v -1.00000000 31.39241219 2.60124946
v -1.00000000 30.53610802 7.73279285
v -1.00000000 28.84685898 12.65340614
v -1.00000000 26.37074471 17.22886658
v -1.00000000 23.17530251 21.33436966
v -1.00000000 19.34770012 24.85792542
v -1.00000000 14.99234295 27.70342255
v -1.00000000 10.22803307 29.79324341
v -6.00000000 31.48715401 -0.89951563
v -6.00000000 -3.04018855 31.35294724
v -6.00000000 2.28169632 31.41725349
v -6.00000000 30.87260056 -6.25559950
v -6.00000000 29.35371780 -11.42844296
v -6.00000000 26.97499466 -16.26651955
v -6.00000000 23.80611229 -20.62811279
v -6.00000000 19.93989182 -24.38545990
v -6.00000000 15.48958683 -27.42850113
v -6.00000000 10.58555603 -29.66809654
v -6.00000000 5.37144899 -31.03864670
v -6.00000000 0.00000000 -31.50000000
v -6.00000000 31.17937469 4.48291731
v -6.00000000 29.95828056 9.73403549
v -6.00000000 27.89186478 14.63877964
v -6.00000000 25.02919769 19.12561989
v -6.00000000 21.45199966 23.06646347
v -6.00000000 17.26239395 26.34881020
v -6.00000000 12.57998466 28.87895393
v -6.00000000 7.53844357 30.58466721
v -6.00000000 -17.89403915 25.92399216
v -6.00000000 -13.27413464 28.56654167
v -6.00000000 -8.27528286 30.39357948
v -6.00000000 -25.48403549 18.51523590
v -6.00000000 -28.23744774 13.96053410
v -6.00000000 -22.00310707 22.54136658
v -6.00000000 -31.27033043 3.79690552
v -6.00000000 -31.46321487 -1.52187145
v -6.00000000 -30.18474388 9.00728893
v -6.00000000 -26.75823975 -16.62066841
v -6.00000000 -29.17450142 -11.87848759
v -6.00000000 -30.75789452 -6.79720211
v -6.00000000 -19.72483444 -24.55974197
v -6.00000000 -23.57808876 -20.88836288
v -6.00000000 -15.30847740 -27.52999306
v -6.00000000 -10.45509720 -29.71432304
v -6.00000000 -5.30324697 -31.05037117
v -6.50000000 27.40316963 -16.52471924
v -6.50000000 -0.00000000 -32.00000000
v -6.50000000 5.45671034 -31.53132248
v -6.50000000 -5.38742542 -31.54323387
v -6.50000000 29.81964874 -11.60984612
v -6.50000000 31.36264229 -6.35489511
v -6.50000000 -18.17807198 26.33548355
v -6.50000000 31.98694992 -0.91379362
v -6.50000000 31.67428589 4.55407476
v -6.50000000 30.43380928 9.88854408
v -6.50000000 24.18398666 -20.95554352
v -6.50000000 20.25639915 -24.77253151
v -6.50000000 15.73545361 -27.86387444
v -6.50000000 10.75358105 -30.13901901
v -6.50000000 -10.62105083 -30.18597794
v -6.50000000 -23.95234489 -21.21992493
v -6.50000000 -20.03792572 -24.94957924
v -6.50000000 -15.55146885 -27.96697617
v -6.50000000 -31.24611473 -6.90509415
v -6.50000000 -27.18297386 -16.88448715
v -6.50000000 -29.63758850 -12.06703472
v -6.50000000 -30.66386604 9.15026188
v -6.50000000 -31.76668358 3.85717368
v -6.50000000 -31.96263123 -1.54602814
v -6.50000000 -22.35236359 22.89916611
v -6.50000000 -25.88854408 18.80912781
v -6.50000000 -28.68566132 14.18212986
v -6.50000000 -8.40663624 30.87601852
v -6.50000000 -13.48483562 29.01997948
v -6.50000000 2.31791353 31.91594124
v -6.50000000 7.65810108 31.07013893
v -6.50000000 -3.08844543 31.85061264
v -6.50000000 12.77966690 29.33735085
v -6.50000000 17.53639984 26.76704407
v -6.50000000 21.79250717 23.43259811
v -6.50000000 25.42648506 19.42920113
v -6.50000000 28.33459282 14.87114143
v -11.00000000 46.59999847 12.00000000
v -11.14683056 46.59999847 12.92705059
v -11.03693485 46.59999847 12.46930313
v -40.85316849 46.59999847 -12.92705059
v -41.00000000 46.59999847 -12.00000000
v -40.67301941 46.59999847 -13.36197186
v -11.32698059 46.59999847 13.36197186
v -11.87867928 46.59999847 14.12132072
v -11.57294941 46.59999847 13.76335621
v -14.00000000 46.59999847 15.00000000
v -12.23664379 46.59999847 14.42705059
v -13.07294941 46.59999847 14.85316944
v -12.63802814 46.59999847 14.67301941
v -13.53069687 46.59999847 14.96306515
v -38.00000000 46.59999847 -15.00000000
v -26.00000000 46.59999847 -7.94999981
v -14.00000000 46.59999847 -15.00000000
v -32.88490295 46.59999847 3.97499990
v -32.88490295 46.59999847 -3.97499990
v -40.67301941 46.59999847 13.36197186
v -40.42705154 46.59999847 13.76335621
v -39.76335526 46.59999847 14.42705059
v -40.12131882 46.59999847 14.12132072
v -39.36197281 46.59999847 14.67301941
v -40.85316849 46.59999847 12.92705059
v -38.92705154 46.59999847 14.85316944
v -40.96306610 46.59999847 12.46930313
v -38.46930313 46.59999847 14.96306515
v -38.00000000 46.59999847 15.00000000
v -41.00000000 46.59999847 12.00000000
v -19.11509895 46.59999847 -3.97499990
v -40.96306610 46.59999847 -12.46930313
v -19.11509895 46.59999847 3.97499990
v -26.00000000 46.59999847 7.94999981
v -40.42705154 46.59999847 -13.76335621
v -39.76335526 46.59999847 -14.42705059
v -40.12131882 46.59999847 -14.12132072
v -38.92705154 46.59999847 -14.85316944
v -39.36197281 46.59999847 -14.67301941
v -38.46930313 46.59999847 -14.96306515
v -11.00000000 46.59999847 -12.00000000
v -11.03693485 46.59999847 -12.46930313
v -11.14683056 46.59999847 -12.92705059
v -13.07294941 46.59999847 -14.85316944
v -13.53069687 46.59999847 -14.96306515
v -11.57294941 46.59999847 -13.76335621
v -11.87867928 46.59999847 -14.12132072
v -12.23664379 46.59999847 -14.42705059
v -12.63802814 46.59999847 -14.67301941
v -11.32698059 46.59999847 -13.36197186
v -11.87867928 43.59999847 -14.12132072
v -12.23664379 43.59999847 -14.42705059
v -12.63802814 43.59999847 -14.67301941
v -13.07294941 43.59999847 -14.85316944
v -13.53069687 43.59999847 -14.96306515
v -14.00000000 43.59999847 -15.00000000
v -11.57294941 43.59999847 -13.76335621
v -11.32698059 43.59999847 -13.36197186
v -11.14683056 43.59999847 -12.92705059
v -11.03693485 43.59999847 -12.46930313
v -11.00000000 43.59999847 -12.00000000
v -38.00000000 43.59999847 -15.00000000
v -40.12131882 43.59999847 -14.12132072
v -40.42705154 43.59999847 -13.76335621
v -40.67301941 43.59999847 -13.36197186
v -40.85316849 43.59999847 -12.92705059
v -40.96306610 43.59999847 -12.46930313
v -41.00000000 43.59999847 -12.00000000
v -39.76335526 43.59999847 -14.42705059
v -39.36197281 43.59999847 -14.67301941
v -38.92705154 43.59999847 -14.85316944
v -38.46930313 43.59999847 -14.96306515
v -41.00000000 43.59999847 12.00000000
v -40.12131882 43.59999847 14.12132072
v -39.76335526 43.59999847 14.42705059
v -39.36197281 43.59999847 14.67301941
v -38.92705154 43.59999847 14.85316944
v -38.46930313 43.59999847 14.96306515
v -38.00000000 43.59999847 15.00000000
v -40.42705154 43.59999847 13.76335621
v -40.67301941 43.59999847 13.36197186
v -40.85316849 43.59999847 12.92705059
v -40.96306610 43.59999847 12.46930313
v -14.00000000 43.59999847 15.00000000
v -11.87867928 43.59999847 14.12132072
v -11.57294941 43.59999847 13.76335621
v -11.32698059 43.59999847 13.36197186
v -11.14683056 43.59999847 12.92705059
v -11.03693485 43.59999847 12.46930313
v -11.00000000 43.59999847 12.00000000
v -12.23664379 43.59999847 14.42705059
v -12.63802814 43.59999847 14.67301941
v -13.07294941 43.59999847 14.85316944
v -13.53069687 43.59999847 14.96306515
v -26.00000000 48.40000153 7.94999981
v -32.88490295 48.40000153 3.97499990
v -19.11509895 48.40000153 3.97499990
v -19.11509895 48.40000153 -3.97499990
v -26.00000000 48.40000153 -7.94999981
v -32.88490295 48.40000153 -3.97499990
v -28.92707634 48.40000153 5.40876341
v -23.07292366 48.40000153 -5.40876341
v -28.92707634 48.40000153 -5.40876341
v -32.12899399 48.40000153 -0.50786299
v -32.12899399 48.40000153 0.50786299
v -20.85142708 48.40000153 3.36373115
v -21.47529793 48.40000153 4.16528177
v -19.87100601 48.40000153 -0.50786299
v -19.87100601 48.40000153 0.50786299
v -27.99690247 48.40000153 5.81677580
v -27.01225662 48.40000153 6.06612206
v -26.00000000 48.40000153 6.15000010
v -30.52470207 48.40000153 4.16528177
v -29.77740860 48.40000153 4.85321426
v -31.63200569 48.40000153 2.47042680
v -31.14857292 48.40000153 3.36373115
v -31.96181107 48.40000153 1.50973570
v -31.63200569 48.40000153 -2.47042680
v -31.96181107 48.40000153 -1.50973570
v -30.52470207 48.40000153 -4.16528177
v -31.14857292 48.40000153 -3.36373115
v -29.77740860 48.40000153 -4.85321426
v -27.01225662 48.40000153 -6.06612206
v -27.99690247 48.40000153 -5.81677580
v -26.00000000 48.40000153 -6.15000010
v -24.00309753 48.40000153 -5.81677580
v -24.98774338 48.40000153 -6.06612206
v -21.47529793 48.40000153 -4.16528177
v -22.22259140 48.40000153 -4.85321426
v -20.36799431 48.40000153 -2.47042680
v -20.85142708 48.40000153 -3.36373115
v -20.03818893 48.40000153 -1.50973570
v -20.36799431 48.40000153 2.47042680
v -20.03818893 48.40000153 1.50973570
v -23.07292366 48.40000153 5.40876341
v -22.22259140 48.40000153 4.85321426
v -24.98774338 48.40000153 6.06612206
v -24.00309753 48.40000153 5.81677580
v -32.12899399 51.40000153 -0.50786299
v -26.00000000 51.40000153 6.15000010
v -31.96181107 51.40000153 -1.50973570
v -31.63200569 51.40000153 -2.47042680
v -31.14857292 51.40000153 -3.36373115
v -30.52470207 51.40000153 -4.16528177
v -29.77740860 51.40000153 -4.85321426
v -28.92707634 51.40000153 -5.40876341
v -27.99690247 51.40000153 -5.81677580
v -27.01225662 51.40000153 -6.06612206
v -26.00000000 51.40000153 -6.15000010
v -32.12899399 51.40000153 0.50786299
v -31.96181107 51.40000153 1.50973570
v -31.63200569 51.40000153 2.47042680
v -31.14857292 51.40000153 3.36373115
v -30.52470207 51.40000153 4.16528177
v -29.77740860 51.40000153 4.85321426
v -28.92707634 51.40000153 5.40876341
v -27.99690247 51.40000153 5.81677580
v -27.01225662 51.40000153 6.06612206
v -24.00309753 51.40000153 5.81677580
v -24.98774338 51.40000153 6.06612206
v -21.47529793 51.40000153 4.16528177
v -22.22259140 51.40000153 4.85321426
v -23.07292366 51.40000153 5.40876341
v -20.36799431 51.40000153 2.47042680
v -20.03818893 51.40000153 1.50973570
v -20.85142708 51.40000153 3.36373115
v -20.03818893 51.40000153 -1.50973570
v -19.87100601 51.40000153 -0.50786299
v -19.87100601 51.40000153 0.50786299
v -21.47529793 51.40000153 -4.16528177
v -20.85142708 51.40000153 -3.36373115
v -20.36799431 51.40000153 -2.47042680
v -22.22259140 51.40000153 -4.85321426
v -23.07292366 51.40000153 -5.40876341
v -24.00309753 51.40000153 -5.81677580
v -24.98774338 51.40000153 -6.06612206
v -21.98160172 51.40000153 -2.62535119
v -22.46852493 51.40000153 -3.25095153
v -21.34687805 51.40000153 1.17833030
v -21.60428810 51.40000153 1.92813802
v -21.21639442 51.40000153 0.39638087
v -21.98160172 51.40000153 2.62535119
v -21.21639442 51.40000153 -0.39638087
v -22.46852493 51.40000153 3.25095153
v -21.34687805 51.40000153 -1.17833030
v -23.05177879 51.40000153 3.78787446
v -21.60428810 51.40000153 -1.92813802
v -23.71545219 51.40000153 4.22147417
v -24.44144249 51.40000153 4.53992271
v -26.79005432 51.40000153 4.73453426
v -23.71545219 51.40000153 -4.22147417
v -26.00000000 51.40000153 -4.80000019
v -28.28454781 51.40000153 -4.22147417
v -28.28454781 51.40000153 4.22147417
v -30.01839828 51.40000153 -2.62535119
v -30.39571190 51.40000153 1.92813802
v -30.01839828 51.40000153 2.62535119
v -30.78360558 51.40000153 -0.39638087
v -30.65312195 51.40000153 -1.17833030
v -30.78360558 51.40000153 0.39638087
v -30.39571190 51.40000153 -1.92813802
v -30.65312195 51.40000153 1.17833030
v -29.53147507 51.40000153 -3.25095153
v -29.53147507 51.40000153 3.25095153
v -28.94822121 51.40000153 -3.78787446
v -27.55855751 51.40000153 -4.53992271
v -28.94822121 51.40000153 3.78787446
v -26.79005432 51.40000153 -4.73453426
v -25.20994568 51.40000153 -4.73453426
v -27.55855751 51.40000153 4.53992271
v -26.00000000 51.40000153 4.80000019
v -24.44144249 51.40000153 -4.53992271
v -23.05177879 51.40000153 -3.78787446
v -25.20994568 51.40000153 4.73453426
v -30.78360558 62.50000000 -0.39638087
v -26.00000000 62.50000000 4.80000019
v -30.65312195 62.50000000 -1.17833030
v -30.39571190 62.50000000 -1.92813802
v -30.01839828 62.50000000 -2.62535119
v -29.53147507 62.50000000 -3.25095153
v -28.94822121 62.50000000 -3.78787446
v -28.28454781 62.50000000 -4.22147417
v -27.55855751 62.50000000 -4.53992271
v -26.79005432 62.50000000 -4.73453426
v -26.00000000 62.50000000 -4.80000019
v -30.78360558 62.50000000 0.39638087
v -30.65312195 62.50000000 1.17833030
v -30.39571190 62.50000000 1.92813802
v -30.01839828 62.50000000 2.62535119
v -29.53147507 62.50000000 3.25095153
v -28.94822121 62.50000000 3.78787446
v -28.28454781 62.50000000 4.22147417
v -27.55855751 62.50000000 4.53992271
v -26.79005432 62.50000000 4.73453426
v -24.44144249 62.50000000 4.53992271
v -25.20994568 62.50000000 4.73453426
v -22.46852493 62.50000000 3.25095153
v -23.05177879 62.50000000 3.78787446
v -23.71545219 62.50000000 4.22147417
v -21.60428810 62.50000000 1.92813802
v -21.34687805 62.50000000 1.17833030
v -21.98160172 62.50000000 2.62535119
v -21.34687805 62.50000000 -1.17833030
v -21.21639442 62.50000000 -0.39638087
v -21.21639442 62.50000000 0.39638087
v -22.46852493 62.50000000 -3.25095153
v -21.98160172 62.50000000 -2.62535119
v -21.60428810 62.50000000 -1.92813802
v -23.05177879 62.50000000 -3.78787446
v -23.71545219 62.50000000 -4.22147417
v -24.44144249 62.50000000 -4.53992271
v -25.20994568 62.50000000 -4.73453426
v -26.00000000 -45.59999847 5.69999981
v -30.93634415 -48.00000000 2.84999990
v -26.00000000 -48.00000000 5.69999981
v -30.93634415 -45.59999847 2.84999990
v -30.93634415 -48.00000000 -2.84999990
v -30.93634415 -45.59999847 -2.84999990
v -26.00000000 -48.00000000 -5.69999981
v -26.00000000 -45.59999847 -5.69999981
v -21.06365585 -48.00000000 -2.84999990
v -21.06365585 -45.59999847 -2.84999990
v -21.06365585 -48.00000000 2.84999990
v -21.06365585 -45.59999847 2.84999990
v -23.51243782 -48.00000000 -3.19601917
v -24.07241249 -48.00000000 -3.56186867
v -27.92758751 -48.00000000 -3.56186867
v -24.07241249 -48.00000000 3.56186867
v -21.96383286 -48.00000000 0.33444634
v -21.96383286 -48.00000000 -0.33444634
v -30.03616714 -48.00000000 -0.33444634
v -30.03616714 -48.00000000 0.33444634
v -24.68496704 -48.00000000 3.83055973
v -25.33339119 -48.00000000 3.99476337
v -26.00000000 -48.00000000 4.05000019
v -23.02031898 -48.00000000 2.74299026
v -23.51243782 -48.00000000 3.19601917
v -22.29111862 -48.00000000 1.62686646
v -22.60947609 -48.00000000 2.21514010
v -22.07392883 -48.00000000 0.99421620
v -22.07392883 -48.00000000 -0.99421620
v -22.60947609 -48.00000000 -2.21514010
v -22.29111862 -48.00000000 -1.62686646
v -23.02031898 -48.00000000 -2.74299026
v -24.68496704 -48.00000000 -3.83055973
v -26.00000000 -48.00000000 -4.05000019
v -25.33339119 -48.00000000 -3.99476337
v -27.31503296 -48.00000000 -3.83055973
v -26.66660881 -48.00000000 -3.99476337
v -28.97968102 -48.00000000 -2.74299026
v -28.48756218 -48.00000000 -3.19601917
v -29.70888138 -48.00000000 -1.62686646
v -29.39052391 -48.00000000 -2.21514010
v -29.92607117 -48.00000000 -0.99421620
v -29.92607117 -48.00000000 0.99421620
v -29.39052391 -48.00000000 2.21514010
v -29.70888138 -48.00000000 1.62686646
v -27.92758751 -48.00000000 3.56186867
v -28.48756218 -48.00000000 3.19601917
v -28.97968102 -48.00000000 2.74299026
v -27.31503296 -48.00000000 3.83055973
v -26.66660881 -48.00000000 3.99476337
v -21.96383286 -51.59999847 -0.33444634
v -26.00000000 -51.59999847 4.05000019
v -22.07392883 -51.59999847 -0.99421620
v -22.29111862 -51.59999847 -1.62686646
v -22.60947609 -51.59999847 -2.21514010
v -23.02031898 -51.59999847 -2.74299026
v -23.51243782 -51.59999847 -3.19601917
v -24.07241249 -51.59999847 -3.56186867
v -24.68496704 -51.59999847 -3.83055973
v -25.33339119 -51.59999847 -3.99476337
v -26.00000000 -51.59999847 -4.05000019
v -21.96383286 -51.59999847 0.33444634
v -22.07392883 -51.59999847 0.99421620
v -22.29111862 -51.59999847 1.62686646
v -22.60947609 -51.59999847 2.21514010
v -23.02031898 -51.59999847 2.74299026
v -23.51243782 -51.59999847 3.19601917
v -24.07241249 -51.59999847 3.56186867
v -24.68496704 -51.59999847 3.83055973
v -25.33339119 -51.59999847 3.99476337
v -27.31503296 -51.59999847 3.83055973
v -26.66660881 -51.59999847 3.99476337
v -28.97968102 -51.59999847 2.74299026
v -28.48756218 -51.59999847 3.19601917
v -27.92758751 -51.59999847 3.56186867
v -29.70888138 -51.59999847 1.62686646
v -29.92607117 -51.59999847 0.99421620
v -29.39052391 -51.59999847 2.21514010
v -29.92607117 -51.59999847 -0.99421620
v -30.03616714 -51.59999847 -0.33444634
v -30.03616714 -51.59999847 0.33444634
v -28.97968102 -51.59999847 -2.74299026
v -29.39052391 -51.59999847 -2.21514010
v -29.70888138 -51.59999847 -1.62686646
v -28.48756218 -51.59999847 -3.19601917
v -27.92758751 -51.59999847 -3.56186867
v -27.31503296 -51.59999847 -3.83055973
v -26.66660881 -51.59999847 -3.99476337
v -28.51149940 -51.59999847 -1.64084446
v -28.20717239 -51.59999847 -2.03184462
v -28.90820122 -51.59999847 0.73645645
v -28.74732018 -51.59999847 1.20508623
v -28.98975372 -51.59999847 0.24773803
v -28.51149940 -51.59999847 1.64084446
v -28.98975372 -51.59999847 -0.24773803
v -28.20717239 -51.59999847 2.03184462
v -28.90820122 -51.59999847 -0.73645645
v -27.84263802 -51.59999847 2.36742163
v -28.74732018 -51.59999847 -1.20508623
v -27.42784309 -51.59999847 2.63842130
v -26.97409821 -51.59999847 2.83745170
v -25.50621605 -51.59999847 2.95908380
v -27.42784309 -51.59999847 -2.63842130
v -26.00000000 -51.59999847 -3.00000000
v -24.57215691 -51.59999847 -2.63842130
v -24.57215691 -51.59999847 2.63842130
v -23.48850060 -51.59999847 -1.64084446
v -23.25267982 -51.59999847 1.20508623
v -23.48850060 -51.59999847 1.64084446
v -23.01024628 -51.59999847 -0.24773803
v -23.09179878 -51.59999847 -0.73645645
v -23.01024628 -51.59999847 0.24773803
v -23.25267982 -51.59999847 -1.20508623
v -23.09179878 -51.59999847 0.73645645
v -23.79282761 -51.59999847 -2.03184462
v -23.79282761 -51.59999847 2.03184462
v -24.15736198 -51.59999847 -2.36742163
v -25.02590179 -51.59999847 -2.83745170
v -24.15736198 -51.59999847 2.36742163
v -25.50621605 -51.59999847 -2.95908380
v -26.49378395 -51.59999847 -2.95908380
v -25.02590179 -51.59999847 2.83745170
v -26.00000000 -51.59999847 3.00000000
v -26.97409821 -51.59999847 -2.83745170
v -26.49378395 -51.59999847 2.95908380
v -27.84263802 -51.59999847 -2.36742163
v -23.01024628 -54.59999847 -0.24773803
v -26.00000000 -54.59999847 3.00000000
v -23.09179878 -54.59999847 -0.73645645
v -23.25267982 -54.59999847 -1.20508623
v -23.48850060 -54.59999847 -1.64084446
v -23.79282761 -54.59999847 -2.03184462
v -24.15736198 -54.59999847 -2.36742163
v -24.57215691 -54.59999847 -2.63842130
v -25.02590179 -54.59999847 -2.83745170
v -25.50621605 -54.59999847 -2.95908380
v -26.00000000 -54.59999847 -3.00000000
v -23.01024628 -54.59999847 0.24773803
v -23.09179878 -54.59999847 0.73645645
v -23.25267982 -54.59999847 1.20508623
v -23.48850060 -54.59999847 1.64084446
v -23.79282761 -54.59999847 2.03184462
v -24.15736198 -54.59999847 2.36742163
v -24.57215691 -54.59999847 2.63842130
v -25.02590179 -54.59999847 2.83745170
v -25.50621605 -54.59999847 2.95908380
v -26.97409821 -54.59999847 2.83745170
v -26.49378395 -54.59999847 2.95908380
v -28.20717239 -54.59999847 2.03184462
v -27.84263802 -54.59999847 2.36742163
v -27.42784309 -54.59999847 2.63842130
v -28.74732018 -54.59999847 1.20508623
v -28.90820122 -54.59999847 0.73645645
v -28.51149940 -54.59999847 1.64084446
v -28.90820122 -54.59999847 -0.73645645
v -28.98975372 -54.59999847 -0.24773803
v -28.98975372 -54.59999847 0.24773803
v -28.20717239 -54.59999847 -2.03184462
v -28.51149940 -54.59999847 -1.64084446
v -28.74732018 -54.59999847 -1.20508623
v -27.84263802 -54.59999847 -2.36742163
v -27.42784309 -54.59999847 -2.63842130
v -26.97409821 -54.59999847 -2.83745170
v -26.49378395 -54.59999847 -2.95908380
f 1 2 3
f 4 5 6
f 4 6 7
f 8 9 5
f 6 5 9
f 10 8 11
f 8 10 9
f 11 12 13
f 13 10 11
f 14 15 16
f 13 12 17
f 18 19 20
f 21 22 23
f 24 25 26
f 27 28 29
f 30 31 32
f 33 34 35
f 36 33 37
f 37 29 36
f 33 36 34
f 30 28 27
f 27 29 37
f 32 28 30
f 24 26 31
f 26 32 31
f 19 25 20
f 25 24 20
f 21 18 22
f 19 18 21
f 23 1 3
f 22 1 23
f 2 14 16
f 2 16 3
f 12 15 17
f 17 15 14
f 38 39 40
f 41 40 42
f 39 42 40
f 43 44 41
f 41 42 43
f 44 45 46
f 45 44 43
f 47 46 48
f 45 48 46
f 49 50 47
f 47 48 49
f 50 51 52
f 51 50 49
f 53 52 54
f 51 54 52
f 55 56 53
f 53 54 55
f 56 57 58
f 57 56 55
f 59 58 60
f 57 60 58
f 61 62 59
f 59 60 61
f 62 63 64
f 63 62 61
f 65 64 66
f 63 66 64
f 67 68 65
f 65 66 67
f 68 69 70
f 69 68 67
f 71 70 72
f 69 72 70
f 73 74 71
f 71 72 73
f 75 74 73
f 75 76 74
f 39 38 77
f 78 79 77
f 77 38 78
f 79 80 81
f 80 79 78
f 82 81 83
f 80 83 81
f 84 85 82
f 82 83 84
f 85 86 87
f 86 85 84
f 88 87 89
f 86 89 87
f 90 91 88
f 88 89 90
f 91 92 93
f 92 91 90
f 92 94 93
f 95 96 94
f 93 94 96
f 95 97 98
f 98 96 95
f 99 97 100
f 97 99 98
f 101 102 100
f 99 100 102
f 101 103 104
f 104 102 101
f 105 103 106
f 103 105 104
f 107 108 106
f 105 106 108
f 107 109 110
f 110 108 107
f 111 109 112
f 109 111 110
f 111 112 75
f 75 112 76
f 56 113 114
f 76 115 74
f 116 53 114
f 56 114 53
f 116 117 52
f 52 53 116
f 50 117 118
f 117 50 52
f 119 47 118
f 50 118 47
f 119 120 46
f 46 47 119
f 44 120 121
f 120 44 46
f 122 41 121
f 44 121 41
f 122 123 40
f 40 41 122
f 123 38 40
f 38 123 124
f 58 113 56
f 58 59 125
f 125 113 58
f 126 59 62
f 59 126 125
f 64 127 62
f 126 62 127
f 64 65 128
f 128 127 64
f 129 65 68
f 65 129 128
f 70 130 68
f 129 68 130
f 70 71 131
f 131 130 70
f 132 71 74
f 71 132 131
f 132 74 115
f 109 133 134
f 76 112 135
f 136 137 103
f 138 107 106
f 139 97 140
f 101 100 141
f 92 142 143
f 94 144 95
f 145 146 86
f 147 90 89
f 84 148 145
f 145 86 84
f 148 83 149
f 83 148 84
f 150 149 80
f 83 80 149
f 78 124 150
f 150 80 78
f 38 124 78
f 146 147 89
f 146 89 86
f 90 142 92
f 147 142 90
f 94 143 144
f 92 143 94
f 97 95 140
f 95 144 140
f 141 100 139
f 100 97 139
f 136 103 101
f 136 101 141
f 137 138 106
f 137 106 103
f 107 133 109
f 138 133 107
f 112 134 135
f 109 134 112
f 76 135 115
f 151 152 153
f 154 155 156
f 154 156 157
f 158 159 155
f 156 155 159
f 160 158 161
f 158 160 159
f 161 162 163
f 163 160 161
f 164 165 166
f 163 162 164
f 167 168 169
f 170 171 172
f 173 174 175
f 176 177 178
f 179 180 181
f 182 183 184
f 181 185 186
f 187 186 185
f 182 180 179
f 179 181 186
f 174 184 183
f 184 180 182
f 183 175 174
f 177 173 178
f 173 175 178
f 172 176 170
f 177 176 172
f 171 167 169
f 170 167 171
f 168 151 153
f 168 153 169
f 166 165 152
f 166 152 151
f 165 164 162
f 188 189 190
f 188 191 189
f 189 192 193
f 190 189 193
f 189 194 195
f 192 189 195
f 189 196 197
f 194 189 197
f 189 198 199
f 196 189 199
f 189 200 201
f 198 189 201
f 202 200 189
f 203 204 189
f 189 204 202
f 205 206 189
f 189 206 203
f 207 208 189
f 189 208 205
f 209 210 189
f 189 210 207
f 189 191 209
f 211 212 213
f 211 214 212
f 212 215 216
f 213 212 216
f 212 217 218
f 215 212 218
f 212 219 220
f 217 212 220
f 212 221 222
f 219 212 222
f 212 223 224
f 221 212 224
f 225 223 212
f 226 227 212
f 212 227 225
f 228 229 212
f 212 229 226
f 230 231 212
f 212 231 228
f 232 233 212
f 212 233 230
f 212 214 232
f 234 235 236
f 234 237 235
f 235 238 239
f 236 235 239
f 235 240 241
f 238 235 241
f 235 242 243
f 240 235 243
f 235 244 245
f 242 235 245
f 235 246 247
f 244 235 247
f 248 246 235
f 249 250 235
f 235 250 248
f 251 252 235
f 235 252 249
f 253 254 235
f 235 254 251
f 255 256 235
f 235 256 253
f 235 237 255
f 257 258 259
f 257 260 258
f 258 261 262
f 259 258 262
f 258 263 264
f 261 258 264
f 258 265 266
f 263 258 266
f 258 267 268
f 265 258 268
f 258 269 270
f 267 258 270
f 271 269 258
f 272 273 258
f 258 273 271
f 274 275 258
f 258 275 272
f 276 277 258
f 258 277 274
f 278 279 258
f 258 279 276
f 258 260 278
f 280 281 282
f 280 283 281
f 281 284 285
f 282 281 285
f 281 286 287
f 284 281 287
f 281 288 289
f 286 281 289
f 281 290 291
f 288 281 291
f 281 292 293
f 290 281 293
f 294 292 281
f 295 296 281
f 281 296 294
f 297 298 281
f 281 298 295
f 299 300 281
f 281 300 297
f 301 302 281
f 281 302 299
f 281 283 301
f 303 304 305
f 303 306 304
f 304 307 308
f 305 304 308
f 304 309 310
f 307 304 310
f 304 311 312
f 309 304 312
f 304 313 314
f 311 304 314
f 304 315 316
f 313 304 316
f 317 315 304
f 318 319 304
f 304 319 317
f 320 321 304
f 304 321 318
f 322 323 304
f 304 323 320
f 324 325 304
f 304 325 322
f 304 306 324
f 326 327 328
f 326 329 327
f 327 330 331
f 328 327 331
f 327 332 333
f 330 327 333
f 327 334 335
f 332 327 335
f 327 336 337
f 334 327 337
f 327 338 339
f 336 327 339
f 340 338 327
f 341 342 327
f 327 342 340
f 343 344 327
f 327 344 341
f 345 346 327
f 327 346 343
f 347 348 327
f 327 348 345
f 327 329 347
f 187 185 349
f 350 351 162
f 187 352 186
f 352 187 349
f 353 179 186
f 186 352 353
f 182 179 354
f 353 354 179
f 182 355 183
f 355 182 354
f 356 175 183
f 183 355 356
f 178 175 357
f 356 357 175
f 178 358 176
f 358 178 357
f 359 170 176
f 176 358 359
f 167 170 360
f 359 360 170
f 167 361 168
f 361 167 360
f 362 151 168
f 168 361 362
f 166 151 363
f 362 363 151
f 364 166 363
f 365 349 185
f 366 365 181
f 185 181 365
f 366 180 367
f 180 366 181
f 184 368 367
f 367 180 184
f 369 368 174
f 184 174 368
f 369 173 370
f 173 369 174
f 177 371 370
f 370 173 177
f 372 371 172
f 177 172 371
f 372 171 373
f 171 372 172
f 169 374 373
f 373 171 169
f 375 374 153
f 169 153 374
f 375 152 376
f 152 375 153
f 165 377 376
f 376 152 165
f 377 165 351
f 165 162 351
f 378 379 155
f 380 161 158
f 156 381 382
f 154 157 383
f 160 163 384
f 385 159 160
f 164 386 163
f 384 163 386
f 364 164 166
f 164 364 386
f 381 159 385
f 385 160 384
f 157 156 382
f 156 159 381
f 154 383 378
f 157 382 383
f 155 379 158
f 154 378 155
f 380 350 161
f 379 380 158
f 162 161 350
f 387 191 188
f 209 191 388
f 387 388 191
f 209 389 210
f 389 209 388
f 390 207 210
f 210 389 390
f 208 207 391
f 390 391 207
f 208 392 205
f 392 208 391
f 392 393 205
f 394 206 393
f 205 393 206
f 203 394 395
f 394 203 206
f 395 396 204
f 204 203 395
f 397 202 396
f 204 396 202
f 200 397 398
f 397 200 202
f 399 387 188
f 190 400 399
f 399 188 190
f 401 400 193
f 190 193 400
f 401 192 402
f 192 401 193
f 195 403 402
f 402 192 195
f 404 403 194
f 195 194 403
f 404 197 405
f 197 404 194
f 196 406 405
f 405 197 196
f 407 406 199
f 196 199 406
f 407 198 408
f 198 407 199
f 201 409 408
f 408 198 201
f 201 200 409
f 200 398 409
f 410 214 211
f 232 214 411
f 410 411 214
f 232 412 233
f 412 232 411
f 413 230 233
f 233 412 413
f 231 230 414
f 413 414 230
f 231 415 228
f 415 231 414
f 415 416 228
f 417 229 416
f 228 416 229
f 226 417 418
f 417 226 229
f 418 419 227
f 227 226 418
f 420 225 419
f 227 419 225
f 223 420 421
f 420 223 225
f 422 410 211
f 213 423 422
f 422 211 213
f 424 423 216
f 213 216 423
f 424 215 425
f 215 424 216
f 218 426 425
f 425 215 218
f 427 426 217
f 218 217 426
f 427 220 428
f 220 427 217
f 219 429 428
f 428 220 219
f 430 429 222
f 219 222 429
f 430 221 431
f 221 430 222
f 224 432 431
f 431 221 224
f 224 223 432
f 223 421 432
f 433 237 234
f 255 237 434
f 433 434 237
f 255 435 256
f 435 255 434
f 436 253 256
f 256 435 436
f 254 253 437
f 436 437 253
f 254 438 251
f 438 254 437
f 438 439 251
f 440 252 439
f 251 439 252
f 249 440 441
f 440 249 252
f 441 442 250
f 250 249 441
f 443 248 442
f 250 442 248
f 246 443 444
f 443 246 248
f 445 433 234
f 236 446 445
f 445 234 236
f 447 446 239
f 236 239 446
f 447 238 448
f 238 447 239
f 241 449 448
f 448 238 241
f 450 449 240
f 241 240 449
f 450 243 451
f 243 450 240
f 242 452 451
f 451 243 242
f 453 452 245
f 242 245 452
f 453 244 454
f 244 453 245
f 247 455 454
f 454 244 247
f 247 246 455
f 246 444 455
f 456 260 257
f 278 260 457
f 456 457 260
f 278 458 279
f 458 278 457
f 459 276 279
f 279 458 459
f 277 276 460
f 459 460 276
f 277 461 274
f 461 277 460
f 461 462 274
f 463 275 462
f 274 462 275
f 272 463 464
f 463 272 275
f 464 465 273
f 273 272 464
f 466 271 465
f 273 465 271
f 269 466 467
f 466 269 271
f 468 456 257
f 259 469 468
f 468 257 259
f 470 469 262
f 259 262 469
f 470 261 471
f 261 470 262
f 264 472 471
f 471 261 264
f 473 472 263
f 264 263 472
f 473 266 474
f 266 473 263
f 265 475 474
f 474 266 265
f 476 475 268
f 265 268 475
f 476 267 477
f 267 476 268
f 270 478 477
f 477 267 270
f 270 269 478
f 269 467 478
f 479 283 280
f 301 283 480
f 479 480 283
f 301 481 302
f 481 301 480
f 482 299 302
f 302 481 482
f 300 299 483
f 482 483 299
f 300 484 297
f 484 300 483
f 484 485 297
f 486 298 485
f 297 485 298
f 295 486 487
f 486 295 298
f 487 488 296
f 296 295 487
f 489 294 488
f 296 488 294
f 292 489 490
f 489 292 294
f 491 479 280
f 282 492 491
f 491 280 282
f 493 492 285
f 282 285 492
f 493 284 494
f 284 493 285
f 287 495 494
f 494 284 287
f 496 495 286
f 287 286 495
f 496 289 497
f 289 496 286
f 288 498 497
f 497 289 288
f 499 498 291
f 288 291 498
f 499 290 500
f 290 499 291
f 293 501 500
f 500 290 293
f 293 292 501
f 292 490 501
f 502 306 303
f 324 306 503
f 502 503 306
f 324 504 325
f 504 324 503
f 505 322 325
f 325 504 505
f 323 322 506
f 505 506 322
f 323 507 320
f 507 323 506
f 507 508 320
f 509 321 508
f 320 508 321
f 318 509 510
f 509 318 321
f 510 511 319
f 319 318 510
f 512 317 511
f 319 511 317
f 315 512 513
f 512 315 317
f 514 502 303
f 305 515 514
f 514 303 305
f 516 515 308
f 305 308 515
f 516 307 517
f 307 516 308
f 310 518 517
f 517 307 310
f 519 518 309
f 310 309 518
f 519 312 520
f 312 519 309
f 311 521 520
f 520 312 311
f 522 521 314
f 311 314 521
f 522 313 523
f 313 522 314
f 316 524 523
f 523 313 316
f 316 315 524
f 315 513 524
f 525 329 326
f 347 329 526
f 525 526 329
f 347 527 348
f 527 347 526
f 528 345 348
f 348 527 528
f 346 345 529
f 528 529 345
f 346 530 343
f 530 346 529
f 530 531 343
f 532 344 531
f 343 531 344
f 341 532 533
f 532 341 344
f 533 534 342
f 342 341 533
f 535 340 534
f 342 534 340
f 338 535 536
f 535 338 340
f 537 525 326
f 328 538 537
f 537 326 328
f 539 538 331
f 328 331 538
f 539 330 540
f 330 539 331
f 333 541 540
f 540 330 333
f 542 541 332
f 333 332 541
f 542 335 543
f 335 542 332
f 334 544 543
f 543 335 334
f 545 544 337
f 334 337 544
f 545 336 546
f 336 545 337
f 339 547 546
f 546 336 339
f 339 338 547
f 338 536 547
f 548 549 550
f 548 551 549
f 549 552 553
f 550 549 553
f 549 554 555
f 552 549 555
f 549 556 557
f 554 549 557
f 549 558 559
f 556 549 559
f 549 560 561
f 558 549 561
f 549 562 563
f 560 549 563
f 562 549 564
f 565 564 549
f 566 567 549
f 549 567 565
f 568 569 549
f 549 569 566
f 570 571 549
f 549 571 568
f 572 573 549
f 549 573 570
f 574 575 549
f 549 575 572
f 551 576 549
f 549 576 574
f 577 384 386
f 377 351 578
f 386 364 579
f 579 577 386
f 363 580 364
f 579 364 580
f 581 363 362
f 363 581 580
f 362 361 582
f 582 581 362
f 360 583 361
f 582 361 583
f 584 360 359
f 360 584 583
f 359 358 585
f 585 584 359
f 357 586 358
f 585 358 586
f 587 357 356
f 357 587 586
f 577 588 384
f 385 588 589
f 588 385 384
f 589 590 381
f 381 385 589
f 591 382 590
f 381 590 382
f 383 591 592
f 591 383 382
f 592 593 378
f 378 383 592
f 594 379 593
f 378 593 379
f 380 594 595
f 594 380 379
f 595 596 350
f 350 380 595
f 350 596 351
f 596 578 351
f 374 375 597
f 376 598 599
f 600 371 372
f 601 602 373
f 369 603 368
f 370 604 605
f 365 366 606
f 607 367 608
f 609 352 610
f 611 610 349
f 353 609 612
f 609 353 352
f 612 613 354
f 354 353 612
f 614 355 613
f 354 613 355
f 356 614 587
f 614 356 355
f 365 611 349
f 610 352 349
f 606 366 607
f 611 365 606
f 367 368 608
f 366 367 607
f 369 605 603
f 368 603 608
f 371 604 370
f 370 605 369
f 602 600 372
f 600 604 371
f 601 373 374
f 602 372 373
f 597 375 599
f 601 374 597
f 376 377 598
f 375 376 599
f 578 598 377
f 615 616 398
f 617 618 395
f 619 397 396
f 392 620 621
f 394 393 622
f 623 389 624
f 625 391 390
f 626 627 399
f 387 628 388
f 402 629 630
f 400 401 631
f 404 405 632
f 633 403 404
f 406 634 405
f 632 405 634
f 635 406 407
f 406 635 634
f 407 408 636
f 636 635 407
f 409 637 408
f 636 408 637
f 616 409 398
f 409 616 637
f 629 403 633
f 633 404 632
f 401 402 630
f 402 403 629
f 400 631 626
f 401 630 631
f 399 627 387
f 400 626 399
f 628 624 388
f 627 628 387
f 623 390 389
f 624 389 388
f 620 391 625
f 625 390 623
f 393 392 621
f 392 391 620
f 394 622 617
f 393 621 622
f 395 618 396
f 394 617 395
f 619 615 397
f 618 619 396
f 398 397 615
f 638 639 421
f 640 641 418
f 642 420 419
f 415 643 644
f 417 416 645
f 646 412 647
f 648 414 413
f 649 650 422
f 410 651 411
f 425 652 653
f 423 424 654
f 427 428 655
f 656 426 427
f 429 657 428
f 655 428 657
f 658 429 430
f 429 658 657
f 430 431 659
f 659 658 430
f 432 660 431
f 659 431 660
f 639 432 421
f 432 639 660
f 652 426 656
f 656 427 655
f 424 425 653
f 425 426 652
f 423 654 649
f 424 653 654
f 422 650 410
f 423 649 422
f 651 647 411
f 650 651 410
f 646 413 412
f 647 412 411
f 643 414 648
f 648 413 646
f 416 415 644
f 415 414 643
f 417 645 640
f 416 644 645
f 418 641 419
f 417 640 418
f 642 638 420
f 641 642 419
f 421 420 638
f 661 662 444
f 663 664 441
f 665 443 442
f 438 666 667
f 440 439 668
f 669 435 670
f 671 437 436
f 672 673 445
f 433 674 434
f 448 675 676
f 446 447 677
f 450 451 678
f 679 449 450
f 452 680 451
f 678 451 680
f 681 452 453
f 452 681 680
f 453 454 682
f 682 681 453
f 455 683 454
f 682 454 683
f 662 455 444
f 455 662 683
f 675 449 679
f 679 450 678
f 447 448 676
f 448 449 675
f 446 677 672
f 447 676 677
f 445 673 433
f 446 672 445
f 674 670 434
f 673 674 433
f 669 436 435
f 670 435 434
f 666 437 671
f 671 436 669
f 439 438 667
f 438 437 666
f 440 668 663
f 439 667 668
f 441 664 442
f 440 663 441
f 665 661 443
f 664 665 442
f 444 443 661
f 684 685 467
f 686 687 464
f 688 466 465
f 461 689 690
f 463 462 691
f 692 458 693
f 694 460 459
f 695 696 468
f 456 697 457
f 471 698 699
f 469 470 700
f 473 474 701
f 702 472 473
f 475 703 474
f 701 474 703
f 704 475 476
f 475 704 703
f 476 477 705
f 705 704 476
f 478 706 477
f 705 477 706
f 685 478 467
f 478 685 706
f 698 472 702
f 702 473 701
f 470 471 699
f 471 472 698
f 469 700 695
f 470 699 700
f 468 696 456
f 469 695 468
f 697 693 457
f 696 697 456
f 692 459 458
f 693 458 457
f 689 460 694
f 694 459 692
f 462 461 690
f 461 460 689
f 463 691 686
f 462 690 691
f 464 687 465
f 463 686 464
f 688 684 466
f 687 688 465
f 467 466 684
f 707 708 490
f 709 710 487
f 711 489 488
f 484 712 713
f 486 485 714
f 715 481 716
f 717 483 482
f 718 719 491
f 479 720 480
f 494 721 722
f 492 493 723
f 496 497 724
f 725 495 496
f 498 726 497
f 724 497 726
f 727 498 499
f 498 727 726
f 499 500 728
f 728 727 499
f 501 729 500
f 728 500 729
f 708 501 490
f 501 708 729
f 721 495 725
f 725 496 724
f 493 494 722
f 494 495 721
f 492 723 718
f 493 722 723
f 491 719 479
f 492 718 491
f 720 716 480
f 719 720 479
f 715 482 481
f 716 481 480
f 712 483 717
f 717 482 715
f 485 484 713
f 484 483 712
f 486 714 709
f 485 713 714
f 487 710 488
f 486 709 487
f 711 707 489
f 710 711 488
f 490 489 707
f 730 731 513
f 732 733 510
f 734 512 511
f 507 735 736
f 509 508 737
f 738 504 739
f 740 506 505
f 741 742 514
f 502 743 503
f 517 744 745
f 515 516 746
f 519 520 747
f 748 518 519
f 521 749 520
f 747 520 749
f 750 521 522
f 521 750 749
f 522 523 751
f 751 750 522
f 524 752 523
f 751 523 752
f 731 524 513
f 524 731 752
f 744 518 748
f 748 519 747
f 516 517 745
f 517 518 744
f 515 746 741
f 516 745 746
f 514 742 502
f 515 741 514
f 743 739 503
f 742 743 502
f 738 505 504
f 739 504 503
f 735 506 740
f 740 505 738
f 508 507 736
f 507 506 735
f 509 737 732
f 508 736 737
f 510 733 511
f 509 732 510
f 734 730 512
f 733 734 511
f 513 512 730
f 753 754 536
f 755 756 533
f 757 535 534
f 530 758 759
f 532 531 760
f 761 527 762
f 763 529 528
f 764 765 537
f 525 766 526
f 540 767 768
f 538 539 769
f 542 543 770
f 771 541 542
f 544 772 543
f 770 543 772
f 773 544 545
f 544 773 772
f 545 546 774
f 774 773 545
f 547 775 546
f 774 546 775
f 754 547 536
f 547 754 775
f 767 541 771
f 771 542 770
f 539 540 768
f 540 541 767
f 538 769 764
f 539 768 769
f 537 765 525
f 538 764 537
f 766 762 526
f 765 766 525
f 761 528 527
f 762 527 526
f 758 529 763
f 763 528 761
f 531 530 759
f 530 529 758
f 532 760 755
f 531 759 760
f 533 756 534
f 532 755 533
f 757 753 535
f 756 757 534
f 536 535 753
f 776 551 548
f 576 551 777
f 776 777 551
f 576 778 574
f 778 576 777
f 779 575 574
f 574 778 779
f 572 575 780
f 779 780 575
f 572 781 573
f 781 572 780
f 782 570 573
f 573 781 782
f 571 570 783
f 782 783 570
f 571 784 568
f 784 571 783
f 785 569 568
f 568 784 785
f 566 569 786
f 785 786 569
f 566 787 567
f 787 566 786
f 788 565 567
f 567 787 788
f 564 565 789
f 788 789 565
f 790 564 789
f 791 776 548
f 550 792 791
f 791 548 550
f 793 792 553
f 550 553 792
f 793 552 794
f 552 793 553
f 555 795 794
f 794 552 555
f 796 795 554
f 555 554 795
f 796 557 797
f 557 796 554
f 556 798 797
f 797 557 556
f 799 798 559
f 556 559 798
f 799 558 800
f 558 799 559
f 561 801 800
f 800 558 561
f 802 801 560
f 561 560 801
f 802 563 803
f 563 802 560
f 562 790 803
f 803 563 562
f 562 564 790
f 804 608 603
f 805 806 578
f 607 608 807
f 804 807 608
f 607 808 606
f 808 607 807
f 809 611 606
f 606 808 809
f 610 611 810
f 809 810 611
f 610 811 609
f 811 610 810
f 812 612 609
f 609 811 812
f 613 612 813
f 812 813 612
f 613 814 614
f 814 613 813
f 614 814 815
f 815 587 614
f 816 804 603
f 816 605 817
f 605 816 603
f 604 818 817
f 817 605 604
f 819 818 600
f 604 600 818
f 819 602 820
f 602 819 600
f 601 821 820
f 820 602 601
f 822 821 597
f 601 597 821
f 822 599 823
f 599 822 597
f 598 806 823
f 823 599 598
f 598 578 806
f 824 595 594
f 805 596 825
f 591 826 592
f 593 827 828
f 589 588 829
f 830 590 831
f 832 579 580
f 833 834 577
f 583 835 582
f 581 836 837
f 838 583 584
f 583 838 835
f 584 585 839
f 839 838 584
f 586 840 585
f 839 585 840
f 841 586 587
f 586 841 840
f 815 841 587
f 582 836 581
f 582 835 836
f 837 832 580
f 581 837 580
f 833 577 579
f 832 833 579
f 829 588 834
f 834 588 577
f 590 589 831
f 831 589 829
f 591 830 826
f 591 590 830
f 592 827 593
f 592 826 827
f 828 824 594
f 593 828 594
f 825 596 595
f 824 825 595
f 805 578 596
f 682 842 681
f 843 707 837
f 843 699 844
f 695 843 837
f 844 699 698
f 839 690 838
f 704 705 845
f 829 715 716
f 809 673 672
f 846 740 738
f 815 814 762
f 661 847 842
f 848 650 649
f 652 656 816
f 771 849 767
f 660 850 851
f 852 643 648
f 638 642 853
f 807 804 657
f 807 658 659
f 634 821 632
f 807 659 808
f 619 818 615
f 854 618 617
f 654 653 817
f 682 683 842
f 620 625 855
f 856 792 793
f 675 811 676
f 681 857 680
f 735 740 858
f 716 859 831
f 676 810 677
f 626 631 860
f 630 629 861
f 628 862 624
f 843 695 700
f 863 859 720
f 826 733 827
f 784 783 861
f 864 861 782
f 864 779 778
f 860 631 630
f 861 860 630
f 627 626 862
f 860 862 626
f 862 628 627
f 855 623 862
f 624 862 623
f 620 855 621
f 855 625 623
f 854 622 855
f 621 855 622
f 618 854 619
f 854 617 622
f 819 615 818
f 854 848 619
f 635 820 821
f 850 660 639
f 646 647 865
f 857 681 842
f 811 675 679
f 813 812 680
f 866 754 867
f 822 633 632
f 616 819 637
f 637 819 820
f 819 616 615
f 818 619 848
f 651 650 865
f 848 865 650
f 865 647 651
f 648 646 852
f 865 852 646
f 643 852 644
f 853 645 852
f 644 852 645
f 641 640 853
f 853 640 645
f 853 850 638
f 853 642 641
f 639 638 850
f 834 717 829
f 842 683 662
f 671 669 851
f 677 810 672
f 761 762 814
f 701 844 702
f 844 703 845
f 868 706 685
f 722 721 869
f 816 656 804
f 657 658 807
f 655 657 804
f 808 659 660
f 851 669 670
f 808 660 851
f 870 668 667
f 666 671 870
f 851 870 671
f 870 667 666
f 847 663 870
f 668 870 663
f 665 664 847
f 847 664 663
f 842 662 661
f 847 661 665
f 863 723 869
f 843 700 699
f 845 705 706
f 868 845 706
f 704 845 703
f 703 844 701
f 698 702 844
f 866 774 775
f 836 697 696
f 839 691 690
f 871 729 708
f 633 822 629
f 829 717 715
f 718 863 719
f 749 872 747
f 841 768 840
f 873 849 771
f 768 841 769
f 775 754 866
f 687 686 849
f 873 770 772
f 873 772 866
f 688 687 868
f 849 868 687
f 685 684 868
f 868 684 688
f 726 727 874
f 871 874 729
f 721 725 869
f 874 727 728
f 874 728 729
f 869 724 874
f 726 874 724
f 869 725 724
f 723 722 869
f 718 723 863
f 863 720 719
f 859 716 720
f 831 859 751
f 689 694 838
f 832 711 710
f 713 834 833
f 828 737 736
f 802 803 825
f 692 693 835
f 836 693 697
f 835 693 836
f 837 836 696
f 707 843 871
f 708 707 871
f 739 743 875
f 876 875 746
f 876 745 744
f 872 750 859
f 751 859 750
f 872 749 750
f 748 747 876
f 872 876 747
f 876 744 748
f 746 875 741
f 745 876 746
f 875 743 742
f 741 875 742
f 739 875 846
f 740 846 858
f 739 846 738
f 735 799 824
f 825 824 801
f 787 786 806
f 823 806 786
f 832 710 709
f 823 629 822
f 752 731 830
f 712 834 713
f 832 709 833
f 834 712 717
f 809 674 673
f 873 771 770
f 755 760 877
f 773 866 772
f 774 866 773
f 686 840 849
f 767 849 840
f 830 731 730
f 815 764 841
f 769 841 764
f 815 765 764
f 653 816 817
f 857 813 680
f 679 812 811
f 678 812 679
f 680 812 678
f 877 759 857
f 758 857 759
f 877 760 759
f 756 755 867
f 877 867 755
f 753 757 867
f 867 757 756
f 754 753 867
f 798 858 797
f 734 826 730
f 776 791 878
f 824 828 735
f 827 732 737
f 828 736 735
f 735 858 798
f 799 735 798
f 856 796 858
f 797 858 796
f 794 795 856
f 856 795 796
f 856 793 794
f 878 791 792
f 856 878 792
f 878 778 777
f 776 878 777
f 779 864 780
f 878 864 778
f 864 782 781
f 780 864 781
f 782 861 783
f 784 861 629
f 786 785 823
f 784 629 785
f 806 789 788
f 806 788 787
f 806 805 789
f 629 823 785
f 789 805 790
f 803 790 805
f 813 763 814
f 817 649 654
f 632 821 822
f 820 635 636
f 821 634 635
f 818 649 817
f 818 848 649
f 636 637 820
f 808 670 674
f 652 816 653
f 804 656 655
f 851 670 808
f 809 808 674
f 763 813 758
f 810 809 672
f 758 813 857
f 810 676 811
f 761 814 763
f 766 815 762
f 691 839 686
f 686 839 840
f 815 766 765
f 840 768 767
f 835 838 694
f 689 838 690
f 832 837 711
f 696 695 837
f 835 694 692
f 711 837 707
f 714 833 709
f 831 751 752
f 833 714 713
f 829 716 831
f 830 831 752
f 826 734 733
f 826 830 730
f 827 733 732
f 827 737 828
f 800 824 799
f 801 802 825
f 800 801 824
f 803 805 825
f 879 867 880
f 881 878 882
f 883 880 877
f 867 877 880
f 857 884 883
f 883 877 857
f 884 842 885
f 842 884 857
f 886 885 847
f 842 847 885
f 870 887 886
f 886 847 870
f 887 851 888
f 851 887 870
f 889 888 850
f 851 850 888
f 853 890 889
f 889 850 853
f 890 852 891
f 852 890 853
f 892 891 865
f 852 865 891
f 848 893 892
f 892 865 848
f 893 854 894
f 854 893 848
f 895 894 855
f 854 855 894
f 862 896 895
f 895 855 862
f 896 860 897
f 860 896 862
f 898 897 861
f 860 861 897
f 864 899 898
f 898 861 864
f 878 899 864
f 899 878 881
f 866 867 879
f 900 873 866
f 866 879 900
f 873 901 849
f 901 873 900
f 868 849 902
f 901 902 849
f 903 845 868
f 868 902 903
f 845 904 844
f 904 845 903
f 843 844 905
f 904 905 844
f 906 871 843
f 843 905 906
f 871 907 874
f 907 871 906
f 907 908 874
f 909 869 908
f 874 908 869
f 909 910 863
f 863 869 909
f 859 910 911
f 910 859 863
f 912 872 911
f 859 911 872
f 912 913 876
f 876 872 912
f 875 913 914
f 913 875 876
f 915 846 914
f 875 914 846
f 915 916 858
f 858 846 915
f 856 916 882
f 916 856 858
f 856 882 878
f 909 908 917
f 918 881 919
f 920 908 907
f 908 920 917
f 906 921 907
f 920 907 921
f 906 905 922
f 922 921 906
f 923 905 904
f 905 923 922
f 903 924 904
f 923 904 924
f 903 902 925
f 925 924 903
f 926 902 901
f 902 926 925
f 900 927 901
f 926 901 927
f 900 879 928
f 928 927 900
f 909 917 929
f 929 930 910
f 910 909 929
f 911 930 931
f 930 911 910
f 932 912 931
f 911 931 912
f 932 933 913
f 913 912 932
f 933 914 913
f 915 914 934
f 933 934 914
f 935 916 915
f 915 934 935
f 916 936 882
f 936 916 935
f 881 882 919
f 936 919 882
f 937 897 938
f 939 898 899
f 894 940 941
f 896 942 895
f 943 944 891
f 945 892 893
f 946 888 947
f 889 890 948
f 885 886 949
f 887 950 886
f 951 884 885
f 885 949 951
f 884 952 883
f 952 884 951
f 880 883 953
f 952 953 883
f 928 879 880
f 880 953 928
f 946 950 887
f 886 950 949
f 888 889 947
f 887 888 946
f 948 890 944
f 947 889 948
f 943 891 892
f 944 890 891
f 941 945 893
f 945 943 892
f 895 940 894
f 894 941 893
f 896 937 942
f 895 942 940
f 897 898 938
f 896 897 937
f 939 899 918
f 938 898 939
f 881 918 899
f 922 923 954
f 955 956 928
f 957 953 952
f 958 959 921
f 958 922 954
f 938 960 937
f 959 961 920
f 920 921 959
f 955 928 953
f 962 917 961
f 920 961 917
f 921 922 958
f 962 929 917
f 929 962 963
f 963 930 929
f 964 954 923
f 924 965 964
f 964 923 924
f 966 965 925
f 924 925 965
f 966 926 967
f 926 966 925
f 927 956 967
f 967 926 927
f 927 928 956
f 968 952 951
f 955 953 957
f 946 969 950
f 949 970 971
f 948 944 972
f 973 947 974
f 975 945 941
f 976 977 943
f 937 978 942
f 940 979 980
f 939 918 981
f 960 938 982
f 983 936 984
f 983 985 919
f 935 986 984
f 984 936 935
f 987 986 934
f 935 934 986
f 987 933 988
f 933 987 934
f 932 989 988
f 988 933 932
f 990 989 931
f 932 931 989
f 990 930 963
f 930 990 931
f 919 985 918
f 983 919 936
f 981 982 939
f 982 938 939
f 981 918 985
f 979 942 978
f 978 937 960
f 941 940 980
f 940 942 979
f 941 980 975
f 975 976 945
f 969 970 950
f 944 943 977
f 943 945 976
f 948 972 974
f 944 977 972
f 947 973 946
f 948 974 947
f 973 969 946
f 971 951 949
f 970 949 950
f 957 952 968
f 968 951 971
f 132 957 131
f 954 136 141
f 958 139 959
f 964 965 137
f 961 959 140
f 133 138 966
f 967 956 134
f 963 962 143
f 989 990 147
f 142 990 963
f 130 971 129
f 986 149 984
f 123 981 985
f 120 978 960
f 969 973 127
f 117 975 980
f 977 113 972
f 976 114 977
f 976 975 116
f 978 119 979
f 980 979 118
f 972 125 974
f 960 982 121
f 973 974 126
f 969 128 970
f 982 981 122
f 124 985 983
f 970 128 129
f 958 954 141
f 150 983 984
f 148 986 987
f 957 968 131
f 989 146 988
f 987 988 145
f 955 115 135
f 132 955 957
f 955 132 115
f 968 971 130
f 968 130 131
f 971 970 129
f 969 127 128
f 973 126 127
f 974 125 126
f 972 113 125
f 977 114 113
f 976 116 114
f 975 117 116
f 980 118 117
f 979 119 118
f 978 120 119
f 960 121 120
f 982 122 121
f 981 123 122
f 985 124 123
f 983 150 124
f 984 149 150
f 986 148 149
f 987 145 148
f 988 146 145
f 989 147 146
f 990 142 147
f 963 143 142
f 962 144 143
f 961 140 144
f 961 144 962
f 959 139 140
f 958 141 139
f 964 136 954
f 965 138 137
f 964 137 136
f 966 967 133
f 965 966 138
f 134 956 135
f 133 967 134
f 955 135 956
f 39 31 30
f 75 12 111
f 27 42 30
f 39 30 42
f 27 37 43
f 43 42 27
f 45 37 33
f 37 45 43
f 35 48 33
f 45 33 48
f 35 34 49
f 49 48 35
f 51 34 36
f 34 51 49
f 29 54 36
f 51 36 54
f 29 28 55
f 55 54 29
f 57 28 32
f 28 57 55
f 26 60 32
f 57 32 60
f 26 25 61
f 61 60 26
f 63 25 19
f 25 63 61
f 21 66 19
f 63 19 66
f 21 23 67
f 67 66 21
f 69 23 3
f 23 69 67
f 16 72 3
f 69 3 72
f 16 15 73
f 73 72 16
f 15 75 73
f 75 15 12
f 77 31 39
f 77 79 24
f 24 31 77
f 20 79 81
f 79 20 24
f 82 18 81
f 20 81 18
f 82 85 22
f 22 18 82
f 1 85 87
f 85 1 22
f 88 2 87
f 1 87 2
f 88 91 14
f 14 2 88
f 17 91 93
f 91 17 14
f 96 13 93
f 17 93 13
f 96 98 10
f 10 13 96
f 9 98 99
f 98 9 10
f 102 6 99
f 9 99 6
f 102 104 7
f 7 6 102
f 4 104 105
f 104 4 7
f 108 5 105
f 4 105 5
f 108 110 8
f 8 5 108
f 11 110 111
f 110 11 8
f 11 111 12
f 991 992 993
f 994 995 996
f 991 997 992
f 998 999 991
f 991 999 997
f 998 1000 1001
f 1002 1003 1000
f 1000 1004 1002
f 991 1000 998
f 1003 1001 1000
f 1005 1006 1007
f 1008 1009 995
f 1010 1011 1012
f 1013 1012 1011
f 1010 1014 1015
f 1014 1010 1012
f 1016 1017 1015
f 1015 1014 1016
f 1018 1017 1016
f 1018 1019 1020
f 1020 1017 1018
f 1007 1006 1021
f 994 1022 995
f 1000 1023 1024
f 1025 996 995
f 1026 1027 1005
f 1027 1025 995
f 1028 1029 1005
f 1005 1030 1028
f 995 1005 1027
f 1029 1026 1005
f 1021 991 1031
f 995 1009 1005
f 1032 1033 1034
f 1031 1035 1007
f 1036 1037 1038
f 1038 1039 1040
f 1033 1040 1039
f 1040 1036 1038
f 1032 1034 1035
f 1033 1039 1034
f 1035 1031 1032
f 1000 1024 1019
f 1008 1020 1019
f 991 1021 1023
f 1000 991 1023
f 1031 1007 1021
f 1005 1009 1006
f 1019 1024 1008
f 995 1020 1008
f 1037 1041 1042
f 1043 1038 1042
f 1037 1042 1038
f 1043 1044 1039
f 1039 1038 1043
f 1034 1044 1045
f 1044 1034 1039
f 1046 1035 1045
f 1034 1045 1035
f 1007 1035 1046
f 1036 1041 1037
f 1047 1036 1040
f 1036 1047 1041
f 1033 1048 1040
f 1047 1040 1048
f 1033 1032 1049
f 1049 1048 1033
f 1050 1032 1031
f 1032 1050 1049
f 1050 1031 1051
f 1046 1005 1007
f 1046 1052 1005
f 1027 1053 1054
f 1055 1025 1054
f 1027 1054 1025
f 1055 1056 996
f 996 1025 1055
f 994 1056 1057
f 1056 994 996
f 1058 1022 1057
f 994 1057 1022
f 995 1022 1058
f 1026 1053 1027
f 1059 1026 1029
f 1026 1059 1053
f 1028 1060 1029
f 1059 1029 1060
f 1028 1030 1061
f 1061 1060 1028
f 1062 1030 1005
f 1030 1062 1061
f 1062 1005 1052
f 1058 1020 995
f 1058 1063 1020
f 1013 1064 1065
f 1066 1012 1065
f 1013 1065 1012
f 1066 1067 1014
f 1014 1012 1066
f 1016 1067 1068
f 1067 1016 1014
f 1069 1018 1068
f 1016 1068 1018
f 1019 1018 1069
f 1011 1064 1013
f 1070 1011 1010
f 1011 1070 1064
f 1015 1071 1010
f 1070 1010 1071
f 1015 1017 1072
f 1072 1071 1015
f 1073 1017 1020
f 1017 1073 1072
f 1073 1020 1063
f 1069 1000 1019
f 1069 1074 1000
f 998 1075 1076
f 1077 999 1076
f 998 1076 999
f 1077 1078 997
f 997 999 1077
f 992 1078 1079
f 1078 992 997
f 1080 993 1079
f 992 1079 993
f 991 993 1080
f 1001 1075 998
f 1081 1001 1003
f 1001 1081 1075
f 1002 1082 1003
f 1081 1003 1082
f 1002 1004 1083
f 1083 1082 1002
f 1084 1004 1000
f 1004 1084 1083
f 1084 1000 1074
f 1080 1031 991
f 1080 1051 1031
f 1080 1079 1078
f 1047 1048 1042
f 1042 1041 1047
f 1043 1048 1049
f 1048 1043 1042
f 1050 1044 1049
f 1043 1049 1044
f 1050 1051 1045
f 1045 1044 1050
f 1051 1046 1045
f 1051 1080 1046
f 1078 1077 1080
f 1075 1080 1076
f 1080 1077 1076
f 1075 1081 1074
f 1083 1074 1082
f 1074 1083 1084
f 1080 1075 1074
f 1082 1074 1081
f 1052 1074 1058
f 1063 1058 1069
f 1071 1065 1070
f 1064 1070 1065
f 1071 1072 1066
f 1066 1065 1071
f 1067 1072 1073
f 1072 1067 1066
f 1068 1067 1073
f 1068 1063 1069
f 1063 1068 1073
f 1074 1069 1058
f 1056 1058 1057
f 1080 1074 1052
f 1058 1055 1054
f 1056 1055 1058
f 1053 1059 1052
f 1054 1053 1058
f 1060 1061 1052
f 1062 1052 1061
f 1052 1058 1053
f 1059 1060 1052
f 1052 1046 1080
f 1008 1085 1086
f 1008 1024 1085
f 1024 1087 1085
f 1024 1023 1087
f 1023 1088 1087
f 1023 1021 1088
f 1021 1089 1088
f 1021 1006 1089
f 1006 1090 1089
f 1006 1009 1090
f 1009 1086 1090
f 1009 1008 1086
f 1085 1091 1086
f 1092 1088 1089
f 1093 1089 1090
f 1094 1086 1095
f 1096 1097 1087
f 1098 1099 1088
f 1100 1085 1101
f 1085 1102 1101
f 1085 1100 1091
f 1103 1086 1104
f 1086 1091 1104
f 1105 1086 1106
f 1086 1103 1106
f 1086 1107 1095
f 1086 1105 1107
f 1086 1094 1090
f 1108 1090 1109
f 1090 1094 1109
f 1110 1090 1111
f 1090 1108 1111
f 1090 1112 1093
f 1090 1110 1112
f 1113 1089 1114
f 1089 1093 1114
f 1115 1089 1113
f 1116 1089 1117
f 1089 1115 1117
f 1089 1116 1092
f 1118 1088 1119
f 1088 1092 1119
f 1120 1088 1121
f 1088 1118 1121
f 1088 1122 1098
f 1088 1120 1122
f 1088 1099 1087
f 1123 1087 1124
f 1087 1099 1124
f 1085 1087 1125
f 1087 1123 1096
f 1087 1126 1125
f 1087 1097 1126
f 1127 1085 1128
f 1085 1125 1128
f 1102 1085 1127
f 1095 1129 1094
f 1130 1102 1127
f 1109 1094 1131
f 1129 1131 1094
f 1132 1108 1109
f 1109 1131 1132
f 1108 1133 1111
f 1133 1108 1132
f 1110 1111 1134
f 1133 1134 1111
f 1135 1112 1110
f 1110 1134 1135
f 1112 1136 1093
f 1136 1112 1135
f 1114 1093 1137
f 1136 1137 1093
f 1138 1113 1114
f 1114 1137 1138
f 1139 1113 1138
f 1139 1115 1113
f 1129 1095 1140
f 1107 1141 1140
f 1140 1095 1107
f 1141 1105 1142
f 1105 1141 1107
f 1143 1142 1106
f 1105 1106 1142
f 1103 1144 1143
f 1143 1106 1103
f 1144 1104 1145
f 1104 1144 1103
f 1146 1145 1091
f 1104 1091 1145
f 1100 1147 1146
f 1146 1091 1100
f 1147 1101 1148
f 1101 1147 1100
f 1101 1102 1148
f 1149 1150 1128
f 1148 1102 1130
f 1151 1152 1097
f 1153 1125 1126
f 1154 1124 1155
f 1096 1123 1156
f 1122 1157 1158
f 1098 1159 1099
f 1160 1161 1118
f 1162 1120 1121
f 1092 1163 1119
f 1160 1119 1163
f 1092 1116 1164
f 1164 1163 1092
f 1165 1116 1117
f 1116 1165 1164
f 1115 1166 1117
f 1165 1117 1166
f 1139 1166 1115
f 1161 1121 1118
f 1160 1118 1119
f 1162 1157 1120
f 1161 1162 1121
f 1122 1158 1098
f 1120 1157 1122
f 1099 1159 1155
f 1098 1158 1159
f 1123 1124 1154
f 1124 1099 1155
f 1151 1096 1156
f 1156 1123 1154
f 1152 1126 1097
f 1151 1097 1096
f 1153 1149 1125
f 1152 1153 1126
f 1128 1150 1127
f 1125 1149 1128
f 1130 1127 1150
f 1167 1160 1168
f 1155 1169 1170
f 1159 1171 1169
f 1172 1154 1170
f 1158 1173 1171
f 1172 1174 1151
f 1157 1175 1173
f 1153 1152 1176
f 1162 1177 1175
f 1178 1179 1149
f 1161 1167 1177
f 1180 1147 1148
f 1163 1164 1181
f 1139 1182 1166
f 1136 1183 1137
f 1146 1184 1145
f 1185 1134 1133
f 1186 1143 1187
f 1129 1188 1189
f 1140 1190 1188
f 1191 1185 1132
f 1191 1131 1189
f 1141 1192 1190
f 1135 1134 1193
f 1192 1142 1186
f 1144 1194 1187
f 1136 1135 1195
f 1196 1138 1137
f 1197 1194 1145
f 1156 1172 1151
f 1138 1198 1139
f 1166 1199 1165
f 1180 1200 1147
f 1148 1201 1180
f 1165 1202 1164
f 1168 1163 1203
f 1148 1130 1201
f 1130 1150 1204
f 1200 1184 1146
f 1200 1146 1147
f 1184 1197 1145
f 1194 1144 1145
f 1187 1143 1144
f 1186 1142 1143
f 1192 1141 1142
f 1190 1140 1141
f 1188 1129 1140
f 1189 1131 1129
f 1191 1132 1131
f 1185 1133 1132
f 1185 1193 1134
f 1193 1195 1135
f 1195 1183 1136
f 1183 1196 1137
f 1196 1198 1138
f 1198 1182 1139
f 1182 1199 1166
f 1199 1202 1165
f 1202 1181 1164
f 1181 1203 1163
f 1168 1160 1163
f 1167 1161 1160
f 1177 1162 1161
f 1175 1157 1162
f 1173 1158 1157
f 1171 1159 1158
f 1169 1155 1159
f 1170 1154 1155
f 1172 1156 1154
f 1174 1152 1151
f 1176 1178 1153
f 1174 1176 1152
f 1149 1179 1150
f 1153 1178 1149
f 1130 1204 1201
f 1150 1179 1204
f 1190 1205 1188
f 1206 1201 1204
f 1189 1188 1207
f 1205 1207 1188
f 1208 1191 1189
f 1189 1207 1208
f 1191 1209 1185
f 1209 1191 1208
f 1193 1185 1210
f 1209 1210 1185
f 1211 1195 1193
f 1193 1210 1211
f 1195 1212 1183
f 1212 1195 1211
f 1196 1183 1213
f 1212 1213 1183
f 1214 1198 1196
f 1196 1213 1214
f 1215 1198 1214
f 1215 1182 1198
f 1205 1190 1216
f 1192 1217 1216
f 1216 1190 1192
f 1217 1186 1218
f 1186 1217 1192
f 1219 1218 1187
f 1186 1187 1218
f 1194 1220 1219
f 1219 1187 1194
f 1220 1197 1221
f 1197 1220 1194
f 1222 1221 1184
f 1197 1184 1221
f 1200 1223 1222
f 1222 1184 1200
f 1223 1180 1224
f 1180 1223 1200
f 1180 1201 1224
f 1225 1226 1179
f 1224 1201 1206
f 1227 1228 1174
f 1229 1178 1176
f 1230 1169 1231
f 1172 1170 1232
f 1175 1233 1234
f 1173 1235 1171
f 1236 1237 1168
f 1238 1177 1167
f 1181 1239 1203
f 1236 1203 1239
f 1181 1202 1240
f 1240 1239 1181
f 1241 1202 1199
f 1202 1241 1240
f 1182 1242 1199
f 1241 1199 1242
f 1215 1242 1182
f 1237 1167 1168
f 1236 1168 1203
f 1238 1233 1177
f 1237 1238 1167
f 1175 1234 1173
f 1177 1233 1175
f 1171 1235 1231
f 1173 1234 1235
f 1170 1169 1230
f 1169 1171 1231
f 1227 1172 1232
f 1232 1170 1230
f 1228 1176 1174
f 1227 1174 1172
f 1229 1225 1178
f 1228 1229 1176
f 1179 1226 1204
f 1178 1225 1179
f 1206 1204 1226
f 1206 1233 1238
f 1230 1228 1227
f 1227 1232 1230
f 1228 1231 1229
f 1231 1228 1230
f 1225 1229 1235
f 1231 1235 1229
f 1234 1226 1225
f 1225 1235 1234
f 1226 1233 1206
f 1233 1226 1234
f 1222 1223 1236
f 1238 1237 1224
f 1239 1240 1221
f 1218 1242 1215
f 1220 1241 1219
f 1213 1212 1205
f 1214 1216 1217
f 1210 1209 1208
f 1208 1207 1211
f 1212 1211 1207
f 1211 1210 1208
f 1205 1212 1207
f 1214 1213 1216
f 1216 1213 1205
f 1218 1215 1217
f 1217 1215 1214
f 1219 1241 1242
f 1218 1219 1242
f 1220 1221 1240
f 1241 1220 1240
f 1239 1222 1236
f 1239 1221 1222
f 1237 1223 1224
f 1237 1236 1223
f 1224 1206 1238
f 1243 1244 1245
f 1243 1246 1244
f 1246 1247 1244
f 1246 1248 1247
f 1248 1249 1247
f 1248 1250 1249
f 1250 1251 1249
f 1250 1252 1251
f 1252 1253 1251
f 1252 1254 1253
f 1254 1245 1253
f 1254 1243 1245
f 1251 1255 1256
f 1257 1247 1249
f 1253 1245 1258
f 1253 1259 1260
f 1247 1261 1262
f 1263 1245 1264
f 1245 1265 1264
f 1245 1263 1258
f 1266 1253 1267
f 1253 1258 1267
f 1268 1253 1269
f 1253 1266 1269
f 1253 1270 1259
f 1253 1268 1270
f 1271 1251 1260
f 1253 1260 1251
f 1272 1251 1273
f 1251 1271 1273
f 1251 1274 1255
f 1251 1272 1274
f 1275 1249 1256
f 1251 1256 1249
f 1276 1249 1277
f 1249 1275 1277
f 1278 1249 1279
f 1249 1276 1279
f 1249 1278 1257
f 1280 1247 1281
f 1247 1257 1281
f 1282 1247 1283
f 1247 1280 1283
f 1247 1284 1261
f 1247 1282 1284
f 1285 1244 1262
f 1247 1262 1244
f 1286 1244 1287
f 1244 1285 1287
f 1288 1244 1289
f 1244 1290 1289
f 1244 1286 1290
f 1291 1245 1288
f 1244 1288 1245
f 1265 1245 1292
f 1245 1291 1292
f 1248 1243 1250
f 1252 1250 1254
f 1254 1250 1243
f 1243 1248 1246
f 1259 1293 1260
f 1294 1265 1292
f 1271 1260 1295
f 1293 1295 1260
f 1296 1273 1271
f 1271 1295 1296
f 1273 1297 1272
f 1297 1273 1296
f 1274 1272 1298
f 1297 1298 1272
f 1299 1255 1274
f 1274 1298 1299
f 1255 1300 1256
f 1300 1255 1299
f 1275 1256 1301
f 1300 1301 1256
f 1302 1277 1275
f 1275 1301 1302
f 1303 1277 1302
f 1303 1276 1277
f 1293 1259 1304
f 1270 1305 1304
f 1304 1259 1270
f 1305 1268 1306
f 1268 1305 1270
f 1307 1306 1269
f 1268 1269 1306
f 1266 1308 1307
f 1307 1269 1266
f 1308 1267 1309
f 1267 1308 1266
f 1310 1309 1258
f 1267 1258 1309
f 1263 1311 1310
f 1310 1258 1263
f 1311 1264 1312
f 1264 1311 1263
f 1264 1265 1312
f 1313 1314 1291
f 1312 1265 1294
f 1315 1316 1290
f 1317 1288 1289
f 1318 1285 1319
f 1286 1287 1320
f 1284 1321 1322
f 1261 1323 1262
f 1324 1325 1280
f 1326 1282 1283
f 1257 1327 1281
f 1324 1281 1327
f 1257 1278 1328
f 1328 1327 1257
f 1329 1278 1279
f 1278 1329 1328
f 1276 1330 1279
f 1329 1279 1330
f 1303 1330 1276
f 1325 1283 1280
f 1324 1280 1281
f 1326 1321 1282
f 1325 1326 1283
f 1284 1322 1261
f 1282 1321 1284
f 1262 1323 1319
f 1261 1322 1323
f 1287 1285 1318
f 1285 1262 1319
f 1315 1286 1320
f 1320 1287 1318
f 1316 1289 1290
f 1315 1290 1286
f 1317 1313 1288
f 1316 1317 1289
f 1291 1314 1292
f 1288 1313 1291
f 1294 1292 1314
f 1331 1324 1332
f 1319 1333 1334
f 1323 1335 1333
f 1336 1318 1334
f 1322 1337 1335
f 1336 1338 1315
f 1321 1339 1337
f 1317 1316 1340
f 1326 1341 1339
f 1342 1343 1313
f 1325 1331 1341
f 1344 1311 1312
f 1345 1327 1328
f 1303 1346 1330
f 1300 1347 1301
f 1310 1348 1309
f 1349 1298 1297
f 1350 1307 1351
f 1293 1352 1353
f 1304 1354 1352
f 1355 1349 1296
f 1355 1295 1353
f 1305 1356 1354
f 1299 1298 1357
f 1356 1306 1350
f 1308 1358 1351
f 1300 1299 1359
f 1360 1302 1301
f 1361 1358 1309
f 1320 1336 1315
f 1302 1362 1303
f 1330 1363 1329
f 1344 1364 1311
f 1312 1365 1344
f 1329 1366 1328
f 1294 1314 1367
f 1294 1365 1312
f 1327 1368 1332
f 1364 1348 1310
f 1364 1310 1311
f 1348 1361 1309
f 1358 1308 1309
f 1351 1307 1308
f 1350 1306 1307
f 1356 1305 1306
f 1354 1304 1305
f 1352 1293 1304
f 1353 1295 1293
f 1355 1296 1295
f 1349 1297 1296
f 1349 1357 1298
f 1357 1359 1299
f 1359 1347 1300
f 1347 1360 1301
f 1360 1362 1302
f 1362 1346 1303
f 1346 1363 1330
f 1363 1366 1329
f 1366 1345 1328
f 1345 1368 1327
f 1332 1324 1327
f 1331 1325 1324
f 1341 1326 1325
f 1339 1321 1326
f 1337 1322 1321
f 1335 1323 1322
f 1333 1319 1323
f 1334 1318 1319
f 1336 1320 1318
f 1338 1316 1315
f 1340 1342 1317
f 1338 1340 1316
f 1313 1343 1314
f 1317 1342 1313
f 1294 1367 1365
f 1314 1343 1367
f 1354 1369 1352
f 1370 1365 1367
f 1353 1352 1371
f 1369 1371 1352
f 1372 1355 1353
f 1353 1371 1372
f 1355 1373 1349
f 1373 1355 1372
f 1357 1349 1374
f 1373 1374 1349
f 1375 1359 1357
f 1357 1374 1375
f 1359 1376 1347
f 1376 1359 1375
f 1360 1347 1377
f 1376 1377 1347
f 1378 1362 1360
f 1360 1377 1378
f 1379 1362 1378
f 1379 1346 1362
f 1369 1354 1380
f 1356 1381 1380
f 1380 1354 1356
f 1381 1350 1382
f 1350 1381 1356
f 1383 1382 1351
f 1350 1351 1382
f 1358 1384 1383
f 1383 1351 1358
f 1384 1361 1385
f 1361 1384 1358
f 1386 1385 1348
f 1361 1348 1385
f 1364 1387 1386
f 1386 1348 1364
f 1387 1344 1388
f 1344 1387 1364
f 1344 1365 1388
f 1389 1390 1343
f 1388 1365 1370
f 1391 1392 1338
f 1393 1342 1340
f 1394 1333 1395
f 1336 1334 1396
f 1339 1397 1398
f 1337 1399 1335
f 1400 1401 1332
f 1402 1341 1331
f 1345 1403 1368
f 1400 1368 1403
f 1345 1366 1404
f 1404 1403 1345
f 1405 1366 1363
f 1366 1405 1404
f 1346 1406 1363
f 1405 1363 1406
f 1379 1406 1346
f 1401 1331 1332
f 1400 1332 1368
f 1402 1397 1341
f 1401 1402 1331
f 1339 1398 1337
f 1341 1397 1339
f 1335 1399 1395
f 1337 1398 1399
f 1334 1333 1394
f 1333 1335 1395
f 1391 1336 1396
f 1396 1334 1394
f 1392 1340 1338
f 1391 1338 1336
f 1393 1389 1342
f 1392 1393 1340
f 1343 1390 1367
f 1342 1389 1343
f 1370 1367 1390
f 1370 1397 1402
f 1394 1392 1391
f 1391 1396 1394
f 1392 1395 1393
f 1395 1392 1394
f 1389 1393 1399
f 1395 1399 1393
f 1398 1390 1389
f 1389 1399 1398
f 1390 1397 1370
f 1397 1390 1398
f 1386 1387 1400
f 1402 1401 1388
f 1403 1404 1385
f 1382 1406 1379
f 1384 1405 1383
f 1377 1376 1369
f 1378 1380 1381
f 1374 1373 1372
f 1372 1371 1375
f 1376 1375 1371
f 1375 1374 1372
f 1369 1376 1371
f 1378 1377 1380
f 1380 1377 1369
f 1382 1379 1381
f 1381 1379 1378
f 1383 1405 1406
f 1382 1383 1406
f 1384 1385 1404
f 1405 1384 1404
f 1403 1386 1400
f 1403 1385 1386
f 1401 1387 1388
f 1401 1400 1387
f 1388 1370 1402

